<?xml version="1.0" encoding="utf-8"?>
<svg xmlns="http://www.w3.org/2000/svg" xmlns:xlink="http://www.w3.org/1999/xlink" width="672" height="480" viewBox="0 0 2688 1920">
<defs>
  <clipPath id="clip360">
    <rect x="0" y="0" width="2688" height="1920"/>
  </clipPath>
</defs>
<path clip-path="url(#clip360)" d="M0 1920 L2688 1920 L2688 0 L0 0  Z" fill="#ffffff" fill-rule="evenodd" fill-opacity="1"/>
<defs>
  <clipPath id="clip361">
    <rect x="537" y="0" width="1883" height="1883"/>
  </clipPath>
</defs>
<path clip-path="url(#clip360)" d="M174.895 1800.78 L2640.76 1800.78 L2640.76 127.792 L174.895 127.792  Z" fill="#ffffff" fill-rule="evenodd" fill-opacity="1"/>
<defs>
  <clipPath id="clip362">
    <rect x="174" y="127" width="2467" height="1674"/>
  </clipPath>
</defs>
<polyline clip-path="url(#clip362)" style="stroke:#000000; stroke-linecap:round; stroke-linejoin:round; stroke-width:2; stroke-opacity:0.1; fill:none" points="244.683,1800.78 244.683,127.792 "/>
<polyline clip-path="url(#clip362)" style="stroke:#000000; stroke-linecap:round; stroke-linejoin:round; stroke-width:2; stroke-opacity:0.1; fill:none" points="826.254,1800.78 826.254,127.792 "/>
<polyline clip-path="url(#clip362)" style="stroke:#000000; stroke-linecap:round; stroke-linejoin:round; stroke-width:2; stroke-opacity:0.1; fill:none" points="1407.83,1800.78 1407.83,127.792 "/>
<polyline clip-path="url(#clip362)" style="stroke:#000000; stroke-linecap:round; stroke-linejoin:round; stroke-width:2; stroke-opacity:0.1; fill:none" points="1989.4,1800.78 1989.4,127.792 "/>
<polyline clip-path="url(#clip362)" style="stroke:#000000; stroke-linecap:round; stroke-linejoin:round; stroke-width:2; stroke-opacity:0.1; fill:none" points="2570.97,1800.78 2570.97,127.792 "/>
<polyline clip-path="url(#clip360)" style="stroke:#000000; stroke-linecap:round; stroke-linejoin:round; stroke-width:4; stroke-opacity:1; fill:none" points="174.895,1800.78 2640.76,1800.78 "/>
<polyline clip-path="url(#clip360)" style="stroke:#000000; stroke-linecap:round; stroke-linejoin:round; stroke-width:4; stroke-opacity:1; fill:none" points="244.683,1800.78 244.683,1781.88 "/>
<polyline clip-path="url(#clip360)" style="stroke:#000000; stroke-linecap:round; stroke-linejoin:round; stroke-width:4; stroke-opacity:1; fill:none" points="826.254,1800.78 826.254,1781.88 "/>
<polyline clip-path="url(#clip360)" style="stroke:#000000; stroke-linecap:round; stroke-linejoin:round; stroke-width:4; stroke-opacity:1; fill:none" points="1407.83,1800.78 1407.83,1781.88 "/>
<polyline clip-path="url(#clip360)" style="stroke:#000000; stroke-linecap:round; stroke-linejoin:round; stroke-width:4; stroke-opacity:1; fill:none" points="1989.4,1800.78 1989.4,1781.88 "/>
<polyline clip-path="url(#clip360)" style="stroke:#000000; stroke-linecap:round; stroke-linejoin:round; stroke-width:4; stroke-opacity:1; fill:none" points="2570.97,1800.78 2570.97,1781.88 "/>
<path clip-path="url(#clip360)" d="M206.987 1834 Q203.376 1834 201.547 1837.57 Q199.741 1841.11 199.741 1848.24 Q199.741 1855.34 201.547 1858.91 Q203.376 1862.45 206.987 1862.45 Q210.621 1862.45 212.427 1858.91 Q214.255 1855.34 214.255 1848.24 Q214.255 1841.11 212.427 1837.57 Q210.621 1834 206.987 1834 M206.987 1830.3 Q212.797 1830.3 215.852 1834.9 Q218.931 1839.49 218.931 1848.24 Q218.931 1856.96 215.852 1861.57 Q212.797 1866.15 206.987 1866.15 Q201.177 1866.15 198.098 1861.57 Q195.042 1856.96 195.042 1848.24 Q195.042 1839.49 198.098 1834.9 Q201.177 1830.3 206.987 1830.3 Z" fill="#000000" fill-rule="nonzero" fill-opacity="1" /><path clip-path="url(#clip360)" d="M227.149 1859.6 L232.033 1859.6 L232.033 1865.48 L227.149 1865.48 L227.149 1859.6 Z" fill="#000000" fill-rule="nonzero" fill-opacity="1" /><path clip-path="url(#clip360)" d="M252.218 1834 Q248.607 1834 246.778 1837.57 Q244.973 1841.11 244.973 1848.24 Q244.973 1855.34 246.778 1858.91 Q248.607 1862.45 252.218 1862.45 Q255.852 1862.45 257.658 1858.91 Q259.487 1855.34 259.487 1848.24 Q259.487 1841.11 257.658 1837.57 Q255.852 1834 252.218 1834 M252.218 1830.3 Q258.028 1830.3 261.084 1834.9 Q264.162 1839.49 264.162 1848.24 Q264.162 1856.96 261.084 1861.57 Q258.028 1866.15 252.218 1866.15 Q246.408 1866.15 243.329 1861.57 Q240.274 1856.96 240.274 1848.24 Q240.274 1839.49 243.329 1834.9 Q246.408 1830.3 252.218 1830.3 Z" fill="#000000" fill-rule="nonzero" fill-opacity="1" /><path clip-path="url(#clip360)" d="M282.38 1834 Q278.769 1834 276.94 1837.57 Q275.135 1841.11 275.135 1848.24 Q275.135 1855.34 276.94 1858.91 Q278.769 1862.45 282.38 1862.45 Q286.014 1862.45 287.82 1858.91 Q289.648 1855.34 289.648 1848.24 Q289.648 1841.11 287.82 1837.57 Q286.014 1834 282.38 1834 M282.38 1830.3 Q288.19 1830.3 291.246 1834.9 Q294.324 1839.49 294.324 1848.24 Q294.324 1856.96 291.246 1861.57 Q288.19 1866.15 282.38 1866.15 Q276.57 1866.15 273.491 1861.57 Q270.436 1856.96 270.436 1848.24 Q270.436 1839.49 273.491 1834.9 Q276.57 1830.3 282.38 1830.3 Z" fill="#000000" fill-rule="nonzero" fill-opacity="1" /><path clip-path="url(#clip360)" d="M789.055 1834 Q785.444 1834 783.616 1837.57 Q781.81 1841.11 781.81 1848.24 Q781.81 1855.34 783.616 1858.91 Q785.444 1862.45 789.055 1862.45 Q792.69 1862.45 794.495 1858.91 Q796.324 1855.34 796.324 1848.24 Q796.324 1841.11 794.495 1837.57 Q792.69 1834 789.055 1834 M789.055 1830.3 Q794.866 1830.3 797.921 1834.9 Q801 1839.49 801 1848.24 Q801 1856.96 797.921 1861.57 Q794.866 1866.15 789.055 1866.15 Q783.245 1866.15 780.167 1861.57 Q777.111 1856.96 777.111 1848.24 Q777.111 1839.49 780.167 1834.9 Q783.245 1830.3 789.055 1830.3 Z" fill="#000000" fill-rule="nonzero" fill-opacity="1" /><path clip-path="url(#clip360)" d="M809.217 1859.6 L814.102 1859.6 L814.102 1865.48 L809.217 1865.48 L809.217 1859.6 Z" fill="#000000" fill-rule="nonzero" fill-opacity="1" /><path clip-path="url(#clip360)" d="M828.315 1861.55 L844.634 1861.55 L844.634 1865.48 L822.69 1865.48 L822.69 1861.55 Q825.352 1858.79 829.935 1854.16 Q834.541 1849.51 835.722 1848.17 Q837.967 1845.65 838.847 1843.91 Q839.75 1842.15 839.75 1840.46 Q839.75 1837.71 837.805 1835.97 Q835.884 1834.23 832.782 1834.23 Q830.583 1834.23 828.129 1835 Q825.699 1835.76 822.921 1837.31 L822.921 1832.59 Q825.745 1831.46 828.199 1830.88 Q830.652 1830.3 832.69 1830.3 Q838.06 1830.3 841.254 1832.98 Q844.449 1835.67 844.449 1840.16 Q844.449 1842.29 843.639 1844.21 Q842.851 1846.11 840.745 1848.7 Q840.166 1849.37 837.064 1852.59 Q833.963 1855.78 828.315 1861.55 Z" fill="#000000" fill-rule="nonzero" fill-opacity="1" /><path clip-path="url(#clip360)" d="M854.495 1830.92 L872.851 1830.92 L872.851 1834.86 L858.777 1834.86 L858.777 1843.33 Q859.796 1842.98 860.814 1842.82 Q861.833 1842.64 862.851 1842.64 Q868.638 1842.64 872.018 1845.81 Q875.398 1848.98 875.398 1854.4 Q875.398 1859.97 871.925 1863.08 Q868.453 1866.15 862.134 1866.15 Q859.958 1866.15 857.689 1865.78 Q855.444 1865.41 853.037 1864.67 L853.037 1859.97 Q855.12 1861.11 857.342 1861.66 Q859.564 1862.22 862.041 1862.22 Q866.046 1862.22 868.384 1860.11 Q870.722 1858.01 870.722 1854.4 Q870.722 1850.78 868.384 1848.68 Q866.046 1846.57 862.041 1846.57 Q860.166 1846.57 858.291 1846.99 Q856.439 1847.4 854.495 1848.28 L854.495 1830.92 Z" fill="#000000" fill-rule="nonzero" fill-opacity="1" /><path clip-path="url(#clip360)" d="M1370.13 1834 Q1366.52 1834 1364.69 1837.57 Q1362.88 1841.11 1362.88 1848.24 Q1362.88 1855.34 1364.69 1858.91 Q1366.52 1862.45 1370.13 1862.45 Q1373.76 1862.45 1375.57 1858.91 Q1377.4 1855.34 1377.4 1848.24 Q1377.4 1841.11 1375.57 1837.57 Q1373.76 1834 1370.13 1834 M1370.13 1830.3 Q1375.94 1830.3 1378.99 1834.9 Q1382.07 1839.49 1382.07 1848.24 Q1382.07 1856.96 1378.99 1861.57 Q1375.94 1866.15 1370.13 1866.15 Q1364.32 1866.15 1361.24 1861.57 Q1358.18 1856.96 1358.18 1848.24 Q1358.18 1839.49 1361.24 1834.9 Q1364.32 1830.3 1370.13 1830.3 Z" fill="#000000" fill-rule="nonzero" fill-opacity="1" /><path clip-path="url(#clip360)" d="M1390.29 1859.6 L1395.17 1859.6 L1395.17 1865.48 L1390.29 1865.48 L1390.29 1859.6 Z" fill="#000000" fill-rule="nonzero" fill-opacity="1" /><path clip-path="url(#clip360)" d="M1405.41 1830.92 L1423.76 1830.92 L1423.76 1834.86 L1409.69 1834.86 L1409.69 1843.33 Q1410.71 1842.98 1411.73 1842.82 Q1412.74 1842.64 1413.76 1842.64 Q1419.55 1842.64 1422.93 1845.81 Q1426.31 1848.98 1426.31 1854.4 Q1426.31 1859.97 1422.84 1863.08 Q1419.36 1866.15 1413.05 1866.15 Q1410.87 1866.15 1408.6 1865.78 Q1406.36 1865.41 1403.95 1864.67 L1403.95 1859.97 Q1406.03 1861.11 1408.25 1861.66 Q1410.48 1862.22 1412.95 1862.22 Q1416.96 1862.22 1419.3 1860.11 Q1421.63 1858.01 1421.63 1854.4 Q1421.63 1850.78 1419.3 1848.68 Q1416.96 1846.57 1412.95 1846.57 Q1411.08 1846.57 1409.2 1846.99 Q1407.35 1847.4 1405.41 1848.28 L1405.41 1830.92 Z" fill="#000000" fill-rule="nonzero" fill-opacity="1" /><path clip-path="url(#clip360)" d="M1445.52 1834 Q1441.91 1834 1440.08 1837.57 Q1438.28 1841.11 1438.28 1848.24 Q1438.28 1855.34 1440.08 1858.91 Q1441.91 1862.45 1445.52 1862.45 Q1449.16 1862.45 1450.96 1858.91 Q1452.79 1855.34 1452.79 1848.24 Q1452.79 1841.11 1450.96 1837.57 Q1449.16 1834 1445.52 1834 M1445.52 1830.3 Q1451.33 1830.3 1454.39 1834.9 Q1457.47 1839.49 1457.47 1848.24 Q1457.47 1856.96 1454.39 1861.57 Q1451.33 1866.15 1445.52 1866.15 Q1439.71 1866.15 1436.63 1861.57 Q1433.58 1856.96 1433.58 1848.24 Q1433.58 1839.49 1436.63 1834.9 Q1439.71 1830.3 1445.52 1830.3 Z" fill="#000000" fill-rule="nonzero" fill-opacity="1" /><path clip-path="url(#clip360)" d="M1952.2 1834 Q1948.59 1834 1946.76 1837.57 Q1944.95 1841.11 1944.95 1848.24 Q1944.95 1855.34 1946.76 1858.91 Q1948.59 1862.45 1952.2 1862.45 Q1955.83 1862.45 1957.64 1858.91 Q1959.47 1855.34 1959.47 1848.24 Q1959.47 1841.11 1957.64 1837.57 Q1955.83 1834 1952.2 1834 M1952.2 1830.3 Q1958.01 1830.3 1961.06 1834.9 Q1964.14 1839.49 1964.14 1848.24 Q1964.14 1856.96 1961.06 1861.57 Q1958.01 1866.15 1952.2 1866.15 Q1946.39 1866.15 1943.31 1861.57 Q1940.25 1856.96 1940.25 1848.24 Q1940.25 1839.49 1943.31 1834.9 Q1946.39 1830.3 1952.2 1830.3 Z" fill="#000000" fill-rule="nonzero" fill-opacity="1" /><path clip-path="url(#clip360)" d="M1972.36 1859.6 L1977.24 1859.6 L1977.24 1865.48 L1972.36 1865.48 L1972.36 1859.6 Z" fill="#000000" fill-rule="nonzero" fill-opacity="1" /><path clip-path="url(#clip360)" d="M1986.25 1830.92 L2008.47 1830.92 L2008.47 1832.91 L1995.92 1865.48 L1991.04 1865.48 L2002.85 1834.86 L1986.25 1834.86 L1986.25 1830.92 Z" fill="#000000" fill-rule="nonzero" fill-opacity="1" /><path clip-path="url(#clip360)" d="M2017.64 1830.92 L2035.99 1830.92 L2035.99 1834.86 L2021.92 1834.86 L2021.92 1843.33 Q2022.94 1842.98 2023.96 1842.82 Q2024.97 1842.64 2025.99 1842.64 Q2031.78 1842.64 2035.16 1845.81 Q2038.54 1848.98 2038.54 1854.4 Q2038.54 1859.97 2035.07 1863.08 Q2031.6 1866.15 2025.28 1866.15 Q2023.1 1866.15 2020.83 1865.78 Q2018.59 1865.41 2016.18 1864.67 L2016.18 1859.97 Q2018.26 1861.11 2020.48 1861.66 Q2022.71 1862.22 2025.18 1862.22 Q2029.19 1862.22 2031.53 1860.11 Q2033.86 1858.01 2033.86 1854.4 Q2033.86 1850.78 2031.53 1848.68 Q2029.19 1846.57 2025.18 1846.57 Q2023.31 1846.57 2021.43 1846.99 Q2019.58 1847.4 2017.64 1848.28 L2017.64 1830.92 Z" fill="#000000" fill-rule="nonzero" fill-opacity="1" /><path clip-path="url(#clip360)" d="M2523.04 1861.55 L2530.68 1861.55 L2530.68 1835.18 L2522.37 1836.85 L2522.37 1832.59 L2530.63 1830.92 L2535.31 1830.92 L2535.31 1861.55 L2542.95 1861.55 L2542.95 1865.48 L2523.04 1865.48 L2523.04 1861.55 Z" fill="#000000" fill-rule="nonzero" fill-opacity="1" /><path clip-path="url(#clip360)" d="M2552.39 1859.6 L2557.28 1859.6 L2557.28 1865.48 L2552.39 1865.48 L2552.39 1859.6 Z" fill="#000000" fill-rule="nonzero" fill-opacity="1" /><path clip-path="url(#clip360)" d="M2577.46 1834 Q2573.85 1834 2572.02 1837.57 Q2570.22 1841.11 2570.22 1848.24 Q2570.22 1855.34 2572.02 1858.91 Q2573.85 1862.45 2577.46 1862.45 Q2581.09 1862.45 2582.9 1858.91 Q2584.73 1855.34 2584.73 1848.24 Q2584.73 1841.11 2582.9 1837.57 Q2581.09 1834 2577.46 1834 M2577.46 1830.3 Q2583.27 1830.3 2586.33 1834.9 Q2589.4 1839.49 2589.4 1848.24 Q2589.4 1856.96 2586.33 1861.57 Q2583.27 1866.15 2577.46 1866.15 Q2571.65 1866.15 2568.57 1861.57 Q2565.52 1856.96 2565.52 1848.24 Q2565.52 1839.49 2568.57 1834.9 Q2571.65 1830.3 2577.46 1830.3 Z" fill="#000000" fill-rule="nonzero" fill-opacity="1" /><path clip-path="url(#clip360)" d="M2607.62 1834 Q2604.01 1834 2602.18 1837.57 Q2600.38 1841.11 2600.38 1848.24 Q2600.38 1855.34 2602.18 1858.91 Q2604.01 1862.45 2607.62 1862.45 Q2611.26 1862.45 2613.06 1858.91 Q2614.89 1855.34 2614.89 1848.24 Q2614.89 1841.11 2613.06 1837.57 Q2611.26 1834 2607.62 1834 M2607.62 1830.3 Q2613.43 1830.3 2616.49 1834.9 Q2619.57 1839.49 2619.57 1848.24 Q2619.57 1856.96 2616.49 1861.57 Q2613.43 1866.15 2607.62 1866.15 Q2601.81 1866.15 2598.73 1861.57 Q2595.68 1856.96 2595.68 1848.24 Q2595.68 1839.49 2598.73 1834.9 Q2601.81 1830.3 2607.62 1830.3 Z" fill="#000000" fill-rule="nonzero" fill-opacity="1" /><polyline clip-path="url(#clip362)" style="stroke:#000000; stroke-linecap:round; stroke-linejoin:round; stroke-width:2; stroke-opacity:0.1; fill:none" points="174.895,1447.45 2640.76,1447.45 "/>
<polyline clip-path="url(#clip362)" style="stroke:#000000; stroke-linecap:round; stroke-linejoin:round; stroke-width:2; stroke-opacity:0.1; fill:none" points="174.895,1044.83 2640.76,1044.83 "/>
<polyline clip-path="url(#clip362)" style="stroke:#000000; stroke-linecap:round; stroke-linejoin:round; stroke-width:2; stroke-opacity:0.1; fill:none" points="174.895,642.215 2640.76,642.215 "/>
<polyline clip-path="url(#clip362)" style="stroke:#000000; stroke-linecap:round; stroke-linejoin:round; stroke-width:2; stroke-opacity:0.1; fill:none" points="174.895,239.6 2640.76,239.6 "/>
<polyline clip-path="url(#clip360)" style="stroke:#000000; stroke-linecap:round; stroke-linejoin:round; stroke-width:4; stroke-opacity:1; fill:none" points="174.895,1800.78 174.895,127.792 "/>
<polyline clip-path="url(#clip360)" style="stroke:#000000; stroke-linecap:round; stroke-linejoin:round; stroke-width:4; stroke-opacity:1; fill:none" points="174.895,1447.45 193.792,1447.45 "/>
<polyline clip-path="url(#clip360)" style="stroke:#000000; stroke-linecap:round; stroke-linejoin:round; stroke-width:4; stroke-opacity:1; fill:none" points="174.895,1044.83 193.792,1044.83 "/>
<polyline clip-path="url(#clip360)" style="stroke:#000000; stroke-linecap:round; stroke-linejoin:round; stroke-width:4; stroke-opacity:1; fill:none" points="174.895,642.215 193.792,642.215 "/>
<polyline clip-path="url(#clip360)" style="stroke:#000000; stroke-linecap:round; stroke-linejoin:round; stroke-width:4; stroke-opacity:1; fill:none" points="174.895,239.6 193.792,239.6 "/>
<path clip-path="url(#clip360)" d="M53.1169 1460.79 L60.7558 1460.79 L60.7558 1434.42 L52.4456 1436.09 L52.4456 1431.83 L60.7095 1430.17 L65.3854 1430.17 L65.3854 1460.79 L73.0242 1460.79 L73.0242 1464.73 L53.1169 1464.73 L53.1169 1460.79 Z" fill="#000000" fill-rule="nonzero" fill-opacity="1" /><path clip-path="url(#clip360)" d="M92.4686 1433.24 Q88.8575 1433.24 87.0288 1436.81 Q85.2232 1440.35 85.2232 1447.48 Q85.2232 1454.59 87.0288 1458.15 Q88.8575 1461.69 92.4686 1461.69 Q96.1028 1461.69 97.9083 1458.15 Q99.737 1454.59 99.737 1447.48 Q99.737 1440.35 97.9083 1436.81 Q96.1028 1433.24 92.4686 1433.24 M92.4686 1429.54 Q98.2787 1429.54 101.334 1434.15 Q104.413 1438.73 104.413 1447.48 Q104.413 1456.21 101.334 1460.81 Q98.2787 1465.4 92.4686 1465.4 Q86.6584 1465.4 83.5797 1460.81 Q80.5242 1456.21 80.5242 1447.48 Q80.5242 1438.73 83.5797 1434.15 Q86.6584 1429.54 92.4686 1429.54 Z" fill="#000000" fill-rule="nonzero" fill-opacity="1" /><path clip-path="url(#clip360)" d="M122.63 1433.24 Q119.019 1433.24 117.191 1436.81 Q115.385 1440.35 115.385 1447.48 Q115.385 1454.59 117.191 1458.15 Q119.019 1461.69 122.63 1461.69 Q126.265 1461.69 128.07 1458.15 Q129.899 1454.59 129.899 1447.48 Q129.899 1440.35 128.07 1436.81 Q126.265 1433.24 122.63 1433.24 M122.63 1429.54 Q128.441 1429.54 131.496 1434.15 Q134.575 1438.73 134.575 1447.48 Q134.575 1456.21 131.496 1460.81 Q128.441 1465.4 122.63 1465.4 Q116.82 1465.4 113.742 1460.81 Q110.686 1456.21 110.686 1447.48 Q110.686 1438.73 113.742 1434.15 Q116.82 1429.54 122.63 1429.54 Z" fill="#000000" fill-rule="nonzero" fill-opacity="1" /><path clip-path="url(#clip360)" d="M56.3345 1058.17 L72.6539 1058.17 L72.6539 1062.11 L50.7095 1062.11 L50.7095 1058.17 Q53.3715 1055.42 57.9549 1050.79 Q62.5613 1046.14 63.7419 1044.8 Q65.9872 1042.27 66.8668 1040.54 Q67.7696 1038.78 67.7696 1037.09 Q67.7696 1034.33 65.8252 1032.6 Q63.9039 1030.86 60.8021 1030.86 Q58.603 1030.86 56.1493 1031.62 Q53.7188 1032.39 50.941 1033.94 L50.941 1029.22 Q53.7651 1028.08 56.2188 1027.5 Q58.6724 1026.92 60.7095 1026.92 Q66.0798 1026.92 69.2742 1029.61 Q72.4687 1032.3 72.4687 1036.79 Q72.4687 1038.92 71.6585 1040.84 Q70.8715 1042.74 68.765 1045.33 Q68.1863 1046 65.0845 1049.22 Q61.9826 1052.41 56.3345 1058.17 Z" fill="#000000" fill-rule="nonzero" fill-opacity="1" /><path clip-path="url(#clip360)" d="M92.4686 1030.63 Q88.8575 1030.63 87.0288 1034.19 Q85.2232 1037.74 85.2232 1044.86 Q85.2232 1051.97 87.0288 1055.54 Q88.8575 1059.08 92.4686 1059.08 Q96.1028 1059.08 97.9083 1055.54 Q99.737 1051.97 99.737 1044.86 Q99.737 1037.74 97.9083 1034.19 Q96.1028 1030.63 92.4686 1030.63 M92.4686 1026.92 Q98.2787 1026.92 101.334 1031.53 Q104.413 1036.11 104.413 1044.86 Q104.413 1053.59 101.334 1058.2 Q98.2787 1062.78 92.4686 1062.78 Q86.6584 1062.78 83.5797 1058.2 Q80.5242 1053.59 80.5242 1044.86 Q80.5242 1036.11 83.5797 1031.53 Q86.6584 1026.92 92.4686 1026.92 Z" fill="#000000" fill-rule="nonzero" fill-opacity="1" /><path clip-path="url(#clip360)" d="M122.63 1030.63 Q119.019 1030.63 117.191 1034.19 Q115.385 1037.74 115.385 1044.86 Q115.385 1051.97 117.191 1055.54 Q119.019 1059.08 122.63 1059.08 Q126.265 1059.08 128.07 1055.54 Q129.899 1051.97 129.899 1044.86 Q129.899 1037.74 128.07 1034.19 Q126.265 1030.63 122.63 1030.63 M122.63 1026.92 Q128.441 1026.92 131.496 1031.53 Q134.575 1036.11 134.575 1044.86 Q134.575 1053.59 131.496 1058.2 Q128.441 1062.78 122.63 1062.78 Q116.82 1062.78 113.742 1058.2 Q110.686 1053.59 110.686 1044.86 Q110.686 1036.11 113.742 1031.53 Q116.82 1026.92 122.63 1026.92 Z" fill="#000000" fill-rule="nonzero" fill-opacity="1" /><path clip-path="url(#clip360)" d="M66.4733 640.861 Q69.8298 641.578 71.7048 643.847 Q73.6029 646.115 73.6029 649.449 Q73.6029 654.564 70.0844 657.365 Q66.5659 660.166 60.0845 660.166 Q57.9086 660.166 55.5938 659.726 Q53.3021 659.31 50.8484 658.453 L50.8484 653.939 Q52.7928 655.074 55.1077 655.652 Q57.4225 656.231 59.9456 656.231 Q64.3437 656.231 66.6354 654.495 Q68.9502 652.759 68.9502 649.449 Q68.9502 646.393 66.7974 644.68 Q64.6678 642.944 60.8484 642.944 L56.8206 642.944 L56.8206 639.102 L61.0335 639.102 Q64.4826 639.102 66.3113 637.736 Q68.14 636.347 68.14 633.754 Q68.14 631.092 66.2419 629.68 Q64.3669 628.245 60.8484 628.245 Q58.9271 628.245 56.728 628.662 Q54.529 629.078 51.8901 629.958 L51.8901 625.791 Q54.5521 625.051 56.8669 624.68 Q59.2049 624.31 61.265 624.31 Q66.5891 624.31 69.6909 626.74 Q72.7927 629.148 72.7927 633.268 Q72.7927 636.139 71.1492 638.129 Q69.5057 640.097 66.4733 640.861 Z" fill="#000000" fill-rule="nonzero" fill-opacity="1" /><path clip-path="url(#clip360)" d="M92.4686 628.014 Q88.8575 628.014 87.0288 631.578 Q85.2232 635.12 85.2232 642.25 Q85.2232 649.356 87.0288 652.921 Q88.8575 656.463 92.4686 656.463 Q96.1028 656.463 97.9083 652.921 Q99.737 649.356 99.737 642.25 Q99.737 635.12 97.9083 631.578 Q96.1028 628.014 92.4686 628.014 M92.4686 624.31 Q98.2787 624.31 101.334 628.916 Q104.413 633.5 104.413 642.25 Q104.413 650.976 101.334 655.583 Q98.2787 660.166 92.4686 660.166 Q86.6584 660.166 83.5797 655.583 Q80.5242 650.976 80.5242 642.25 Q80.5242 633.5 83.5797 628.916 Q86.6584 624.31 92.4686 624.31 Z" fill="#000000" fill-rule="nonzero" fill-opacity="1" /><path clip-path="url(#clip360)" d="M122.63 628.014 Q119.019 628.014 117.191 631.578 Q115.385 635.12 115.385 642.25 Q115.385 649.356 117.191 652.921 Q119.019 656.463 122.63 656.463 Q126.265 656.463 128.07 652.921 Q129.899 649.356 129.899 642.25 Q129.899 635.12 128.07 631.578 Q126.265 628.014 122.63 628.014 M122.63 624.31 Q128.441 624.31 131.496 628.916 Q134.575 633.5 134.575 642.25 Q134.575 650.976 131.496 655.583 Q128.441 660.166 122.63 660.166 Q116.82 660.166 113.742 655.583 Q110.686 650.976 110.686 642.25 Q110.686 633.5 113.742 628.916 Q116.82 624.31 122.63 624.31 Z" fill="#000000" fill-rule="nonzero" fill-opacity="1" /><path clip-path="url(#clip360)" d="M65.1539 226.394 L53.3484 244.843 L65.1539 244.843 L65.1539 226.394 M63.927 222.32 L69.8066 222.32 L69.8066 244.843 L74.7372 244.843 L74.7372 248.732 L69.8066 248.732 L69.8066 256.88 L65.1539 256.88 L65.1539 248.732 L49.5521 248.732 L49.5521 244.218 L63.927 222.32 Z" fill="#000000" fill-rule="nonzero" fill-opacity="1" /><path clip-path="url(#clip360)" d="M92.4686 225.399 Q88.8575 225.399 87.0288 228.963 Q85.2232 232.505 85.2232 239.635 Q85.2232 246.741 87.0288 250.306 Q88.8575 253.848 92.4686 253.848 Q96.1028 253.848 97.9083 250.306 Q99.737 246.741 99.737 239.635 Q99.737 232.505 97.9083 228.963 Q96.1028 225.399 92.4686 225.399 M92.4686 221.695 Q98.2787 221.695 101.334 226.301 Q104.413 230.885 104.413 239.635 Q104.413 248.361 101.334 252.968 Q98.2787 257.551 92.4686 257.551 Q86.6584 257.551 83.5797 252.968 Q80.5242 248.361 80.5242 239.635 Q80.5242 230.885 83.5797 226.301 Q86.6584 221.695 92.4686 221.695 Z" fill="#000000" fill-rule="nonzero" fill-opacity="1" /><path clip-path="url(#clip360)" d="M122.63 225.399 Q119.019 225.399 117.191 228.963 Q115.385 232.505 115.385 239.635 Q115.385 246.741 117.191 250.306 Q119.019 253.848 122.63 253.848 Q126.265 253.848 128.07 250.306 Q129.899 246.741 129.899 239.635 Q129.899 232.505 128.07 228.963 Q126.265 225.399 122.63 225.399 M122.63 221.695 Q128.441 221.695 131.496 226.301 Q134.575 230.885 134.575 239.635 Q134.575 248.361 131.496 252.968 Q128.441 257.551 122.63 257.551 Q116.82 257.551 113.742 252.968 Q110.686 248.361 110.686 239.635 Q110.686 230.885 113.742 226.301 Q116.82 221.695 122.63 221.695 Z" fill="#000000" fill-rule="nonzero" fill-opacity="1" /><path clip-path="url(#clip360)" d="M918.314 17.6457 Q909.402 17.6457 904.136 24.2892 Q898.91 30.9327 898.91 42.3968 Q898.91 53.8203 904.136 60.4638 Q909.402 67.1073 918.314 67.1073 Q927.226 67.1073 932.411 60.4638 Q937.637 53.8203 937.637 42.3968 Q937.637 30.9327 932.411 24.2892 Q927.226 17.6457 918.314 17.6457 M929.778 71.4823 L940.554 83.2704 L930.669 83.2704 L921.717 73.5887 Q920.38 73.6697 919.651 73.7103 Q918.962 73.7508 918.314 73.7508 Q905.554 73.7508 897.898 65.2439 Q890.282 56.6965 890.282 42.3968 Q890.282 28.0566 897.898 19.5497 Q905.554 11.0023 918.314 11.0023 Q931.034 11.0023 938.65 19.5497 Q946.265 28.0566 946.265 42.3968 Q946.265 52.9291 942.012 60.4233 Q937.799 67.9175 929.778 71.4823 Z" fill="#000000" fill-rule="nonzero" fill-opacity="1" /><path clip-path="url(#clip360)" d="M957.972 54.671 L957.972 27.2059 L965.426 27.2059 L965.426 54.3874 Q965.426 60.8284 967.938 64.0691 Q970.449 67.2693 975.472 67.2693 Q981.508 67.2693 984.992 63.421 Q988.516 59.5726 988.516 52.9291 L988.516 27.2059 L995.97 27.2059 L995.97 72.576 L988.516 72.576 L988.516 65.6084 Q985.802 69.7404 982.197 71.7658 Q978.632 73.7508 973.893 73.7508 Q966.074 73.7508 962.023 68.8897 Q957.972 64.0286 957.972 54.671 M976.728 26.1121 L976.728 26.1121 Z" fill="#000000" fill-rule="nonzero" fill-opacity="1" /><path clip-path="url(#clip360)" d="M1031.94 49.7694 Q1022.91 49.7694 1019.42 51.8354 Q1015.94 53.9013 1015.94 58.8839 Q1015.94 62.8538 1018.53 65.2034 Q1021.17 67.5124 1025.66 67.5124 Q1031.86 67.5124 1035.59 63.1374 Q1039.36 58.7219 1039.36 51.4303 L1039.36 49.7694 L1031.94 49.7694 M1046.81 46.6907 L1046.81 72.576 L1039.36 72.576 L1039.36 65.6895 Q1036.8 69.8214 1033 71.8063 Q1029.19 73.7508 1023.68 73.7508 Q1016.71 73.7508 1012.58 69.8619 Q1008.49 65.9325 1008.49 59.3701 Q1008.49 51.7138 1013.59 47.825 Q1018.74 43.9361 1028.9 43.9361 L1039.36 43.9361 L1039.36 43.2069 Q1039.36 38.0623 1035.95 35.2672 Q1032.59 32.4315 1026.47 32.4315 Q1022.58 32.4315 1018.9 33.3632 Q1015.21 34.295 1011.81 36.1584 L1011.81 29.2718 Q1015.9 27.692 1019.75 26.9223 Q1023.6 26.1121 1027.24 26.1121 Q1037.09 26.1121 1041.95 31.2163 Q1046.81 36.3204 1046.81 46.6907 Z" fill="#000000" fill-rule="nonzero" fill-opacity="1" /><path clip-path="url(#clip360)" d="M1099.88 45.1919 L1099.88 72.576 L1092.42 72.576 L1092.42 45.4349 Q1092.42 38.994 1089.91 35.7938 Q1087.4 32.5936 1082.38 32.5936 Q1076.34 32.5936 1072.86 36.4419 Q1069.37 40.2903 1069.37 46.9338 L1069.37 72.576 L1061.88 72.576 L1061.88 27.2059 L1069.37 27.2059 L1069.37 34.2544 Q1072.05 30.163 1075.65 28.1376 Q1079.3 26.1121 1084.04 26.1121 Q1091.85 26.1121 1095.87 30.9732 Q1099.88 35.7938 1099.88 45.1919 Z" fill="#000000" fill-rule="nonzero" fill-opacity="1" /><path clip-path="url(#clip360)" d="M1122.12 14.324 L1122.12 27.2059 L1137.47 27.2059 L1137.47 32.9987 L1122.12 32.9987 L1122.12 57.6282 Q1122.12 63.1779 1123.61 64.7578 Q1125.15 66.3376 1129.81 66.3376 L1137.47 66.3376 L1137.47 72.576 L1129.81 72.576 Q1121.18 72.576 1117.9 69.3758 Q1114.62 66.1351 1114.62 57.6282 L1114.62 32.9987 L1109.15 32.9987 L1109.15 27.2059 L1114.62 27.2059 L1114.62 14.324 L1122.12 14.324 Z" fill="#000000" fill-rule="nonzero" fill-opacity="1" /><path clip-path="url(#clip360)" d="M1147.27 27.2059 L1154.72 27.2059 L1154.72 72.576 L1147.27 72.576 L1147.27 27.2059 M1147.27 9.54393 L1154.72 9.54393 L1154.72 18.9825 L1147.27 18.9825 L1147.27 9.54393 Z" fill="#000000" fill-rule="nonzero" fill-opacity="1" /><path clip-path="url(#clip360)" d="M1170.32 9.54393 L1177.77 9.54393 L1177.77 72.576 L1170.32 72.576 L1170.32 9.54393 Z" fill="#000000" fill-rule="nonzero" fill-opacity="1" /><path clip-path="url(#clip360)" d="M1232.18 48.0275 L1232.18 51.6733 L1197.91 51.6733 Q1198.39 59.3701 1202.53 63.421 Q1206.7 67.4314 1214.11 67.4314 Q1218.41 67.4314 1222.42 66.3781 Q1226.47 65.3249 1230.44 63.2184 L1230.44 70.267 Q1226.43 71.9684 1222.21 72.8596 Q1218 73.7508 1213.67 73.7508 Q1202.81 73.7508 1196.45 67.4314 Q1190.13 61.1119 1190.13 50.3365 Q1190.13 39.1965 1196.13 32.6746 Q1202.16 26.1121 1212.37 26.1121 Q1221.52 26.1121 1226.83 32.0264 Q1232.18 37.9003 1232.18 48.0275 M1224.72 45.84 Q1224.64 39.7232 1221.28 36.0774 Q1217.96 32.4315 1212.45 32.4315 Q1206.21 32.4315 1202.44 35.9558 Q1198.72 39.4801 1198.15 45.8805 L1224.72 45.84 Z" fill="#000000" fill-rule="nonzero" fill-opacity="1" /><path clip-path="url(#clip360)" d="M1300.64 34.0924 L1300.64 9.54393 L1308.09 9.54393 L1308.09 72.576 L1300.64 72.576 L1300.64 65.7705 Q1298.29 69.8214 1294.68 71.8063 Q1291.12 73.7508 1286.1 73.7508 Q1277.87 73.7508 1272.69 67.1883 Q1267.54 60.6258 1267.54 49.9314 Q1267.54 39.2371 1272.69 32.6746 Q1277.87 26.1121 1286.1 26.1121 Q1291.12 26.1121 1294.68 28.0971 Q1298.29 30.0415 1300.64 34.0924 M1275.24 49.9314 Q1275.24 58.1548 1278.6 62.8538 Q1282 67.5124 1287.92 67.5124 Q1293.83 67.5124 1297.24 62.8538 Q1300.64 58.1548 1300.64 49.9314 Q1300.64 41.7081 1297.24 37.0496 Q1293.83 32.3505 1287.92 32.3505 Q1282 32.3505 1278.6 37.0496 Q1275.24 41.7081 1275.24 49.9314 Z" fill="#000000" fill-rule="nonzero" fill-opacity="1" /><path clip-path="url(#clip360)" d="M1362.25 48.0275 L1362.25 51.6733 L1327.98 51.6733 Q1328.47 59.3701 1332.6 63.421 Q1336.77 67.4314 1344.19 67.4314 Q1348.48 67.4314 1352.49 66.3781 Q1356.54 65.3249 1360.51 63.2184 L1360.51 70.267 Q1356.5 71.9684 1352.29 72.8596 Q1348.07 73.7508 1343.74 73.7508 Q1332.88 73.7508 1326.52 67.4314 Q1320.2 61.1119 1320.2 50.3365 Q1320.2 39.1965 1326.2 32.6746 Q1332.24 26.1121 1342.44 26.1121 Q1351.6 26.1121 1356.91 32.0264 Q1362.25 37.9003 1362.25 48.0275 M1354.8 45.84 Q1354.72 39.7232 1351.36 36.0774 Q1348.03 32.4315 1342.52 32.4315 Q1336.29 32.4315 1332.52 35.9558 Q1328.79 39.4801 1328.23 45.8805 L1354.8 45.84 Z" fill="#000000" fill-rule="nonzero" fill-opacity="1" /><path clip-path="url(#clip360)" d="M1412.2 45.1919 L1412.2 72.576 L1404.75 72.576 L1404.75 45.4349 Q1404.75 38.994 1402.24 35.7938 Q1399.72 32.5936 1394.7 32.5936 Q1388.66 32.5936 1385.18 36.4419 Q1381.7 40.2903 1381.7 46.9338 L1381.7 72.576 L1374.2 72.576 L1374.2 27.2059 L1381.7 27.2059 L1381.7 34.2544 Q1384.37 30.163 1387.98 28.1376 Q1391.62 26.1121 1396.36 26.1121 Q1404.18 26.1121 1408.19 30.9732 Q1412.2 35.7938 1412.2 45.1919 Z" fill="#000000" fill-rule="nonzero" fill-opacity="1" /><path clip-path="url(#clip360)" d="M1455.99 28.5427 L1455.99 35.5912 Q1452.83 33.9709 1449.43 33.1607 Q1446.03 32.3505 1442.38 32.3505 Q1436.83 32.3505 1434.03 34.0519 Q1431.28 35.7533 1431.28 39.156 Q1431.28 41.7486 1433.27 43.2475 Q1435.25 44.7058 1441.25 46.0426 L1443.8 46.6097 Q1451.74 48.3111 1455.06 51.4303 Q1458.42 54.509 1458.42 60.0587 Q1458.42 66.3781 1453.4 70.0644 Q1448.42 73.7508 1439.67 73.7508 Q1436.02 73.7508 1432.05 73.0216 Q1428.12 72.3329 1423.75 70.9151 L1423.75 63.2184 Q1427.88 65.3654 1431.89 66.4591 Q1435.9 67.5124 1439.83 67.5124 Q1445.09 67.5124 1447.93 65.73 Q1450.76 63.9071 1450.76 60.6258 Q1450.76 57.5877 1448.7 55.9673 Q1446.67 54.3469 1439.75 52.8481 L1437.15 52.2405 Q1430.23 50.7821 1427.15 47.7845 Q1424.07 44.7463 1424.07 39.4801 Q1424.07 33.0797 1428.61 29.5959 Q1433.14 26.1121 1441.49 26.1121 Q1445.62 26.1121 1449.27 26.7198 Q1452.91 27.3274 1455.99 28.5427 Z" fill="#000000" fill-rule="nonzero" fill-opacity="1" /><path clip-path="url(#clip360)" d="M1470.29 27.2059 L1477.74 27.2059 L1477.74 72.576 L1470.29 72.576 L1470.29 27.2059 M1470.29 9.54393 L1477.74 9.54393 L1477.74 18.9825 L1470.29 18.9825 L1470.29 9.54393 Z" fill="#000000" fill-rule="nonzero" fill-opacity="1" /><path clip-path="url(#clip360)" d="M1500.71 14.324 L1500.71 27.2059 L1516.07 27.2059 L1516.07 32.9987 L1500.71 32.9987 L1500.71 57.6282 Q1500.71 63.1779 1502.21 64.7578 Q1503.75 66.3376 1508.41 66.3376 L1516.07 66.3376 L1516.07 72.576 L1508.41 72.576 Q1499.78 72.576 1496.5 69.3758 Q1493.22 66.1351 1493.22 57.6282 L1493.22 32.9987 L1487.75 32.9987 L1487.75 27.2059 L1493.22 27.2059 L1493.22 14.324 L1500.71 14.324 Z" fill="#000000" fill-rule="nonzero" fill-opacity="1" /><path clip-path="url(#clip360)" d="M1544.75 76.7889 Q1541.59 84.8907 1538.59 87.3618 Q1535.59 89.8329 1530.57 89.8329 L1524.61 89.8329 L1524.61 83.5945 L1528.99 83.5945 Q1532.07 83.5945 1533.77 82.1361 Q1535.47 80.6778 1537.54 75.2496 L1538.87 71.8468 L1520.52 27.2059 L1528.42 27.2059 L1542.6 62.6918 L1556.78 27.2059 L1564.68 27.2059 L1544.75 76.7889 Z" fill="#000000" fill-rule="nonzero" fill-opacity="1" /><path clip-path="url(#clip360)" d="M1624.31 9.54393 L1624.31 15.7418 L1617.18 15.7418 Q1613.17 15.7418 1611.59 17.3622 Q1610.05 18.9825 1610.05 23.1955 L1610.05 27.2059 L1622.32 27.2059 L1622.32 32.9987 L1610.05 32.9987 L1610.05 72.576 L1602.55 72.576 L1602.55 32.9987 L1595.42 32.9987 L1595.42 27.2059 L1602.55 27.2059 L1602.55 24.0462 Q1602.55 16.471 1606.08 13.0277 Q1609.6 9.54393 1617.26 9.54393 L1624.31 9.54393 Z" fill="#000000" fill-rule="nonzero" fill-opacity="1" /><path clip-path="url(#clip360)" d="M1629.77 54.671 L1629.77 27.2059 L1637.23 27.2059 L1637.23 54.3874 Q1637.23 60.8284 1639.74 64.0691 Q1642.25 67.2693 1647.27 67.2693 Q1653.31 67.2693 1656.79 63.421 Q1660.32 59.5726 1660.32 52.9291 L1660.32 27.2059 L1667.77 27.2059 L1667.77 72.576 L1660.32 72.576 L1660.32 65.6084 Q1657.6 69.7404 1654 71.7658 Q1650.43 73.7508 1645.69 73.7508 Q1637.88 73.7508 1633.83 68.8897 Q1629.77 64.0286 1629.77 54.671 M1648.53 26.1121 L1648.53 26.1121 Z" fill="#000000" fill-rule="nonzero" fill-opacity="1" /><path clip-path="url(#clip360)" d="M1720.84 45.1919 L1720.84 72.576 L1713.39 72.576 L1713.39 45.4349 Q1713.39 38.994 1710.87 35.7938 Q1708.36 32.5936 1703.34 32.5936 Q1697.3 32.5936 1693.82 36.4419 Q1690.34 40.2903 1690.34 46.9338 L1690.34 72.576 L1682.84 72.576 L1682.84 27.2059 L1690.34 27.2059 L1690.34 34.2544 Q1693.01 30.163 1696.61 28.1376 Q1700.26 26.1121 1705 26.1121 Q1712.82 26.1121 1716.83 30.9732 Q1720.84 35.7938 1720.84 45.1919 Z" fill="#000000" fill-rule="nonzero" fill-opacity="1" /><path clip-path="url(#clip360)" d="M1768.36 28.9478 L1768.36 35.9153 Q1765.2 34.1734 1762 33.3227 Q1758.84 32.4315 1755.6 32.4315 Q1748.34 32.4315 1744.33 37.0496 Q1740.32 41.6271 1740.32 49.9314 Q1740.32 58.2358 1744.33 62.8538 Q1748.34 67.4314 1755.6 67.4314 Q1758.84 67.4314 1762 66.5807 Q1765.2 65.6895 1768.36 63.9476 L1768.36 70.8341 Q1765.24 72.2924 1761.87 73.0216 Q1758.55 73.7508 1754.79 73.7508 Q1744.54 73.7508 1738.5 67.3098 Q1732.46 60.8689 1732.46 49.9314 Q1732.46 38.832 1738.54 32.472 Q1744.66 26.1121 1755.27 26.1121 Q1758.71 26.1121 1762 26.8413 Q1765.28 27.5299 1768.36 28.9478 Z" fill="#000000" fill-rule="nonzero" fill-opacity="1" /><path clip-path="url(#clip360)" d="M1788.69 14.324 L1788.69 27.2059 L1804.04 27.2059 L1804.04 32.9987 L1788.69 32.9987 L1788.69 57.6282 Q1788.69 63.1779 1790.19 64.7578 Q1791.73 66.3376 1796.39 66.3376 L1804.04 66.3376 L1804.04 72.576 L1796.39 72.576 Q1787.76 72.576 1784.48 69.3758 Q1781.2 66.1351 1781.2 57.6282 L1781.2 32.9987 L1775.73 32.9987 L1775.73 27.2059 L1781.2 27.2059 L1781.2 14.324 L1788.69 14.324 Z" fill="#000000" fill-rule="nonzero" fill-opacity="1" /><path clip-path="url(#clip360)" d="M1813.85 27.2059 L1821.3 27.2059 L1821.3 72.576 L1813.85 72.576 L1813.85 27.2059 M1813.85 9.54393 L1821.3 9.54393 L1821.3 18.9825 L1813.85 18.9825 L1813.85 9.54393 Z" fill="#000000" fill-rule="nonzero" fill-opacity="1" /><path clip-path="url(#clip360)" d="M1854.48 32.4315 Q1848.48 32.4315 1845 37.1306 Q1841.52 41.7891 1841.52 49.9314 Q1841.52 58.0738 1844.96 62.7728 Q1848.44 67.4314 1854.48 67.4314 Q1860.43 67.4314 1863.92 62.7323 Q1867.4 58.0333 1867.4 49.9314 Q1867.4 41.8701 1863.92 37.1711 Q1860.43 32.4315 1854.48 32.4315 M1854.48 26.1121 Q1864.2 26.1121 1869.75 32.4315 Q1875.3 38.7509 1875.3 49.9314 Q1875.3 61.0714 1869.75 67.4314 Q1864.2 73.7508 1854.48 73.7508 Q1844.72 73.7508 1839.17 67.4314 Q1833.66 61.0714 1833.66 49.9314 Q1833.66 38.7509 1839.17 32.4315 Q1844.72 26.1121 1854.48 26.1121 Z" fill="#000000" fill-rule="nonzero" fill-opacity="1" /><path clip-path="url(#clip360)" d="M1925.37 45.1919 L1925.37 72.576 L1917.92 72.576 L1917.92 45.4349 Q1917.92 38.994 1915.4 35.7938 Q1912.89 32.5936 1907.87 32.5936 Q1901.83 32.5936 1898.35 36.4419 Q1894.87 40.2903 1894.87 46.9338 L1894.87 72.576 L1887.37 72.576 L1887.37 27.2059 L1894.87 27.2059 L1894.87 34.2544 Q1897.54 30.163 1901.14 28.1376 Q1904.79 26.1121 1909.53 26.1121 Q1917.35 26.1121 1921.36 30.9732 Q1925.37 35.7938 1925.37 45.1919 Z" fill="#000000" fill-rule="nonzero" fill-opacity="1" /><polyline clip-path="url(#clip362)" style="stroke:#009af9; stroke-linecap:round; stroke-linejoin:round; stroke-width:4; stroke-opacity:1; fill:none" points="267.946,175.141 291.209,980.329 314.472,1248.7 337.735,1382.86 360.998,1463.34 384.26,1516.97 407.523,1555.27 430.786,1583.98 454.049,1606.3 477.312,1624.15 500.575,1638.74 523.837,1650.89 547.1,1661.16 570.363,1669.95 593.626,1677.57 616.889,1684.22 640.152,1690.08 663.414,1695.29 686.677,1699.94 709.94,1704.11 733.203,1707.88 756.466,1711.3 779.729,1714.42 802.992,1717.27 826.254,1719.88 849.517,1722.29 872.78,1724.51 896.043,1726.56 919.306,1728.46 942.569,1730.23 965.831,1731.88 989.094,1733.42 1012.36,1734.86 1035.62,1736.2 1058.88,1737.46 1082.15,1738.64 1105.41,1739.75 1128.67,1740.79 1151.93,1741.77 1175.2,1742.7 1198.46,1743.56 1221.72,1744.38 1244.99,1745.15 1268.25,1745.88 1291.51,1746.56 1314.77,1747.2 1338.04,1747.81 1361.3,1748.37 1384.56,1748.91 1407.83,1749.41 1431.09,1749.87 1454.35,1750.31 1477.61,1750.72 1500.88,1751.09 1524.14,1751.44 1547.4,1751.76 1570.67,1752.05 1593.93,1752.32 1617.19,1752.55 1640.45,1752.76 1663.72,1752.94 1686.98,1753.1 1710.24,1753.22 1733.51,1753.32 1756.77,1753.39 1780.03,1753.43 1803.29,1753.43 1826.56,1753.4 1849.82,1753.34 1873.08,1753.24 1896.35,1753.1 1919.61,1752.92 1942.87,1752.7 1966.13,1752.42 1989.4,1752.09 2012.66,1751.7 2035.92,1751.25 2059.18,1750.72 2082.45,1750.11 2105.71,1749.41 2128.97,1748.6 2152.24,1747.66 2175.5,1746.58 2198.76,1745.33 2222.02,1743.88 2245.29,1742.18 2268.55,1740.19 2291.81,1737.82 2315.08,1734.97 2338.34,1731.51 2361.6,1727.24 2384.86,1721.84 2408.13,1714.83 2431.39,1705.43 2454.65,1692.19 2477.92,1672.24 2501.18,1638.86 2524.44,1571.93 2547.7,1370.79 "/>
<path clip-path="url(#clip360)" d="M894.089 287.238 L2558.56 287.238 L2558.56 183.558 L894.089 183.558  Z" fill="#ffffff" fill-rule="evenodd" fill-opacity="1"/>
<polyline clip-path="url(#clip360)" style="stroke:#000000; stroke-linecap:round; stroke-linejoin:round; stroke-width:4; stroke-opacity:1; fill:none" points="894.089,287.238 2558.56,287.238 2558.56,183.558 894.089,183.558 894.089,287.238 "/>
<polyline clip-path="url(#clip360)" style="stroke:#009af9; stroke-linecap:round; stroke-linejoin:round; stroke-width:4; stroke-opacity:1; fill:none" points="921.487,235.398 1085.88,235.398 "/>
<path clip-path="url(#clip360)" d="M1129.29 221.29 Q1124.2 221.29 1121.19 225.086 Q1118.21 228.882 1118.21 235.433 Q1118.21 241.961 1121.19 245.757 Q1124.2 249.553 1129.29 249.553 Q1134.39 249.553 1137.35 245.757 Q1140.34 241.961 1140.34 235.433 Q1140.34 228.882 1137.35 225.086 Q1134.39 221.29 1129.29 221.29 M1135.85 252.053 L1142 258.789 L1136.35 258.789 L1131.24 253.257 Q1130.48 253.303 1130.06 253.327 Q1129.66 253.35 1129.29 253.35 Q1122 253.35 1117.63 248.489 Q1113.28 243.604 1113.28 235.433 Q1113.28 227.239 1117.63 222.378 Q1122 217.493 1129.29 217.493 Q1136.56 217.493 1140.91 222.378 Q1145.27 227.239 1145.27 235.433 Q1145.27 241.452 1142.84 245.734 Q1140.43 250.016 1135.85 252.053 Z" fill="#000000" fill-rule="nonzero" fill-opacity="1" /><path clip-path="url(#clip360)" d="M1157.26 221.961 L1157.26 248.836 L1162.91 248.836 Q1170.06 248.836 1173.37 245.595 Q1176.7 242.354 1176.7 235.364 Q1176.7 228.419 1173.37 225.202 Q1170.06 221.961 1162.91 221.961 L1157.26 221.961 M1152.58 218.118 L1162.19 218.118 Q1172.23 218.118 1176.93 222.308 Q1181.63 226.475 1181.63 235.364 Q1181.63 244.299 1176.91 248.489 Q1172.19 252.678 1162.19 252.678 L1152.58 252.678 L1152.58 218.118 Z" fill="#000000" fill-rule="nonzero" fill-opacity="1" /><path clip-path="url(#clip360)" d="M1188.9 226.753 L1193.16 226.753 L1193.16 252.678 L1188.9 252.678 L1188.9 226.753 M1188.9 216.66 L1193.16 216.66 L1193.16 222.054 L1188.9 222.054 L1188.9 216.66 Z" fill="#000000" fill-rule="nonzero" fill-opacity="1" /><path clip-path="url(#clip360)" d="M1218.6 227.516 L1218.6 231.544 Q1216.79 230.618 1214.85 230.155 Q1212.91 229.692 1210.82 229.692 Q1207.65 229.692 1206.05 230.665 Q1204.48 231.637 1204.48 233.581 Q1204.48 235.063 1205.61 235.919 Q1206.75 236.753 1210.17 237.516 L1211.63 237.84 Q1216.17 238.813 1218.07 240.595 Q1219.99 242.354 1219.99 245.526 Q1219.99 249.137 1217.12 251.243 Q1214.27 253.35 1209.27 253.35 Q1207.19 253.35 1204.92 252.933 Q1202.67 252.539 1200.17 251.729 L1200.17 247.331 Q1202.53 248.558 1204.83 249.183 Q1207.12 249.785 1209.36 249.785 Q1212.37 249.785 1213.99 248.766 Q1215.61 247.725 1215.61 245.85 Q1215.61 244.114 1214.43 243.188 Q1213.28 242.262 1209.32 241.405 L1207.84 241.058 Q1203.88 240.225 1202.12 238.512 Q1200.36 236.776 1200.36 233.766 Q1200.36 230.109 1202.95 228.118 Q1205.54 226.128 1210.31 226.128 Q1212.67 226.128 1214.76 226.475 Q1216.84 226.822 1218.6 227.516 Z" fill="#000000" fill-rule="nonzero" fill-opacity="1" /><path clip-path="url(#clip360)" d="M1230.98 219.392 L1230.98 226.753 L1239.76 226.753 L1239.76 230.063 L1230.98 230.063 L1230.98 244.137 Q1230.98 247.308 1231.84 248.211 Q1232.72 249.114 1235.38 249.114 L1239.76 249.114 L1239.76 252.678 L1235.38 252.678 Q1230.45 252.678 1228.58 250.85 Q1226.7 248.998 1226.7 244.137 L1226.7 230.063 L1223.58 230.063 L1223.58 226.753 L1226.7 226.753 L1226.7 219.392 L1230.98 219.392 Z" fill="#000000" fill-rule="nonzero" fill-opacity="1" /><path clip-path="url(#clip360)" d="M1260.38 230.734 Q1259.66 230.317 1258.81 230.132 Q1257.97 229.924 1256.96 229.924 Q1253.34 229.924 1251.4 232.285 Q1249.48 234.623 1249.48 239.021 L1249.48 252.678 L1245.2 252.678 L1245.2 226.753 L1249.48 226.753 L1249.48 230.78 Q1250.82 228.419 1252.97 227.285 Q1255.13 226.128 1258.21 226.128 Q1258.65 226.128 1259.18 226.197 Q1259.71 226.243 1260.36 226.359 L1260.38 230.734 Z" fill="#000000" fill-rule="nonzero" fill-opacity="1" /><path clip-path="url(#clip360)" d="M1264.85 226.753 L1269.11 226.753 L1269.11 252.678 L1264.85 252.678 L1264.85 226.753 M1264.85 216.66 L1269.11 216.66 L1269.11 222.054 L1264.85 222.054 L1264.85 216.66 Z" fill="#000000" fill-rule="nonzero" fill-opacity="1" /><path clip-path="url(#clip360)" d="M1296.63 239.739 Q1296.63 235.04 1294.69 232.378 Q1292.77 229.692 1289.39 229.692 Q1286.01 229.692 1284.06 232.378 Q1282.14 235.04 1282.14 239.739 Q1282.14 244.438 1284.06 247.123 Q1286.01 249.785 1289.39 249.785 Q1292.77 249.785 1294.69 247.123 Q1296.63 244.438 1296.63 239.739 M1282.14 230.688 Q1283.48 228.373 1285.52 227.262 Q1287.58 226.128 1290.43 226.128 Q1295.15 226.128 1298.09 229.878 Q1301.05 233.628 1301.05 239.739 Q1301.05 245.85 1298.09 249.6 Q1295.15 253.35 1290.43 253.35 Q1287.58 253.35 1285.52 252.239 Q1283.48 251.104 1282.14 248.789 L1282.14 252.678 L1277.86 252.678 L1277.86 216.66 L1282.14 216.66 L1282.14 230.688 Z" fill="#000000" fill-rule="nonzero" fill-opacity="1" /><path clip-path="url(#clip360)" d="M1307.67 242.447 L1307.67 226.753 L1311.93 226.753 L1311.93 242.285 Q1311.93 245.965 1313.37 247.817 Q1314.8 249.646 1317.67 249.646 Q1321.12 249.646 1323.11 247.447 Q1325.13 245.248 1325.13 241.452 L1325.13 226.753 L1329.39 226.753 L1329.39 252.678 L1325.13 252.678 L1325.13 248.697 Q1323.58 251.058 1321.52 252.215 Q1319.48 253.35 1316.77 253.35 Q1312.3 253.35 1309.99 250.572 Q1307.67 247.794 1307.67 242.447 M1318.39 226.128 L1318.39 226.128 Z" fill="#000000" fill-rule="nonzero" fill-opacity="1" /><path clip-path="url(#clip360)" d="M1342.37 219.392 L1342.37 226.753 L1351.15 226.753 L1351.15 230.063 L1342.37 230.063 L1342.37 244.137 Q1342.37 247.308 1343.23 248.211 Q1344.11 249.114 1346.77 249.114 L1351.15 249.114 L1351.15 252.678 L1346.77 252.678 Q1341.84 252.678 1339.96 250.85 Q1338.09 248.998 1338.09 244.137 L1338.09 230.063 L1334.96 230.063 L1334.96 226.753 L1338.09 226.753 L1338.09 219.392 L1342.37 219.392 Z" fill="#000000" fill-rule="nonzero" fill-opacity="1" /><path clip-path="url(#clip360)" d="M1356.75 226.753 L1361.01 226.753 L1361.01 252.678 L1356.75 252.678 L1356.75 226.753 M1356.75 216.66 L1361.01 216.66 L1361.01 222.054 L1356.75 222.054 L1356.75 216.66 Z" fill="#000000" fill-rule="nonzero" fill-opacity="1" /><path clip-path="url(#clip360)" d="M1379.96 229.739 Q1376.54 229.739 1374.55 232.424 Q1372.56 235.086 1372.56 239.739 Q1372.56 244.391 1374.52 247.077 Q1376.52 249.739 1379.96 249.739 Q1383.37 249.739 1385.36 247.053 Q1387.35 244.368 1387.35 239.739 Q1387.35 235.132 1385.36 232.447 Q1383.37 229.739 1379.96 229.739 M1379.96 226.128 Q1385.52 226.128 1388.69 229.739 Q1391.86 233.35 1391.86 239.739 Q1391.86 246.104 1388.69 249.739 Q1385.52 253.35 1379.96 253.35 Q1374.39 253.35 1371.21 249.739 Q1368.07 246.104 1368.07 239.739 Q1368.07 233.35 1371.21 229.739 Q1374.39 226.128 1379.96 226.128 Z" fill="#000000" fill-rule="nonzero" fill-opacity="1" /><path clip-path="url(#clip360)" d="M1420.47 237.03 L1420.47 252.678 L1416.21 252.678 L1416.21 237.169 Q1416.21 233.489 1414.78 231.66 Q1413.34 229.831 1410.47 229.831 Q1407.02 229.831 1405.03 232.03 Q1403.04 234.229 1403.04 238.026 L1403.04 252.678 L1398.76 252.678 L1398.76 226.753 L1403.04 226.753 L1403.04 230.78 Q1404.57 228.442 1406.63 227.285 Q1408.71 226.128 1411.42 226.128 Q1415.89 226.128 1418.18 228.905 Q1420.47 231.66 1420.47 237.03 Z" fill="#000000" fill-rule="nonzero" fill-opacity="1" /><path clip-path="url(#clip360)" d="M1445.5 227.516 L1445.5 231.544 Q1443.69 230.618 1441.75 230.155 Q1439.8 229.692 1437.72 229.692 Q1434.55 229.692 1432.95 230.665 Q1431.38 231.637 1431.38 233.581 Q1431.38 235.063 1432.51 235.919 Q1433.64 236.753 1437.07 237.516 L1438.53 237.84 Q1443.07 238.813 1444.96 240.595 Q1446.89 242.354 1446.89 245.526 Q1446.89 249.137 1444.02 251.243 Q1441.17 253.35 1436.17 253.35 Q1434.08 253.35 1431.82 252.933 Q1429.57 252.539 1427.07 251.729 L1427.07 247.331 Q1429.43 248.558 1431.72 249.183 Q1434.02 249.785 1436.26 249.785 Q1439.27 249.785 1440.89 248.766 Q1442.51 247.725 1442.51 245.85 Q1442.51 244.114 1441.33 243.188 Q1440.17 242.262 1436.21 241.405 L1434.73 241.058 Q1430.77 240.225 1429.02 238.512 Q1427.26 236.776 1427.26 233.766 Q1427.26 230.109 1429.85 228.118 Q1432.44 226.128 1437.21 226.128 Q1439.57 226.128 1441.65 226.475 Q1443.74 226.822 1445.5 227.516 Z" fill="#000000" fill-rule="nonzero" fill-opacity="1" /><path clip-path="url(#clip360)" d="M1454.27 246.799 L1459.15 246.799 L1459.15 252.678 L1454.27 252.678 L1454.27 246.799 Z" fill="#000000" fill-rule="nonzero" fill-opacity="1" /><path clip-path="url(#clip360)" d="M1468.92 218.118 L1488.78 218.118 L1488.78 222.054 L1473.6 222.054 L1473.6 232.239 L1487.3 232.239 L1487.3 236.174 L1473.6 236.174 L1473.6 252.678 L1468.92 252.678 L1468.92 218.118 Z" fill="#000000" fill-rule="nonzero" fill-opacity="1" /><path clip-path="url(#clip360)" d="M1519.76 247.748 L1519.76 238.465 L1512.12 238.465 L1512.12 234.623 L1524.39 234.623 L1524.39 249.461 Q1521.68 251.382 1518.41 252.377 Q1515.15 253.35 1511.45 253.35 Q1503.34 253.35 1498.76 248.627 Q1494.2 243.882 1494.2 235.433 Q1494.2 226.961 1498.76 222.239 Q1503.34 217.493 1511.45 217.493 Q1514.82 217.493 1517.86 218.327 Q1520.91 219.16 1523.48 220.78 L1523.48 225.757 Q1520.89 223.558 1517.97 222.447 Q1515.06 221.336 1511.84 221.336 Q1505.5 221.336 1502.3 224.878 Q1499.13 228.419 1499.13 235.433 Q1499.13 242.424 1502.3 245.965 Q1505.5 249.507 1511.84 249.507 Q1514.32 249.507 1516.26 249.09 Q1518.2 248.651 1519.76 247.748 Z" fill="#000000" fill-rule="nonzero" fill-opacity="1" /><path clip-path="url(#clip360)" d="M1532.93 218.118 L1537.6 218.118 L1537.6 248.743 L1554.43 248.743 L1554.43 252.678 L1532.93 252.678 L1532.93 218.118 Z" fill="#000000" fill-rule="nonzero" fill-opacity="1" /><path clip-path="url(#clip360)" d="M1564.01 221.961 L1564.01 248.836 L1569.66 248.836 Q1576.82 248.836 1580.13 245.595 Q1583.46 242.354 1583.46 235.364 Q1583.46 228.419 1580.13 225.202 Q1576.82 221.961 1569.66 221.961 L1564.01 221.961 M1559.34 218.118 L1568.95 218.118 Q1578.99 218.118 1583.69 222.308 Q1588.39 226.475 1588.39 235.364 Q1588.39 244.299 1583.67 248.489 Q1578.94 252.678 1568.95 252.678 L1559.34 252.678 L1559.34 218.118 Z" fill="#000000" fill-rule="nonzero" fill-opacity="1" /><path clip-path="url(#clip360)" d="M1615.43 257.076 L1615.43 260.41 L1613.99 260.41 Q1608.23 260.41 1606.26 258.697 Q1604.32 256.984 1604.32 251.868 L1604.32 246.336 Q1604.32 242.84 1603.07 241.498 Q1601.82 240.155 1598.53 240.155 L1597.12 240.155 L1597.12 236.845 L1598.53 236.845 Q1601.84 236.845 1603.07 235.526 Q1604.32 234.183 1604.32 230.734 L1604.32 225.179 Q1604.32 220.063 1606.26 218.373 Q1608.23 216.66 1613.99 216.66 L1615.43 216.66 L1615.43 219.97 L1613.85 219.97 Q1610.59 219.97 1609.59 220.989 Q1608.6 222.007 1608.6 225.271 L1608.6 231.012 Q1608.6 234.646 1607.53 236.29 Q1606.49 237.933 1603.94 238.512 Q1606.51 239.137 1607.56 240.78 Q1608.6 242.424 1608.6 246.035 L1608.6 251.776 Q1608.6 255.039 1609.59 256.058 Q1610.59 257.076 1613.85 257.076 L1615.43 257.076 Z" fill="#000000" fill-rule="nonzero" fill-opacity="1" /><path clip-path="url(#clip360)" d="M1626 218.118 L1645.87 218.118 L1645.87 222.054 L1630.68 222.054 L1630.68 232.239 L1644.38 232.239 L1644.38 236.174 L1630.68 236.174 L1630.68 252.678 L1626 252.678 L1626 218.118 Z" fill="#000000" fill-rule="nonzero" fill-opacity="1" /><path clip-path="url(#clip360)" d="M1653.09 216.66 L1657.35 216.66 L1657.35 252.678 L1653.09 252.678 L1653.09 216.66 Z" fill="#000000" fill-rule="nonzero" fill-opacity="1" /><path clip-path="url(#clip360)" d="M1676.31 229.739 Q1672.88 229.739 1670.89 232.424 Q1668.9 235.086 1668.9 239.739 Q1668.9 244.391 1670.87 247.077 Q1672.86 249.739 1676.31 249.739 Q1679.71 249.739 1681.7 247.053 Q1683.69 244.368 1683.69 239.739 Q1683.69 235.132 1681.7 232.447 Q1679.71 229.739 1676.31 229.739 M1676.31 226.128 Q1681.86 226.128 1685.03 229.739 Q1688.2 233.35 1688.2 239.739 Q1688.2 246.104 1685.03 249.739 Q1681.86 253.35 1676.31 253.35 Q1670.73 253.35 1667.56 249.739 Q1664.41 246.104 1664.41 239.739 Q1664.41 233.35 1667.56 229.739 Q1670.73 226.128 1676.31 226.128 Z" fill="#000000" fill-rule="nonzero" fill-opacity="1" /><path clip-path="url(#clip360)" d="M1707.05 239.646 Q1701.88 239.646 1699.89 240.827 Q1697.9 242.007 1697.9 244.854 Q1697.9 247.123 1699.38 248.465 Q1700.89 249.785 1703.46 249.785 Q1707 249.785 1709.13 247.285 Q1711.28 244.762 1711.28 240.595 L1711.28 239.646 L1707.05 239.646 M1715.54 237.887 L1715.54 252.678 L1711.28 252.678 L1711.28 248.743 Q1709.82 251.104 1707.65 252.239 Q1705.47 253.35 1702.32 253.35 Q1698.34 253.35 1695.98 251.127 Q1693.64 248.882 1693.64 245.132 Q1693.64 240.757 1696.56 238.535 Q1699.5 236.313 1705.31 236.313 L1711.28 236.313 L1711.28 235.896 Q1711.28 232.956 1709.34 231.359 Q1707.42 229.739 1703.92 229.739 Q1701.7 229.739 1699.59 230.271 Q1697.49 230.803 1695.54 231.868 L1695.54 227.933 Q1697.88 227.03 1700.08 226.591 Q1702.28 226.128 1704.36 226.128 Q1709.99 226.128 1712.76 229.044 Q1715.54 231.961 1715.54 237.887 Z" fill="#000000" fill-rule="nonzero" fill-opacity="1" /><path clip-path="url(#clip360)" d="M1728.53 219.392 L1728.53 226.753 L1737.3 226.753 L1737.3 230.063 L1728.53 230.063 L1728.53 244.137 Q1728.53 247.308 1729.38 248.211 Q1730.26 249.114 1732.93 249.114 L1737.3 249.114 L1737.3 252.678 L1732.93 252.678 Q1728 252.678 1726.12 250.85 Q1724.25 248.998 1724.25 244.137 L1724.25 230.063 L1721.12 230.063 L1721.12 226.753 L1724.25 226.753 L1724.25 219.392 L1728.53 219.392 Z" fill="#000000" fill-rule="nonzero" fill-opacity="1" /><path clip-path="url(#clip360)" d="M1754.08 233.535 Q1750.93 233.535 1749.08 235.688 Q1747.25 237.84 1747.25 241.59 Q1747.25 245.317 1749.08 247.493 Q1750.93 249.646 1754.08 249.646 Q1757.23 249.646 1759.06 247.493 Q1760.91 245.317 1760.91 241.59 Q1760.91 237.84 1759.06 235.688 Q1757.23 233.535 1754.08 233.535 M1763.37 218.882 L1763.37 223.141 Q1761.61 222.308 1759.8 221.868 Q1758.02 221.429 1756.26 221.429 Q1751.63 221.429 1749.18 224.554 Q1746.74 227.678 1746.4 233.998 Q1747.76 231.984 1749.82 230.919 Q1751.88 229.831 1754.36 229.831 Q1759.57 229.831 1762.58 233.003 Q1765.61 236.151 1765.61 241.59 Q1765.61 246.915 1762.46 250.132 Q1759.31 253.35 1754.08 253.35 Q1748.09 253.35 1744.92 248.766 Q1741.75 244.16 1741.75 235.433 Q1741.75 227.239 1745.63 222.378 Q1749.52 217.493 1756.07 217.493 Q1757.83 217.493 1759.62 217.841 Q1761.42 218.188 1763.37 218.882 Z" fill="#000000" fill-rule="nonzero" fill-opacity="1" /><path clip-path="url(#clip360)" d="M1786.51 222.192 L1774.71 240.641 L1786.51 240.641 L1786.51 222.192 M1785.29 218.118 L1791.17 218.118 L1791.17 240.641 L1796.1 240.641 L1796.1 244.53 L1791.17 244.53 L1791.17 252.678 L1786.51 252.678 L1786.51 244.53 L1770.91 244.53 L1770.91 240.016 L1785.29 218.118 Z" fill="#000000" fill-rule="nonzero" fill-opacity="1" /><path clip-path="url(#clip360)" d="M1804.68 257.076 L1806.3 257.076 Q1809.55 257.076 1810.52 256.081 Q1811.51 255.086 1811.51 251.776 L1811.51 246.035 Q1811.51 242.424 1812.55 240.78 Q1813.6 239.137 1816.17 238.512 Q1813.6 237.933 1812.55 236.29 Q1811.51 234.646 1811.51 231.012 L1811.51 225.271 Q1811.51 221.984 1810.52 220.989 Q1809.55 219.97 1806.3 219.97 L1804.68 219.97 L1804.68 216.66 L1806.14 216.66 Q1811.91 216.66 1813.83 218.373 Q1815.77 220.063 1815.77 225.179 L1815.77 230.734 Q1815.77 234.183 1817.02 235.526 Q1818.27 236.845 1821.56 236.845 L1822.99 236.845 L1822.99 240.155 L1821.56 240.155 Q1818.27 240.155 1817.02 241.498 Q1815.77 242.84 1815.77 246.336 L1815.77 251.868 Q1815.77 256.984 1813.83 258.697 Q1811.91 260.41 1806.14 260.41 L1804.68 260.41 L1804.68 257.076 Z" fill="#000000" fill-rule="nonzero" fill-opacity="1" /><path clip-path="url(#clip360)" d="M1843.62 216.706 Q1840.52 222.03 1839.01 227.239 Q1837.51 232.447 1837.51 237.794 Q1837.51 243.141 1839.01 248.396 Q1840.54 253.627 1843.62 258.928 L1839.92 258.928 Q1836.44 253.489 1834.71 248.234 Q1832.99 242.979 1832.99 237.794 Q1832.99 232.632 1834.71 227.401 Q1836.42 222.169 1839.92 216.706 L1843.62 216.706 Z" fill="#000000" fill-rule="nonzero" fill-opacity="1" /><path clip-path="url(#clip360)" d="M1867 240.618 L1865.98 235.271 Q1864.94 229.785 1860.82 229.785 Q1857.72 229.785 1856.3 232.331 Q1854.52 235.526 1854.52 239.739 Q1854.52 244.831 1856.26 247.262 Q1858.02 249.739 1860.82 249.739 Q1863.92 249.739 1865.59 244.808 L1867 240.618 M1869.38 233.535 L1871.67 226.753 L1875.47 226.753 L1870.73 240.803 L1871.65 245.873 Q1871.86 247.007 1872.67 247.956 Q1873.62 249.067 1874.36 249.067 L1876.4 249.067 L1876.4 252.678 L1873.85 252.678 Q1871.67 252.678 1869.73 250.734 Q1868.78 249.762 1868.39 247.725 Q1867.32 250.294 1865.15 252.308 Q1864.13 253.257 1860.82 253.257 Q1855.38 253.257 1852.74 249.739 Q1850.03 246.104 1850.03 239.739 Q1850.03 232.933 1852.97 229.739 Q1856.24 226.174 1860.82 226.174 Q1868.02 226.174 1869.38 233.535 Z" fill="#000000" fill-rule="nonzero" fill-opacity="1" /><path clip-path="url(#clip360)" d="M1883.69 231.151 L1913.36 231.151 L1913.36 235.04 L1883.69 235.04 L1883.69 231.151 M1883.69 240.595 L1913.36 240.595 L1913.36 244.53 L1883.69 244.53 L1883.69 240.595 Z" fill="#000000" fill-rule="nonzero" fill-opacity="1" /><path clip-path="url(#clip360)" d="M1924.27 248.743 L1931.91 248.743 L1931.91 222.378 L1923.6 224.044 L1923.6 219.785 L1931.86 218.118 L1936.54 218.118 L1936.54 248.743 L1944.17 248.743 L1944.17 252.678 L1924.27 252.678 L1924.27 248.743 Z" fill="#000000" fill-rule="nonzero" fill-opacity="1" /><path clip-path="url(#clip360)" d="M1953.62 246.799 L1958.5 246.799 L1958.5 252.678 L1953.62 252.678 L1953.62 246.799 Z" fill="#000000" fill-rule="nonzero" fill-opacity="1" /><path clip-path="url(#clip360)" d="M1978.69 221.197 Q1975.08 221.197 1973.25 224.762 Q1971.44 228.303 1971.44 235.433 Q1971.44 242.54 1973.25 246.104 Q1975.08 249.646 1978.69 249.646 Q1982.32 249.646 1984.13 246.104 Q1985.96 242.54 1985.96 235.433 Q1985.96 228.303 1984.13 224.762 Q1982.32 221.197 1978.69 221.197 M1978.69 217.493 Q1984.5 217.493 1987.55 222.1 Q1990.63 226.683 1990.63 235.433 Q1990.63 244.16 1987.55 248.766 Q1984.5 253.35 1978.69 253.35 Q1972.88 253.35 1969.8 248.766 Q1966.74 244.16 1966.74 235.433 Q1966.74 226.683 1969.8 222.1 Q1972.88 217.493 1978.69 217.493 Z" fill="#000000" fill-rule="nonzero" fill-opacity="1" /><path clip-path="url(#clip360)" d="M1999.34 246.799 L2004.22 246.799 L2004.22 250.78 L2000.42 258.188 L1997.44 258.188 L1999.34 250.78 L1999.34 246.799 Z" fill="#000000" fill-rule="nonzero" fill-opacity="1" /><path clip-path="url(#clip360)" d="M2032.65 251.081 L2032.65 262.539 L2028.36 262.539 L2028.36 226.915 Q2028.36 216.359 2038.22 216.359 Q2048.27 216.359 2048.27 225.271 Q2048.27 231.614 2044.29 233.928 Q2050.77 236.012 2050.77 242.192 Q2050.77 253.164 2039.61 253.164 Q2034.71 253.164 2032.65 251.081 M2032.65 245.526 Q2035.22 249.53 2039.78 249.53 Q2046.44 249.53 2046.44 242.262 Q2046.44 235.734 2035.7 236.243 L2035.7 232.308 Q2044.1 232.308 2044.1 224.901 Q2044.1 219.831 2038.69 219.831 Q2032.65 219.831 2032.65 227.054 L2032.65 245.526 Z" fill="#000000" fill-rule="nonzero" fill-opacity="1" /><path clip-path="url(#clip360)" d="M2059.2 231.151 L2088.87 231.151 L2088.87 235.04 L2059.2 235.04 L2059.2 231.151 M2059.2 240.595 L2088.87 240.595 L2088.87 244.53 L2059.2 244.53 L2059.2 240.595 Z" fill="#000000" fill-rule="nonzero" fill-opacity="1" /><path clip-path="url(#clip360)" d="M2099.01 218.118 L2117.37 218.118 L2117.37 222.054 L2103.29 222.054 L2103.29 230.526 Q2104.31 230.178 2105.33 230.016 Q2106.35 229.831 2107.37 229.831 Q2113.16 229.831 2116.53 233.003 Q2119.91 236.174 2119.91 241.59 Q2119.91 247.169 2116.44 250.271 Q2112.97 253.35 2106.65 253.35 Q2104.47 253.35 2102.21 252.979 Q2099.96 252.609 2097.55 251.868 L2097.55 247.169 Q2099.64 248.303 2101.86 248.859 Q2104.08 249.414 2106.56 249.414 Q2110.56 249.414 2112.9 247.308 Q2115.24 245.202 2115.24 241.59 Q2115.24 237.979 2112.9 235.873 Q2110.56 233.766 2106.56 233.766 Q2104.68 233.766 2102.81 234.183 Q2100.96 234.6 2099.01 235.479 L2099.01 218.118 Z" fill="#000000" fill-rule="nonzero" fill-opacity="1" /><path clip-path="url(#clip360)" d="M2129.13 246.799 L2134.01 246.799 L2134.01 252.678 L2129.13 252.678 L2129.13 246.799 Z" fill="#000000" fill-rule="nonzero" fill-opacity="1" /><path clip-path="url(#clip360)" d="M2154.2 221.197 Q2150.59 221.197 2148.76 224.762 Q2146.95 228.303 2146.95 235.433 Q2146.95 242.54 2148.76 246.104 Q2150.59 249.646 2154.2 249.646 Q2157.83 249.646 2159.64 246.104 Q2161.46 242.54 2161.46 235.433 Q2161.46 228.303 2159.64 224.762 Q2157.83 221.197 2154.2 221.197 M2154.2 217.493 Q2160.01 217.493 2163.06 222.1 Q2166.14 226.683 2166.14 235.433 Q2166.14 244.16 2163.06 248.766 Q2160.01 253.35 2154.2 253.35 Q2148.39 253.35 2145.31 248.766 Q2142.25 244.16 2142.25 235.433 Q2142.25 226.683 2145.31 222.1 Q2148.39 217.493 2154.2 217.493 Z" fill="#000000" fill-rule="nonzero" fill-opacity="1" /><path clip-path="url(#clip360)" d="M2174.84 246.799 L2179.73 246.799 L2179.73 250.78 L2175.93 258.188 L2172.95 258.188 L2174.84 250.78 L2174.84 246.799 Z" fill="#000000" fill-rule="nonzero" fill-opacity="1" /><path clip-path="url(#clip360)" d="M2222.67 222.655 Q2220.31 221.035 2214.77 221.035 Q2208.92 221.035 2208.92 223.743 Q2208.92 225.873 2215.03 226.984 Q2219.84 227.841 2222.55 230.433 Q2225.84 233.558 2225.84 239.97 Q2225.84 246.104 2222.67 249.715 Q2219.5 253.35 2213.94 253.35 Q2208.41 253.35 2205.21 249.715 Q2202.04 246.104 2202.04 239.739 Q2202.04 235.016 2205.21 231.197 Q2206.44 229.716 2208.18 228.882 Q2204.57 227.054 2204.57 223.79 Q2204.57 217.493 2214.77 217.493 Q2219.89 217.493 2222.67 219.114 L2222.67 222.655 M2211.37 230.04 Q2209.8 230.711 2208.52 232.401 Q2206.53 235.016 2206.53 239.739 Q2206.53 244.438 2208.5 247.077 Q2210.49 249.739 2213.94 249.739 Q2217.34 249.739 2219.34 247.053 Q2221.33 244.368 2221.33 239.97 Q2221.33 235.364 2219.22 233.141 Q2216.97 230.757 2214.06 230.503 Q2212.58 230.364 2211.37 230.04 Z" fill="#000000" fill-rule="nonzero" fill-opacity="1" /><path clip-path="url(#clip360)" d="M2233.46 231.151 L2263.13 231.151 L2263.13 235.04 L2233.46 235.04 L2233.46 231.151 M2233.46 240.595 L2263.13 240.595 L2263.13 244.53 L2233.46 244.53 L2233.46 240.595 Z" fill="#000000" fill-rule="nonzero" fill-opacity="1" /><path clip-path="url(#clip360)" d="M2283.22 221.197 Q2279.61 221.197 2277.78 224.762 Q2275.98 228.303 2275.98 235.433 Q2275.98 242.54 2277.78 246.104 Q2279.61 249.646 2283.22 249.646 Q2286.86 249.646 2288.66 246.104 Q2290.49 242.54 2290.49 235.433 Q2290.49 228.303 2288.66 224.762 Q2286.86 221.197 2283.22 221.197 M2283.22 217.493 Q2289.03 217.493 2292.09 222.1 Q2295.17 226.683 2295.17 235.433 Q2295.17 244.16 2292.09 248.766 Q2289.03 253.35 2283.22 253.35 Q2277.41 253.35 2274.33 248.766 Q2271.28 244.16 2271.28 235.433 Q2271.28 226.683 2274.33 222.1 Q2277.41 217.493 2283.22 217.493 Z" fill="#000000" fill-rule="nonzero" fill-opacity="1" /><path clip-path="url(#clip360)" d="M2303.39 246.799 L2308.27 246.799 L2308.27 252.678 L2303.39 252.678 L2303.39 246.799 Z" fill="#000000" fill-rule="nonzero" fill-opacity="1" /><path clip-path="url(#clip360)" d="M2322.48 248.743 L2338.8 248.743 L2338.8 252.678 L2316.86 252.678 L2316.86 248.743 Q2319.52 245.989 2324.1 241.359 Q2328.71 236.706 2329.89 235.364 Q2332.14 232.841 2333.01 231.104 Q2333.92 229.345 2333.92 227.655 Q2333.92 224.901 2331.97 223.165 Q2330.05 221.429 2326.95 221.429 Q2324.75 221.429 2322.3 222.192 Q2319.87 222.956 2317.09 224.507 L2317.09 219.785 Q2319.91 218.651 2322.37 218.072 Q2324.82 217.493 2326.86 217.493 Q2332.23 217.493 2335.42 220.179 Q2338.62 222.864 2338.62 227.354 Q2338.62 229.484 2337.81 231.405 Q2337.02 233.303 2334.91 235.896 Q2334.33 236.567 2331.23 239.785 Q2328.13 242.979 2322.48 248.743 Z" fill="#000000" fill-rule="nonzero" fill-opacity="1" /><path clip-path="url(#clip360)" d="M2349.1 246.799 L2353.99 246.799 L2353.99 250.78 L2350.19 258.188 L2347.2 258.188 L2349.1 250.78 L2349.1 246.799 Z" fill="#000000" fill-rule="nonzero" fill-opacity="1" /><path clip-path="url(#clip360)" d="M2378.11 226.753 L2382.51 226.753 L2382.51 237.516 L2393.69 226.753 L2398.87 226.753 L2388.66 236.521 L2400.47 252.678 L2395.26 252.678 L2385.68 239.299 L2382.51 242.285 L2382.51 252.678 L2378.11 252.678 L2378.11 226.753 Z" fill="#000000" fill-rule="nonzero" fill-opacity="1" /><path clip-path="url(#clip360)" d="M2406.65 231.151 L2436.32 231.151 L2436.32 235.04 L2406.65 235.04 L2406.65 231.151 M2406.65 240.595 L2436.32 240.595 L2436.32 244.53 L2406.65 244.53 L2406.65 240.595 Z" fill="#000000" fill-rule="nonzero" fill-opacity="1" /><path clip-path="url(#clip360)" d="M2460.58 234.044 Q2463.94 234.762 2465.82 237.03 Q2467.71 239.299 2467.71 242.632 Q2467.71 247.748 2464.19 250.549 Q2460.68 253.35 2454.19 253.35 Q2452.02 253.35 2449.7 252.91 Q2447.41 252.493 2444.96 251.637 L2444.96 247.123 Q2446.9 248.257 2449.22 248.836 Q2451.53 249.414 2454.06 249.414 Q2458.45 249.414 2460.75 247.678 Q2463.06 245.942 2463.06 242.632 Q2463.06 239.577 2460.91 237.864 Q2458.78 236.128 2454.96 236.128 L2450.93 236.128 L2450.93 232.285 L2455.14 232.285 Q2458.59 232.285 2460.42 230.919 Q2462.25 229.53 2462.25 226.938 Q2462.25 224.276 2460.35 222.864 Q2458.48 221.429 2454.96 221.429 Q2453.04 221.429 2450.84 221.845 Q2448.64 222.262 2446 223.141 L2446 218.975 Q2448.66 218.234 2450.98 217.864 Q2453.32 217.493 2455.38 217.493 Q2460.7 217.493 2463.8 219.924 Q2466.9 222.331 2466.9 226.452 Q2466.9 229.322 2465.26 231.313 Q2463.62 233.28 2460.58 234.044 Z" fill="#000000" fill-rule="nonzero" fill-opacity="1" /><path clip-path="url(#clip360)" d="M2476.58 246.799 L2481.46 246.799 L2481.46 252.678 L2476.58 252.678 L2476.58 246.799 Z" fill="#000000" fill-rule="nonzero" fill-opacity="1" /><path clip-path="url(#clip360)" d="M2501.65 221.197 Q2498.04 221.197 2496.21 224.762 Q2494.4 228.303 2494.4 235.433 Q2494.4 242.54 2496.21 246.104 Q2498.04 249.646 2501.65 249.646 Q2505.28 249.646 2507.09 246.104 Q2508.92 242.54 2508.92 235.433 Q2508.92 228.303 2507.09 224.762 Q2505.28 221.197 2501.65 221.197 M2501.65 217.493 Q2507.46 217.493 2510.51 222.1 Q2513.59 226.683 2513.59 235.433 Q2513.59 244.16 2510.51 248.766 Q2507.46 253.35 2501.65 253.35 Q2495.84 253.35 2492.76 248.766 Q2489.7 244.16 2489.7 235.433 Q2489.7 226.683 2492.76 222.1 Q2495.84 217.493 2501.65 217.493 Z" fill="#000000" fill-rule="nonzero" fill-opacity="1" /><path clip-path="url(#clip360)" d="M2520.54 216.706 L2524.24 216.706 Q2527.71 222.169 2529.43 227.401 Q2531.16 232.632 2531.16 237.794 Q2531.16 242.979 2529.43 248.234 Q2527.71 253.489 2524.24 258.928 L2520.54 258.928 Q2523.62 253.627 2525.12 248.396 Q2526.65 243.141 2526.65 237.794 Q2526.65 232.447 2525.12 227.239 Q2523.62 222.03 2520.54 216.706 Z" fill="#000000" fill-rule="nonzero" fill-opacity="1" /></svg>
