<?xml version="1.0" encoding="utf-8"?>
<svg xmlns="http://www.w3.org/2000/svg" xmlns:xlink="http://www.w3.org/1999/xlink" width="672" height="480" viewBox="0 0 2688 1920">
<defs>
  <clipPath id="clip030">
    <rect x="0" y="0" width="2688" height="1920"/>
  </clipPath>
</defs>
<path clip-path="url(#clip030)" d="M0 1920 L2688 1920 L2688 0 L0 0  Z" fill="#ffffff" fill-rule="evenodd" fill-opacity="1"/>
<defs>
  <clipPath id="clip031">
    <rect x="537" y="0" width="1883" height="1883"/>
  </clipPath>
</defs>
<path clip-path="url(#clip030)" d="M181.747 1800.78 L2640.76 1800.78 L2640.76 127.792 L181.747 127.792  Z" fill="#ffffff" fill-rule="evenodd" fill-opacity="1"/>
<defs>
  <clipPath id="clip032">
    <rect x="181" y="127" width="2460" height="1674"/>
  </clipPath>
</defs>
<polyline clip-path="url(#clip032)" style="stroke:#000000; stroke-linecap:round; stroke-linejoin:round; stroke-width:2; stroke-opacity:0.1; fill:none" points="251.341,1800.78 251.341,127.792 "/>
<polyline clip-path="url(#clip032)" style="stroke:#000000; stroke-linecap:round; stroke-linejoin:round; stroke-width:2; stroke-opacity:0.1; fill:none" points="831.296,1800.78 831.296,127.792 "/>
<polyline clip-path="url(#clip032)" style="stroke:#000000; stroke-linecap:round; stroke-linejoin:round; stroke-width:2; stroke-opacity:0.1; fill:none" points="1411.25,1800.78 1411.25,127.792 "/>
<polyline clip-path="url(#clip032)" style="stroke:#000000; stroke-linecap:round; stroke-linejoin:round; stroke-width:2; stroke-opacity:0.1; fill:none" points="1991.21,1800.78 1991.21,127.792 "/>
<polyline clip-path="url(#clip032)" style="stroke:#000000; stroke-linecap:round; stroke-linejoin:round; stroke-width:2; stroke-opacity:0.1; fill:none" points="2571.16,1800.78 2571.16,127.792 "/>
<polyline clip-path="url(#clip030)" style="stroke:#000000; stroke-linecap:round; stroke-linejoin:round; stroke-width:4; stroke-opacity:1; fill:none" points="181.747,1800.78 2640.76,1800.78 "/>
<polyline clip-path="url(#clip030)" style="stroke:#000000; stroke-linecap:round; stroke-linejoin:round; stroke-width:4; stroke-opacity:1; fill:none" points="251.341,1800.78 251.341,1781.88 "/>
<polyline clip-path="url(#clip030)" style="stroke:#000000; stroke-linecap:round; stroke-linejoin:round; stroke-width:4; stroke-opacity:1; fill:none" points="831.296,1800.78 831.296,1781.88 "/>
<polyline clip-path="url(#clip030)" style="stroke:#000000; stroke-linecap:round; stroke-linejoin:round; stroke-width:4; stroke-opacity:1; fill:none" points="1411.25,1800.78 1411.25,1781.88 "/>
<polyline clip-path="url(#clip030)" style="stroke:#000000; stroke-linecap:round; stroke-linejoin:round; stroke-width:4; stroke-opacity:1; fill:none" points="1991.21,1800.78 1991.21,1781.88 "/>
<polyline clip-path="url(#clip030)" style="stroke:#000000; stroke-linecap:round; stroke-linejoin:round; stroke-width:4; stroke-opacity:1; fill:none" points="2571.16,1800.78 2571.16,1781.88 "/>
<path clip-path="url(#clip030)" d="M213.645 1834 Q210.034 1834 208.205 1837.57 Q206.399 1841.11 206.399 1848.24 Q206.399 1855.34 208.205 1858.91 Q210.034 1862.45 213.645 1862.45 Q217.279 1862.45 219.084 1858.91 Q220.913 1855.34 220.913 1848.24 Q220.913 1841.11 219.084 1837.57 Q217.279 1834 213.645 1834 M213.645 1830.3 Q219.455 1830.3 222.51 1834.9 Q225.589 1839.49 225.589 1848.24 Q225.589 1856.96 222.51 1861.57 Q219.455 1866.15 213.645 1866.15 Q207.835 1866.15 204.756 1861.57 Q201.7 1856.96 201.7 1848.24 Q201.7 1839.49 204.756 1834.9 Q207.835 1830.3 213.645 1830.3 Z" fill="#000000" fill-rule="nonzero" fill-opacity="1" /><path clip-path="url(#clip030)" d="M233.807 1859.6 L238.691 1859.6 L238.691 1865.48 L233.807 1865.48 L233.807 1859.6 Z" fill="#000000" fill-rule="nonzero" fill-opacity="1" /><path clip-path="url(#clip030)" d="M258.876 1834 Q255.265 1834 253.436 1837.57 Q251.631 1841.11 251.631 1848.24 Q251.631 1855.34 253.436 1858.91 Q255.265 1862.45 258.876 1862.45 Q262.51 1862.45 264.316 1858.91 Q266.144 1855.34 266.144 1848.24 Q266.144 1841.11 264.316 1837.57 Q262.51 1834 258.876 1834 M258.876 1830.3 Q264.686 1830.3 267.742 1834.9 Q270.82 1839.49 270.82 1848.24 Q270.82 1856.96 267.742 1861.57 Q264.686 1866.15 258.876 1866.15 Q253.066 1866.15 249.987 1861.57 Q246.932 1856.96 246.932 1848.24 Q246.932 1839.49 249.987 1834.9 Q253.066 1830.3 258.876 1830.3 Z" fill="#000000" fill-rule="nonzero" fill-opacity="1" /><path clip-path="url(#clip030)" d="M289.038 1834 Q285.427 1834 283.598 1837.57 Q281.792 1841.11 281.792 1848.24 Q281.792 1855.34 283.598 1858.91 Q285.427 1862.45 289.038 1862.45 Q292.672 1862.45 294.478 1858.91 Q296.306 1855.34 296.306 1848.24 Q296.306 1841.11 294.478 1837.57 Q292.672 1834 289.038 1834 M289.038 1830.3 Q294.848 1830.3 297.903 1834.9 Q300.982 1839.49 300.982 1848.24 Q300.982 1856.96 297.903 1861.57 Q294.848 1866.15 289.038 1866.15 Q283.228 1866.15 280.149 1861.57 Q277.093 1856.96 277.093 1848.24 Q277.093 1839.49 280.149 1834.9 Q283.228 1830.3 289.038 1830.3 Z" fill="#000000" fill-rule="nonzero" fill-opacity="1" /><path clip-path="url(#clip030)" d="M794.097 1834 Q790.486 1834 788.658 1837.57 Q786.852 1841.11 786.852 1848.24 Q786.852 1855.34 788.658 1858.91 Q790.486 1862.45 794.097 1862.45 Q797.732 1862.45 799.537 1858.91 Q801.366 1855.34 801.366 1848.24 Q801.366 1841.11 799.537 1837.57 Q797.732 1834 794.097 1834 M794.097 1830.3 Q799.908 1830.3 802.963 1834.9 Q806.042 1839.49 806.042 1848.24 Q806.042 1856.96 802.963 1861.57 Q799.908 1866.15 794.097 1866.15 Q788.287 1866.15 785.209 1861.57 Q782.153 1856.96 782.153 1848.24 Q782.153 1839.49 785.209 1834.9 Q788.287 1830.3 794.097 1830.3 Z" fill="#000000" fill-rule="nonzero" fill-opacity="1" /><path clip-path="url(#clip030)" d="M814.259 1859.6 L819.144 1859.6 L819.144 1865.48 L814.259 1865.48 L814.259 1859.6 Z" fill="#000000" fill-rule="nonzero" fill-opacity="1" /><path clip-path="url(#clip030)" d="M833.356 1861.55 L849.676 1861.55 L849.676 1865.48 L827.731 1865.48 L827.731 1861.55 Q830.393 1858.79 834.977 1854.16 Q839.583 1849.51 840.764 1848.17 Q843.009 1845.65 843.889 1843.91 Q844.792 1842.15 844.792 1840.46 Q844.792 1837.71 842.847 1835.97 Q840.926 1834.23 837.824 1834.23 Q835.625 1834.23 833.171 1835 Q830.741 1835.76 827.963 1837.31 L827.963 1832.59 Q830.787 1831.46 833.241 1830.88 Q835.694 1830.3 837.731 1830.3 Q843.102 1830.3 846.296 1832.98 Q849.491 1835.67 849.491 1840.16 Q849.491 1842.29 848.68 1844.21 Q847.893 1846.11 845.787 1848.7 Q845.208 1849.37 842.106 1852.59 Q839.005 1855.78 833.356 1861.55 Z" fill="#000000" fill-rule="nonzero" fill-opacity="1" /><path clip-path="url(#clip030)" d="M859.537 1830.92 L877.893 1830.92 L877.893 1834.86 L863.819 1834.86 L863.819 1843.33 Q864.838 1842.98 865.856 1842.82 Q866.875 1842.64 867.893 1842.64 Q873.68 1842.64 877.06 1845.81 Q880.44 1848.98 880.44 1854.4 Q880.44 1859.97 876.967 1863.08 Q873.495 1866.15 867.176 1866.15 Q865 1866.15 862.731 1865.78 Q860.486 1865.41 858.079 1864.67 L858.079 1859.97 Q860.162 1861.11 862.384 1861.66 Q864.606 1862.22 867.083 1862.22 Q871.088 1862.22 873.426 1860.11 Q875.764 1858.01 875.764 1854.4 Q875.764 1850.78 873.426 1848.68 Q871.088 1846.57 867.083 1846.57 Q865.208 1846.57 863.333 1846.99 Q861.481 1847.4 859.537 1848.28 L859.537 1830.92 Z" fill="#000000" fill-rule="nonzero" fill-opacity="1" /><path clip-path="url(#clip030)" d="M1373.55 1834 Q1369.94 1834 1368.11 1837.57 Q1366.31 1841.11 1366.31 1848.24 Q1366.31 1855.34 1368.11 1858.91 Q1369.94 1862.45 1373.55 1862.45 Q1377.19 1862.45 1378.99 1858.91 Q1380.82 1855.34 1380.82 1848.24 Q1380.82 1841.11 1378.99 1837.57 Q1377.19 1834 1373.55 1834 M1373.55 1830.3 Q1379.36 1830.3 1382.42 1834.9 Q1385.5 1839.49 1385.5 1848.24 Q1385.5 1856.96 1382.42 1861.57 Q1379.36 1866.15 1373.55 1866.15 Q1367.74 1866.15 1364.67 1861.57 Q1361.61 1856.96 1361.61 1848.24 Q1361.61 1839.49 1364.67 1834.9 Q1367.74 1830.3 1373.55 1830.3 Z" fill="#000000" fill-rule="nonzero" fill-opacity="1" /><path clip-path="url(#clip030)" d="M1393.72 1859.6 L1398.6 1859.6 L1398.6 1865.48 L1393.72 1865.48 L1393.72 1859.6 Z" fill="#000000" fill-rule="nonzero" fill-opacity="1" /><path clip-path="url(#clip030)" d="M1408.83 1830.92 L1427.19 1830.92 L1427.19 1834.86 L1413.11 1834.86 L1413.11 1843.33 Q1414.13 1842.98 1415.15 1842.82 Q1416.17 1842.64 1417.19 1842.64 Q1422.98 1842.64 1426.36 1845.81 Q1429.73 1848.98 1429.73 1854.4 Q1429.73 1859.97 1426.26 1863.08 Q1422.79 1866.15 1416.47 1866.15 Q1414.3 1866.15 1412.03 1865.78 Q1409.78 1865.41 1407.37 1864.67 L1407.37 1859.97 Q1409.46 1861.11 1411.68 1861.66 Q1413.9 1862.22 1416.38 1862.22 Q1420.38 1862.22 1422.72 1860.11 Q1425.06 1858.01 1425.06 1854.4 Q1425.06 1850.78 1422.72 1848.68 Q1420.38 1846.57 1416.38 1846.57 Q1414.5 1846.57 1412.63 1846.99 Q1410.78 1847.4 1408.83 1848.28 L1408.83 1830.92 Z" fill="#000000" fill-rule="nonzero" fill-opacity="1" /><path clip-path="url(#clip030)" d="M1448.95 1834 Q1445.34 1834 1443.51 1837.57 Q1441.7 1841.11 1441.7 1848.24 Q1441.7 1855.34 1443.51 1858.91 Q1445.34 1862.45 1448.95 1862.45 Q1452.58 1862.45 1454.39 1858.91 Q1456.22 1855.34 1456.22 1848.24 Q1456.22 1841.11 1454.39 1837.57 Q1452.58 1834 1448.95 1834 M1448.95 1830.3 Q1454.76 1830.3 1457.81 1834.9 Q1460.89 1839.49 1460.89 1848.24 Q1460.89 1856.96 1457.81 1861.57 Q1454.76 1866.15 1448.95 1866.15 Q1443.14 1866.15 1440.06 1861.57 Q1437 1856.96 1437 1848.24 Q1437 1839.49 1440.06 1834.9 Q1443.14 1830.3 1448.95 1830.3 Z" fill="#000000" fill-rule="nonzero" fill-opacity="1" /><path clip-path="url(#clip030)" d="M1954.01 1834 Q1950.4 1834 1948.57 1837.57 Q1946.76 1841.11 1946.76 1848.24 Q1946.76 1855.34 1948.57 1858.91 Q1950.4 1862.45 1954.01 1862.45 Q1957.64 1862.45 1959.45 1858.91 Q1961.28 1855.34 1961.28 1848.24 Q1961.28 1841.11 1959.45 1837.57 Q1957.64 1834 1954.01 1834 M1954.01 1830.3 Q1959.82 1830.3 1962.87 1834.9 Q1965.95 1839.49 1965.95 1848.24 Q1965.95 1856.96 1962.87 1861.57 Q1959.82 1866.15 1954.01 1866.15 Q1948.2 1866.15 1945.12 1861.57 Q1942.06 1856.96 1942.06 1848.24 Q1942.06 1839.49 1945.12 1834.9 Q1948.2 1830.3 1954.01 1830.3 Z" fill="#000000" fill-rule="nonzero" fill-opacity="1" /><path clip-path="url(#clip030)" d="M1974.17 1859.6 L1979.05 1859.6 L1979.05 1865.48 L1974.17 1865.48 L1974.17 1859.6 Z" fill="#000000" fill-rule="nonzero" fill-opacity="1" /><path clip-path="url(#clip030)" d="M1988.06 1830.92 L2010.28 1830.92 L2010.28 1832.91 L1997.73 1865.48 L1992.85 1865.48 L2004.66 1834.86 L1988.06 1834.86 L1988.06 1830.92 Z" fill="#000000" fill-rule="nonzero" fill-opacity="1" /><path clip-path="url(#clip030)" d="M2019.45 1830.92 L2037.8 1830.92 L2037.8 1834.86 L2023.73 1834.86 L2023.73 1843.33 Q2024.75 1842.98 2025.77 1842.82 Q2026.78 1842.64 2027.8 1842.64 Q2033.59 1842.64 2036.97 1845.81 Q2040.35 1848.98 2040.35 1854.4 Q2040.35 1859.97 2036.88 1863.08 Q2033.41 1866.15 2027.09 1866.15 Q2024.91 1866.15 2022.64 1865.78 Q2020.4 1865.41 2017.99 1864.67 L2017.99 1859.97 Q2020.07 1861.11 2022.29 1861.66 Q2024.52 1862.22 2026.99 1862.22 Q2031 1862.22 2033.34 1860.11 Q2035.67 1858.01 2035.67 1854.4 Q2035.67 1850.78 2033.34 1848.68 Q2031 1846.57 2026.99 1846.57 Q2025.12 1846.57 2023.24 1846.99 Q2021.39 1847.4 2019.45 1848.28 L2019.45 1830.92 Z" fill="#000000" fill-rule="nonzero" fill-opacity="1" /><path clip-path="url(#clip030)" d="M2523.23 1861.55 L2530.87 1861.55 L2530.87 1835.18 L2522.56 1836.85 L2522.56 1832.59 L2530.83 1830.92 L2535.5 1830.92 L2535.5 1861.55 L2543.14 1861.55 L2543.14 1865.48 L2523.23 1865.48 L2523.23 1861.55 Z" fill="#000000" fill-rule="nonzero" fill-opacity="1" /><path clip-path="url(#clip030)" d="M2552.59 1859.6 L2557.47 1859.6 L2557.47 1865.48 L2552.59 1865.48 L2552.59 1859.6 Z" fill="#000000" fill-rule="nonzero" fill-opacity="1" /><path clip-path="url(#clip030)" d="M2577.65 1834 Q2574.04 1834 2572.21 1837.57 Q2570.41 1841.11 2570.41 1848.24 Q2570.41 1855.34 2572.21 1858.91 Q2574.04 1862.45 2577.65 1862.45 Q2581.29 1862.45 2583.09 1858.91 Q2584.92 1855.34 2584.92 1848.24 Q2584.92 1841.11 2583.09 1837.57 Q2581.29 1834 2577.65 1834 M2577.65 1830.3 Q2583.46 1830.3 2586.52 1834.9 Q2589.6 1839.49 2589.6 1848.24 Q2589.6 1856.96 2586.52 1861.57 Q2583.46 1866.15 2577.65 1866.15 Q2571.84 1866.15 2568.77 1861.57 Q2565.71 1856.96 2565.71 1848.24 Q2565.71 1839.49 2568.77 1834.9 Q2571.84 1830.3 2577.65 1830.3 Z" fill="#000000" fill-rule="nonzero" fill-opacity="1" /><path clip-path="url(#clip030)" d="M2607.82 1834 Q2604.21 1834 2602.38 1837.57 Q2600.57 1841.11 2600.57 1848.24 Q2600.57 1855.34 2602.38 1858.91 Q2604.21 1862.45 2607.82 1862.45 Q2611.45 1862.45 2613.26 1858.91 Q2615.08 1855.34 2615.08 1848.24 Q2615.08 1841.11 2613.26 1837.57 Q2611.45 1834 2607.82 1834 M2607.82 1830.3 Q2613.63 1830.3 2616.68 1834.9 Q2619.76 1839.49 2619.76 1848.24 Q2619.76 1856.96 2616.68 1861.57 Q2613.63 1866.15 2607.82 1866.15 Q2602.01 1866.15 2598.93 1861.57 Q2595.87 1856.96 2595.87 1848.24 Q2595.87 1839.49 2598.93 1834.9 Q2602.01 1830.3 2607.82 1830.3 Z" fill="#000000" fill-rule="nonzero" fill-opacity="1" /><polyline clip-path="url(#clip032)" style="stroke:#000000; stroke-linecap:round; stroke-linejoin:round; stroke-width:2; stroke-opacity:0.1; fill:none" points="181.747,1676.06 2640.76,1676.06 "/>
<polyline clip-path="url(#clip032)" style="stroke:#000000; stroke-linecap:round; stroke-linejoin:round; stroke-width:2; stroke-opacity:0.1; fill:none" points="181.747,1341.87 2640.76,1341.87 "/>
<polyline clip-path="url(#clip032)" style="stroke:#000000; stroke-linecap:round; stroke-linejoin:round; stroke-width:2; stroke-opacity:0.1; fill:none" points="181.747,1007.68 2640.76,1007.68 "/>
<polyline clip-path="url(#clip032)" style="stroke:#000000; stroke-linecap:round; stroke-linejoin:round; stroke-width:2; stroke-opacity:0.1; fill:none" points="181.747,673.495 2640.76,673.495 "/>
<polyline clip-path="url(#clip032)" style="stroke:#000000; stroke-linecap:round; stroke-linejoin:round; stroke-width:2; stroke-opacity:0.1; fill:none" points="181.747,339.307 2640.76,339.307 "/>
<polyline clip-path="url(#clip030)" style="stroke:#000000; stroke-linecap:round; stroke-linejoin:round; stroke-width:4; stroke-opacity:1; fill:none" points="181.747,1800.78 181.747,127.792 "/>
<polyline clip-path="url(#clip030)" style="stroke:#000000; stroke-linecap:round; stroke-linejoin:round; stroke-width:4; stroke-opacity:1; fill:none" points="181.747,1676.06 200.644,1676.06 "/>
<polyline clip-path="url(#clip030)" style="stroke:#000000; stroke-linecap:round; stroke-linejoin:round; stroke-width:4; stroke-opacity:1; fill:none" points="181.747,1341.87 200.644,1341.87 "/>
<polyline clip-path="url(#clip030)" style="stroke:#000000; stroke-linecap:round; stroke-linejoin:round; stroke-width:4; stroke-opacity:1; fill:none" points="181.747,1007.68 200.644,1007.68 "/>
<polyline clip-path="url(#clip030)" style="stroke:#000000; stroke-linecap:round; stroke-linejoin:round; stroke-width:4; stroke-opacity:1; fill:none" points="181.747,673.495 200.644,673.495 "/>
<polyline clip-path="url(#clip030)" style="stroke:#000000; stroke-linecap:round; stroke-linejoin:round; stroke-width:4; stroke-opacity:1; fill:none" points="181.747,339.307 200.644,339.307 "/>
<path clip-path="url(#clip030)" d="M50.5475 1676.51 L80.2233 1676.51 L80.2233 1680.45 L50.5475 1680.45 L50.5475 1676.51 Z" fill="#000000" fill-rule="nonzero" fill-opacity="1" /><path clip-path="url(#clip030)" d="M91.126 1689.4 L98.7648 1689.4 L98.7648 1663.04 L90.4547 1664.71 L90.4547 1660.45 L98.7185 1658.78 L103.394 1658.78 L103.394 1689.4 L111.033 1689.4 L111.033 1693.34 L91.126 1693.34 L91.126 1689.4 Z" fill="#000000" fill-rule="nonzero" fill-opacity="1" /><path clip-path="url(#clip030)" d="M120.524 1658.78 L138.88 1658.78 L138.88 1662.71 L124.806 1662.71 L124.806 1671.19 Q125.825 1670.84 126.843 1670.68 Q127.862 1670.49 128.88 1670.49 Q134.667 1670.49 138.047 1673.66 Q141.427 1676.84 141.427 1682.25 Q141.427 1687.83 137.954 1690.93 Q134.482 1694.01 128.163 1694.01 Q125.987 1694.01 123.718 1693.64 Q121.473 1693.27 119.066 1692.53 L119.066 1687.83 Q121.149 1688.96 123.371 1689.52 Q125.593 1690.08 128.07 1690.08 Q132.075 1690.08 134.413 1687.97 Q136.751 1685.86 136.751 1682.25 Q136.751 1678.64 134.413 1676.53 Q132.075 1674.43 128.07 1674.43 Q126.195 1674.43 124.32 1674.84 Q122.468 1675.26 120.524 1676.14 L120.524 1658.78 Z" fill="#000000" fill-rule="nonzero" fill-opacity="1" /><path clip-path="url(#clip030)" d="M49.5521 1342.32 L79.2279 1342.32 L79.2279 1346.26 L49.5521 1346.26 L49.5521 1342.32 Z" fill="#000000" fill-rule="nonzero" fill-opacity="1" /><path clip-path="url(#clip030)" d="M90.1306 1355.22 L97.7695 1355.22 L97.7695 1328.85 L89.4593 1330.52 L89.4593 1326.26 L97.7232 1324.59 L102.399 1324.59 L102.399 1355.22 L110.038 1355.22 L110.038 1359.15 L90.1306 1359.15 L90.1306 1355.22 Z" fill="#000000" fill-rule="nonzero" fill-opacity="1" /><path clip-path="url(#clip030)" d="M129.482 1327.67 Q125.871 1327.67 124.042 1331.24 Q122.237 1334.78 122.237 1341.91 Q122.237 1349.01 124.042 1352.58 Q125.871 1356.12 129.482 1356.12 Q133.116 1356.12 134.922 1352.58 Q136.751 1349.01 136.751 1341.91 Q136.751 1334.78 134.922 1331.24 Q133.116 1327.67 129.482 1327.67 M129.482 1323.97 Q135.292 1323.97 138.348 1328.57 Q141.427 1333.16 141.427 1341.91 Q141.427 1350.63 138.348 1355.24 Q135.292 1359.82 129.482 1359.82 Q123.672 1359.82 120.593 1355.24 Q117.538 1350.63 117.538 1341.91 Q117.538 1333.16 120.593 1328.57 Q123.672 1323.97 129.482 1323.97 Z" fill="#000000" fill-rule="nonzero" fill-opacity="1" /><path clip-path="url(#clip030)" d="M80.7094 1008.13 L110.385 1008.13 L110.385 1012.07 L80.7094 1012.07 L80.7094 1008.13 Z" fill="#000000" fill-rule="nonzero" fill-opacity="1" /><path clip-path="url(#clip030)" d="M120.524 990.403 L138.88 990.403 L138.88 994.339 L124.806 994.339 L124.806 1002.81 Q125.825 1002.46 126.843 1002.3 Q127.862 1002.12 128.88 1002.12 Q134.667 1002.12 138.047 1005.29 Q141.427 1008.46 141.427 1013.88 Q141.427 1019.45 137.954 1022.56 Q134.482 1025.63 128.163 1025.63 Q125.987 1025.63 123.718 1025.26 Q121.473 1024.89 119.066 1024.15 L119.066 1019.45 Q121.149 1020.59 123.371 1021.14 Q125.593 1021.7 128.07 1021.7 Q132.075 1021.7 134.413 1019.59 Q136.751 1017.49 136.751 1013.88 Q136.751 1010.26 134.413 1008.16 Q132.075 1006.05 128.07 1006.05 Q126.195 1006.05 124.32 1006.47 Q122.468 1006.88 120.524 1007.76 L120.524 990.403 Z" fill="#000000" fill-rule="nonzero" fill-opacity="1" /><path clip-path="url(#clip030)" d="M129.482 659.294 Q125.871 659.294 124.042 662.859 Q122.237 666.4 122.237 673.53 Q122.237 680.637 124.042 684.201 Q125.871 687.743 129.482 687.743 Q133.116 687.743 134.922 684.201 Q136.751 680.637 136.751 673.53 Q136.751 666.4 134.922 662.859 Q133.116 659.294 129.482 659.294 M129.482 655.59 Q135.292 655.59 138.348 660.197 Q141.427 664.78 141.427 673.53 Q141.427 682.257 138.348 686.863 Q135.292 691.447 129.482 691.447 Q123.672 691.447 120.593 686.863 Q117.538 682.257 117.538 673.53 Q117.538 664.78 120.593 660.197 Q123.672 655.59 129.482 655.59 Z" fill="#000000" fill-rule="nonzero" fill-opacity="1" /><path clip-path="url(#clip030)" d="M120.524 322.027 L138.88 322.027 L138.88 325.962 L124.806 325.962 L124.806 334.435 Q125.825 334.087 126.843 333.925 Q127.862 333.74 128.88 333.74 Q134.667 333.74 138.047 336.911 Q141.427 340.083 141.427 345.499 Q141.427 351.078 137.954 354.18 Q134.482 357.259 128.163 357.259 Q125.987 357.259 123.718 356.888 Q121.473 356.518 119.066 355.777 L119.066 351.078 Q121.149 352.212 123.371 352.768 Q125.593 353.323 128.07 353.323 Q132.075 353.323 134.413 351.217 Q136.751 349.11 136.751 345.499 Q136.751 341.888 134.413 339.782 Q132.075 337.675 128.07 337.675 Q126.195 337.675 124.32 338.092 Q122.468 338.509 120.524 339.388 L120.524 322.027 Z" fill="#000000" fill-rule="nonzero" fill-opacity="1" /><path clip-path="url(#clip030)" d="M1087.02 17.6457 Q1078.1 17.6457 1072.84 24.2892 Q1067.61 30.9327 1067.61 42.3968 Q1067.61 53.8203 1072.84 60.4638 Q1078.1 67.1073 1087.02 67.1073 Q1095.93 67.1073 1101.11 60.4638 Q1106.34 53.8203 1106.34 42.3968 Q1106.34 30.9327 1101.11 24.2892 Q1095.93 17.6457 1087.02 17.6457 M1098.48 71.4823 L1109.26 83.2704 L1099.37 83.2704 L1090.42 73.5887 Q1089.08 73.6697 1088.35 73.7103 Q1087.67 73.7508 1087.02 73.7508 Q1074.26 73.7508 1066.6 65.2439 Q1058.98 56.6965 1058.98 42.3968 Q1058.98 28.0566 1066.6 19.5497 Q1074.26 11.0023 1087.02 11.0023 Q1099.74 11.0023 1107.35 19.5497 Q1114.97 28.0566 1114.97 42.3968 Q1114.97 52.9291 1110.71 60.4233 Q1106.5 67.9175 1098.48 71.4823 Z" fill="#000000" fill-rule="nonzero" fill-opacity="1" /><path clip-path="url(#clip030)" d="M1126.68 54.671 L1126.68 27.2059 L1134.13 27.2059 L1134.13 54.3874 Q1134.13 60.8284 1136.64 64.0691 Q1139.15 67.2693 1144.18 67.2693 Q1150.21 67.2693 1153.69 63.421 Q1157.22 59.5726 1157.22 52.9291 L1157.22 27.2059 L1164.67 27.2059 L1164.67 72.576 L1157.22 72.576 L1157.22 65.6084 Q1154.5 69.7404 1150.9 71.7658 Q1147.33 73.7508 1142.6 73.7508 Q1134.78 73.7508 1130.73 68.8897 Q1126.68 64.0286 1126.68 54.671 M1145.43 26.1121 L1145.43 26.1121 Z" fill="#000000" fill-rule="nonzero" fill-opacity="1" /><path clip-path="url(#clip030)" d="M1200.64 49.7694 Q1191.61 49.7694 1188.13 51.8354 Q1184.64 53.9013 1184.64 58.8839 Q1184.64 62.8538 1187.24 65.2034 Q1189.87 67.5124 1194.37 67.5124 Q1200.56 67.5124 1204.29 63.1374 Q1208.06 58.7219 1208.06 51.4303 L1208.06 49.7694 L1200.64 49.7694 M1215.51 46.6907 L1215.51 72.576 L1208.06 72.576 L1208.06 65.6895 Q1205.51 69.8214 1201.7 71.8063 Q1197.89 73.7508 1192.38 73.7508 Q1185.41 73.7508 1181.28 69.8619 Q1177.19 65.9325 1177.19 59.3701 Q1177.19 51.7138 1182.29 47.825 Q1187.44 43.9361 1197.61 43.9361 L1208.06 43.9361 L1208.06 43.2069 Q1208.06 38.0623 1204.66 35.2672 Q1201.29 32.4315 1195.18 32.4315 Q1191.29 32.4315 1187.6 33.3632 Q1183.91 34.295 1180.51 36.1584 L1180.51 29.2718 Q1184.6 27.692 1188.45 26.9223 Q1192.3 26.1121 1195.95 26.1121 Q1205.79 26.1121 1210.65 31.2163 Q1215.51 36.3204 1215.51 46.6907 Z" fill="#000000" fill-rule="nonzero" fill-opacity="1" /><path clip-path="url(#clip030)" d="M1268.58 45.1919 L1268.58 72.576 L1261.12 72.576 L1261.12 45.4349 Q1261.12 38.994 1258.61 35.7938 Q1256.1 32.5936 1251.08 32.5936 Q1245.04 32.5936 1241.56 36.4419 Q1238.08 40.2903 1238.08 46.9338 L1238.08 72.576 L1230.58 72.576 L1230.58 27.2059 L1238.08 27.2059 L1238.08 34.2544 Q1240.75 30.163 1244.35 28.1376 Q1248 26.1121 1252.74 26.1121 Q1260.56 26.1121 1264.57 30.9732 Q1268.58 35.7938 1268.58 45.1919 Z" fill="#000000" fill-rule="nonzero" fill-opacity="1" /><path clip-path="url(#clip030)" d="M1290.82 14.324 L1290.82 27.2059 L1306.17 27.2059 L1306.17 32.9987 L1290.82 32.9987 L1290.82 57.6282 Q1290.82 63.1779 1292.32 64.7578 Q1293.86 66.3376 1298.51 66.3376 L1306.17 66.3376 L1306.17 72.576 L1298.51 72.576 Q1289.89 72.576 1286.6 69.3758 Q1283.32 66.1351 1283.32 57.6282 L1283.32 32.9987 L1277.85 32.9987 L1277.85 27.2059 L1283.32 27.2059 L1283.32 14.324 L1290.82 14.324 Z" fill="#000000" fill-rule="nonzero" fill-opacity="1" /><path clip-path="url(#clip030)" d="M1315.97 27.2059 L1323.43 27.2059 L1323.43 72.576 L1315.97 72.576 L1315.97 27.2059 M1315.97 9.54393 L1323.43 9.54393 L1323.43 18.9825 L1315.97 18.9825 L1315.97 9.54393 Z" fill="#000000" fill-rule="nonzero" fill-opacity="1" /><path clip-path="url(#clip030)" d="M1339.02 9.54393 L1346.48 9.54393 L1346.48 72.576 L1339.02 72.576 L1339.02 9.54393 Z" fill="#000000" fill-rule="nonzero" fill-opacity="1" /><path clip-path="url(#clip030)" d="M1400.88 48.0275 L1400.88 51.6733 L1366.61 51.6733 Q1367.1 59.3701 1371.23 63.421 Q1375.4 67.4314 1382.81 67.4314 Q1387.11 67.4314 1391.12 66.3781 Q1395.17 65.3249 1399.14 63.2184 L1399.14 70.267 Q1395.13 71.9684 1390.92 72.8596 Q1386.7 73.7508 1382.37 73.7508 Q1371.51 73.7508 1365.15 67.4314 Q1358.83 61.1119 1358.83 50.3365 Q1358.83 39.1965 1364.83 32.6746 Q1370.86 26.1121 1381.07 26.1121 Q1390.23 26.1121 1395.53 32.0264 Q1400.88 37.9003 1400.88 48.0275 M1393.43 45.84 Q1393.35 39.7232 1389.98 36.0774 Q1386.66 32.4315 1381.15 32.4315 Q1374.91 32.4315 1371.15 35.9558 Q1367.42 39.4801 1366.85 45.8805 L1393.43 45.84 Z" fill="#000000" fill-rule="nonzero" fill-opacity="1" /><path clip-path="url(#clip030)" d="M1462.45 9.54393 L1462.45 15.7418 L1455.33 15.7418 Q1451.31 15.7418 1449.73 17.3622 Q1448.2 18.9825 1448.2 23.1955 L1448.2 27.2059 L1460.47 27.2059 L1460.47 32.9987 L1448.2 32.9987 L1448.2 72.576 L1440.7 72.576 L1440.7 32.9987 L1433.57 32.9987 L1433.57 27.2059 L1440.7 27.2059 L1440.7 24.0462 Q1440.7 16.471 1444.23 13.0277 Q1447.75 9.54393 1455.41 9.54393 L1462.45 9.54393 Z" fill="#000000" fill-rule="nonzero" fill-opacity="1" /><path clip-path="url(#clip030)" d="M1467.92 54.671 L1467.92 27.2059 L1475.38 27.2059 L1475.38 54.3874 Q1475.38 60.8284 1477.89 64.0691 Q1480.4 67.2693 1485.42 67.2693 Q1491.46 67.2693 1494.94 63.421 Q1498.47 59.5726 1498.47 52.9291 L1498.47 27.2059 L1505.92 27.2059 L1505.92 72.576 L1498.47 72.576 L1498.47 65.6084 Q1495.75 69.7404 1492.15 71.7658 Q1488.58 73.7508 1483.84 73.7508 Q1476.03 73.7508 1471.97 68.8897 Q1467.92 64.0286 1467.92 54.671 M1486.68 26.1121 L1486.68 26.1121 Z" fill="#000000" fill-rule="nonzero" fill-opacity="1" /><path clip-path="url(#clip030)" d="M1558.99 45.1919 L1558.99 72.576 L1551.53 72.576 L1551.53 45.4349 Q1551.53 38.994 1549.02 35.7938 Q1546.51 32.5936 1541.49 32.5936 Q1535.45 32.5936 1531.97 36.4419 Q1528.48 40.2903 1528.48 46.9338 L1528.48 72.576 L1520.99 72.576 L1520.99 27.2059 L1528.48 27.2059 L1528.48 34.2544 Q1531.16 30.163 1534.76 28.1376 Q1538.41 26.1121 1543.15 26.1121 Q1550.97 26.1121 1554.98 30.9732 Q1558.99 35.7938 1558.99 45.1919 Z" fill="#000000" fill-rule="nonzero" fill-opacity="1" /><path clip-path="url(#clip030)" d="M1606.5 28.9478 L1606.5 35.9153 Q1603.35 34.1734 1600.14 33.3227 Q1596.99 32.4315 1593.74 32.4315 Q1586.49 32.4315 1582.48 37.0496 Q1578.47 41.6271 1578.47 49.9314 Q1578.47 58.2358 1582.48 62.8538 Q1586.49 67.4314 1593.74 67.4314 Q1596.99 67.4314 1600.14 66.5807 Q1603.35 65.6895 1606.5 63.9476 L1606.5 70.8341 Q1603.39 72.2924 1600.02 73.0216 Q1596.7 73.7508 1592.93 73.7508 Q1582.69 73.7508 1576.65 67.3098 Q1570.61 60.8689 1570.61 49.9314 Q1570.61 38.832 1576.69 32.472 Q1582.81 26.1121 1593.42 26.1121 Q1596.86 26.1121 1600.14 26.8413 Q1603.43 27.5299 1606.5 28.9478 Z" fill="#000000" fill-rule="nonzero" fill-opacity="1" /><path clip-path="url(#clip030)" d="M1626.84 14.324 L1626.84 27.2059 L1642.19 27.2059 L1642.19 32.9987 L1626.84 32.9987 L1626.84 57.6282 Q1626.84 63.1779 1628.34 64.7578 Q1629.88 66.3376 1634.54 66.3376 L1642.19 66.3376 L1642.19 72.576 L1634.54 72.576 Q1625.91 72.576 1622.63 69.3758 Q1619.35 66.1351 1619.35 57.6282 L1619.35 32.9987 L1613.88 32.9987 L1613.88 27.2059 L1619.35 27.2059 L1619.35 14.324 L1626.84 14.324 Z" fill="#000000" fill-rule="nonzero" fill-opacity="1" /><path clip-path="url(#clip030)" d="M1652 27.2059 L1659.45 27.2059 L1659.45 72.576 L1652 72.576 L1652 27.2059 M1652 9.54393 L1659.45 9.54393 L1659.45 18.9825 L1652 18.9825 L1652 9.54393 Z" fill="#000000" fill-rule="nonzero" fill-opacity="1" /><path clip-path="url(#clip030)" d="M1692.63 32.4315 Q1686.63 32.4315 1683.15 37.1306 Q1679.66 41.7891 1679.66 49.9314 Q1679.66 58.0738 1683.11 62.7728 Q1686.59 67.4314 1692.63 67.4314 Q1698.58 67.4314 1702.07 62.7323 Q1705.55 58.0333 1705.55 49.9314 Q1705.55 41.8701 1702.07 37.1711 Q1698.58 32.4315 1692.63 32.4315 M1692.63 26.1121 Q1702.35 26.1121 1707.9 32.4315 Q1713.45 38.7509 1713.45 49.9314 Q1713.45 61.0714 1707.9 67.4314 Q1702.35 73.7508 1692.63 73.7508 Q1682.86 73.7508 1677.31 67.4314 Q1671.81 61.0714 1671.81 49.9314 Q1671.81 38.7509 1677.31 32.4315 Q1682.86 26.1121 1692.63 26.1121 Z" fill="#000000" fill-rule="nonzero" fill-opacity="1" /><path clip-path="url(#clip030)" d="M1763.52 45.1919 L1763.52 72.576 L1756.06 72.576 L1756.06 45.4349 Q1756.06 38.994 1753.55 35.7938 Q1751.04 32.5936 1746.02 32.5936 Q1739.98 32.5936 1736.5 36.4419 Q1733.01 40.2903 1733.01 46.9338 L1733.01 72.576 L1725.52 72.576 L1725.52 27.2059 L1733.01 27.2059 L1733.01 34.2544 Q1735.69 30.163 1739.29 28.1376 Q1742.94 26.1121 1747.68 26.1121 Q1755.5 26.1121 1759.51 30.9732 Q1763.52 35.7938 1763.52 45.1919 Z" fill="#000000" fill-rule="nonzero" fill-opacity="1" /><polyline clip-path="url(#clip032)" style="stroke:#009af9; stroke-linecap:round; stroke-linejoin:round; stroke-width:4; stroke-opacity:1; fill:none" points="274.539,1753.43 297.738,1505.67 320.936,1374.15 344.134,1286.13 367.332,1220.6 390.53,1168.69 413.729,1125.84 436.927,1089.44 460.125,1057.83 483.323,1029.91 506.521,1004.93 529.72,982.312 552.918,961.657 576.116,942.642 599.314,925.02 622.512,908.592 645.711,893.2 668.909,878.713 692.107,865.022 715.305,852.037 738.503,839.681 761.702,827.888 784.9,816.603 808.098,805.777 831.296,795.367 854.494,785.336 877.693,775.651 900.891,766.283 924.089,757.207 947.287,748.398 970.485,739.838 993.684,731.506 1016.88,723.385 1040.08,715.461 1063.28,707.719 1086.48,700.147 1109.67,692.732 1132.87,685.464 1156.07,678.333 1179.27,671.329 1202.47,664.445 1225.67,657.671 1248.86,651 1272.06,644.426 1295.26,637.941 1318.46,631.54 1341.66,625.217 1364.85,618.965 1388.05,612.781 1411.25,606.658 1434.45,600.591 1457.65,594.577 1480.85,588.611 1504.04,582.688 1527.24,576.804 1550.44,570.955 1573.64,565.137 1596.84,559.346 1620.04,553.578 1643.23,547.83 1666.43,542.097 1689.63,536.375 1712.83,530.662 1736.03,524.952 1759.22,519.242 1782.42,513.528 1805.62,507.806 1828.82,502.071 1852.02,496.319 1875.22,490.546 1898.41,484.746 1921.61,478.915 1944.81,473.048 1968.01,467.138 1991.21,461.179 2014.4,455.165 2037.6,449.088 2060.8,442.941 2084,436.715 2107.2,430.401 2130.4,423.987 2153.59,417.462 2176.79,410.811 2199.99,404.02 2223.19,397.071 2246.39,389.941 2269.58,382.606 2292.78,375.036 2315.98,367.194 2339.18,359.035 2362.38,350.502 2385.58,341.519 2408.77,331.987 2431.97,321.767 2455.17,310.657 2478.37,298.338 2501.57,284.266 2524.76,267.343 2547.96,244.605 2571.16,175.141 "/>
<path clip-path="url(#clip030)" d="M820.049 1745.01 L2558.79 1745.01 L2558.79 1641.33 L820.049 1641.33  Z" fill="#ffffff" fill-rule="evenodd" fill-opacity="1"/>
<polyline clip-path="url(#clip030)" style="stroke:#000000; stroke-linecap:round; stroke-linejoin:round; stroke-width:4; stroke-opacity:1; fill:none" points="820.049,1745.01 2558.79,1745.01 2558.79,1641.33 820.049,1641.33 820.049,1745.01 "/>
<polyline clip-path="url(#clip030)" style="stroke:#009af9; stroke-linecap:round; stroke-linejoin:round; stroke-width:4; stroke-opacity:1; fill:none" points="847.371,1693.17 1011.31,1693.17 "/>
<path clip-path="url(#clip030)" d="M1054.65 1679.06 Q1049.55 1679.06 1046.54 1682.86 Q1043.56 1686.66 1043.56 1693.21 Q1043.56 1699.74 1046.54 1703.53 Q1049.55 1707.33 1054.65 1707.33 Q1059.74 1707.33 1062.7 1703.53 Q1065.69 1699.74 1065.69 1693.21 Q1065.69 1686.66 1062.7 1682.86 Q1059.74 1679.06 1054.65 1679.06 M1061.2 1709.83 L1067.35 1716.56 L1061.71 1716.56 L1056.59 1711.03 Q1055.83 1711.08 1055.41 1711.1 Q1055.02 1711.12 1054.65 1711.12 Q1047.35 1711.12 1042.98 1706.26 Q1038.63 1701.38 1038.63 1693.21 Q1038.63 1685.01 1042.98 1680.15 Q1047.35 1675.27 1054.65 1675.27 Q1061.91 1675.27 1066.27 1680.15 Q1070.62 1685.01 1070.62 1693.21 Q1070.62 1699.23 1068.19 1703.51 Q1065.78 1707.79 1061.2 1709.83 Z" fill="#000000" fill-rule="nonzero" fill-opacity="1" /><path clip-path="url(#clip030)" d="M1082.61 1679.74 L1082.61 1706.61 L1088.26 1706.61 Q1095.41 1706.61 1098.72 1703.37 Q1102.05 1700.13 1102.05 1693.14 Q1102.05 1686.19 1098.72 1682.98 Q1095.41 1679.74 1088.26 1679.74 L1082.61 1679.74 M1077.93 1675.89 L1087.54 1675.89 Q1097.59 1675.89 1102.28 1680.08 Q1106.98 1684.25 1106.98 1693.14 Q1106.98 1702.07 1102.26 1706.26 Q1097.54 1710.45 1087.54 1710.45 L1077.93 1710.45 L1077.93 1675.89 Z" fill="#000000" fill-rule="nonzero" fill-opacity="1" /><path clip-path="url(#clip030)" d="M1114.25 1684.53 L1118.51 1684.53 L1118.51 1710.45 L1114.25 1710.45 L1114.25 1684.53 M1114.25 1674.43 L1118.51 1674.43 L1118.51 1679.83 L1114.25 1679.83 L1114.25 1674.43 Z" fill="#000000" fill-rule="nonzero" fill-opacity="1" /><path clip-path="url(#clip030)" d="M1143.95 1685.29 L1143.95 1689.32 Q1142.15 1688.39 1140.2 1687.93 Q1138.26 1687.47 1136.17 1687.47 Q1133 1687.47 1131.4 1688.44 Q1129.83 1689.41 1129.83 1691.36 Q1129.83 1692.84 1130.96 1693.69 Q1132.1 1694.53 1135.53 1695.29 L1136.98 1695.62 Q1141.52 1696.59 1143.42 1698.37 Q1145.34 1700.13 1145.34 1703.3 Q1145.34 1706.91 1142.47 1709.02 Q1139.62 1711.12 1134.62 1711.12 Q1132.54 1711.12 1130.27 1710.71 Q1128.03 1710.31 1125.53 1709.5 L1125.53 1705.11 Q1127.89 1706.33 1130.18 1706.96 Q1132.47 1707.56 1134.71 1707.56 Q1137.72 1707.56 1139.34 1706.54 Q1140.96 1705.5 1140.96 1703.62 Q1140.96 1701.89 1139.78 1700.96 Q1138.63 1700.04 1134.67 1699.18 L1133.19 1698.83 Q1129.23 1698 1127.47 1696.29 Q1125.71 1694.55 1125.71 1691.54 Q1125.71 1687.88 1128.3 1685.89 Q1130.9 1683.9 1135.66 1683.9 Q1138.02 1683.9 1140.11 1684.25 Q1142.19 1684.6 1143.95 1685.29 Z" fill="#000000" fill-rule="nonzero" fill-opacity="1" /><path clip-path="url(#clip030)" d="M1156.34 1677.17 L1156.34 1684.53 L1165.11 1684.53 L1165.11 1687.84 L1156.34 1687.84 L1156.34 1701.91 Q1156.34 1705.08 1157.19 1705.99 Q1158.07 1706.89 1160.73 1706.89 L1165.11 1706.89 L1165.11 1710.45 L1160.73 1710.45 Q1155.8 1710.45 1153.93 1708.62 Q1152.05 1706.77 1152.05 1701.91 L1152.05 1687.84 L1148.93 1687.84 L1148.93 1684.53 L1152.05 1684.53 L1152.05 1677.17 L1156.34 1677.17 Z" fill="#000000" fill-rule="nonzero" fill-opacity="1" /><path clip-path="url(#clip030)" d="M1185.73 1688.51 Q1185.02 1688.09 1184.16 1687.91 Q1183.33 1687.7 1182.31 1687.7 Q1178.7 1687.7 1176.75 1690.06 Q1174.83 1692.4 1174.83 1696.8 L1174.83 1710.45 L1170.55 1710.45 L1170.55 1684.53 L1174.83 1684.53 L1174.83 1688.56 Q1176.17 1686.19 1178.33 1685.06 Q1180.48 1683.9 1183.56 1683.9 Q1184 1683.9 1184.53 1683.97 Q1185.06 1684.02 1185.71 1684.13 L1185.73 1688.51 Z" fill="#000000" fill-rule="nonzero" fill-opacity="1" /><path clip-path="url(#clip030)" d="M1190.2 1684.53 L1194.46 1684.53 L1194.46 1710.45 L1190.2 1710.45 L1190.2 1684.53 M1190.2 1674.43 L1194.46 1674.43 L1194.46 1679.83 L1190.2 1679.83 L1190.2 1674.43 Z" fill="#000000" fill-rule="nonzero" fill-opacity="1" /><path clip-path="url(#clip030)" d="M1221.98 1697.51 Q1221.98 1692.81 1220.04 1690.15 Q1218.12 1687.47 1214.74 1687.47 Q1211.36 1687.47 1209.41 1690.15 Q1207.49 1692.81 1207.49 1697.51 Q1207.49 1702.21 1209.41 1704.9 Q1211.36 1707.56 1214.74 1707.56 Q1218.12 1707.56 1220.04 1704.9 Q1221.98 1702.21 1221.98 1697.51 M1207.49 1688.46 Q1208.83 1686.15 1210.87 1685.04 Q1212.93 1683.9 1215.78 1683.9 Q1220.5 1683.9 1223.44 1687.65 Q1226.4 1691.4 1226.4 1697.51 Q1226.4 1703.62 1223.44 1707.37 Q1220.5 1711.12 1215.78 1711.12 Q1212.93 1711.12 1210.87 1710.01 Q1208.83 1708.88 1207.49 1706.56 L1207.49 1710.45 L1203.21 1710.45 L1203.21 1674.43 L1207.49 1674.43 L1207.49 1688.46 Z" fill="#000000" fill-rule="nonzero" fill-opacity="1" /><path clip-path="url(#clip030)" d="M1233.02 1700.22 L1233.02 1684.53 L1237.28 1684.53 L1237.28 1700.06 Q1237.28 1703.74 1238.72 1705.59 Q1240.15 1707.42 1243.02 1707.42 Q1246.47 1707.42 1248.46 1705.22 Q1250.48 1703.02 1250.48 1699.23 L1250.48 1684.53 L1254.74 1684.53 L1254.74 1710.45 L1250.48 1710.45 L1250.48 1706.47 Q1248.93 1708.83 1246.87 1709.99 Q1244.83 1711.12 1242.12 1711.12 Q1237.65 1711.12 1235.34 1708.35 Q1233.02 1705.57 1233.02 1700.22 M1243.74 1683.9 L1243.74 1683.9 Z" fill="#000000" fill-rule="nonzero" fill-opacity="1" /><path clip-path="url(#clip030)" d="M1267.72 1677.17 L1267.72 1684.53 L1276.5 1684.53 L1276.5 1687.84 L1267.72 1687.84 L1267.72 1701.91 Q1267.72 1705.08 1268.58 1705.99 Q1269.46 1706.89 1272.12 1706.89 L1276.5 1706.89 L1276.5 1710.45 L1272.12 1710.45 Q1267.19 1710.45 1265.32 1708.62 Q1263.44 1706.77 1263.44 1701.91 L1263.44 1687.84 L1260.32 1687.84 L1260.32 1684.53 L1263.44 1684.53 L1263.44 1677.17 L1267.72 1677.17 Z" fill="#000000" fill-rule="nonzero" fill-opacity="1" /><path clip-path="url(#clip030)" d="M1282.1 1684.53 L1286.36 1684.53 L1286.36 1710.45 L1282.1 1710.45 L1282.1 1684.53 M1282.1 1674.43 L1286.36 1674.43 L1286.36 1679.83 L1282.1 1679.83 L1282.1 1674.43 Z" fill="#000000" fill-rule="nonzero" fill-opacity="1" /><path clip-path="url(#clip030)" d="M1305.32 1687.51 Q1301.89 1687.51 1299.9 1690.2 Q1297.91 1692.86 1297.91 1697.51 Q1297.91 1702.17 1299.88 1704.85 Q1301.87 1707.51 1305.32 1707.51 Q1308.72 1707.51 1310.71 1704.83 Q1312.7 1702.14 1312.7 1697.51 Q1312.7 1692.91 1310.71 1690.22 Q1308.72 1687.51 1305.32 1687.51 M1305.32 1683.9 Q1310.87 1683.9 1314.04 1687.51 Q1317.21 1691.12 1317.21 1697.51 Q1317.21 1703.88 1314.04 1707.51 Q1310.87 1711.12 1305.32 1711.12 Q1299.74 1711.12 1296.57 1707.51 Q1293.42 1703.88 1293.42 1697.51 Q1293.42 1691.12 1296.57 1687.51 Q1299.74 1683.9 1305.32 1683.9 Z" fill="#000000" fill-rule="nonzero" fill-opacity="1" /><path clip-path="url(#clip030)" d="M1345.82 1694.8 L1345.82 1710.45 L1341.57 1710.45 L1341.57 1694.94 Q1341.57 1691.26 1340.13 1689.43 Q1338.7 1687.61 1335.82 1687.61 Q1332.38 1687.61 1330.39 1689.81 Q1328.39 1692 1328.39 1695.8 L1328.39 1710.45 L1324.11 1710.45 L1324.11 1684.53 L1328.39 1684.53 L1328.39 1688.56 Q1329.92 1686.22 1331.98 1685.06 Q1334.07 1683.9 1336.77 1683.9 Q1341.24 1683.9 1343.53 1686.68 Q1345.82 1689.43 1345.82 1694.8 Z" fill="#000000" fill-rule="nonzero" fill-opacity="1" /><path clip-path="url(#clip030)" d="M1370.85 1685.29 L1370.85 1689.32 Q1369.04 1688.39 1367.1 1687.93 Q1365.15 1687.47 1363.07 1687.47 Q1359.9 1687.47 1358.3 1688.44 Q1356.73 1689.41 1356.73 1691.36 Q1356.73 1692.84 1357.86 1693.69 Q1359 1694.53 1362.42 1695.29 L1363.88 1695.62 Q1368.42 1696.59 1370.32 1698.37 Q1372.24 1700.13 1372.24 1703.3 Q1372.24 1706.91 1369.37 1709.02 Q1366.52 1711.12 1361.52 1711.12 Q1359.44 1711.12 1357.17 1710.71 Q1354.92 1710.31 1352.42 1709.5 L1352.42 1705.11 Q1354.78 1706.33 1357.07 1706.96 Q1359.37 1707.56 1361.61 1707.56 Q1364.62 1707.56 1366.24 1706.54 Q1367.86 1705.5 1367.86 1703.62 Q1367.86 1701.89 1366.68 1700.96 Q1365.52 1700.04 1361.57 1699.18 L1360.08 1698.83 Q1356.13 1698 1354.37 1696.29 Q1352.61 1694.55 1352.61 1691.54 Q1352.61 1687.88 1355.2 1685.89 Q1357.79 1683.9 1362.56 1683.9 Q1364.92 1683.9 1367.01 1684.25 Q1369.09 1684.6 1370.85 1685.29 Z" fill="#000000" fill-rule="nonzero" fill-opacity="1" /><path clip-path="url(#clip030)" d="M1379.62 1704.57 L1384.51 1704.57 L1384.51 1710.45 L1379.62 1710.45 L1379.62 1704.57 Z" fill="#000000" fill-rule="nonzero" fill-opacity="1" /><path clip-path="url(#clip030)" d="M1417.84 1705.52 L1417.84 1696.24 L1410.2 1696.24 L1410.2 1692.4 L1422.47 1692.4 L1422.47 1707.24 Q1419.76 1709.16 1416.5 1710.15 Q1413.23 1711.12 1409.53 1711.12 Q1401.43 1711.12 1396.84 1706.4 Q1392.28 1701.66 1392.28 1693.21 Q1392.28 1684.74 1396.84 1680.01 Q1401.43 1675.27 1409.53 1675.27 Q1412.91 1675.27 1415.94 1676.1 Q1419 1676.93 1421.57 1678.56 L1421.57 1683.53 Q1418.97 1681.33 1416.06 1680.22 Q1413.14 1679.11 1409.92 1679.11 Q1403.58 1679.11 1400.38 1682.65 Q1397.21 1686.19 1397.21 1693.21 Q1397.21 1700.2 1400.38 1703.74 Q1403.58 1707.28 1409.92 1707.28 Q1412.4 1707.28 1414.34 1706.87 Q1416.29 1706.43 1417.84 1705.52 Z" fill="#000000" fill-rule="nonzero" fill-opacity="1" /><path clip-path="url(#clip030)" d="M1431.01 1675.89 L1435.69 1675.89 L1435.69 1706.52 L1452.51 1706.52 L1452.51 1710.45 L1431.01 1710.45 L1431.01 1675.89 Z" fill="#000000" fill-rule="nonzero" fill-opacity="1" /><path clip-path="url(#clip030)" d="M1462.1 1679.74 L1462.1 1706.61 L1467.75 1706.61 Q1474.9 1706.61 1478.21 1703.37 Q1481.54 1700.13 1481.54 1693.14 Q1481.54 1686.19 1478.21 1682.98 Q1474.9 1679.74 1467.75 1679.74 L1462.1 1679.74 M1457.42 1675.89 L1467.03 1675.89 Q1477.07 1675.89 1481.77 1680.08 Q1486.47 1684.25 1486.47 1693.14 Q1486.47 1702.07 1481.75 1706.26 Q1477.03 1710.45 1467.03 1710.45 L1457.42 1710.45 L1457.42 1675.89 Z" fill="#000000" fill-rule="nonzero" fill-opacity="1" /><path clip-path="url(#clip030)" d="M1512.4 1685.52 L1512.4 1689.5 Q1510.59 1688.51 1508.76 1688.02 Q1506.96 1687.51 1505.11 1687.51 Q1500.96 1687.51 1498.67 1690.15 Q1496.38 1692.77 1496.38 1697.51 Q1496.38 1702.26 1498.67 1704.9 Q1500.96 1707.51 1505.11 1707.51 Q1506.96 1707.51 1508.76 1707.03 Q1510.59 1706.52 1512.4 1705.52 L1512.4 1709.46 Q1510.62 1710.29 1508.69 1710.71 Q1506.8 1711.12 1504.64 1711.12 Q1498.79 1711.12 1495.34 1707.44 Q1491.89 1703.76 1491.89 1697.51 Q1491.89 1691.17 1495.36 1687.54 Q1498.86 1683.9 1504.92 1683.9 Q1506.89 1683.9 1508.76 1684.32 Q1510.64 1684.71 1512.4 1685.52 Z" fill="#000000" fill-rule="nonzero" fill-opacity="1" /><path clip-path="url(#clip030)" d="M1536.33 1685.29 L1536.33 1689.32 Q1534.53 1688.39 1532.58 1687.93 Q1530.64 1687.47 1528.56 1687.47 Q1525.38 1687.47 1523.79 1688.44 Q1522.21 1689.41 1522.21 1691.36 Q1522.21 1692.84 1523.35 1693.69 Q1524.48 1694.53 1527.91 1695.29 L1529.37 1695.62 Q1533.9 1696.59 1535.8 1698.37 Q1537.72 1700.13 1537.72 1703.3 Q1537.72 1706.91 1534.85 1709.02 Q1532 1711.12 1527 1711.12 Q1524.92 1711.12 1522.65 1710.71 Q1520.41 1710.31 1517.91 1709.5 L1517.91 1705.11 Q1520.27 1706.33 1522.56 1706.96 Q1524.85 1707.56 1527.1 1707.56 Q1530.11 1707.56 1531.73 1706.54 Q1533.35 1705.5 1533.35 1703.62 Q1533.35 1701.89 1532.17 1700.96 Q1531.01 1700.04 1527.05 1699.18 L1525.57 1698.83 Q1521.61 1698 1519.85 1696.29 Q1518.09 1694.55 1518.09 1691.54 Q1518.09 1687.88 1520.68 1685.89 Q1523.28 1683.9 1528.05 1683.9 Q1530.41 1683.9 1532.49 1684.25 Q1534.57 1684.6 1536.33 1685.29 Z" fill="#000000" fill-rule="nonzero" fill-opacity="1" /><path clip-path="url(#clip030)" d="M1542.03 1684.53 L1546.29 1684.53 L1551.61 1704.76 L1556.91 1684.53 L1561.93 1684.53 L1567.26 1704.76 L1572.56 1684.53 L1576.82 1684.53 L1570.04 1710.45 L1565.01 1710.45 L1559.43 1689.2 L1553.83 1710.45 L1548.81 1710.45 L1542.03 1684.53 Z" fill="#000000" fill-rule="nonzero" fill-opacity="1" /><path clip-path="url(#clip030)" d="M1603.05 1714.85 L1603.05 1718.18 L1601.61 1718.18 Q1595.85 1718.18 1593.88 1716.47 Q1591.93 1714.76 1591.93 1709.64 L1591.93 1704.11 Q1591.93 1700.62 1590.68 1699.27 Q1589.43 1697.93 1586.15 1697.93 L1584.74 1697.93 L1584.74 1694.62 L1586.15 1694.62 Q1589.46 1694.62 1590.68 1693.3 Q1591.93 1691.96 1591.93 1688.51 L1591.93 1682.95 Q1591.93 1677.84 1593.88 1676.15 Q1595.85 1674.43 1601.61 1674.43 L1603.05 1674.43 L1603.05 1677.74 L1601.47 1677.74 Q1598.21 1677.74 1597.21 1678.76 Q1596.22 1679.78 1596.22 1683.05 L1596.22 1688.79 Q1596.22 1692.42 1595.15 1694.06 Q1594.11 1695.71 1591.56 1696.29 Q1594.13 1696.91 1595.18 1698.55 Q1596.22 1700.2 1596.22 1703.81 L1596.22 1709.55 Q1596.22 1712.81 1597.21 1713.83 Q1598.21 1714.85 1601.47 1714.85 L1603.05 1714.85 Z" fill="#000000" fill-rule="nonzero" fill-opacity="1" /><path clip-path="url(#clip030)" d="M1613.62 1675.89 L1633.49 1675.89 L1633.49 1679.83 L1618.3 1679.83 L1618.3 1690.01 L1632 1690.01 L1632 1693.95 L1618.3 1693.95 L1618.3 1710.45 L1613.62 1710.45 L1613.62 1675.89 Z" fill="#000000" fill-rule="nonzero" fill-opacity="1" /><path clip-path="url(#clip030)" d="M1640.71 1674.43 L1644.97 1674.43 L1644.97 1710.45 L1640.71 1710.45 L1640.71 1674.43 Z" fill="#000000" fill-rule="nonzero" fill-opacity="1" /><path clip-path="url(#clip030)" d="M1663.92 1687.51 Q1660.5 1687.51 1658.51 1690.2 Q1656.52 1692.86 1656.52 1697.51 Q1656.52 1702.17 1658.49 1704.85 Q1660.48 1707.51 1663.92 1707.51 Q1667.33 1707.51 1669.32 1704.83 Q1671.31 1702.14 1671.31 1697.51 Q1671.31 1692.91 1669.32 1690.22 Q1667.33 1687.51 1663.92 1687.51 M1663.92 1683.9 Q1669.48 1683.9 1672.65 1687.51 Q1675.82 1691.12 1675.82 1697.51 Q1675.82 1703.88 1672.65 1707.51 Q1669.48 1711.12 1663.92 1711.12 Q1658.35 1711.12 1655.18 1707.51 Q1652.03 1703.88 1652.03 1697.51 Q1652.03 1691.12 1655.18 1687.51 Q1658.35 1683.9 1663.92 1683.9 Z" fill="#000000" fill-rule="nonzero" fill-opacity="1" /><path clip-path="url(#clip030)" d="M1694.67 1697.42 Q1689.5 1697.42 1687.51 1698.6 Q1685.52 1699.78 1685.52 1702.63 Q1685.52 1704.9 1687 1706.24 Q1688.51 1707.56 1691.08 1707.56 Q1694.62 1707.56 1696.75 1705.06 Q1698.9 1702.54 1698.9 1698.37 L1698.9 1697.42 L1694.67 1697.42 M1703.16 1695.66 L1703.16 1710.45 L1698.9 1710.45 L1698.9 1706.52 Q1697.44 1708.88 1695.27 1710.01 Q1693.09 1711.12 1689.94 1711.12 Q1685.96 1711.12 1683.6 1708.9 Q1681.26 1706.66 1681.26 1702.91 Q1681.26 1698.53 1684.18 1696.31 Q1687.12 1694.09 1692.93 1694.09 L1698.9 1694.09 L1698.9 1693.67 Q1698.9 1690.73 1696.96 1689.13 Q1695.04 1687.51 1691.54 1687.51 Q1689.32 1687.51 1687.21 1688.05 Q1685.11 1688.58 1683.16 1689.64 L1683.16 1685.71 Q1685.5 1684.81 1687.7 1684.37 Q1689.9 1683.9 1691.98 1683.9 Q1697.61 1683.9 1700.38 1686.82 Q1703.16 1689.74 1703.16 1695.66 Z" fill="#000000" fill-rule="nonzero" fill-opacity="1" /><path clip-path="url(#clip030)" d="M1716.15 1677.17 L1716.15 1684.53 L1724.92 1684.53 L1724.92 1687.84 L1716.15 1687.84 L1716.15 1701.91 Q1716.15 1705.08 1717 1705.99 Q1717.88 1706.89 1720.55 1706.89 L1724.92 1706.89 L1724.92 1710.45 L1720.55 1710.45 Q1715.61 1710.45 1713.74 1708.62 Q1711.86 1706.77 1711.86 1701.91 L1711.86 1687.84 L1708.74 1687.84 L1708.74 1684.53 L1711.86 1684.53 L1711.86 1677.17 L1716.15 1677.17 Z" fill="#000000" fill-rule="nonzero" fill-opacity="1" /><path clip-path="url(#clip030)" d="M1741.7 1691.31 Q1738.55 1691.31 1736.7 1693.46 Q1734.87 1695.62 1734.87 1699.37 Q1734.87 1703.09 1736.7 1705.27 Q1738.55 1707.42 1741.7 1707.42 Q1744.85 1707.42 1746.68 1705.27 Q1748.53 1703.09 1748.53 1699.37 Q1748.53 1695.62 1746.68 1693.46 Q1744.85 1691.31 1741.7 1691.31 M1750.98 1676.66 L1750.98 1680.92 Q1749.23 1680.08 1747.42 1679.64 Q1745.64 1679.2 1743.88 1679.2 Q1739.25 1679.2 1736.79 1682.33 Q1734.36 1685.45 1734.02 1691.77 Q1735.38 1689.76 1737.44 1688.69 Q1739.5 1687.61 1741.98 1687.61 Q1747.19 1687.61 1750.2 1690.78 Q1753.23 1693.93 1753.23 1699.37 Q1753.23 1704.69 1750.08 1707.91 Q1746.93 1711.12 1741.7 1711.12 Q1735.71 1711.12 1732.54 1706.54 Q1729.36 1701.93 1729.36 1693.21 Q1729.36 1685.01 1733.25 1680.15 Q1737.14 1675.27 1743.69 1675.27 Q1745.45 1675.27 1747.23 1675.62 Q1749.04 1675.96 1750.98 1676.66 Z" fill="#000000" fill-rule="nonzero" fill-opacity="1" /><path clip-path="url(#clip030)" d="M1774.13 1679.97 L1762.33 1698.42 L1774.13 1698.42 L1774.13 1679.97 M1772.91 1675.89 L1778.79 1675.89 L1778.79 1698.42 L1783.72 1698.42 L1783.72 1702.3 L1778.79 1702.3 L1778.79 1710.45 L1774.13 1710.45 L1774.13 1702.3 L1758.53 1702.3 L1758.53 1697.79 L1772.91 1675.89 Z" fill="#000000" fill-rule="nonzero" fill-opacity="1" /><path clip-path="url(#clip030)" d="M1792.3 1714.85 L1793.92 1714.85 Q1797.16 1714.85 1798.14 1713.86 Q1799.13 1712.86 1799.13 1709.55 L1799.13 1703.81 Q1799.13 1700.2 1800.17 1698.55 Q1801.22 1696.91 1803.79 1696.29 Q1801.22 1695.71 1800.17 1694.06 Q1799.13 1692.42 1799.13 1688.79 L1799.13 1683.05 Q1799.13 1679.76 1798.14 1678.76 Q1797.16 1677.74 1793.92 1677.74 L1792.3 1677.74 L1792.3 1674.43 L1793.76 1674.43 Q1799.53 1674.43 1801.45 1676.15 Q1803.39 1677.84 1803.39 1682.95 L1803.39 1688.51 Q1803.39 1691.96 1804.64 1693.3 Q1805.89 1694.62 1809.18 1694.62 L1810.61 1694.62 L1810.61 1697.93 L1809.18 1697.93 Q1805.89 1697.93 1804.64 1699.27 Q1803.39 1700.62 1803.39 1704.11 L1803.39 1709.64 Q1803.39 1714.76 1801.45 1716.47 Q1799.53 1718.18 1793.76 1718.18 L1792.3 1718.18 L1792.3 1714.85 Z" fill="#000000" fill-rule="nonzero" fill-opacity="1" /><path clip-path="url(#clip030)" d="M1831.24 1674.48 Q1828.14 1679.81 1826.63 1685.01 Q1825.13 1690.22 1825.13 1695.57 Q1825.13 1700.92 1826.63 1706.17 Q1828.16 1711.4 1831.24 1716.7 L1827.54 1716.7 Q1824.06 1711.26 1822.33 1706.01 Q1820.61 1700.75 1820.61 1695.57 Q1820.61 1690.41 1822.33 1685.18 Q1824.04 1679.94 1827.54 1674.48 L1831.24 1674.48 Z" fill="#000000" fill-rule="nonzero" fill-opacity="1" /><path clip-path="url(#clip030)" d="M1839.06 1720.31 L1839.06 1684.53 L1843.32 1684.53 L1843.32 1700.64 Q1843.32 1703.99 1844.92 1705.71 Q1846.52 1707.42 1849.64 1707.42 Q1853.07 1707.42 1854.78 1705.48 Q1856.52 1703.53 1856.52 1699.64 L1856.52 1684.53 L1860.78 1684.53 L1860.78 1704.48 Q1860.78 1705.87 1861.17 1706.54 Q1861.59 1707.19 1862.44 1707.19 Q1862.65 1707.19 1863.02 1707.07 Q1863.39 1706.93 1864.04 1706.66 L1864.04 1710.08 Q1863.09 1710.62 1862.23 1710.87 Q1861.4 1711.12 1860.59 1711.12 Q1858.99 1711.12 1858.04 1710.22 Q1857.1 1709.32 1856.75 1707.47 Q1855.59 1709.3 1853.9 1710.22 Q1852.23 1711.12 1849.97 1711.12 Q1847.6 1711.12 1845.94 1710.22 Q1844.29 1709.32 1843.32 1707.51 L1843.32 1720.31 L1839.06 1720.31 Z" fill="#000000" fill-rule="nonzero" fill-opacity="1" /><path clip-path="url(#clip030)" d="M1870.22 1688.93 L1899.9 1688.93 L1899.9 1692.81 L1870.22 1692.81 L1870.22 1688.93 M1870.22 1698.37 L1899.9 1698.37 L1899.9 1702.3 L1870.22 1702.3 L1870.22 1698.37 Z" fill="#000000" fill-rule="nonzero" fill-opacity="1" /><path clip-path="url(#clip030)" d="M1910.8 1706.52 L1918.44 1706.52 L1918.44 1680.15 L1910.13 1681.82 L1910.13 1677.56 L1918.39 1675.89 L1923.07 1675.89 L1923.07 1706.52 L1930.71 1706.52 L1930.71 1710.45 L1910.8 1710.45 L1910.8 1706.52 Z" fill="#000000" fill-rule="nonzero" fill-opacity="1" /><path clip-path="url(#clip030)" d="M1940.15 1704.57 L1945.03 1704.57 L1945.03 1710.45 L1940.15 1710.45 L1940.15 1704.57 Z" fill="#000000" fill-rule="nonzero" fill-opacity="1" /><path clip-path="url(#clip030)" d="M1965.22 1678.97 Q1961.61 1678.97 1959.78 1682.54 Q1957.97 1686.08 1957.97 1693.21 Q1957.97 1700.31 1959.78 1703.88 Q1961.61 1707.42 1965.22 1707.42 Q1968.85 1707.42 1970.66 1703.88 Q1972.49 1700.31 1972.49 1693.21 Q1972.49 1686.08 1970.66 1682.54 Q1968.85 1678.97 1965.22 1678.97 M1965.22 1675.27 Q1971.03 1675.27 1974.09 1679.87 Q1977.16 1684.46 1977.16 1693.21 Q1977.16 1701.93 1974.09 1706.54 Q1971.03 1711.12 1965.22 1711.12 Q1959.41 1711.12 1956.33 1706.54 Q1953.28 1701.93 1953.28 1693.21 Q1953.28 1684.46 1956.33 1679.87 Q1959.41 1675.27 1965.22 1675.27 Z" fill="#000000" fill-rule="nonzero" fill-opacity="1" /><path clip-path="url(#clip030)" d="M1985.87 1704.57 L1990.75 1704.57 L1990.75 1708.55 L1986.96 1715.96 L1983.97 1715.96 L1985.87 1708.55 L1985.87 1704.57 Z" fill="#000000" fill-rule="nonzero" fill-opacity="1" /><path clip-path="url(#clip030)" d="M2024.96 1687.91 Q2021.45 1687.91 2019.55 1690.45 Q2017.56 1693.12 2017.56 1697.51 Q2017.56 1702.17 2019.52 1704.85 Q2021.52 1707.51 2024.96 1707.51 Q2028.37 1707.51 2030.36 1704.83 Q2032.35 1702.14 2032.35 1697.51 Q2032.35 1693.28 2030.36 1690.45 Q2028.53 1687.91 2024.96 1687.91 M2024.96 1684.53 L2039.11 1684.53 L2039.11 1688.79 L2034.34 1688.79 Q2036.86 1692.4 2036.86 1697.51 Q2036.86 1703.88 2033.69 1707.49 Q2030.52 1711.12 2024.96 1711.12 Q2019.39 1711.12 2016.24 1707.49 Q2013.07 1703.88 2013.07 1697.51 Q2013.07 1691.1 2016.24 1687.51 Q2018.85 1684.53 2024.96 1684.53 Z" fill="#000000" fill-rule="nonzero" fill-opacity="1" /><path clip-path="url(#clip030)" d="M2045.52 1688.93 L2075.2 1688.93 L2075.2 1692.81 L2045.52 1692.81 L2045.52 1688.93 M2045.52 1698.37 L2075.2 1698.37 L2075.2 1702.3 L2045.52 1702.3 L2045.52 1698.37 Z" fill="#000000" fill-rule="nonzero" fill-opacity="1" /><path clip-path="url(#clip030)" d="M2085.33 1675.89 L2103.69 1675.89 L2103.69 1679.83 L2089.62 1679.83 L2089.62 1688.3 Q2090.64 1687.95 2091.65 1687.79 Q2092.67 1687.61 2093.69 1687.61 Q2099.48 1687.61 2102.86 1690.78 Q2106.24 1693.95 2106.24 1699.37 Q2106.24 1704.94 2102.77 1708.05 Q2099.29 1711.12 2092.97 1711.12 Q2090.8 1711.12 2088.53 1710.75 Q2086.28 1710.38 2083.88 1709.64 L2083.88 1704.94 Q2085.96 1706.08 2088.18 1706.63 Q2090.4 1707.19 2092.88 1707.19 Q2096.89 1707.19 2099.22 1705.08 Q2101.56 1702.98 2101.56 1699.37 Q2101.56 1695.75 2099.22 1693.65 Q2096.89 1691.54 2092.88 1691.54 Q2091.01 1691.54 2089.13 1691.96 Q2087.28 1692.37 2085.33 1693.25 L2085.33 1675.89 Z" fill="#000000" fill-rule="nonzero" fill-opacity="1" /><path clip-path="url(#clip030)" d="M2115.45 1704.57 L2120.33 1704.57 L2120.33 1710.45 L2115.45 1710.45 L2115.45 1704.57 Z" fill="#000000" fill-rule="nonzero" fill-opacity="1" /><path clip-path="url(#clip030)" d="M2140.52 1678.97 Q2136.91 1678.97 2135.08 1682.54 Q2133.27 1686.08 2133.27 1693.21 Q2133.27 1700.31 2135.08 1703.88 Q2136.91 1707.42 2140.52 1707.42 Q2144.15 1707.42 2145.96 1703.88 Q2147.79 1700.31 2147.79 1693.21 Q2147.79 1686.08 2145.96 1682.54 Q2144.15 1678.97 2140.52 1678.97 M2140.52 1675.27 Q2146.33 1675.27 2149.39 1679.87 Q2152.46 1684.46 2152.46 1693.21 Q2152.46 1701.93 2149.39 1706.54 Q2146.33 1711.12 2140.52 1711.12 Q2134.71 1711.12 2131.63 1706.54 Q2128.58 1701.93 2128.58 1693.21 Q2128.58 1684.46 2131.63 1679.87 Q2134.71 1675.27 2140.52 1675.27 Z" fill="#000000" fill-rule="nonzero" fill-opacity="1" /><path clip-path="url(#clip030)" d="M2161.17 1704.57 L2166.05 1704.57 L2166.05 1708.55 L2162.26 1715.96 L2159.27 1715.96 L2161.17 1708.55 L2161.17 1704.57 Z" fill="#000000" fill-rule="nonzero" fill-opacity="1" /><path clip-path="url(#clip030)" d="M2202.7 1716.24 L2199.25 1707.37 L2192.14 1720.34 L2187.12 1720.34 L2197.16 1702 L2192.95 1691.1 Q2191.82 1688.18 2188.25 1688.18 L2187.12 1688.18 L2187.12 1684.53 L2188.74 1684.57 Q2194.71 1684.74 2196.21 1688.6 L2199.64 1697.47 L2206.75 1684.5 L2211.77 1684.5 L2201.72 1702.84 L2205.94 1713.74 Q2207.07 1716.66 2210.63 1716.66 L2211.77 1716.66 L2211.77 1720.31 L2210.15 1720.27 Q2204.18 1720.11 2202.7 1716.24 Z" fill="#000000" fill-rule="nonzero" fill-opacity="1" /><path clip-path="url(#clip030)" d="M2218.16 1688.93 L2247.83 1688.93 L2247.83 1692.81 L2218.16 1692.81 L2218.16 1688.93 M2218.16 1698.37 L2247.83 1698.37 L2247.83 1702.3 L2218.16 1702.3 L2218.16 1698.37 Z" fill="#000000" fill-rule="nonzero" fill-opacity="1" /><path clip-path="url(#clip030)" d="M2255.17 1695.57 L2267.65 1695.57 L2267.65 1699.37 L2255.17 1699.37 L2255.17 1695.57 Z" fill="#000000" fill-rule="nonzero" fill-opacity="1" /><path clip-path="url(#clip030)" d="M2285.03 1678.97 Q2281.42 1678.97 2279.59 1682.54 Q2277.79 1686.08 2277.79 1693.21 Q2277.79 1700.31 2279.59 1703.88 Q2281.42 1707.42 2285.03 1707.42 Q2288.67 1707.42 2290.47 1703.88 Q2292.3 1700.31 2292.3 1693.21 Q2292.3 1686.08 2290.47 1682.54 Q2288.67 1678.97 2285.03 1678.97 M2285.03 1675.27 Q2290.84 1675.27 2293.9 1679.87 Q2296.98 1684.46 2296.98 1693.21 Q2296.98 1701.93 2293.9 1706.54 Q2290.84 1711.12 2285.03 1711.12 Q2279.22 1711.12 2276.14 1706.54 Q2273.09 1701.93 2273.09 1693.21 Q2273.09 1684.46 2276.14 1679.87 Q2279.22 1675.27 2285.03 1675.27 Z" fill="#000000" fill-rule="nonzero" fill-opacity="1" /><path clip-path="url(#clip030)" d="M2305.19 1704.57 L2310.08 1704.57 L2310.08 1710.45 L2305.19 1710.45 L2305.19 1704.57 Z" fill="#000000" fill-rule="nonzero" fill-opacity="1" /><path clip-path="url(#clip030)" d="M2320.31 1675.89 L2338.67 1675.89 L2338.67 1679.83 L2324.59 1679.83 L2324.59 1688.3 Q2325.61 1687.95 2326.63 1687.79 Q2327.65 1687.61 2328.67 1687.61 Q2334.45 1687.61 2337.83 1690.78 Q2341.21 1693.95 2341.21 1699.37 Q2341.21 1704.94 2337.74 1708.05 Q2334.27 1711.12 2327.95 1711.12 Q2325.77 1711.12 2323.5 1710.75 Q2321.26 1710.38 2318.85 1709.64 L2318.85 1704.94 Q2320.94 1706.08 2323.16 1706.63 Q2325.38 1707.19 2327.86 1707.19 Q2331.86 1707.19 2334.2 1705.08 Q2336.54 1702.98 2336.54 1699.37 Q2336.54 1695.75 2334.2 1693.65 Q2331.86 1691.54 2327.86 1691.54 Q2325.98 1691.54 2324.11 1691.96 Q2322.25 1692.37 2320.31 1693.25 L2320.31 1675.89 Z" fill="#000000" fill-rule="nonzero" fill-opacity="1" /><path clip-path="url(#clip030)" d="M2350.91 1704.57 L2355.8 1704.57 L2355.8 1708.55 L2352 1715.96 L2349.01 1715.96 L2350.91 1708.55 L2350.91 1704.57 Z" fill="#000000" fill-rule="nonzero" fill-opacity="1" /><path clip-path="url(#clip030)" d="M2392.39 1707.51 Q2395.45 1707.54 2397.28 1709.27 Q2399.22 1711.1 2399.22 1713.88 Q2399.22 1716.54 2397.51 1718.39 Q2395.66 1720.41 2391.88 1720.41 Q2391.88 1718.67 2391.88 1716.91 Q2393.48 1717.03 2394.45 1716.01 Q2395.19 1715.2 2395.19 1714.34 Q2395.19 1713.12 2394.45 1712.1 Q2393.74 1711.12 2392.39 1711.12 Q2377.97 1711.12 2377.97 1701.01 Q2377.97 1694.06 2385.68 1692.03 Q2379.2 1691.19 2379.2 1685.18 Q2379.2 1680.62 2384.29 1678.72 L2379.48 1678.72 L2379.48 1674.43 L2397.74 1674.43 L2397.74 1678.72 Q2383.18 1678.72 2383.18 1685.45 Q2383.18 1689.87 2395.4 1690.08 L2395.4 1694.02 Q2382.21 1693.51 2382.25 1701.01 Q2382.28 1707.28 2392.39 1707.51 Z" fill="#000000" fill-rule="nonzero" fill-opacity="1" /><path clip-path="url(#clip030)" d="M2406.95 1688.93 L2436.63 1688.93 L2436.63 1692.81 L2406.95 1692.81 L2406.95 1688.93 M2406.95 1698.37 L2436.63 1698.37 L2436.63 1702.3 L2406.95 1702.3 L2406.95 1698.37 Z" fill="#000000" fill-rule="nonzero" fill-opacity="1" /><path clip-path="url(#clip030)" d="M2456.72 1678.97 Q2453.11 1678.97 2451.28 1682.54 Q2449.48 1686.08 2449.48 1693.21 Q2449.48 1700.31 2451.28 1703.88 Q2453.11 1707.42 2456.72 1707.42 Q2460.36 1707.42 2462.16 1703.88 Q2463.99 1700.31 2463.99 1693.21 Q2463.99 1686.08 2462.16 1682.54 Q2460.36 1678.97 2456.72 1678.97 M2456.72 1675.27 Q2462.53 1675.27 2465.59 1679.87 Q2468.67 1684.46 2468.67 1693.21 Q2468.67 1701.93 2465.59 1706.54 Q2462.53 1711.12 2456.72 1711.12 Q2450.91 1711.12 2447.83 1706.54 Q2444.78 1701.93 2444.78 1693.21 Q2444.78 1684.46 2447.83 1679.87 Q2450.91 1675.27 2456.72 1675.27 Z" fill="#000000" fill-rule="nonzero" fill-opacity="1" /><path clip-path="url(#clip030)" d="M2476.88 1704.57 L2481.77 1704.57 L2481.77 1710.45 L2476.88 1710.45 L2476.88 1704.57 Z" fill="#000000" fill-rule="nonzero" fill-opacity="1" /><path clip-path="url(#clip030)" d="M2504.8 1679.97 L2492.99 1698.42 L2504.8 1698.42 L2504.8 1679.97 M2503.57 1675.89 L2509.45 1675.89 L2509.45 1698.42 L2514.38 1698.42 L2514.38 1702.3 L2509.45 1702.3 L2509.45 1710.45 L2504.8 1710.45 L2504.8 1702.3 L2489.2 1702.3 L2489.2 1697.79 L2503.57 1675.89 Z" fill="#000000" fill-rule="nonzero" fill-opacity="1" /><path clip-path="url(#clip030)" d="M2520.84 1674.48 L2524.55 1674.48 Q2528.02 1679.94 2529.73 1685.18 Q2531.47 1690.41 2531.47 1695.57 Q2531.47 1700.75 2529.73 1706.01 Q2528.02 1711.26 2524.55 1716.7 L2520.84 1716.7 Q2523.92 1711.4 2525.42 1706.17 Q2526.95 1700.92 2526.95 1695.57 Q2526.95 1690.22 2525.42 1685.01 Q2523.92 1679.81 2520.84 1674.48 Z" fill="#000000" fill-rule="nonzero" fill-opacity="1" /></svg>
