<?xml version="1.0" encoding="utf-8"?>
<svg xmlns="http://www.w3.org/2000/svg" xmlns:xlink="http://www.w3.org/1999/xlink" width="672" height="480" viewBox="0 0 2688 1920">
<defs>
  <clipPath id="clip090">
    <rect x="0" y="0" width="2688" height="1920"/>
  </clipPath>
</defs>
<path clip-path="url(#clip090)" d="M0 1920 L2688 1920 L2688 0 L0 0  Z" fill="#ffffff" fill-rule="evenodd" fill-opacity="1"/>
<defs>
  <clipPath id="clip091">
    <rect x="537" y="0" width="1883" height="1883"/>
  </clipPath>
</defs>
<path clip-path="url(#clip090)" d="M189.154 1800.78 L2640.76 1800.78 L2640.76 127.792 L189.154 127.792  Z" fill="#ffffff" fill-rule="evenodd" fill-opacity="1"/>
<defs>
  <clipPath id="clip092">
    <rect x="189" y="127" width="2453" height="1674"/>
  </clipPath>
</defs>
<polyline clip-path="url(#clip092)" style="stroke:#000000; stroke-linecap:round; stroke-linejoin:round; stroke-width:2; stroke-opacity:0.1; fill:none" points="371.919,1800.78 371.919,127.792 "/>
<polyline clip-path="url(#clip092)" style="stroke:#000000; stroke-linecap:round; stroke-linejoin:round; stroke-width:2; stroke-opacity:0.1; fill:none" points="861.639,1800.78 861.639,127.792 "/>
<polyline clip-path="url(#clip092)" style="stroke:#000000; stroke-linecap:round; stroke-linejoin:round; stroke-width:2; stroke-opacity:0.1; fill:none" points="1351.36,1800.78 1351.36,127.792 "/>
<polyline clip-path="url(#clip092)" style="stroke:#000000; stroke-linecap:round; stroke-linejoin:round; stroke-width:2; stroke-opacity:0.1; fill:none" points="1841.08,1800.78 1841.08,127.792 "/>
<polyline clip-path="url(#clip092)" style="stroke:#000000; stroke-linecap:round; stroke-linejoin:round; stroke-width:2; stroke-opacity:0.1; fill:none" points="2330.8,1800.78 2330.8,127.792 "/>
<polyline clip-path="url(#clip090)" style="stroke:#000000; stroke-linecap:round; stroke-linejoin:round; stroke-width:4; stroke-opacity:1; fill:none" points="189.154,1800.78 2640.76,1800.78 "/>
<polyline clip-path="url(#clip090)" style="stroke:#000000; stroke-linecap:round; stroke-linejoin:round; stroke-width:4; stroke-opacity:1; fill:none" points="371.919,1800.78 371.919,1781.88 "/>
<polyline clip-path="url(#clip090)" style="stroke:#000000; stroke-linecap:round; stroke-linejoin:round; stroke-width:4; stroke-opacity:1; fill:none" points="861.639,1800.78 861.639,1781.88 "/>
<polyline clip-path="url(#clip090)" style="stroke:#000000; stroke-linecap:round; stroke-linejoin:round; stroke-width:4; stroke-opacity:1; fill:none" points="1351.36,1800.78 1351.36,1781.88 "/>
<polyline clip-path="url(#clip090)" style="stroke:#000000; stroke-linecap:round; stroke-linejoin:round; stroke-width:4; stroke-opacity:1; fill:none" points="1841.08,1800.78 1841.08,1781.88 "/>
<polyline clip-path="url(#clip090)" style="stroke:#000000; stroke-linecap:round; stroke-linejoin:round; stroke-width:4; stroke-opacity:1; fill:none" points="2330.8,1800.78 2330.8,1781.88 "/>
<path clip-path="url(#clip090)" d="M326.479 1848.65 L356.155 1848.65 L356.155 1852.59 L326.479 1852.59 L326.479 1848.65 Z" fill="#000000" fill-rule="nonzero" fill-opacity="1" /><path clip-path="url(#clip090)" d="M367.058 1861.55 L374.696 1861.55 L374.696 1835.18 L366.386 1836.85 L366.386 1832.59 L374.65 1830.92 L379.326 1830.92 L379.326 1861.55 L386.965 1861.55 L386.965 1865.48 L367.058 1865.48 L367.058 1861.55 Z" fill="#000000" fill-rule="nonzero" fill-opacity="1" /><path clip-path="url(#clip090)" d="M396.456 1830.92 L414.812 1830.92 L414.812 1834.86 L400.738 1834.86 L400.738 1843.33 Q401.756 1842.98 402.775 1842.82 Q403.793 1842.64 404.812 1842.64 Q410.599 1842.64 413.979 1845.81 Q417.358 1848.98 417.358 1854.4 Q417.358 1859.97 413.886 1863.08 Q410.414 1866.15 404.094 1866.15 Q401.918 1866.15 399.65 1865.78 Q397.405 1865.41 394.997 1864.67 L394.997 1859.97 Q397.081 1861.11 399.303 1861.66 Q401.525 1862.22 404.002 1862.22 Q408.006 1862.22 410.344 1860.11 Q412.682 1858.01 412.682 1854.4 Q412.682 1850.78 410.344 1848.68 Q408.006 1846.57 404.002 1846.57 Q402.127 1846.57 400.252 1846.99 Q398.4 1847.4 396.456 1848.28 L396.456 1830.92 Z" fill="#000000" fill-rule="nonzero" fill-opacity="1" /><path clip-path="url(#clip090)" d="M815.702 1848.65 L845.378 1848.65 L845.378 1852.59 L815.702 1852.59 L815.702 1848.65 Z" fill="#000000" fill-rule="nonzero" fill-opacity="1" /><path clip-path="url(#clip090)" d="M856.28 1861.55 L863.919 1861.55 L863.919 1835.18 L855.609 1836.85 L855.609 1832.59 L863.873 1830.92 L868.549 1830.92 L868.549 1861.55 L876.188 1861.55 L876.188 1865.48 L856.28 1865.48 L856.28 1861.55 Z" fill="#000000" fill-rule="nonzero" fill-opacity="1" /><path clip-path="url(#clip090)" d="M895.632 1834 Q892.021 1834 890.192 1837.57 Q888.387 1841.11 888.387 1848.24 Q888.387 1855.34 890.192 1858.91 Q892.021 1862.45 895.632 1862.45 Q899.266 1862.45 901.072 1858.91 Q902.901 1855.34 902.901 1848.24 Q902.901 1841.11 901.072 1837.57 Q899.266 1834 895.632 1834 M895.632 1830.3 Q901.442 1830.3 904.498 1834.9 Q907.576 1839.49 907.576 1848.24 Q907.576 1856.96 904.498 1861.57 Q901.442 1866.15 895.632 1866.15 Q889.822 1866.15 886.743 1861.57 Q883.688 1856.96 883.688 1848.24 Q883.688 1839.49 886.743 1834.9 Q889.822 1830.3 895.632 1830.3 Z" fill="#000000" fill-rule="nonzero" fill-opacity="1" /><path clip-path="url(#clip090)" d="M1321 1848.65 L1350.68 1848.65 L1350.68 1852.59 L1321 1852.59 L1321 1848.65 Z" fill="#000000" fill-rule="nonzero" fill-opacity="1" /><path clip-path="url(#clip090)" d="M1360.82 1830.92 L1379.17 1830.92 L1379.17 1834.86 L1365.1 1834.86 L1365.1 1843.33 Q1366.12 1842.98 1367.14 1842.82 Q1368.15 1842.64 1369.17 1842.64 Q1374.96 1842.64 1378.34 1845.81 Q1381.72 1848.98 1381.72 1854.4 Q1381.72 1859.97 1378.25 1863.08 Q1374.77 1866.15 1368.45 1866.15 Q1366.28 1866.15 1364.01 1865.78 Q1361.76 1865.41 1359.36 1864.67 L1359.36 1859.97 Q1361.44 1861.11 1363.66 1861.66 Q1365.89 1862.22 1368.36 1862.22 Q1372.37 1862.22 1374.7 1860.11 Q1377.04 1858.01 1377.04 1854.4 Q1377.04 1850.78 1374.7 1848.68 Q1372.37 1846.57 1368.36 1846.57 Q1366.49 1846.57 1364.61 1846.99 Q1362.76 1847.4 1360.82 1848.28 L1360.82 1830.92 Z" fill="#000000" fill-rule="nonzero" fill-opacity="1" /><path clip-path="url(#clip090)" d="M1841.08 1834 Q1837.47 1834 1835.64 1837.57 Q1833.83 1841.11 1833.83 1848.24 Q1833.83 1855.34 1835.64 1858.91 Q1837.47 1862.45 1841.08 1862.45 Q1844.71 1862.45 1846.52 1858.91 Q1848.35 1855.34 1848.35 1848.24 Q1848.35 1841.11 1846.52 1837.57 Q1844.71 1834 1841.08 1834 M1841.08 1830.3 Q1846.89 1830.3 1849.95 1834.9 Q1853.02 1839.49 1853.02 1848.24 Q1853.02 1856.96 1849.95 1861.57 Q1846.89 1866.15 1841.08 1866.15 Q1835.27 1866.15 1832.19 1861.57 Q1829.14 1856.96 1829.14 1848.24 Q1829.14 1839.49 1832.19 1834.9 Q1835.27 1830.3 1841.08 1830.3 Z" fill="#000000" fill-rule="nonzero" fill-opacity="1" /><path clip-path="url(#clip090)" d="M2321.08 1830.92 L2339.44 1830.92 L2339.44 1834.86 L2325.36 1834.86 L2325.36 1843.33 Q2326.38 1842.98 2327.4 1842.82 Q2328.42 1842.64 2329.44 1842.64 Q2335.22 1842.64 2338.6 1845.81 Q2341.98 1848.98 2341.98 1854.4 Q2341.98 1859.97 2338.51 1863.08 Q2335.04 1866.15 2328.72 1866.15 Q2326.54 1866.15 2324.27 1865.78 Q2322.03 1865.41 2319.62 1864.67 L2319.62 1859.97 Q2321.7 1861.11 2323.93 1861.66 Q2326.15 1862.22 2328.62 1862.22 Q2332.63 1862.22 2334.97 1860.11 Q2337.31 1858.01 2337.31 1854.4 Q2337.31 1850.78 2334.97 1848.68 Q2332.63 1846.57 2328.62 1846.57 Q2326.75 1846.57 2324.87 1846.99 Q2323.02 1847.4 2321.08 1848.28 L2321.08 1830.92 Z" fill="#000000" fill-rule="nonzero" fill-opacity="1" /><polyline clip-path="url(#clip092)" style="stroke:#000000; stroke-linecap:round; stroke-linejoin:round; stroke-width:2; stroke-opacity:0.1; fill:none" points="189.154,1753.43 2640.76,1753.43 "/>
<polyline clip-path="url(#clip092)" style="stroke:#000000; stroke-linecap:round; stroke-linejoin:round; stroke-width:2; stroke-opacity:0.1; fill:none" points="189.154,1358.86 2640.76,1358.86 "/>
<polyline clip-path="url(#clip092)" style="stroke:#000000; stroke-linecap:round; stroke-linejoin:round; stroke-width:2; stroke-opacity:0.1; fill:none" points="189.154,964.286 2640.76,964.286 "/>
<polyline clip-path="url(#clip092)" style="stroke:#000000; stroke-linecap:round; stroke-linejoin:round; stroke-width:2; stroke-opacity:0.1; fill:none" points="189.154,569.713 2640.76,569.713 "/>
<polyline clip-path="url(#clip092)" style="stroke:#000000; stroke-linecap:round; stroke-linejoin:round; stroke-width:2; stroke-opacity:0.1; fill:none" points="189.154,175.141 2640.76,175.141 "/>
<polyline clip-path="url(#clip090)" style="stroke:#000000; stroke-linecap:round; stroke-linejoin:round; stroke-width:4; stroke-opacity:1; fill:none" points="189.154,1800.78 189.154,127.792 "/>
<polyline clip-path="url(#clip090)" style="stroke:#000000; stroke-linecap:round; stroke-linejoin:round; stroke-width:4; stroke-opacity:1; fill:none" points="189.154,1753.43 208.052,1753.43 "/>
<polyline clip-path="url(#clip090)" style="stroke:#000000; stroke-linecap:round; stroke-linejoin:round; stroke-width:4; stroke-opacity:1; fill:none" points="189.154,1358.86 208.052,1358.86 "/>
<polyline clip-path="url(#clip090)" style="stroke:#000000; stroke-linecap:round; stroke-linejoin:round; stroke-width:4; stroke-opacity:1; fill:none" points="189.154,964.286 208.052,964.286 "/>
<polyline clip-path="url(#clip090)" style="stroke:#000000; stroke-linecap:round; stroke-linejoin:round; stroke-width:4; stroke-opacity:1; fill:none" points="189.154,569.713 208.052,569.713 "/>
<polyline clip-path="url(#clip090)" style="stroke:#000000; stroke-linecap:round; stroke-linejoin:round; stroke-width:4; stroke-opacity:1; fill:none" points="189.154,175.141 208.052,175.141 "/>
<path clip-path="url(#clip090)" d="M61.4965 1739.23 Q57.8854 1739.23 56.0567 1742.79 Q54.2512 1746.34 54.2512 1753.47 Q54.2512 1760.57 56.0567 1764.14 Q57.8854 1767.68 61.4965 1767.68 Q65.1307 1767.68 66.9363 1764.14 Q68.765 1760.57 68.765 1753.47 Q68.765 1746.34 66.9363 1742.79 Q65.1307 1739.23 61.4965 1739.23 M61.4965 1735.53 Q67.3067 1735.53 70.3622 1740.13 Q73.4409 1744.72 73.4409 1753.47 Q73.4409 1762.19 70.3622 1766.8 Q67.3067 1771.38 61.4965 1771.38 Q55.6864 1771.38 52.6077 1766.8 Q49.5521 1762.19 49.5521 1753.47 Q49.5521 1744.72 52.6077 1740.13 Q55.6864 1735.53 61.4965 1735.53 Z" fill="#000000" fill-rule="nonzero" fill-opacity="1" /><path clip-path="url(#clip090)" d="M81.6584 1764.83 L86.5427 1764.83 L86.5427 1770.71 L81.6584 1770.71 L81.6584 1764.83 Z" fill="#000000" fill-rule="nonzero" fill-opacity="1" /><path clip-path="url(#clip090)" d="M106.728 1739.23 Q103.117 1739.23 101.288 1742.79 Q99.4824 1746.34 99.4824 1753.47 Q99.4824 1760.57 101.288 1764.14 Q103.117 1767.68 106.728 1767.68 Q110.362 1767.68 112.168 1764.14 Q113.996 1760.57 113.996 1753.47 Q113.996 1746.34 112.168 1742.79 Q110.362 1739.23 106.728 1739.23 M106.728 1735.53 Q112.538 1735.53 115.593 1740.13 Q118.672 1744.72 118.672 1753.47 Q118.672 1762.19 115.593 1766.8 Q112.538 1771.38 106.728 1771.38 Q100.918 1771.38 97.8389 1766.8 Q94.7834 1762.19 94.7834 1753.47 Q94.7834 1744.72 97.8389 1740.13 Q100.918 1735.53 106.728 1735.53 Z" fill="#000000" fill-rule="nonzero" fill-opacity="1" /><path clip-path="url(#clip090)" d="M136.89 1739.23 Q133.279 1739.23 131.45 1742.79 Q129.644 1746.34 129.644 1753.47 Q129.644 1760.57 131.45 1764.14 Q133.279 1767.68 136.89 1767.68 Q140.524 1767.68 142.329 1764.14 Q144.158 1760.57 144.158 1753.47 Q144.158 1746.34 142.329 1742.79 Q140.524 1739.23 136.89 1739.23 M136.89 1735.53 Q142.7 1735.53 145.755 1740.13 Q148.834 1744.72 148.834 1753.47 Q148.834 1762.19 145.755 1766.8 Q142.7 1771.38 136.89 1771.38 Q131.079 1771.38 128.001 1766.8 Q124.945 1762.19 124.945 1753.47 Q124.945 1744.72 128.001 1740.13 Q131.079 1735.53 136.89 1735.53 Z" fill="#000000" fill-rule="nonzero" fill-opacity="1" /><path clip-path="url(#clip090)" d="M62.4919 1344.66 Q58.8808 1344.66 57.0521 1348.22 Q55.2465 1351.76 55.2465 1358.89 Q55.2465 1366 57.0521 1369.56 Q58.8808 1373.11 62.4919 1373.11 Q66.1261 1373.11 67.9317 1369.56 Q69.7604 1366 69.7604 1358.89 Q69.7604 1351.76 67.9317 1348.22 Q66.1261 1344.66 62.4919 1344.66 M62.4919 1340.95 Q68.302 1340.95 71.3576 1345.56 Q74.4363 1350.14 74.4363 1358.89 Q74.4363 1367.62 71.3576 1372.23 Q68.302 1376.81 62.4919 1376.81 Q56.6817 1376.81 53.603 1372.23 Q50.5475 1367.62 50.5475 1358.89 Q50.5475 1350.14 53.603 1345.56 Q56.6817 1340.95 62.4919 1340.95 Z" fill="#000000" fill-rule="nonzero" fill-opacity="1" /><path clip-path="url(#clip090)" d="M82.6538 1370.26 L87.538 1370.26 L87.538 1376.14 L82.6538 1376.14 L82.6538 1370.26 Z" fill="#000000" fill-rule="nonzero" fill-opacity="1" /><path clip-path="url(#clip090)" d="M101.751 1372.2 L118.07 1372.2 L118.07 1376.14 L96.126 1376.14 L96.126 1372.2 Q98.788 1369.45 103.371 1364.82 Q107.978 1360.17 109.158 1358.82 Q111.404 1356.3 112.283 1354.56 Q113.186 1352.8 113.186 1351.12 Q113.186 1348.36 111.242 1346.62 Q109.32 1344.89 106.218 1344.89 Q104.019 1344.89 101.566 1345.65 Q99.1352 1346.42 96.3574 1347.97 L96.3574 1343.24 Q99.1815 1342.11 101.635 1341.53 Q104.089 1340.95 106.126 1340.95 Q111.496 1340.95 114.691 1343.64 Q117.885 1346.32 117.885 1350.81 Q117.885 1352.94 117.075 1354.87 Q116.288 1356.76 114.181 1359.36 Q113.603 1360.03 110.501 1363.24 Q107.399 1366.44 101.751 1372.2 Z" fill="#000000" fill-rule="nonzero" fill-opacity="1" /><path clip-path="url(#clip090)" d="M127.931 1341.58 L146.288 1341.58 L146.288 1345.51 L132.214 1345.51 L132.214 1353.99 Q133.232 1353.64 134.251 1353.48 Q135.269 1353.29 136.288 1353.29 Q142.075 1353.29 145.454 1356.46 Q148.834 1359.63 148.834 1365.05 Q148.834 1370.63 145.362 1373.73 Q141.89 1376.81 135.57 1376.81 Q133.394 1376.81 131.126 1376.44 Q128.88 1376.07 126.473 1375.33 L126.473 1370.63 Q128.556 1371.76 130.779 1372.32 Q133.001 1372.87 135.478 1372.87 Q139.482 1372.87 141.82 1370.77 Q144.158 1368.66 144.158 1365.05 Q144.158 1361.44 141.82 1359.33 Q139.482 1357.23 135.478 1357.23 Q133.603 1357.23 131.728 1357.64 Q129.876 1358.06 127.931 1358.94 L127.931 1341.58 Z" fill="#000000" fill-rule="nonzero" fill-opacity="1" /><path clip-path="url(#clip090)" d="M61.4965 950.084 Q57.8854 950.084 56.0567 953.649 Q54.2512 957.191 54.2512 964.32 Q54.2512 971.427 56.0567 974.992 Q57.8854 978.533 61.4965 978.533 Q65.1307 978.533 66.9363 974.992 Q68.765 971.427 68.765 964.32 Q68.765 957.191 66.9363 953.649 Q65.1307 950.084 61.4965 950.084 M61.4965 946.381 Q67.3067 946.381 70.3622 950.987 Q73.4409 955.57 73.4409 964.32 Q73.4409 973.047 70.3622 977.654 Q67.3067 982.237 61.4965 982.237 Q55.6864 982.237 52.6077 977.654 Q49.5521 973.047 49.5521 964.32 Q49.5521 955.57 52.6077 950.987 Q55.6864 946.381 61.4965 946.381 Z" fill="#000000" fill-rule="nonzero" fill-opacity="1" /><path clip-path="url(#clip090)" d="M81.6584 975.686 L86.5427 975.686 L86.5427 981.566 L81.6584 981.566 L81.6584 975.686 Z" fill="#000000" fill-rule="nonzero" fill-opacity="1" /><path clip-path="url(#clip090)" d="M96.7741 947.006 L115.13 947.006 L115.13 950.941 L101.056 950.941 L101.056 959.413 Q102.075 959.066 103.094 958.904 Q104.112 958.719 105.131 958.719 Q110.918 958.719 114.297 961.89 Q117.677 965.061 117.677 970.478 Q117.677 976.056 114.205 979.158 Q110.732 982.237 104.413 982.237 Q102.237 982.237 99.9685 981.867 Q97.7232 981.496 95.3158 980.756 L95.3158 976.056 Q97.3991 977.191 99.6213 977.746 Q101.844 978.302 104.32 978.302 Q108.325 978.302 110.663 976.195 Q113.001 974.089 113.001 970.478 Q113.001 966.867 110.663 964.76 Q108.325 962.654 104.32 962.654 Q102.445 962.654 100.57 963.07 Q98.7185 963.487 96.7741 964.367 L96.7741 947.006 Z" fill="#000000" fill-rule="nonzero" fill-opacity="1" /><path clip-path="url(#clip090)" d="M136.89 950.084 Q133.279 950.084 131.45 953.649 Q129.644 957.191 129.644 964.32 Q129.644 971.427 131.45 974.992 Q133.279 978.533 136.89 978.533 Q140.524 978.533 142.329 974.992 Q144.158 971.427 144.158 964.32 Q144.158 957.191 142.329 953.649 Q140.524 950.084 136.89 950.084 M136.89 946.381 Q142.7 946.381 145.755 950.987 Q148.834 955.57 148.834 964.32 Q148.834 973.047 145.755 977.654 Q142.7 982.237 136.89 982.237 Q131.079 982.237 128.001 977.654 Q124.945 973.047 124.945 964.32 Q124.945 955.57 128.001 950.987 Q131.079 946.381 136.89 946.381 Z" fill="#000000" fill-rule="nonzero" fill-opacity="1" /><path clip-path="url(#clip090)" d="M62.4919 555.512 Q58.8808 555.512 57.0521 559.077 Q55.2465 562.618 55.2465 569.748 Q55.2465 576.854 57.0521 580.419 Q58.8808 583.961 62.4919 583.961 Q66.1261 583.961 67.9317 580.419 Q69.7604 576.854 69.7604 569.748 Q69.7604 562.618 67.9317 559.077 Q66.1261 555.512 62.4919 555.512 M62.4919 551.808 Q68.302 551.808 71.3576 556.415 Q74.4363 560.998 74.4363 569.748 Q74.4363 578.475 71.3576 583.081 Q68.302 587.665 62.4919 587.665 Q56.6817 587.665 53.603 583.081 Q50.5475 578.475 50.5475 569.748 Q50.5475 560.998 53.603 556.415 Q56.6817 551.808 62.4919 551.808 Z" fill="#000000" fill-rule="nonzero" fill-opacity="1" /><path clip-path="url(#clip090)" d="M82.6538 581.114 L87.538 581.114 L87.538 586.993 L82.6538 586.993 L82.6538 581.114 Z" fill="#000000" fill-rule="nonzero" fill-opacity="1" /><path clip-path="url(#clip090)" d="M96.5426 552.433 L118.765 552.433 L118.765 554.424 L106.218 586.993 L101.334 586.993 L113.14 556.368 L96.5426 556.368 L96.5426 552.433 Z" fill="#000000" fill-rule="nonzero" fill-opacity="1" /><path clip-path="url(#clip090)" d="M127.931 552.433 L146.288 552.433 L146.288 556.368 L132.214 556.368 L132.214 564.841 Q133.232 564.493 134.251 564.331 Q135.269 564.146 136.288 564.146 Q142.075 564.146 145.454 567.317 Q148.834 570.489 148.834 575.905 Q148.834 581.484 145.362 584.586 Q141.89 587.665 135.57 587.665 Q133.394 587.665 131.126 587.294 Q128.88 586.924 126.473 586.183 L126.473 581.484 Q128.556 582.618 130.779 583.174 Q133.001 583.729 135.478 583.729 Q139.482 583.729 141.82 581.623 Q144.158 579.516 144.158 575.905 Q144.158 572.294 141.82 570.188 Q139.482 568.081 135.478 568.081 Q133.603 568.081 131.728 568.498 Q129.876 568.915 127.931 569.794 L127.931 552.433 Z" fill="#000000" fill-rule="nonzero" fill-opacity="1" /><path clip-path="url(#clip090)" d="M52.3067 188.486 L59.9456 188.486 L59.9456 162.12 L51.6354 163.787 L51.6354 159.527 L59.8993 157.861 L64.5752 157.861 L64.5752 188.486 L72.214 188.486 L72.214 192.421 L52.3067 192.421 L52.3067 188.486 Z" fill="#000000" fill-rule="nonzero" fill-opacity="1" /><path clip-path="url(#clip090)" d="M81.6584 186.541 L86.5427 186.541 L86.5427 192.421 L81.6584 192.421 L81.6584 186.541 Z" fill="#000000" fill-rule="nonzero" fill-opacity="1" /><path clip-path="url(#clip090)" d="M106.728 160.94 Q103.117 160.94 101.288 164.504 Q99.4824 168.046 99.4824 175.176 Q99.4824 182.282 101.288 185.847 Q103.117 189.388 106.728 189.388 Q110.362 189.388 112.168 185.847 Q113.996 182.282 113.996 175.176 Q113.996 168.046 112.168 164.504 Q110.362 160.94 106.728 160.94 M106.728 157.236 Q112.538 157.236 115.593 161.842 Q118.672 166.426 118.672 175.176 Q118.672 183.902 115.593 188.509 Q112.538 193.092 106.728 193.092 Q100.918 193.092 97.8389 188.509 Q94.7834 183.902 94.7834 175.176 Q94.7834 166.426 97.8389 161.842 Q100.918 157.236 106.728 157.236 Z" fill="#000000" fill-rule="nonzero" fill-opacity="1" /><path clip-path="url(#clip090)" d="M136.89 160.94 Q133.279 160.94 131.45 164.504 Q129.644 168.046 129.644 175.176 Q129.644 182.282 131.45 185.847 Q133.279 189.388 136.89 189.388 Q140.524 189.388 142.329 185.847 Q144.158 182.282 144.158 175.176 Q144.158 168.046 142.329 164.504 Q140.524 160.94 136.89 160.94 M136.89 157.236 Q142.7 157.236 145.755 161.842 Q148.834 166.426 148.834 175.176 Q148.834 183.902 145.755 188.509 Q142.7 193.092 136.89 193.092 Q131.079 193.092 128.001 188.509 Q124.945 183.902 124.945 175.176 Q124.945 166.426 128.001 161.842 Q131.079 157.236 136.89 157.236 Z" fill="#000000" fill-rule="nonzero" fill-opacity="1" /><path clip-path="url(#clip090)" d="M774.507 12.096 L782.69 12.096 L782.69 72.576 L774.507 72.576 L774.507 12.096 Z" fill="#000000" fill-rule="nonzero" fill-opacity="1" /><path clip-path="url(#clip090)" d="M836.364 45.1919 L836.364 72.576 L828.911 72.576 L828.911 45.4349 Q828.911 38.994 826.399 35.7938 Q823.888 32.5936 818.864 32.5936 Q812.829 32.5936 809.345 36.4419 Q805.861 40.2903 805.861 46.9338 L805.861 72.576 L798.367 72.576 L798.367 27.2059 L805.861 27.2059 L805.861 34.2544 Q808.535 30.163 812.14 28.1376 Q815.786 26.1121 820.525 26.1121 Q828.344 26.1121 832.354 30.9732 Q836.364 35.7938 836.364 45.1919 Z" fill="#000000" fill-rule="nonzero" fill-opacity="1" /><path clip-path="url(#clip090)" d="M845.884 27.2059 L853.783 27.2059 L867.961 65.2844 L882.14 27.2059 L890.039 27.2059 L873.025 72.576 L862.898 72.576 L845.884 27.2059 Z" fill="#000000" fill-rule="nonzero" fill-opacity="1" /><path clip-path="url(#clip090)" d="M939.136 48.0275 L939.136 51.6733 L904.865 51.6733 Q905.351 59.3701 909.483 63.421 Q913.656 67.4314 921.069 67.4314 Q925.363 67.4314 929.373 66.3781 Q933.424 65.3249 937.394 63.2184 L937.394 70.267 Q933.383 71.9684 929.171 72.8596 Q924.958 73.7508 920.623 73.7508 Q909.767 73.7508 903.407 67.4314 Q897.087 61.1119 897.087 50.3365 Q897.087 39.1965 903.083 32.6746 Q909.119 26.1121 919.327 26.1121 Q928.482 26.1121 933.789 32.0264 Q939.136 37.9003 939.136 48.0275 M931.682 45.84 Q931.601 39.7232 928.239 36.0774 Q924.917 32.4315 919.408 32.4315 Q913.169 32.4315 909.402 35.9558 Q905.675 39.4801 905.108 45.8805 L931.682 45.84 Z" fill="#000000" fill-rule="nonzero" fill-opacity="1" /><path clip-path="url(#clip090)" d="M977.66 34.1734 Q976.404 33.4443 974.905 33.1202 Q973.447 32.7556 971.665 32.7556 Q965.345 32.7556 961.942 36.8875 Q958.58 40.9789 958.58 48.6757 L958.58 72.576 L951.086 72.576 L951.086 27.2059 L958.58 27.2059 L958.58 34.2544 Q960.93 30.1225 964.697 28.1376 Q968.464 26.1121 973.852 26.1121 Q974.622 26.1121 975.553 26.2337 Q976.485 26.3147 977.619 26.5172 L977.66 34.1734 Z" fill="#000000" fill-rule="nonzero" fill-opacity="1" /><path clip-path="url(#clip090)" d="M1014.4 28.5427 L1014.4 35.5912 Q1011.24 33.9709 1007.84 33.1607 Q1004.44 32.3505 1000.79 32.3505 Q995.241 32.3505 992.446 34.0519 Q989.691 35.7533 989.691 39.156 Q989.691 41.7486 991.676 43.2475 Q993.661 44.7058 999.656 46.0426 L1002.21 46.6097 Q1010.15 48.3111 1013.47 51.4303 Q1016.83 54.509 1016.83 60.0587 Q1016.83 66.3781 1011.81 70.0644 Q1006.83 73.7508 998.076 73.7508 Q994.431 73.7508 990.461 73.0216 Q986.531 72.3329 982.156 70.9151 L982.156 63.2184 Q986.288 65.3654 990.299 66.4591 Q994.309 67.5124 998.238 67.5124 Q1003.5 67.5124 1006.34 65.73 Q1009.18 63.9071 1009.18 60.6258 Q1009.18 57.5877 1007.11 55.9673 Q1005.08 54.3469 998.157 52.8481 L995.565 52.2405 Q988.638 50.7821 985.559 47.7845 Q982.48 44.7463 982.48 39.4801 Q982.48 33.0797 987.017 29.5959 Q991.554 26.1121 999.899 26.1121 Q1004.03 26.1121 1007.68 26.7198 Q1011.32 27.3274 1014.4 28.5427 Z" fill="#000000" fill-rule="nonzero" fill-opacity="1" /><path clip-path="url(#clip090)" d="M1067.51 48.0275 L1067.51 51.6733 L1033.24 51.6733 Q1033.72 59.3701 1037.86 63.421 Q1042.03 67.4314 1049.44 67.4314 Q1053.74 67.4314 1057.75 66.3781 Q1061.8 65.3249 1065.77 63.2184 L1065.77 70.267 Q1061.76 71.9684 1057.54 72.8596 Q1053.33 73.7508 1049 73.7508 Q1038.14 73.7508 1031.78 67.4314 Q1025.46 61.1119 1025.46 50.3365 Q1025.46 39.1965 1031.46 32.6746 Q1037.49 26.1121 1047.7 26.1121 Q1056.86 26.1121 1062.16 32.0264 Q1067.51 37.9003 1067.51 48.0275 M1060.06 45.84 Q1059.97 39.7232 1056.61 36.0774 Q1053.29 32.4315 1047.78 32.4315 Q1041.54 32.4315 1037.78 35.9558 Q1034.05 39.4801 1033.48 45.8805 L1060.06 45.84 Z" fill="#000000" fill-rule="nonzero" fill-opacity="1" /><path clip-path="url(#clip090)" d="M1110.57 49.9314 Q1110.57 58.1548 1113.93 62.8538 Q1117.34 67.5124 1123.25 67.5124 Q1129.16 67.5124 1132.57 62.8538 Q1135.97 58.1548 1135.97 49.9314 Q1135.97 41.7081 1132.57 37.0496 Q1129.16 32.3505 1123.25 32.3505 Q1117.34 32.3505 1113.93 37.0496 Q1110.57 41.7081 1110.57 49.9314 M1135.97 65.7705 Q1133.62 69.8214 1130.01 71.8063 Q1126.45 73.7508 1121.43 73.7508 Q1113.2 73.7508 1108.02 67.1883 Q1102.87 60.6258 1102.87 49.9314 Q1102.87 39.2371 1108.02 32.6746 Q1113.2 26.1121 1121.43 26.1121 Q1126.45 26.1121 1130.01 28.0971 Q1133.62 30.0415 1135.97 34.0924 L1135.97 27.2059 L1143.42 27.2059 L1143.42 89.8329 L1135.97 89.8329 L1135.97 65.7705 Z" fill="#000000" fill-rule="nonzero" fill-opacity="1" /><path clip-path="url(#clip090)" d="M1158.01 54.671 L1158.01 27.2059 L1165.46 27.2059 L1165.46 54.3874 Q1165.46 60.8284 1167.97 64.0691 Q1170.48 67.2693 1175.51 67.2693 Q1181.54 67.2693 1185.03 63.421 Q1188.55 59.5726 1188.55 52.9291 L1188.55 27.2059 L1196 27.2059 L1196 72.576 L1188.55 72.576 L1188.55 65.6084 Q1185.84 69.7404 1182.23 71.7658 Q1178.67 73.7508 1173.93 73.7508 Q1166.11 73.7508 1162.06 68.8897 Q1158.01 64.0286 1158.01 54.671 M1176.76 26.1121 L1176.76 26.1121 Z" fill="#000000" fill-rule="nonzero" fill-opacity="1" /><path clip-path="url(#clip090)" d="M1231.98 49.7694 Q1222.94 49.7694 1219.46 51.8354 Q1215.97 53.9013 1215.97 58.8839 Q1215.97 62.8538 1218.57 65.2034 Q1221.2 67.5124 1225.7 67.5124 Q1231.89 67.5124 1235.62 63.1374 Q1239.39 58.7219 1239.39 51.4303 L1239.39 49.7694 L1231.98 49.7694 M1246.84 46.6907 L1246.84 72.576 L1239.39 72.576 L1239.39 65.6895 Q1236.84 69.8214 1233.03 71.8063 Q1229.22 73.7508 1223.71 73.7508 Q1216.74 73.7508 1212.61 69.8619 Q1208.52 65.9325 1208.52 59.3701 Q1208.52 51.7138 1213.63 47.825 Q1218.77 43.9361 1228.94 43.9361 L1239.39 43.9361 L1239.39 43.2069 Q1239.39 38.0623 1235.99 35.2672 Q1232.62 32.4315 1226.51 32.4315 Q1222.62 32.4315 1218.93 33.3632 Q1215.25 34.295 1211.84 36.1584 L1211.84 29.2718 Q1215.93 27.692 1219.78 26.9223 Q1223.63 26.1121 1227.28 26.1121 Q1237.12 26.1121 1241.98 31.2163 Q1246.84 36.3204 1246.84 46.6907 Z" fill="#000000" fill-rule="nonzero" fill-opacity="1" /><path clip-path="url(#clip090)" d="M1299.91 45.1919 L1299.91 72.576 L1292.46 72.576 L1292.46 45.4349 Q1292.46 38.994 1289.94 35.7938 Q1287.43 32.5936 1282.41 32.5936 Q1276.37 32.5936 1272.89 36.4419 Q1269.41 40.2903 1269.41 46.9338 L1269.41 72.576 L1261.91 72.576 L1261.91 27.2059 L1269.41 27.2059 L1269.41 34.2544 Q1272.08 30.163 1275.68 28.1376 Q1279.33 26.1121 1284.07 26.1121 Q1291.89 26.1121 1295.9 30.9732 Q1299.91 35.7938 1299.91 45.1919 Z" fill="#000000" fill-rule="nonzero" fill-opacity="1" /><path clip-path="url(#clip090)" d="M1322.15 14.324 L1322.15 27.2059 L1337.5 27.2059 L1337.5 32.9987 L1322.15 32.9987 L1322.15 57.6282 Q1322.15 63.1779 1323.65 64.7578 Q1325.19 66.3376 1329.85 66.3376 L1337.5 66.3376 L1337.5 72.576 L1329.85 72.576 Q1321.22 72.576 1317.94 69.3758 Q1314.65 66.1351 1314.65 57.6282 L1314.65 32.9987 L1309.19 32.9987 L1309.19 27.2059 L1314.65 27.2059 L1314.65 14.324 L1322.15 14.324 Z" fill="#000000" fill-rule="nonzero" fill-opacity="1" /><path clip-path="url(#clip090)" d="M1347.3 27.2059 L1354.76 27.2059 L1354.76 72.576 L1347.3 72.576 L1347.3 27.2059 M1347.3 9.54393 L1354.76 9.54393 L1354.76 18.9825 L1347.3 18.9825 L1347.3 9.54393 Z" fill="#000000" fill-rule="nonzero" fill-opacity="1" /><path clip-path="url(#clip090)" d="M1370.35 9.54393 L1377.81 9.54393 L1377.81 72.576 L1370.35 72.576 L1370.35 9.54393 Z" fill="#000000" fill-rule="nonzero" fill-opacity="1" /><path clip-path="url(#clip090)" d="M1432.21 48.0275 L1432.21 51.6733 L1397.94 51.6733 Q1398.43 59.3701 1402.56 63.421 Q1406.73 67.4314 1414.14 67.4314 Q1418.44 67.4314 1422.45 66.3781 Q1426.5 65.3249 1430.47 63.2184 L1430.47 70.267 Q1426.46 71.9684 1422.25 72.8596 Q1418.03 73.7508 1413.7 73.7508 Q1402.84 73.7508 1396.48 67.4314 Q1390.16 61.1119 1390.16 50.3365 Q1390.16 39.1965 1396.16 32.6746 Q1402.19 26.1121 1412.4 26.1121 Q1421.56 26.1121 1426.86 32.0264 Q1432.21 37.9003 1432.21 48.0275 M1424.76 45.84 Q1424.68 39.7232 1421.31 36.0774 Q1417.99 32.4315 1412.48 32.4315 Q1406.25 32.4315 1402.48 35.9558 Q1398.75 39.4801 1398.18 45.8805 L1424.76 45.84 Z" fill="#000000" fill-rule="nonzero" fill-opacity="1" /><path clip-path="url(#clip090)" d="M1493.79 9.54393 L1493.79 15.7418 L1486.66 15.7418 Q1482.65 15.7418 1481.07 17.3622 Q1479.53 18.9825 1479.53 23.1955 L1479.53 27.2059 L1491.8 27.2059 L1491.8 32.9987 L1479.53 32.9987 L1479.53 72.576 L1472.03 72.576 L1472.03 32.9987 L1464.9 32.9987 L1464.9 27.2059 L1472.03 27.2059 L1472.03 24.0462 Q1472.03 16.471 1475.56 13.0277 Q1479.08 9.54393 1486.74 9.54393 L1493.79 9.54393 Z" fill="#000000" fill-rule="nonzero" fill-opacity="1" /><path clip-path="url(#clip090)" d="M1499.25 54.671 L1499.25 27.2059 L1506.71 27.2059 L1506.71 54.3874 Q1506.71 60.8284 1509.22 64.0691 Q1511.73 67.2693 1516.75 67.2693 Q1522.79 67.2693 1526.27 63.421 Q1529.8 59.5726 1529.8 52.9291 L1529.8 27.2059 L1537.25 27.2059 L1537.25 72.576 L1529.8 72.576 L1529.8 65.6084 Q1527.08 69.7404 1523.48 71.7658 Q1519.91 73.7508 1515.17 73.7508 Q1507.36 73.7508 1503.31 68.8897 Q1499.25 64.0286 1499.25 54.671 M1518.01 26.1121 L1518.01 26.1121 Z" fill="#000000" fill-rule="nonzero" fill-opacity="1" /><path clip-path="url(#clip090)" d="M1590.32 45.1919 L1590.32 72.576 L1582.86 72.576 L1582.86 45.4349 Q1582.86 38.994 1580.35 35.7938 Q1577.84 32.5936 1572.82 32.5936 Q1566.78 32.5936 1563.3 36.4419 Q1559.82 40.2903 1559.82 46.9338 L1559.82 72.576 L1552.32 72.576 L1552.32 27.2059 L1559.82 27.2059 L1559.82 34.2544 Q1562.49 30.163 1566.09 28.1376 Q1569.74 26.1121 1574.48 26.1121 Q1582.3 26.1121 1586.31 30.9732 Q1590.32 35.7938 1590.32 45.1919 Z" fill="#000000" fill-rule="nonzero" fill-opacity="1" /><path clip-path="url(#clip090)" d="M1637.84 28.9478 L1637.84 35.9153 Q1634.68 34.1734 1631.48 33.3227 Q1628.32 32.4315 1625.08 32.4315 Q1617.82 32.4315 1613.81 37.0496 Q1609.8 41.6271 1609.8 49.9314 Q1609.8 58.2358 1613.81 62.8538 Q1617.82 67.4314 1625.08 67.4314 Q1628.32 67.4314 1631.48 66.5807 Q1634.68 65.6895 1637.84 63.9476 L1637.84 70.8341 Q1634.72 72.2924 1631.35 73.0216 Q1628.03 73.7508 1624.27 73.7508 Q1614.02 73.7508 1607.98 67.3098 Q1601.94 60.8689 1601.94 49.9314 Q1601.94 38.832 1608.02 32.472 Q1614.14 26.1121 1624.75 26.1121 Q1628.19 26.1121 1631.48 26.8413 Q1634.76 27.5299 1637.84 28.9478 Z" fill="#000000" fill-rule="nonzero" fill-opacity="1" /><path clip-path="url(#clip090)" d="M1658.17 14.324 L1658.17 27.2059 L1673.52 27.2059 L1673.52 32.9987 L1658.17 32.9987 L1658.17 57.6282 Q1658.17 63.1779 1659.67 64.7578 Q1661.21 66.3376 1665.87 66.3376 L1673.52 66.3376 L1673.52 72.576 L1665.87 72.576 Q1657.24 72.576 1653.96 69.3758 Q1650.68 66.1351 1650.68 57.6282 L1650.68 32.9987 L1645.21 32.9987 L1645.21 27.2059 L1650.68 27.2059 L1650.68 14.324 L1658.17 14.324 Z" fill="#000000" fill-rule="nonzero" fill-opacity="1" /><path clip-path="url(#clip090)" d="M1683.33 27.2059 L1690.78 27.2059 L1690.78 72.576 L1683.33 72.576 L1683.33 27.2059 M1683.33 9.54393 L1690.78 9.54393 L1690.78 18.9825 L1683.33 18.9825 L1683.33 9.54393 Z" fill="#000000" fill-rule="nonzero" fill-opacity="1" /><path clip-path="url(#clip090)" d="M1723.96 32.4315 Q1717.96 32.4315 1714.48 37.1306 Q1711 41.7891 1711 49.9314 Q1711 58.0738 1714.44 62.7728 Q1717.92 67.4314 1723.96 67.4314 Q1729.91 67.4314 1733.4 62.7323 Q1736.88 58.0333 1736.88 49.9314 Q1736.88 41.8701 1733.4 37.1711 Q1729.91 32.4315 1723.96 32.4315 M1723.96 26.1121 Q1733.68 26.1121 1739.23 32.4315 Q1744.78 38.7509 1744.78 49.9314 Q1744.78 61.0714 1739.23 67.4314 Q1733.68 73.7508 1723.96 73.7508 Q1714.2 73.7508 1708.65 67.4314 Q1703.14 61.0714 1703.14 49.9314 Q1703.14 38.7509 1708.65 32.4315 Q1714.2 26.1121 1723.96 26.1121 Z" fill="#000000" fill-rule="nonzero" fill-opacity="1" /><path clip-path="url(#clip090)" d="M1794.85 45.1919 L1794.85 72.576 L1787.4 72.576 L1787.4 45.4349 Q1787.4 38.994 1784.88 35.7938 Q1782.37 32.5936 1777.35 32.5936 Q1771.31 32.5936 1767.83 36.4419 Q1764.35 40.2903 1764.35 46.9338 L1764.35 72.576 L1756.85 72.576 L1756.85 27.2059 L1764.35 27.2059 L1764.35 34.2544 Q1767.02 30.163 1770.62 28.1376 Q1774.27 26.1121 1779.01 26.1121 Q1786.83 26.1121 1790.84 30.9732 Q1794.85 35.7938 1794.85 45.1919 Z" fill="#000000" fill-rule="nonzero" fill-opacity="1" /><path clip-path="url(#clip090)" d="M1853.99 9.62495 Q1848.56 18.942 1845.93 28.0566 Q1843.3 37.1711 1843.3 46.5287 Q1843.3 55.8863 1845.93 65.0818 Q1848.6 74.2369 1853.99 83.5134 L1847.51 83.5134 Q1841.43 73.9938 1838.4 64.7983 Q1835.4 55.6027 1835.4 46.5287 Q1835.4 37.4952 1838.4 28.3401 Q1841.39 19.1851 1847.51 9.62495 L1853.99 9.62495 Z" fill="#000000" fill-rule="nonzero" fill-opacity="1" /><path clip-path="url(#clip090)" d="M1914.07 16.7545 L1914.07 25.383 Q1909.93 21.5346 1905.24 19.6307 Q1900.58 17.7268 1895.31 17.7268 Q1884.94 17.7268 1879.43 24.0867 Q1873.92 30.4061 1873.92 42.3968 Q1873.92 54.3469 1879.43 60.7069 Q1884.94 67.0263 1895.31 67.0263 Q1900.58 67.0263 1905.24 65.1223 Q1909.93 63.2184 1914.07 59.3701 L1914.07 67.9175 Q1909.77 70.8341 1904.95 72.2924 Q1900.17 73.7508 1894.83 73.7508 Q1881.09 73.7508 1873.19 65.3654 Q1865.29 56.9395 1865.29 42.3968 Q1865.29 27.8135 1873.19 19.4281 Q1881.09 11.0023 1894.83 11.0023 Q1900.25 11.0023 1905.03 12.4606 Q1909.85 13.8784 1914.07 16.7545 Z" fill="#000000" fill-rule="nonzero" fill-opacity="1" /><path clip-path="url(#clip090)" d="M1934.89 18.8205 L1934.89 65.8515 L1944.77 65.8515 Q1957.29 65.8515 1963.08 60.1802 Q1968.92 54.509 1968.92 42.2752 Q1968.92 30.1225 1963.08 24.4918 Q1957.29 18.8205 1944.77 18.8205 L1934.89 18.8205 M1926.71 12.096 L1943.52 12.096 Q1961.1 12.096 1969.32 19.4281 Q1977.54 26.7198 1977.54 42.2752 Q1977.54 57.9117 1969.28 65.2439 Q1961.02 72.576 1943.52 72.576 L1926.71 72.576 L1926.71 12.096 Z" fill="#000000" fill-rule="nonzero" fill-opacity="1" /><path clip-path="url(#clip090)" d="M1990.59 12.096 L2025.35 12.096 L2025.35 18.9825 L1998.77 18.9825 L1998.77 36.8065 L2022.75 36.8065 L2022.75 43.6931 L1998.77 43.6931 L1998.77 72.576 L1990.59 72.576 L1990.59 12.096 Z" fill="#000000" fill-rule="nonzero" fill-opacity="1" /><path clip-path="url(#clip090)" d="M2036.81 9.62495 L2043.29 9.62495 Q2049.37 19.1851 2052.36 28.3401 Q2055.4 37.4952 2055.4 46.5287 Q2055.4 55.6027 2052.36 64.7983 Q2049.37 73.9938 2043.29 83.5134 L2036.81 83.5134 Q2042.2 74.2369 2044.83 65.0818 Q2047.5 55.8863 2047.5 46.5287 Q2047.5 37.1711 2044.83 28.0566 Q2042.2 18.942 2036.81 9.62495 Z" fill="#000000" fill-rule="nonzero" fill-opacity="1" /><polyline clip-path="url(#clip092)" style="stroke:#009af9; stroke-linecap:round; stroke-linejoin:round; stroke-width:4; stroke-opacity:1; fill:none" points="258.539,1737.65 621.606,1721.86 814.342,1706.08 943.324,1690.3 1039.35,1674.52 1115.43,1658.73 1178.21,1642.95 1231.56,1627.17 1277.88,1611.38 1318.79,1595.6 1355.4,1579.82 1388.54,1564.04 1418.81,1548.25 1446.67,1532.47 1472.5,1516.69 1496.57,1500.9 1519.12,1485.12 1540.35,1469.34 1560.42,1453.56 1579.44,1437.77 1597.55,1421.99 1614.83,1406.21 1631.37,1390.42 1647.23,1374.64 1662.49,1358.86 1677.19,1343.08 1691.38,1327.29 1705.11,1311.51 1718.41,1295.73 1731.32,1279.94 1743.86,1264.16 1756.07,1248.38 1767.97,1232.59 1779.58,1216.81 1790.93,1201.03 1802.02,1185.25 1812.89,1169.46 1823.54,1153.68 1833.99,1137.9 1844.25,1122.11 1854.34,1106.33 1864.27,1090.55 1874.04,1074.77 1883.68,1058.98 1893.18,1043.2 1902.56,1027.42 1911.83,1011.63 1920.99,995.852 1930.05,980.069 1939.02,964.286 1947.91,948.503 1956.73,932.72 1965.47,916.937 1974.15,901.154 1982.77,885.371 1991.34,869.588 1999.87,853.805 2008.36,838.023 2016.81,822.24 2025.23,806.457 2033.63,790.674 2042.02,774.891 2050.39,759.108 2058.76,743.325 2067.12,727.542 2075.5,711.759 2083.88,695.976 2092.29,680.194 2100.72,664.411 2109.18,648.628 2117.67,632.845 2126.22,617.062 2134.82,601.279 2143.48,585.496 2152.21,569.713 2161.02,553.93 2169.93,538.147 2178.94,522.365 2188.06,506.582 2197.31,490.799 2206.71,475.016 2216.27,459.233 2226.02,443.45 2235.97,427.667 2246.15,411.884 2256.6,396.101 2267.35,380.318 2278.44,364.536 2289.94,348.753 2301.89,332.97 2314.4,317.187 2327.56,301.404 2341.53,285.621 2356.5,269.838 2372.79,254.055 2390.84,238.272 2411.46,222.49 2436.26,206.707 2469.58,190.924 2571.37,175.141 "/>
<path clip-path="url(#clip090)" d="M270.874 287.238 L2008.87 287.238 L2008.87 183.558 L270.874 183.558  Z" fill="#ffffff" fill-rule="evenodd" fill-opacity="1"/>
<polyline clip-path="url(#clip090)" style="stroke:#000000; stroke-linecap:round; stroke-linejoin:round; stroke-width:4; stroke-opacity:1; fill:none" points="270.874,287.238 2008.87,287.238 2008.87,183.558 270.874,183.558 270.874,287.238 "/>
<polyline clip-path="url(#clip090)" style="stroke:#009af9; stroke-linecap:round; stroke-linejoin:round; stroke-width:4; stroke-opacity:1; fill:none" points="298.114,235.398 461.554,235.398 "/>
<path clip-path="url(#clip090)" d="M504.813 221.29 Q499.72 221.29 496.711 225.086 Q493.725 228.882 493.725 235.433 Q493.725 241.961 496.711 245.757 Q499.72 249.553 504.813 249.553 Q509.905 249.553 512.868 245.757 Q515.854 241.961 515.854 235.433 Q515.854 228.882 512.868 225.086 Q509.905 221.29 504.813 221.29 M511.364 252.053 L517.521 258.789 L511.873 258.789 L506.757 253.257 Q505.993 253.303 505.577 253.327 Q505.183 253.35 504.813 253.35 Q497.521 253.35 493.146 248.489 Q488.794 243.604 488.794 235.433 Q488.794 227.239 493.146 222.378 Q497.521 217.493 504.813 217.493 Q512.081 217.493 516.433 222.378 Q520.785 227.239 520.785 235.433 Q520.785 241.452 518.354 245.734 Q515.947 250.016 511.364 252.053 Z" fill="#000000" fill-rule="nonzero" fill-opacity="1" /><path clip-path="url(#clip090)" d="M532.775 221.961 L532.775 248.836 L538.424 248.836 Q545.576 248.836 548.887 245.595 Q552.22 242.354 552.22 235.364 Q552.22 228.419 548.887 225.202 Q545.576 221.961 538.424 221.961 L532.775 221.961 M528.1 218.118 L537.706 218.118 Q547.752 218.118 552.451 222.308 Q557.15 226.475 557.15 235.364 Q557.15 244.299 552.428 248.489 Q547.706 252.678 537.706 252.678 L528.1 252.678 L528.1 218.118 Z" fill="#000000" fill-rule="nonzero" fill-opacity="1" /><path clip-path="url(#clip090)" d="M564.419 226.753 L568.678 226.753 L568.678 252.678 L564.419 252.678 L564.419 226.753 M564.419 216.66 L568.678 216.66 L568.678 222.054 L564.419 222.054 L564.419 216.66 Z" fill="#000000" fill-rule="nonzero" fill-opacity="1" /><path clip-path="url(#clip090)" d="M594.118 227.516 L594.118 231.544 Q592.312 230.618 590.368 230.155 Q588.423 229.692 586.34 229.692 Q583.169 229.692 581.572 230.665 Q579.997 231.637 579.997 233.581 Q579.997 235.063 581.132 235.919 Q582.266 236.753 585.692 237.516 L587.15 237.84 Q591.687 238.813 593.585 240.595 Q595.507 242.354 595.507 245.526 Q595.507 249.137 592.636 251.243 Q589.789 253.35 584.789 253.35 Q582.706 253.35 580.437 252.933 Q578.192 252.539 575.692 251.729 L575.692 247.331 Q578.053 248.558 580.345 249.183 Q582.636 249.785 584.882 249.785 Q587.891 249.785 589.511 248.766 Q591.132 247.725 591.132 245.85 Q591.132 244.114 589.951 243.188 Q588.794 242.262 584.835 241.405 L583.354 241.058 Q579.396 240.225 577.636 238.512 Q575.877 236.776 575.877 233.766 Q575.877 230.109 578.47 228.118 Q581.062 226.128 585.831 226.128 Q588.192 226.128 590.275 226.475 Q592.358 226.822 594.118 227.516 Z" fill="#000000" fill-rule="nonzero" fill-opacity="1" /><path clip-path="url(#clip090)" d="M606.502 219.392 L606.502 226.753 L615.275 226.753 L615.275 230.063 L606.502 230.063 L606.502 244.137 Q606.502 247.308 607.358 248.211 Q608.238 249.114 610.9 249.114 L615.275 249.114 L615.275 252.678 L610.9 252.678 Q605.97 252.678 604.095 250.85 Q602.22 248.998 602.22 244.137 L602.22 230.063 L599.095 230.063 L599.095 226.753 L602.22 226.753 L602.22 219.392 L606.502 219.392 Z" fill="#000000" fill-rule="nonzero" fill-opacity="1" /><path clip-path="url(#clip090)" d="M635.9 230.734 Q635.182 230.317 634.326 230.132 Q633.493 229.924 632.474 229.924 Q628.863 229.924 626.918 232.285 Q624.997 234.623 624.997 239.021 L624.997 252.678 L620.715 252.678 L620.715 226.753 L624.997 226.753 L624.997 230.78 Q626.34 228.419 628.493 227.285 Q630.645 226.128 633.724 226.128 Q634.164 226.128 634.696 226.197 Q635.229 226.243 635.877 226.359 L635.9 230.734 Z" fill="#000000" fill-rule="nonzero" fill-opacity="1" /><path clip-path="url(#clip090)" d="M640.367 226.753 L644.627 226.753 L644.627 252.678 L640.367 252.678 L640.367 226.753 M640.367 216.66 L644.627 216.66 L644.627 222.054 L640.367 222.054 L640.367 216.66 Z" fill="#000000" fill-rule="nonzero" fill-opacity="1" /><path clip-path="url(#clip090)" d="M672.15 239.739 Q672.15 235.04 670.205 232.378 Q668.284 229.692 664.904 229.692 Q661.525 229.692 659.58 232.378 Q657.659 235.04 657.659 239.739 Q657.659 244.438 659.58 247.123 Q661.525 249.785 664.904 249.785 Q668.284 249.785 670.205 247.123 Q672.15 244.438 672.15 239.739 M657.659 230.688 Q659.002 228.373 661.039 227.262 Q663.099 226.128 665.946 226.128 Q670.668 226.128 673.608 229.878 Q676.571 233.628 676.571 239.739 Q676.571 245.85 673.608 249.6 Q670.668 253.35 665.946 253.35 Q663.099 253.35 661.039 252.239 Q659.002 251.104 657.659 248.789 L657.659 252.678 L653.377 252.678 L653.377 216.66 L657.659 216.66 L657.659 230.688 Z" fill="#000000" fill-rule="nonzero" fill-opacity="1" /><path clip-path="url(#clip090)" d="M683.191 242.447 L683.191 226.753 L687.451 226.753 L687.451 242.285 Q687.451 245.965 688.886 247.817 Q690.321 249.646 693.191 249.646 Q696.64 249.646 698.631 247.447 Q700.645 245.248 700.645 241.452 L700.645 226.753 L704.904 226.753 L704.904 252.678 L700.645 252.678 L700.645 248.697 Q699.094 251.058 697.034 252.215 Q694.997 253.35 692.289 253.35 Q687.821 253.35 685.506 250.572 Q683.191 247.794 683.191 242.447 M693.909 226.128 L693.909 226.128 Z" fill="#000000" fill-rule="nonzero" fill-opacity="1" /><path clip-path="url(#clip090)" d="M717.89 219.392 L717.89 226.753 L726.663 226.753 L726.663 230.063 L717.89 230.063 L717.89 244.137 Q717.89 247.308 718.747 248.211 Q719.626 249.114 722.288 249.114 L726.663 249.114 L726.663 252.678 L722.288 252.678 Q717.358 252.678 715.483 250.85 Q713.608 248.998 713.608 244.137 L713.608 230.063 L710.483 230.063 L710.483 226.753 L713.608 226.753 L713.608 219.392 L717.89 219.392 Z" fill="#000000" fill-rule="nonzero" fill-opacity="1" /><path clip-path="url(#clip090)" d="M732.265 226.753 L736.524 226.753 L736.524 252.678 L732.265 252.678 L732.265 226.753 M732.265 216.66 L736.524 216.66 L736.524 222.054 L732.265 222.054 L732.265 216.66 Z" fill="#000000" fill-rule="nonzero" fill-opacity="1" /><path clip-path="url(#clip090)" d="M755.483 229.739 Q752.057 229.739 750.066 232.424 Q748.075 235.086 748.075 239.739 Q748.075 244.391 750.043 247.077 Q752.034 249.739 755.483 249.739 Q758.885 249.739 760.876 247.053 Q762.867 244.368 762.867 239.739 Q762.867 235.132 760.876 232.447 Q758.885 229.739 755.483 229.739 M755.483 226.128 Q761.038 226.128 764.209 229.739 Q767.381 233.35 767.381 239.739 Q767.381 246.104 764.209 249.739 Q761.038 253.35 755.483 253.35 Q749.904 253.35 746.733 249.739 Q743.585 246.104 743.585 239.739 Q743.585 233.35 746.733 229.739 Q749.904 226.128 755.483 226.128 Z" fill="#000000" fill-rule="nonzero" fill-opacity="1" /><path clip-path="url(#clip090)" d="M795.992 237.03 L795.992 252.678 L791.732 252.678 L791.732 237.169 Q791.732 233.489 790.297 231.66 Q788.862 229.831 785.992 229.831 Q782.543 229.831 780.552 232.03 Q778.561 234.229 778.561 238.026 L778.561 252.678 L774.279 252.678 L774.279 226.753 L778.561 226.753 L778.561 230.78 Q780.089 228.442 782.149 227.285 Q784.232 226.128 786.941 226.128 Q791.408 226.128 793.7 228.905 Q795.992 231.66 795.992 237.03 Z" fill="#000000" fill-rule="nonzero" fill-opacity="1" /><path clip-path="url(#clip090)" d="M821.015 227.516 L821.015 231.544 Q819.209 230.618 817.265 230.155 Q815.32 229.692 813.237 229.692 Q810.066 229.692 808.468 230.665 Q806.894 231.637 806.894 233.581 Q806.894 235.063 808.029 235.919 Q809.163 236.753 812.589 237.516 L814.047 237.84 Q818.584 238.813 820.482 240.595 Q822.404 242.354 822.404 245.526 Q822.404 249.137 819.533 251.243 Q816.686 253.35 811.686 253.35 Q809.603 253.35 807.334 252.933 Q805.089 252.539 802.589 251.729 L802.589 247.331 Q804.95 248.558 807.242 249.183 Q809.533 249.785 811.779 249.785 Q814.788 249.785 816.408 248.766 Q818.029 247.725 818.029 245.85 Q818.029 244.114 816.848 243.188 Q815.691 242.262 811.732 241.405 L810.251 241.058 Q806.293 240.225 804.533 238.512 Q802.774 236.776 802.774 233.766 Q802.774 230.109 805.367 228.118 Q807.959 226.128 812.728 226.128 Q815.089 226.128 817.172 226.475 Q819.255 226.822 821.015 227.516 Z" fill="#000000" fill-rule="nonzero" fill-opacity="1" /><path clip-path="url(#clip090)" d="M829.788 246.799 L834.672 246.799 L834.672 252.678 L829.788 252.678 L829.788 246.799 Z" fill="#000000" fill-rule="nonzero" fill-opacity="1" /><path clip-path="url(#clip090)" d="M868.005 247.748 L868.005 238.465 L860.366 238.465 L860.366 234.623 L872.635 234.623 L872.635 249.461 Q869.926 251.382 866.663 252.377 Q863.399 253.35 859.695 253.35 Q851.593 253.35 847.01 248.627 Q842.45 243.882 842.45 235.433 Q842.45 226.961 847.01 222.239 Q851.593 217.493 859.695 217.493 Q863.075 217.493 866.107 218.327 Q869.163 219.16 871.732 220.78 L871.732 225.757 Q869.139 223.558 866.223 222.447 Q863.306 221.336 860.089 221.336 Q853.746 221.336 850.552 224.878 Q847.38 228.419 847.38 235.433 Q847.38 242.424 850.552 245.965 Q853.746 249.507 860.089 249.507 Q862.565 249.507 864.51 249.09 Q866.454 248.651 868.005 247.748 Z" fill="#000000" fill-rule="nonzero" fill-opacity="1" /><path clip-path="url(#clip090)" d="M881.176 218.118 L885.852 218.118 L885.852 248.743 L902.681 248.743 L902.681 252.678 L881.176 252.678 L881.176 218.118 Z" fill="#000000" fill-rule="nonzero" fill-opacity="1" /><path clip-path="url(#clip090)" d="M912.264 221.961 L912.264 248.836 L917.912 248.836 Q925.065 248.836 928.375 245.595 Q931.709 242.354 931.709 235.364 Q931.709 228.419 928.375 225.202 Q925.065 221.961 917.912 221.961 L912.264 221.961 M907.588 218.118 L917.195 218.118 Q927.241 218.118 931.94 222.308 Q936.639 226.475 936.639 235.364 Q936.639 244.299 931.917 248.489 Q927.195 252.678 917.195 252.678 L907.588 252.678 L907.588 218.118 Z" fill="#000000" fill-rule="nonzero" fill-opacity="1" /><path clip-path="url(#clip090)" d="M962.565 227.748 L962.565 231.729 Q960.759 230.734 958.931 230.248 Q957.125 229.739 955.273 229.739 Q951.13 229.739 948.838 232.378 Q946.546 234.993 946.546 239.739 Q946.546 244.484 948.838 247.123 Q951.13 249.739 955.273 249.739 Q957.125 249.739 958.931 249.252 Q960.759 248.743 962.565 247.748 L962.565 251.683 Q960.782 252.516 958.861 252.933 Q956.963 253.35 954.81 253.35 Q948.954 253.35 945.505 249.669 Q942.056 245.989 942.056 239.739 Q942.056 233.396 945.528 229.762 Q949.023 226.128 955.088 226.128 Q957.056 226.128 958.931 226.544 Q960.806 226.938 962.565 227.748 Z" fill="#000000" fill-rule="nonzero" fill-opacity="1" /><path clip-path="url(#clip090)" d="M986.5 227.516 L986.5 231.544 Q984.694 230.618 982.75 230.155 Q980.805 229.692 978.722 229.692 Q975.551 229.692 973.954 230.665 Q972.38 231.637 972.38 233.581 Q972.38 235.063 973.514 235.919 Q974.648 236.753 978.074 237.516 L979.532 237.84 Q984.069 238.813 985.967 240.595 Q987.889 242.354 987.889 245.526 Q987.889 249.137 985.018 251.243 Q982.171 253.35 977.171 253.35 Q975.088 253.35 972.819 252.933 Q970.574 252.539 968.074 251.729 L968.074 247.331 Q970.435 248.558 972.727 249.183 Q975.018 249.785 977.264 249.785 Q980.273 249.785 981.893 248.766 Q983.514 247.725 983.514 245.85 Q983.514 244.114 982.333 243.188 Q981.176 242.262 977.218 241.405 L975.736 241.058 Q971.778 240.225 970.019 238.512 Q968.259 236.776 968.259 233.766 Q968.259 230.109 970.852 228.118 Q973.444 226.128 978.213 226.128 Q980.574 226.128 982.657 226.475 Q984.741 226.822 986.5 227.516 Z" fill="#000000" fill-rule="nonzero" fill-opacity="1" /><path clip-path="url(#clip090)" d="M992.194 226.753 L996.454 226.753 L1001.78 246.984 L1007.08 226.753 L1012.1 226.753 L1017.43 246.984 L1022.73 226.753 L1026.99 226.753 L1020.2 252.678 L1015.18 252.678 L1009.6 231.428 L1004 252.678 L998.977 252.678 L992.194 226.753 Z" fill="#000000" fill-rule="nonzero" fill-opacity="1" /><path clip-path="url(#clip090)" d="M1053.21 257.076 L1053.21 260.41 L1051.78 260.41 Q1046.01 260.41 1044.05 258.697 Q1042.1 256.984 1042.1 251.868 L1042.1 246.336 Q1042.1 242.84 1040.85 241.498 Q1039.6 240.155 1036.31 240.155 L1034.9 240.155 L1034.9 236.845 L1036.31 236.845 Q1039.62 236.845 1040.85 235.526 Q1042.1 234.183 1042.1 230.734 L1042.1 225.179 Q1042.1 220.063 1044.05 218.373 Q1046.01 216.66 1051.78 216.66 L1053.21 216.66 L1053.21 219.97 L1051.64 219.97 Q1048.37 219.97 1047.38 220.989 Q1046.38 222.007 1046.38 225.271 L1046.38 231.012 Q1046.38 234.646 1045.32 236.29 Q1044.28 237.933 1041.73 238.512 Q1044.3 239.137 1045.34 240.78 Q1046.38 242.424 1046.38 246.035 L1046.38 251.776 Q1046.38 255.039 1047.38 256.058 Q1048.37 257.076 1051.64 257.076 L1053.21 257.076 Z" fill="#000000" fill-rule="nonzero" fill-opacity="1" /><path clip-path="url(#clip090)" d="M1063.79 218.118 L1083.65 218.118 L1083.65 222.054 L1068.47 222.054 L1068.47 232.239 L1082.17 232.239 L1082.17 236.174 L1068.47 236.174 L1068.47 252.678 L1063.79 252.678 L1063.79 218.118 Z" fill="#000000" fill-rule="nonzero" fill-opacity="1" /><path clip-path="url(#clip090)" d="M1090.87 216.66 L1095.13 216.66 L1095.13 252.678 L1090.87 252.678 L1090.87 216.66 Z" fill="#000000" fill-rule="nonzero" fill-opacity="1" /><path clip-path="url(#clip090)" d="M1114.09 229.739 Q1110.67 229.739 1108.68 232.424 Q1106.68 235.086 1106.68 239.739 Q1106.68 244.391 1108.65 247.077 Q1110.64 249.739 1114.09 249.739 Q1117.49 249.739 1119.49 247.053 Q1121.48 244.368 1121.48 239.739 Q1121.48 235.132 1119.49 232.447 Q1117.49 229.739 1114.09 229.739 M1114.09 226.128 Q1119.65 226.128 1122.82 229.739 Q1125.99 233.35 1125.99 239.739 Q1125.99 246.104 1122.82 249.739 Q1119.65 253.35 1114.09 253.35 Q1108.51 253.35 1105.34 249.739 Q1102.19 246.104 1102.19 239.739 Q1102.19 233.35 1105.34 229.739 Q1108.51 226.128 1114.09 226.128 Z" fill="#000000" fill-rule="nonzero" fill-opacity="1" /><path clip-path="url(#clip090)" d="M1144.83 239.646 Q1139.67 239.646 1137.68 240.827 Q1135.69 242.007 1135.69 244.854 Q1135.69 247.123 1137.17 248.465 Q1138.68 249.785 1141.24 249.785 Q1144.79 249.785 1146.92 247.285 Q1149.07 244.762 1149.07 240.595 L1149.07 239.646 L1144.83 239.646 M1153.33 237.887 L1153.33 252.678 L1149.07 252.678 L1149.07 248.743 Q1147.61 251.104 1145.43 252.239 Q1143.26 253.35 1140.11 253.35 Q1136.13 253.35 1133.77 251.127 Q1131.43 248.882 1131.43 245.132 Q1131.43 240.757 1134.35 238.535 Q1137.29 236.313 1143.1 236.313 L1149.07 236.313 L1149.07 235.896 Q1149.07 232.956 1147.12 231.359 Q1145.2 229.739 1141.71 229.739 Q1139.49 229.739 1137.38 230.271 Q1135.27 230.803 1133.33 231.868 L1133.33 227.933 Q1135.67 227.03 1137.86 226.591 Q1140.06 226.128 1142.15 226.128 Q1147.77 226.128 1150.55 229.044 Q1153.33 231.961 1153.33 237.887 Z" fill="#000000" fill-rule="nonzero" fill-opacity="1" /><path clip-path="url(#clip090)" d="M1166.31 219.392 L1166.31 226.753 L1175.09 226.753 L1175.09 230.063 L1166.31 230.063 L1166.31 244.137 Q1166.31 247.308 1167.17 248.211 Q1168.05 249.114 1170.71 249.114 L1175.09 249.114 L1175.09 252.678 L1170.71 252.678 Q1165.78 252.678 1163.91 250.85 Q1162.03 248.998 1162.03 244.137 L1162.03 230.063 L1158.91 230.063 L1158.91 226.753 L1162.03 226.753 L1162.03 219.392 L1166.31 219.392 Z" fill="#000000" fill-rule="nonzero" fill-opacity="1" /><path clip-path="url(#clip090)" d="M1191.87 233.535 Q1188.72 233.535 1186.87 235.688 Q1185.04 237.84 1185.04 241.59 Q1185.04 245.317 1186.87 247.493 Q1188.72 249.646 1191.87 249.646 Q1195.02 249.646 1196.85 247.493 Q1198.7 245.317 1198.7 241.59 Q1198.7 237.84 1196.85 235.688 Q1195.02 233.535 1191.87 233.535 M1201.15 218.882 L1201.15 223.141 Q1199.39 222.308 1197.59 221.868 Q1195.8 221.429 1194.05 221.429 Q1189.42 221.429 1186.96 224.554 Q1184.53 227.678 1184.18 233.998 Q1185.55 231.984 1187.61 230.919 Q1189.67 229.831 1192.15 229.831 Q1197.36 229.831 1200.36 233.003 Q1203.4 236.151 1203.4 241.59 Q1203.4 246.915 1200.25 250.132 Q1197.1 253.35 1191.87 253.35 Q1185.87 253.35 1182.7 248.766 Q1179.53 244.16 1179.53 235.433 Q1179.53 227.239 1183.42 222.378 Q1187.31 217.493 1193.86 217.493 Q1195.62 217.493 1197.4 217.841 Q1199.21 218.188 1201.15 218.882 Z" fill="#000000" fill-rule="nonzero" fill-opacity="1" /><path clip-path="url(#clip090)" d="M1224.3 222.192 L1212.49 240.641 L1224.3 240.641 L1224.3 222.192 M1223.07 218.118 L1228.95 218.118 L1228.95 240.641 L1233.88 240.641 L1233.88 244.53 L1228.95 244.53 L1228.95 252.678 L1224.3 252.678 L1224.3 244.53 L1208.7 244.53 L1208.7 240.016 L1223.07 218.118 Z" fill="#000000" fill-rule="nonzero" fill-opacity="1" /><path clip-path="url(#clip090)" d="M1242.47 257.076 L1244.09 257.076 Q1247.33 257.076 1248.3 256.081 Q1249.3 255.086 1249.3 251.776 L1249.3 246.035 Q1249.3 242.424 1250.34 240.78 Q1251.38 239.137 1253.95 238.512 Q1251.38 237.933 1250.34 236.29 Q1249.3 234.646 1249.3 231.012 L1249.3 225.271 Q1249.3 221.984 1248.3 220.989 Q1247.33 219.97 1244.09 219.97 L1242.47 219.97 L1242.47 216.66 L1243.93 216.66 Q1249.69 216.66 1251.61 218.373 Q1253.56 220.063 1253.56 225.179 L1253.56 230.734 Q1253.56 234.183 1254.81 235.526 Q1256.06 236.845 1259.35 236.845 L1260.78 236.845 L1260.78 240.155 L1259.35 240.155 Q1256.06 240.155 1254.81 241.498 Q1253.56 242.84 1253.56 246.336 L1253.56 251.868 Q1253.56 256.984 1251.61 258.697 Q1249.69 260.41 1243.93 260.41 L1242.47 260.41 L1242.47 257.076 Z" fill="#000000" fill-rule="nonzero" fill-opacity="1" /><path clip-path="url(#clip090)" d="M1281.41 216.706 Q1278.3 222.03 1276.8 227.239 Q1275.29 232.447 1275.29 237.794 Q1275.29 243.141 1276.8 248.396 Q1278.33 253.627 1281.41 258.928 L1277.7 258.928 Q1274.23 253.489 1272.49 248.234 Q1270.78 242.979 1270.78 237.794 Q1270.78 232.632 1272.49 227.401 Q1274.21 222.169 1277.7 216.706 L1281.41 216.706 Z" fill="#000000" fill-rule="nonzero" fill-opacity="1" /><path clip-path="url(#clip090)" d="M1289.23 262.539 L1289.23 226.753 L1293.49 226.753 L1293.49 242.864 Q1293.49 246.22 1295.09 247.933 Q1296.68 249.646 1299.81 249.646 Q1303.23 249.646 1304.95 247.702 Q1306.68 245.757 1306.68 241.868 L1306.68 226.753 L1310.94 226.753 L1310.94 246.706 Q1310.94 248.095 1311.34 248.766 Q1311.75 249.414 1312.61 249.414 Q1312.82 249.414 1313.19 249.299 Q1313.56 249.16 1314.21 248.882 L1314.21 252.308 Q1313.26 252.84 1312.4 253.095 Q1311.57 253.35 1310.76 253.35 Q1309.16 253.35 1308.21 252.447 Q1307.26 251.544 1306.91 249.692 Q1305.76 251.521 1304.07 252.447 Q1302.4 253.35 1300.13 253.35 Q1297.77 253.35 1296.1 252.447 Q1294.46 251.544 1293.49 249.739 L1293.49 262.539 L1289.23 262.539 Z" fill="#000000" fill-rule="nonzero" fill-opacity="1" /><path clip-path="url(#clip090)" d="M1320.39 231.151 L1350.06 231.151 L1350.06 235.04 L1320.39 235.04 L1320.39 231.151 M1320.39 240.595 L1350.06 240.595 L1350.06 244.53 L1320.39 244.53 L1320.39 240.595 Z" fill="#000000" fill-rule="nonzero" fill-opacity="1" /><path clip-path="url(#clip090)" d="M1360.97 248.743 L1368.6 248.743 L1368.6 222.378 L1360.29 224.044 L1360.29 219.785 L1368.56 218.118 L1373.23 218.118 L1373.23 248.743 L1380.87 248.743 L1380.87 252.678 L1360.97 252.678 L1360.97 248.743 Z" fill="#000000" fill-rule="nonzero" fill-opacity="1" /><path clip-path="url(#clip090)" d="M1390.32 246.799 L1395.2 246.799 L1395.2 252.678 L1390.32 252.678 L1390.32 246.799 Z" fill="#000000" fill-rule="nonzero" fill-opacity="1" /><path clip-path="url(#clip090)" d="M1415.39 221.197 Q1411.78 221.197 1409.95 224.762 Q1408.14 228.303 1408.14 235.433 Q1408.14 242.54 1409.95 246.104 Q1411.78 249.646 1415.39 249.646 Q1419.02 249.646 1420.83 246.104 Q1422.65 242.54 1422.65 235.433 Q1422.65 228.303 1420.83 224.762 Q1419.02 221.197 1415.39 221.197 M1415.39 217.493 Q1421.2 217.493 1424.25 222.1 Q1427.33 226.683 1427.33 235.433 Q1427.33 244.16 1424.25 248.766 Q1421.2 253.35 1415.39 253.35 Q1409.58 253.35 1406.5 248.766 Q1403.44 244.16 1403.44 235.433 Q1403.44 226.683 1406.5 222.1 Q1409.58 217.493 1415.39 217.493 Z" fill="#000000" fill-rule="nonzero" fill-opacity="1" /><path clip-path="url(#clip090)" d="M1436.03 246.799 L1440.92 246.799 L1440.92 250.78 L1437.12 258.188 L1434.14 258.188 L1436.03 250.78 L1436.03 246.799 Z" fill="#000000" fill-rule="nonzero" fill-opacity="1" /><path clip-path="url(#clip090)" d="M1475.13 230.132 Q1471.61 230.132 1469.71 232.678 Q1467.72 235.34 1467.72 239.739 Q1467.72 244.391 1469.69 247.077 Q1471.68 249.739 1475.13 249.739 Q1478.53 249.739 1480.53 247.053 Q1482.52 244.368 1482.52 239.739 Q1482.52 235.503 1480.53 232.678 Q1478.7 230.132 1475.13 230.132 M1475.13 226.753 L1489.27 226.753 L1489.27 231.012 L1484.51 231.012 Q1487.03 234.623 1487.03 239.739 Q1487.03 246.104 1483.86 249.715 Q1480.69 253.35 1475.13 253.35 Q1469.55 253.35 1466.4 249.715 Q1463.23 246.104 1463.23 239.739 Q1463.23 233.327 1466.4 229.739 Q1469.02 226.753 1475.13 226.753 Z" fill="#000000" fill-rule="nonzero" fill-opacity="1" /><path clip-path="url(#clip090)" d="M1495.69 231.151 L1525.36 231.151 L1525.36 235.04 L1495.69 235.04 L1495.69 231.151 M1495.69 240.595 L1525.36 240.595 L1525.36 244.53 L1495.69 244.53 L1495.69 240.595 Z" fill="#000000" fill-rule="nonzero" fill-opacity="1" /><path clip-path="url(#clip090)" d="M1535.5 218.118 L1553.86 218.118 L1553.86 222.054 L1539.78 222.054 L1539.78 230.526 Q1540.8 230.178 1541.82 230.016 Q1542.84 229.831 1543.86 229.831 Q1549.65 229.831 1553.02 233.003 Q1556.4 236.174 1556.4 241.59 Q1556.4 247.169 1552.93 250.271 Q1549.46 253.35 1543.14 253.35 Q1540.96 253.35 1538.7 252.979 Q1536.45 252.609 1534.04 251.868 L1534.04 247.169 Q1536.13 248.303 1538.35 248.859 Q1540.57 249.414 1543.05 249.414 Q1547.05 249.414 1549.39 247.308 Q1551.73 245.202 1551.73 241.59 Q1551.73 237.979 1549.39 235.873 Q1547.05 233.766 1543.05 233.766 Q1541.17 233.766 1539.3 234.183 Q1537.45 234.6 1535.5 235.479 L1535.5 218.118 Z" fill="#000000" fill-rule="nonzero" fill-opacity="1" /><path clip-path="url(#clip090)" d="M1565.62 246.799 L1570.5 246.799 L1570.5 252.678 L1565.62 252.678 L1565.62 246.799 Z" fill="#000000" fill-rule="nonzero" fill-opacity="1" /><path clip-path="url(#clip090)" d="M1590.69 221.197 Q1587.08 221.197 1585.25 224.762 Q1583.44 228.303 1583.44 235.433 Q1583.44 242.54 1585.25 246.104 Q1587.08 249.646 1590.69 249.646 Q1594.32 249.646 1596.13 246.104 Q1597.95 242.54 1597.95 235.433 Q1597.95 228.303 1596.13 224.762 Q1594.32 221.197 1590.69 221.197 M1590.69 217.493 Q1596.5 217.493 1599.55 222.1 Q1602.63 226.683 1602.63 235.433 Q1602.63 244.16 1599.55 248.766 Q1596.5 253.35 1590.69 253.35 Q1584.88 253.35 1581.8 248.766 Q1578.74 244.16 1578.74 235.433 Q1578.74 226.683 1581.8 222.1 Q1584.88 217.493 1590.69 217.493 Z" fill="#000000" fill-rule="nonzero" fill-opacity="1" /><path clip-path="url(#clip090)" d="M1611.33 246.799 L1616.22 246.799 L1616.22 250.78 L1612.42 258.188 L1609.44 258.188 L1611.33 250.78 L1611.33 246.799 Z" fill="#000000" fill-rule="nonzero" fill-opacity="1" /><path clip-path="url(#clip090)" d="M1652.86 258.465 L1649.41 249.6 L1642.31 262.563 L1637.28 262.563 L1647.33 244.229 L1643.12 233.327 Q1641.98 230.41 1638.42 230.41 L1637.28 230.41 L1637.28 226.753 L1638.9 226.799 Q1644.88 226.961 1646.38 230.827 L1649.81 239.692 L1656.91 226.729 L1661.94 226.729 L1651.89 245.063 L1656.1 255.965 Q1657.24 258.882 1660.8 258.882 L1661.94 258.882 L1661.94 262.539 L1660.32 262.493 Q1654.34 262.331 1652.86 258.465 Z" fill="#000000" fill-rule="nonzero" fill-opacity="1" /><path clip-path="url(#clip090)" d="M1668.32 231.151 L1698 231.151 L1698 235.04 L1668.32 235.04 L1668.32 231.151 M1668.32 240.595 L1698 240.595 L1698 244.53 L1668.32 244.53 L1668.32 240.595 Z" fill="#000000" fill-rule="nonzero" fill-opacity="1" /><path clip-path="url(#clip090)" d="M1705.34 237.794 L1717.82 237.794 L1717.82 241.59 L1705.34 241.59 L1705.34 237.794 Z" fill="#000000" fill-rule="nonzero" fill-opacity="1" /><path clip-path="url(#clip090)" d="M1735.2 221.197 Q1731.59 221.197 1729.76 224.762 Q1727.95 228.303 1727.95 235.433 Q1727.95 242.54 1729.76 246.104 Q1731.59 249.646 1735.2 249.646 Q1738.83 249.646 1740.64 246.104 Q1742.47 242.54 1742.47 235.433 Q1742.47 228.303 1740.64 224.762 Q1738.83 221.197 1735.2 221.197 M1735.2 217.493 Q1741.01 217.493 1744.07 222.1 Q1747.14 226.683 1747.14 235.433 Q1747.14 244.16 1744.07 248.766 Q1741.01 253.35 1735.2 253.35 Q1729.39 253.35 1726.31 248.766 Q1723.26 244.16 1723.26 235.433 Q1723.26 226.683 1726.31 222.1 Q1729.39 217.493 1735.2 217.493 Z" fill="#000000" fill-rule="nonzero" fill-opacity="1" /><path clip-path="url(#clip090)" d="M1755.36 246.799 L1760.25 246.799 L1760.25 252.678 L1755.36 252.678 L1755.36 246.799 Z" fill="#000000" fill-rule="nonzero" fill-opacity="1" /><path clip-path="url(#clip090)" d="M1770.48 218.118 L1788.83 218.118 L1788.83 222.054 L1774.76 222.054 L1774.76 230.526 Q1775.78 230.178 1776.8 230.016 Q1777.82 229.831 1778.83 229.831 Q1784.62 229.831 1788 233.003 Q1791.38 236.174 1791.38 241.59 Q1791.38 247.169 1787.91 250.271 Q1784.44 253.35 1778.12 253.35 Q1775.94 253.35 1773.67 252.979 Q1771.43 252.609 1769.02 251.868 L1769.02 247.169 Q1771.1 248.303 1773.32 248.859 Q1775.55 249.414 1778.02 249.414 Q1782.03 249.414 1784.37 247.308 Q1786.7 245.202 1786.7 241.59 Q1786.7 237.979 1784.37 235.873 Q1782.03 233.766 1778.02 233.766 Q1776.15 233.766 1774.27 234.183 Q1772.42 234.6 1770.48 235.479 L1770.48 218.118 Z" fill="#000000" fill-rule="nonzero" fill-opacity="1" /><path clip-path="url(#clip090)" d="M1801.08 246.799 L1805.96 246.799 L1805.96 250.78 L1802.17 258.188 L1799.18 258.188 L1801.08 250.78 L1801.08 246.799 Z" fill="#000000" fill-rule="nonzero" fill-opacity="1" /><path clip-path="url(#clip090)" d="M1842.56 249.739 Q1845.62 249.762 1847.44 251.498 Q1849.39 253.327 1849.39 256.104 Q1849.39 258.766 1847.68 260.618 Q1845.82 262.632 1842.05 262.632 Q1842.05 260.896 1842.05 259.137 Q1843.65 259.252 1844.62 258.234 Q1845.36 257.424 1845.36 256.567 Q1845.36 255.34 1844.62 254.322 Q1843.9 253.35 1842.56 253.35 Q1828.14 253.35 1828.14 243.234 Q1828.14 236.29 1835.85 234.253 Q1829.37 233.419 1829.37 227.401 Q1829.37 222.841 1834.46 220.942 L1829.64 220.942 L1829.64 216.66 L1847.91 216.66 L1847.91 220.942 Q1833.35 220.942 1833.35 227.678 Q1833.35 232.1 1845.57 232.308 L1845.57 236.243 Q1832.37 235.734 1832.42 243.234 Q1832.44 249.507 1842.56 249.739 Z" fill="#000000" fill-rule="nonzero" fill-opacity="1" /><path clip-path="url(#clip090)" d="M1857.12 231.151 L1886.8 231.151 L1886.8 235.04 L1857.12 235.04 L1857.12 231.151 M1857.12 240.595 L1886.8 240.595 L1886.8 244.53 L1857.12 244.53 L1857.12 240.595 Z" fill="#000000" fill-rule="nonzero" fill-opacity="1" /><path clip-path="url(#clip090)" d="M1906.89 221.197 Q1903.28 221.197 1901.45 224.762 Q1899.64 228.303 1899.64 235.433 Q1899.64 242.54 1901.45 246.104 Q1903.28 249.646 1906.89 249.646 Q1910.52 249.646 1912.33 246.104 Q1914.16 242.54 1914.16 235.433 Q1914.16 228.303 1912.33 224.762 Q1910.52 221.197 1906.89 221.197 M1906.89 217.493 Q1912.7 217.493 1915.75 222.1 Q1918.83 226.683 1918.83 235.433 Q1918.83 244.16 1915.75 248.766 Q1912.7 253.35 1906.89 253.35 Q1901.08 253.35 1898 248.766 Q1894.94 244.16 1894.94 235.433 Q1894.94 226.683 1898 222.1 Q1901.08 217.493 1906.89 217.493 Z" fill="#000000" fill-rule="nonzero" fill-opacity="1" /><path clip-path="url(#clip090)" d="M1927.05 246.799 L1931.93 246.799 L1931.93 252.678 L1927.05 252.678 L1927.05 246.799 Z" fill="#000000" fill-rule="nonzero" fill-opacity="1" /><path clip-path="url(#clip090)" d="M1954.97 222.192 L1943.16 240.641 L1954.97 240.641 L1954.97 222.192 M1953.74 218.118 L1959.62 218.118 L1959.62 240.641 L1964.55 240.641 L1964.55 244.53 L1959.62 244.53 L1959.62 252.678 L1954.97 252.678 L1954.97 244.53 L1939.37 244.53 L1939.37 240.016 L1953.74 218.118 Z" fill="#000000" fill-rule="nonzero" fill-opacity="1" /><path clip-path="url(#clip090)" d="M1971.01 216.706 L1974.71 216.706 Q1978.18 222.169 1979.9 227.401 Q1981.63 232.632 1981.63 237.794 Q1981.63 242.979 1979.9 248.234 Q1978.18 253.489 1974.71 258.928 L1971.01 258.928 Q1974.09 253.627 1975.59 248.396 Q1977.12 243.141 1977.12 237.794 Q1977.12 232.447 1975.59 227.239 Q1974.09 222.03 1971.01 216.706 Z" fill="#000000" fill-rule="nonzero" fill-opacity="1" /></svg>
