<?xml version="1.0" encoding="utf-8"?>
<svg xmlns="http://www.w3.org/2000/svg" xmlns:xlink="http://www.w3.org/1999/xlink" width="672" height="480" viewBox="0 0 2688 1920">
<defs>
  <clipPath id="clip470">
    <rect x="0" y="0" width="2688" height="1920"/>
  </clipPath>
</defs>
<path clip-path="url(#clip470)" d="M0 1920 L2688 1920 L2688 0 L0 0  Z" fill="#ffffff" fill-rule="evenodd" fill-opacity="1"/>
<defs>
  <clipPath id="clip471">
    <rect x="537" y="0" width="1883" height="1883"/>
  </clipPath>
</defs>
<path clip-path="url(#clip470)" d="M189.64 1800.78 L2640.76 1800.78 L2640.76 127.792 L189.64 127.792  Z" fill="#ffffff" fill-rule="evenodd" fill-opacity="1"/>
<defs>
  <clipPath id="clip472">
    <rect x="189" y="127" width="2452" height="1674"/>
  </clipPath>
</defs>
<polyline clip-path="url(#clip472)" style="stroke:#000000; stroke-linecap:round; stroke-linejoin:round; stroke-width:2; stroke-opacity:0.1; fill:none" points="704.639,1800.78 704.639,127.792 "/>
<polyline clip-path="url(#clip472)" style="stroke:#000000; stroke-linecap:round; stroke-linejoin:round; stroke-width:2; stroke-opacity:0.1; fill:none" points="1318.4,1800.78 1318.4,127.792 "/>
<polyline clip-path="url(#clip472)" style="stroke:#000000; stroke-linecap:round; stroke-linejoin:round; stroke-width:2; stroke-opacity:0.1; fill:none" points="1932.16,1800.78 1932.16,127.792 "/>
<polyline clip-path="url(#clip472)" style="stroke:#000000; stroke-linecap:round; stroke-linejoin:round; stroke-width:2; stroke-opacity:0.1; fill:none" points="2545.92,1800.78 2545.92,127.792 "/>
<polyline clip-path="url(#clip470)" style="stroke:#000000; stroke-linecap:round; stroke-linejoin:round; stroke-width:4; stroke-opacity:1; fill:none" points="189.64,1800.78 2640.76,1800.78 "/>
<polyline clip-path="url(#clip470)" style="stroke:#000000; stroke-linecap:round; stroke-linejoin:round; stroke-width:4; stroke-opacity:1; fill:none" points="704.639,1800.78 704.639,1781.88 "/>
<polyline clip-path="url(#clip470)" style="stroke:#000000; stroke-linecap:round; stroke-linejoin:round; stroke-width:4; stroke-opacity:1; fill:none" points="1318.4,1800.78 1318.4,1781.88 "/>
<polyline clip-path="url(#clip470)" style="stroke:#000000; stroke-linecap:round; stroke-linejoin:round; stroke-width:4; stroke-opacity:1; fill:none" points="1932.16,1800.78 1932.16,1781.88 "/>
<polyline clip-path="url(#clip470)" style="stroke:#000000; stroke-linecap:round; stroke-linejoin:round; stroke-width:4; stroke-opacity:1; fill:none" points="2545.92,1800.78 2545.92,1781.88 "/>
<path clip-path="url(#clip470)" d="M658.702 1848.65 L688.377 1848.65 L688.377 1852.59 L658.702 1852.59 L658.702 1848.65 Z" fill="#000000" fill-rule="nonzero" fill-opacity="1" /><path clip-path="url(#clip470)" d="M699.28 1861.55 L706.919 1861.55 L706.919 1835.18 L698.609 1836.85 L698.609 1832.59 L706.873 1830.92 L711.549 1830.92 L711.549 1861.55 L719.187 1861.55 L719.187 1865.48 L699.28 1865.48 L699.28 1861.55 Z" fill="#000000" fill-rule="nonzero" fill-opacity="1" /><path clip-path="url(#clip470)" d="M738.632 1834 Q735.021 1834 733.192 1837.57 Q731.386 1841.11 731.386 1848.24 Q731.386 1855.34 733.192 1858.91 Q735.021 1862.45 738.632 1862.45 Q742.266 1862.45 744.072 1858.91 Q745.9 1855.34 745.9 1848.24 Q745.9 1841.11 744.072 1837.57 Q742.266 1834 738.632 1834 M738.632 1830.3 Q744.442 1830.3 747.498 1834.9 Q750.576 1839.49 750.576 1848.24 Q750.576 1856.96 747.498 1861.57 Q744.442 1866.15 738.632 1866.15 Q732.822 1866.15 729.743 1861.57 Q726.687 1856.96 726.687 1848.24 Q726.687 1839.49 729.743 1834.9 Q732.822 1830.3 738.632 1830.3 Z" fill="#000000" fill-rule="nonzero" fill-opacity="1" /><path clip-path="url(#clip470)" d="M1318.4 1834 Q1314.79 1834 1312.96 1837.57 Q1311.15 1841.11 1311.15 1848.24 Q1311.15 1855.34 1312.96 1858.91 Q1314.79 1862.45 1318.4 1862.45 Q1322.03 1862.45 1323.84 1858.91 Q1325.67 1855.34 1325.67 1848.24 Q1325.67 1841.11 1323.84 1837.57 Q1322.03 1834 1318.4 1834 M1318.4 1830.3 Q1324.21 1830.3 1327.26 1834.9 Q1330.34 1839.49 1330.34 1848.24 Q1330.34 1856.96 1327.26 1861.57 Q1324.21 1866.15 1318.4 1866.15 Q1312.59 1866.15 1309.51 1861.57 Q1306.45 1856.96 1306.45 1848.24 Q1306.45 1839.49 1309.51 1834.9 Q1312.59 1830.3 1318.4 1830.3 Z" fill="#000000" fill-rule="nonzero" fill-opacity="1" /><path clip-path="url(#clip470)" d="M1906.84 1861.55 L1914.48 1861.55 L1914.48 1835.18 L1906.17 1836.85 L1906.17 1832.59 L1914.44 1830.92 L1919.11 1830.92 L1919.11 1861.55 L1926.75 1861.55 L1926.75 1865.48 L1906.84 1865.48 L1906.84 1861.55 Z" fill="#000000" fill-rule="nonzero" fill-opacity="1" /><path clip-path="url(#clip470)" d="M1946.2 1834 Q1942.58 1834 1940.76 1837.57 Q1938.95 1841.11 1938.95 1848.24 Q1938.95 1855.34 1940.76 1858.91 Q1942.58 1862.45 1946.2 1862.45 Q1949.83 1862.45 1951.64 1858.91 Q1953.46 1855.34 1953.46 1848.24 Q1953.46 1841.11 1951.64 1837.57 Q1949.83 1834 1946.2 1834 M1946.2 1830.3 Q1952.01 1830.3 1955.06 1834.9 Q1958.14 1839.49 1958.14 1848.24 Q1958.14 1856.96 1955.06 1861.57 Q1952.01 1866.15 1946.2 1866.15 Q1940.39 1866.15 1937.31 1861.57 Q1934.25 1856.96 1934.25 1848.24 Q1934.25 1839.49 1937.31 1834.9 Q1940.39 1830.3 1946.2 1830.3 Z" fill="#000000" fill-rule="nonzero" fill-opacity="1" /><path clip-path="url(#clip470)" d="M2524.69 1861.55 L2541.01 1861.55 L2541.01 1865.48 L2519.06 1865.48 L2519.06 1861.55 Q2521.73 1858.79 2526.31 1854.16 Q2530.92 1849.51 2532.1 1848.17 Q2534.34 1845.65 2535.22 1843.91 Q2536.12 1842.15 2536.12 1840.46 Q2536.12 1837.71 2534.18 1835.97 Q2532.26 1834.23 2529.16 1834.23 Q2526.96 1834.23 2524.5 1835 Q2522.07 1835.76 2519.3 1837.31 L2519.3 1832.59 Q2522.12 1831.46 2524.57 1830.88 Q2527.03 1830.3 2529.06 1830.3 Q2534.43 1830.3 2537.63 1832.98 Q2540.82 1835.67 2540.82 1840.16 Q2540.82 1842.29 2540.01 1844.21 Q2539.23 1846.11 2537.12 1848.7 Q2536.54 1849.37 2533.44 1852.59 Q2530.34 1855.78 2524.69 1861.55 Z" fill="#000000" fill-rule="nonzero" fill-opacity="1" /><path clip-path="url(#clip470)" d="M2560.82 1834 Q2557.21 1834 2555.38 1837.57 Q2553.58 1841.11 2553.58 1848.24 Q2553.58 1855.34 2555.38 1858.91 Q2557.21 1862.45 2560.82 1862.45 Q2564.46 1862.45 2566.26 1858.91 Q2568.09 1855.34 2568.09 1848.24 Q2568.09 1841.11 2566.26 1837.57 Q2564.46 1834 2560.82 1834 M2560.82 1830.3 Q2566.63 1830.3 2569.69 1834.9 Q2572.77 1839.49 2572.77 1848.24 Q2572.77 1856.96 2569.69 1861.57 Q2566.63 1866.15 2560.82 1866.15 Q2555.01 1866.15 2551.93 1861.57 Q2548.88 1856.96 2548.88 1848.24 Q2548.88 1839.49 2551.93 1834.9 Q2555.01 1830.3 2560.82 1830.3 Z" fill="#000000" fill-rule="nonzero" fill-opacity="1" /><polyline clip-path="url(#clip472)" style="stroke:#000000; stroke-linecap:round; stroke-linejoin:round; stroke-width:2; stroke-opacity:0.1; fill:none" points="189.64,1753.43 2640.76,1753.43 "/>
<polyline clip-path="url(#clip472)" style="stroke:#000000; stroke-linecap:round; stroke-linejoin:round; stroke-width:2; stroke-opacity:0.1; fill:none" points="189.64,1374.63 2640.76,1374.63 "/>
<polyline clip-path="url(#clip472)" style="stroke:#000000; stroke-linecap:round; stroke-linejoin:round; stroke-width:2; stroke-opacity:0.1; fill:none" points="189.64,995.837 2640.76,995.837 "/>
<polyline clip-path="url(#clip472)" style="stroke:#000000; stroke-linecap:round; stroke-linejoin:round; stroke-width:2; stroke-opacity:0.1; fill:none" points="189.64,617.041 2640.76,617.041 "/>
<polyline clip-path="url(#clip472)" style="stroke:#000000; stroke-linecap:round; stroke-linejoin:round; stroke-width:2; stroke-opacity:0.1; fill:none" points="189.64,238.244 2640.76,238.244 "/>
<polyline clip-path="url(#clip470)" style="stroke:#000000; stroke-linecap:round; stroke-linejoin:round; stroke-width:4; stroke-opacity:1; fill:none" points="189.64,1800.78 189.64,127.792 "/>
<polyline clip-path="url(#clip470)" style="stroke:#000000; stroke-linecap:round; stroke-linejoin:round; stroke-width:4; stroke-opacity:1; fill:none" points="189.64,1753.43 208.538,1753.43 "/>
<polyline clip-path="url(#clip470)" style="stroke:#000000; stroke-linecap:round; stroke-linejoin:round; stroke-width:4; stroke-opacity:1; fill:none" points="189.64,1374.63 208.538,1374.63 "/>
<polyline clip-path="url(#clip470)" style="stroke:#000000; stroke-linecap:round; stroke-linejoin:round; stroke-width:4; stroke-opacity:1; fill:none" points="189.64,995.837 208.538,995.837 "/>
<polyline clip-path="url(#clip470)" style="stroke:#000000; stroke-linecap:round; stroke-linejoin:round; stroke-width:4; stroke-opacity:1; fill:none" points="189.64,617.041 208.538,617.041 "/>
<polyline clip-path="url(#clip470)" style="stroke:#000000; stroke-linecap:round; stroke-linejoin:round; stroke-width:4; stroke-opacity:1; fill:none" points="189.64,238.244 208.538,238.244 "/>
<path clip-path="url(#clip470)" d="M61.9826 1739.23 Q58.3715 1739.23 56.5428 1742.79 Q54.7373 1746.34 54.7373 1753.47 Q54.7373 1760.57 56.5428 1764.14 Q58.3715 1767.68 61.9826 1767.68 Q65.6169 1767.68 67.4224 1764.14 Q69.2511 1760.57 69.2511 1753.47 Q69.2511 1746.34 67.4224 1742.79 Q65.6169 1739.23 61.9826 1739.23 M61.9826 1735.53 Q67.7928 1735.53 70.8483 1740.13 Q73.927 1744.72 73.927 1753.47 Q73.927 1762.19 70.8483 1766.8 Q67.7928 1771.38 61.9826 1771.38 Q56.1725 1771.38 53.0938 1766.8 Q50.0382 1762.19 50.0382 1753.47 Q50.0382 1744.72 53.0938 1740.13 Q56.1725 1735.53 61.9826 1735.53 Z" fill="#000000" fill-rule="nonzero" fill-opacity="1" /><path clip-path="url(#clip470)" d="M82.1445 1764.83 L87.0288 1764.83 L87.0288 1770.71 L82.1445 1770.71 L82.1445 1764.83 Z" fill="#000000" fill-rule="nonzero" fill-opacity="1" /><path clip-path="url(#clip470)" d="M107.214 1739.23 Q103.603 1739.23 101.774 1742.79 Q99.9685 1746.34 99.9685 1753.47 Q99.9685 1760.57 101.774 1764.14 Q103.603 1767.68 107.214 1767.68 Q110.848 1767.68 112.654 1764.14 Q114.482 1760.57 114.482 1753.47 Q114.482 1746.34 112.654 1742.79 Q110.848 1739.23 107.214 1739.23 M107.214 1735.53 Q113.024 1735.53 116.08 1740.13 Q119.158 1744.72 119.158 1753.47 Q119.158 1762.19 116.08 1766.8 Q113.024 1771.38 107.214 1771.38 Q101.404 1771.38 98.325 1766.8 Q95.2695 1762.19 95.2695 1753.47 Q95.2695 1744.72 98.325 1740.13 Q101.404 1735.53 107.214 1735.53 Z" fill="#000000" fill-rule="nonzero" fill-opacity="1" /><path clip-path="url(#clip470)" d="M137.376 1739.23 Q133.765 1739.23 131.936 1742.79 Q130.13 1746.34 130.13 1753.47 Q130.13 1760.57 131.936 1764.14 Q133.765 1767.68 137.376 1767.68 Q141.01 1767.68 142.816 1764.14 Q144.644 1760.57 144.644 1753.47 Q144.644 1746.34 142.816 1742.79 Q141.01 1739.23 137.376 1739.23 M137.376 1735.53 Q143.186 1735.53 146.241 1740.13 Q149.32 1744.72 149.32 1753.47 Q149.32 1762.19 146.241 1766.8 Q143.186 1771.38 137.376 1771.38 Q131.566 1771.38 128.487 1766.8 Q125.431 1762.19 125.431 1753.47 Q125.431 1744.72 128.487 1740.13 Q131.566 1735.53 137.376 1735.53 Z" fill="#000000" fill-rule="nonzero" fill-opacity="1" /><path clip-path="url(#clip470)" d="M63.2095 1360.43 Q59.5984 1360.43 57.7697 1364 Q55.9641 1367.54 55.9641 1374.67 Q55.9641 1381.78 57.7697 1385.34 Q59.5984 1388.88 63.2095 1388.88 Q66.8437 1388.88 68.6492 1385.34 Q70.4779 1381.78 70.4779 1374.67 Q70.4779 1367.54 68.6492 1364 Q66.8437 1360.43 63.2095 1360.43 M63.2095 1356.73 Q69.0196 1356.73 72.0752 1361.34 Q75.1538 1365.92 75.1538 1374.67 Q75.1538 1383.4 72.0752 1388 Q69.0196 1392.59 63.2095 1392.59 Q57.3993 1392.59 54.3206 1388 Q51.2651 1383.4 51.2651 1374.67 Q51.2651 1365.92 54.3206 1361.34 Q57.3993 1356.73 63.2095 1356.73 Z" fill="#000000" fill-rule="nonzero" fill-opacity="1" /><path clip-path="url(#clip470)" d="M83.3714 1386.03 L88.2556 1386.03 L88.2556 1391.91 L83.3714 1391.91 L83.3714 1386.03 Z" fill="#000000" fill-rule="nonzero" fill-opacity="1" /><path clip-path="url(#clip470)" d="M108.441 1360.43 Q104.83 1360.43 103.001 1364 Q101.195 1367.54 101.195 1374.67 Q101.195 1381.78 103.001 1385.34 Q104.83 1388.88 108.441 1388.88 Q112.075 1388.88 113.88 1385.34 Q115.709 1381.78 115.709 1374.67 Q115.709 1367.54 113.88 1364 Q112.075 1360.43 108.441 1360.43 M108.441 1356.73 Q114.251 1356.73 117.306 1361.34 Q120.385 1365.92 120.385 1374.67 Q120.385 1383.4 117.306 1388 Q114.251 1392.59 108.441 1392.59 Q102.631 1392.59 99.5519 1388 Q96.4963 1383.4 96.4963 1374.67 Q96.4963 1365.92 99.5519 1361.34 Q102.631 1356.73 108.441 1356.73 Z" fill="#000000" fill-rule="nonzero" fill-opacity="1" /><path clip-path="url(#clip470)" d="M129.413 1387.98 L137.052 1387.98 L137.052 1361.61 L128.742 1363.28 L128.742 1359.02 L137.005 1357.35 L141.681 1357.35 L141.681 1387.98 L149.32 1387.98 L149.32 1391.91 L129.413 1391.91 L129.413 1387.98 Z" fill="#000000" fill-rule="nonzero" fill-opacity="1" /><path clip-path="url(#clip470)" d="M63.5798 981.636 Q59.9687 981.636 58.14 985.201 Q56.3345 988.742 56.3345 995.872 Q56.3345 1002.98 58.14 1006.54 Q59.9687 1010.08 63.5798 1010.08 Q67.2141 1010.08 69.0196 1006.54 Q70.8483 1002.98 70.8483 995.872 Q70.8483 988.742 69.0196 985.201 Q67.2141 981.636 63.5798 981.636 M63.5798 977.932 Q69.39 977.932 72.4455 982.539 Q75.5242 987.122 75.5242 995.872 Q75.5242 1004.6 72.4455 1009.21 Q69.39 1013.79 63.5798 1013.79 Q57.7697 1013.79 54.691 1009.21 Q51.6354 1004.6 51.6354 995.872 Q51.6354 987.122 54.691 982.539 Q57.7697 977.932 63.5798 977.932 Z" fill="#000000" fill-rule="nonzero" fill-opacity="1" /><path clip-path="url(#clip470)" d="M83.7418 1007.24 L88.626 1007.24 L88.626 1013.12 L83.7418 1013.12 L83.7418 1007.24 Z" fill="#000000" fill-rule="nonzero" fill-opacity="1" /><path clip-path="url(#clip470)" d="M108.811 981.636 Q105.2 981.636 103.371 985.201 Q101.566 988.742 101.566 995.872 Q101.566 1002.98 103.371 1006.54 Q105.2 1010.08 108.811 1010.08 Q112.445 1010.08 114.251 1006.54 Q116.08 1002.98 116.08 995.872 Q116.08 988.742 114.251 985.201 Q112.445 981.636 108.811 981.636 M108.811 977.932 Q114.621 977.932 117.677 982.539 Q120.755 987.122 120.755 995.872 Q120.755 1004.6 117.677 1009.21 Q114.621 1013.79 108.811 1013.79 Q103.001 1013.79 99.9222 1009.21 Q96.8667 1004.6 96.8667 995.872 Q96.8667 987.122 99.9222 982.539 Q103.001 977.932 108.811 977.932 Z" fill="#000000" fill-rule="nonzero" fill-opacity="1" /><path clip-path="url(#clip470)" d="M133.001 1009.18 L149.32 1009.18 L149.32 1013.12 L127.376 1013.12 L127.376 1009.18 Q130.038 1006.43 134.621 1001.8 Q139.228 997.145 140.408 995.803 Q142.653 993.279 143.533 991.543 Q144.436 989.784 144.436 988.094 Q144.436 985.34 142.491 983.604 Q140.57 981.867 137.468 981.867 Q135.269 981.867 132.816 982.631 Q130.385 983.395 127.607 984.946 L127.607 980.224 Q130.431 979.09 132.885 978.511 Q135.339 977.932 137.376 977.932 Q142.746 977.932 145.94 980.617 Q149.135 983.303 149.135 987.793 Q149.135 989.923 148.325 991.844 Q147.538 993.742 145.431 996.335 Q144.853 997.006 141.751 1000.22 Q138.649 1003.42 133.001 1009.18 Z" fill="#000000" fill-rule="nonzero" fill-opacity="1" /><path clip-path="url(#clip470)" d="M62.6308 602.839 Q59.0197 602.839 57.191 606.404 Q55.3854 609.946 55.3854 617.075 Q55.3854 624.182 57.191 627.747 Q59.0197 631.288 62.6308 631.288 Q66.265 631.288 68.0705 627.747 Q69.8992 624.182 69.8992 617.075 Q69.8992 609.946 68.0705 606.404 Q66.265 602.839 62.6308 602.839 M62.6308 599.136 Q68.4409 599.136 71.4965 603.742 Q74.5751 608.325 74.5751 617.075 Q74.5751 625.802 71.4965 630.409 Q68.4409 634.992 62.6308 634.992 Q56.8206 634.992 53.7419 630.409 Q50.6864 625.802 50.6864 617.075 Q50.6864 608.325 53.7419 603.742 Q56.8206 599.136 62.6308 599.136 Z" fill="#000000" fill-rule="nonzero" fill-opacity="1" /><path clip-path="url(#clip470)" d="M82.7927 628.441 L87.6769 628.441 L87.6769 634.321 L82.7927 634.321 L82.7927 628.441 Z" fill="#000000" fill-rule="nonzero" fill-opacity="1" /><path clip-path="url(#clip470)" d="M107.862 602.839 Q104.251 602.839 102.422 606.404 Q100.617 609.946 100.617 617.075 Q100.617 624.182 102.422 627.747 Q104.251 631.288 107.862 631.288 Q111.496 631.288 113.302 627.747 Q115.13 624.182 115.13 617.075 Q115.13 609.946 113.302 606.404 Q111.496 602.839 107.862 602.839 M107.862 599.136 Q113.672 599.136 116.728 603.742 Q119.806 608.325 119.806 617.075 Q119.806 625.802 116.728 630.409 Q113.672 634.992 107.862 634.992 Q102.052 634.992 98.9732 630.409 Q95.9176 625.802 95.9176 617.075 Q95.9176 608.325 98.9732 603.742 Q102.052 599.136 107.862 599.136 Z" fill="#000000" fill-rule="nonzero" fill-opacity="1" /><path clip-path="url(#clip470)" d="M142.191 615.686 Q145.547 616.404 147.422 618.672 Q149.32 620.941 149.32 624.274 Q149.32 629.39 145.802 632.191 Q142.283 634.992 135.802 634.992 Q133.626 634.992 131.311 634.552 Q129.019 634.135 126.566 633.279 L126.566 628.765 Q128.51 629.899 130.825 630.478 Q133.14 631.057 135.663 631.057 Q140.061 631.057 142.353 629.321 Q144.667 627.584 144.667 624.274 Q144.667 621.219 142.515 619.506 Q140.385 617.77 136.566 617.77 L132.538 617.77 L132.538 613.927 L136.751 613.927 Q140.2 613.927 142.028 612.561 Q143.857 611.173 143.857 608.58 Q143.857 605.918 141.959 604.506 Q140.084 603.071 136.566 603.071 Q134.644 603.071 132.445 603.487 Q130.246 603.904 127.607 604.784 L127.607 600.617 Q130.269 599.876 132.584 599.506 Q134.922 599.136 136.982 599.136 Q142.306 599.136 145.408 601.566 Q148.51 603.973 148.51 608.094 Q148.51 610.964 146.866 612.955 Q145.223 614.923 142.191 615.686 Z" fill="#000000" fill-rule="nonzero" fill-opacity="1" /><path clip-path="url(#clip470)" d="M61.4965 224.043 Q57.8854 224.043 56.0567 227.607 Q54.2512 231.149 54.2512 238.279 Q54.2512 245.385 56.0567 248.95 Q57.8854 252.491 61.4965 252.491 Q65.1307 252.491 66.9363 248.95 Q68.765 245.385 68.765 238.279 Q68.765 231.149 66.9363 227.607 Q65.1307 224.043 61.4965 224.043 M61.4965 220.339 Q67.3067 220.339 70.3622 224.945 Q73.4409 229.529 73.4409 238.279 Q73.4409 247.005 70.3622 251.612 Q67.3067 256.195 61.4965 256.195 Q55.6864 256.195 52.6077 251.612 Q49.5521 247.005 49.5521 238.279 Q49.5521 229.529 52.6077 224.945 Q55.6864 220.339 61.4965 220.339 Z" fill="#000000" fill-rule="nonzero" fill-opacity="1" /><path clip-path="url(#clip470)" d="M81.6584 249.644 L86.5427 249.644 L86.5427 255.524 L81.6584 255.524 L81.6584 249.644 Z" fill="#000000" fill-rule="nonzero" fill-opacity="1" /><path clip-path="url(#clip470)" d="M106.728 224.043 Q103.117 224.043 101.288 227.607 Q99.4824 231.149 99.4824 238.279 Q99.4824 245.385 101.288 248.95 Q103.117 252.491 106.728 252.491 Q110.362 252.491 112.168 248.95 Q113.996 245.385 113.996 238.279 Q113.996 231.149 112.168 227.607 Q110.362 224.043 106.728 224.043 M106.728 220.339 Q112.538 220.339 115.593 224.945 Q118.672 229.529 118.672 238.279 Q118.672 247.005 115.593 251.612 Q112.538 256.195 106.728 256.195 Q100.918 256.195 97.8389 251.612 Q94.7834 247.005 94.7834 238.279 Q94.7834 229.529 97.8389 224.945 Q100.918 220.339 106.728 220.339 Z" fill="#000000" fill-rule="nonzero" fill-opacity="1" /><path clip-path="url(#clip470)" d="M139.737 225.038 L127.931 243.487 L139.737 243.487 L139.737 225.038 M138.51 220.964 L144.39 220.964 L144.39 243.487 L149.32 243.487 L149.32 247.376 L144.39 247.376 L144.39 255.524 L139.737 255.524 L139.737 247.376 L124.135 247.376 L124.135 242.862 L138.51 220.964 Z" fill="#000000" fill-rule="nonzero" fill-opacity="1" /><path clip-path="url(#clip470)" d="M894.981 18.8205 L894.981 65.8515 L904.865 65.8515 Q917.382 65.8515 923.175 60.1802 Q929.008 54.509 929.008 42.2752 Q929.008 30.1225 923.175 24.4918 Q917.382 18.8205 904.865 18.8205 L894.981 18.8205 M886.798 12.096 L903.609 12.096 Q921.19 12.096 929.414 19.4281 Q937.637 26.7198 937.637 42.2752 Q937.637 57.9117 929.373 65.2439 Q921.109 72.576 903.609 72.576 L886.798 72.576 L886.798 12.096 Z" fill="#000000" fill-rule="nonzero" fill-opacity="1" /><path clip-path="url(#clip470)" d="M989.164 48.0275 L989.164 51.6733 L954.894 51.6733 Q955.38 59.3701 959.512 63.421 Q963.684 67.4314 971.097 67.4314 Q975.391 67.4314 979.402 66.3781 Q983.453 65.3249 987.423 63.2184 L987.423 70.267 Q983.412 71.9684 979.199 72.8596 Q974.986 73.7508 970.652 73.7508 Q959.795 73.7508 953.435 67.4314 Q947.116 61.1119 947.116 50.3365 Q947.116 39.1965 953.111 32.6746 Q959.147 26.1121 969.355 26.1121 Q978.511 26.1121 983.817 32.0264 Q989.164 37.9003 989.164 48.0275 M981.711 45.84 Q981.63 39.7232 978.267 36.0774 Q974.946 32.4315 969.437 32.4315 Q963.198 32.4315 959.431 35.9558 Q955.704 39.4801 955.137 45.8805 L981.711 45.84 Z" fill="#000000" fill-rule="nonzero" fill-opacity="1" /><path clip-path="url(#clip470)" d="M1039.11 45.1919 L1039.11 72.576 L1031.66 72.576 L1031.66 45.4349 Q1031.66 38.994 1029.15 35.7938 Q1026.64 32.5936 1021.61 32.5936 Q1015.58 32.5936 1012.09 36.4419 Q1008.61 40.2903 1008.61 46.9338 L1008.61 72.576 L1001.11 72.576 L1001.11 27.2059 L1008.61 27.2059 L1008.61 34.2544 Q1011.28 30.163 1014.89 28.1376 Q1018.53 26.1121 1023.27 26.1121 Q1031.09 26.1121 1035.1 30.9732 Q1039.11 35.7938 1039.11 45.1919 Z" fill="#000000" fill-rule="nonzero" fill-opacity="1" /><path clip-path="url(#clip470)" d="M1082.9 28.5427 L1082.9 35.5912 Q1079.74 33.9709 1076.34 33.1607 Q1072.94 32.3505 1069.29 32.3505 Q1063.74 32.3505 1060.95 34.0519 Q1058.19 35.7533 1058.19 39.156 Q1058.19 41.7486 1060.18 43.2475 Q1062.16 44.7058 1068.16 46.0426 L1070.71 46.6097 Q1078.65 48.3111 1081.97 51.4303 Q1085.33 54.509 1085.33 60.0587 Q1085.33 66.3781 1080.31 70.0644 Q1075.33 73.7508 1066.58 73.7508 Q1062.93 73.7508 1058.96 73.0216 Q1055.03 72.3329 1050.66 70.9151 L1050.66 63.2184 Q1054.79 65.3654 1058.8 66.4591 Q1062.81 67.5124 1066.74 67.5124 Q1072.01 67.5124 1074.84 65.73 Q1077.68 63.9071 1077.68 60.6258 Q1077.68 57.5877 1075.61 55.9673 Q1073.59 54.3469 1066.66 52.8481 L1064.07 52.2405 Q1057.14 50.7821 1054.06 47.7845 Q1050.98 44.7463 1050.98 39.4801 Q1050.98 33.0797 1055.52 29.5959 Q1060.06 26.1121 1068.4 26.1121 Q1072.53 26.1121 1076.18 26.7198 Q1079.82 27.3274 1082.9 28.5427 Z" fill="#000000" fill-rule="nonzero" fill-opacity="1" /><path clip-path="url(#clip470)" d="M1097.2 27.2059 L1104.66 27.2059 L1104.66 72.576 L1097.2 72.576 L1097.2 27.2059 M1097.2 9.54393 L1104.66 9.54393 L1104.66 18.9825 L1097.2 18.9825 L1097.2 9.54393 Z" fill="#000000" fill-rule="nonzero" fill-opacity="1" /><path clip-path="url(#clip470)" d="M1127.62 14.324 L1127.62 27.2059 L1142.98 27.2059 L1142.98 32.9987 L1127.62 32.9987 L1127.62 57.6282 Q1127.62 63.1779 1129.12 64.7578 Q1130.66 66.3376 1135.32 66.3376 L1142.98 66.3376 L1142.98 72.576 L1135.32 72.576 Q1126.69 72.576 1123.41 69.3758 Q1120.13 66.1351 1120.13 57.6282 L1120.13 32.9987 L1114.66 32.9987 L1114.66 27.2059 L1120.13 27.2059 L1120.13 14.324 L1127.62 14.324 Z" fill="#000000" fill-rule="nonzero" fill-opacity="1" /><path clip-path="url(#clip470)" d="M1171.66 76.7889 Q1168.5 84.8907 1165.5 87.3618 Q1162.5 89.8329 1157.48 89.8329 L1151.52 89.8329 L1151.52 83.5945 L1155.9 83.5945 Q1158.98 83.5945 1160.68 82.1361 Q1162.38 80.6778 1164.45 75.2496 L1165.78 71.8468 L1147.43 27.2059 L1155.33 27.2059 L1169.51 62.6918 L1183.69 27.2059 L1191.59 27.2059 L1171.66 76.7889 Z" fill="#000000" fill-rule="nonzero" fill-opacity="1" /><path clip-path="url(#clip470)" d="M1253.12 17.6457 Q1244.21 17.6457 1238.94 24.2892 Q1233.72 30.9327 1233.72 42.3968 Q1233.72 53.8203 1238.94 60.4638 Q1244.21 67.1073 1253.12 67.1073 Q1262.03 67.1073 1267.22 60.4638 Q1272.44 53.8203 1272.44 42.3968 Q1272.44 30.9327 1267.22 24.2892 Q1262.03 17.6457 1253.12 17.6457 M1264.59 71.4823 L1275.36 83.2704 L1265.48 83.2704 L1256.52 73.5887 Q1255.19 73.6697 1254.46 73.7103 Q1253.77 73.7508 1253.12 73.7508 Q1240.36 73.7508 1232.7 65.2439 Q1225.09 56.6965 1225.09 42.3968 Q1225.09 28.0566 1232.7 19.5497 Q1240.36 11.0023 1253.12 11.0023 Q1265.84 11.0023 1273.46 19.5497 Q1281.07 28.0566 1281.07 42.3968 Q1281.07 52.9291 1276.82 60.4233 Q1272.61 67.9175 1264.59 71.4823 Z" fill="#000000" fill-rule="nonzero" fill-opacity="1" /><path clip-path="url(#clip470)" d="M1292.78 54.671 L1292.78 27.2059 L1300.23 27.2059 L1300.23 54.3874 Q1300.23 60.8284 1302.74 64.0691 Q1305.26 67.2693 1310.28 67.2693 Q1316.32 67.2693 1319.8 63.421 Q1323.32 59.5726 1323.32 52.9291 L1323.32 27.2059 L1330.78 27.2059 L1330.78 72.576 L1323.32 72.576 L1323.32 65.6084 Q1320.61 69.7404 1317 71.7658 Q1313.44 73.7508 1308.7 73.7508 Q1300.88 73.7508 1296.83 68.8897 Q1292.78 64.0286 1292.78 54.671 M1311.54 26.1121 L1311.54 26.1121 Z" fill="#000000" fill-rule="nonzero" fill-opacity="1" /><path clip-path="url(#clip470)" d="M1366.75 49.7694 Q1357.72 49.7694 1354.23 51.8354 Q1350.75 53.9013 1350.75 58.8839 Q1350.75 62.8538 1353.34 65.2034 Q1355.97 67.5124 1360.47 67.5124 Q1366.67 67.5124 1370.4 63.1374 Q1374.16 58.7219 1374.16 51.4303 L1374.16 49.7694 L1366.75 49.7694 M1381.62 46.6907 L1381.62 72.576 L1374.16 72.576 L1374.16 65.6895 Q1371.61 69.8214 1367.8 71.8063 Q1363.99 73.7508 1358.49 73.7508 Q1351.52 73.7508 1347.39 69.8619 Q1343.29 65.9325 1343.29 59.3701 Q1343.29 51.7138 1348.4 47.825 Q1353.54 43.9361 1363.71 43.9361 L1374.16 43.9361 L1374.16 43.2069 Q1374.16 38.0623 1370.76 35.2672 Q1367.4 32.4315 1361.28 32.4315 Q1357.39 32.4315 1353.71 33.3632 Q1350.02 34.295 1346.62 36.1584 L1346.62 29.2718 Q1350.71 27.692 1354.56 26.9223 Q1358.4 26.1121 1362.05 26.1121 Q1371.89 26.1121 1376.75 31.2163 Q1381.62 36.3204 1381.62 46.6907 Z" fill="#000000" fill-rule="nonzero" fill-opacity="1" /><path clip-path="url(#clip470)" d="M1434.68 45.1919 L1434.68 72.576 L1427.23 72.576 L1427.23 45.4349 Q1427.23 38.994 1424.72 35.7938 Q1422.21 32.5936 1417.18 32.5936 Q1411.15 32.5936 1407.66 36.4419 Q1404.18 40.2903 1404.18 46.9338 L1404.18 72.576 L1396.69 72.576 L1396.69 27.2059 L1404.18 27.2059 L1404.18 34.2544 Q1406.85 30.163 1410.46 28.1376 Q1414.1 26.1121 1418.84 26.1121 Q1426.66 26.1121 1430.67 30.9732 Q1434.68 35.7938 1434.68 45.1919 Z" fill="#000000" fill-rule="nonzero" fill-opacity="1" /><path clip-path="url(#clip470)" d="M1456.92 14.324 L1456.92 27.2059 L1472.28 27.2059 L1472.28 32.9987 L1456.92 32.9987 L1456.92 57.6282 Q1456.92 63.1779 1458.42 64.7578 Q1459.96 66.3376 1464.62 66.3376 L1472.28 66.3376 L1472.28 72.576 L1464.62 72.576 Q1455.99 72.576 1452.71 69.3758 Q1449.43 66.1351 1449.43 57.6282 L1449.43 32.9987 L1443.96 32.9987 L1443.96 27.2059 L1449.43 27.2059 L1449.43 14.324 L1456.92 14.324 Z" fill="#000000" fill-rule="nonzero" fill-opacity="1" /><path clip-path="url(#clip470)" d="M1482.08 27.2059 L1489.53 27.2059 L1489.53 72.576 L1482.08 72.576 L1482.08 27.2059 M1482.08 9.54393 L1489.53 9.54393 L1489.53 18.9825 L1482.08 18.9825 L1482.08 9.54393 Z" fill="#000000" fill-rule="nonzero" fill-opacity="1" /><path clip-path="url(#clip470)" d="M1505.13 9.54393 L1512.58 9.54393 L1512.58 72.576 L1505.13 72.576 L1505.13 9.54393 Z" fill="#000000" fill-rule="nonzero" fill-opacity="1" /><path clip-path="url(#clip470)" d="M1566.99 48.0275 L1566.99 51.6733 L1532.71 51.6733 Q1533.2 59.3701 1537.33 63.421 Q1541.51 67.4314 1548.92 67.4314 Q1553.21 67.4314 1557.22 66.3781 Q1561.27 65.3249 1565.24 63.2184 L1565.24 70.267 Q1561.23 71.9684 1557.02 72.8596 Q1552.81 73.7508 1548.47 73.7508 Q1537.62 73.7508 1531.26 67.4314 Q1524.94 61.1119 1524.94 50.3365 Q1524.94 39.1965 1530.93 32.6746 Q1536.97 26.1121 1547.18 26.1121 Q1556.33 26.1121 1561.64 32.0264 Q1566.99 37.9003 1566.99 48.0275 M1559.53 45.84 Q1559.45 39.7232 1556.09 36.0774 Q1552.77 32.4315 1547.26 32.4315 Q1541.02 32.4315 1537.25 35.9558 Q1533.52 39.4801 1532.96 45.8805 L1559.53 45.84 Z" fill="#000000" fill-rule="nonzero" fill-opacity="1" /><path clip-path="url(#clip470)" d="M1605.91 12.096 L1640.67 12.096 L1640.67 18.9825 L1614.1 18.9825 L1614.1 36.8065 L1638.08 36.8065 L1638.08 43.6931 L1614.1 43.6931 L1614.1 72.576 L1605.91 72.576 L1605.91 12.096 Z" fill="#000000" fill-rule="nonzero" fill-opacity="1" /><path clip-path="url(#clip470)" d="M1648 54.671 L1648 27.2059 L1655.46 27.2059 L1655.46 54.3874 Q1655.46 60.8284 1657.97 64.0691 Q1660.48 67.2693 1665.5 67.2693 Q1671.54 67.2693 1675.02 63.421 Q1678.55 59.5726 1678.55 52.9291 L1678.55 27.2059 L1686 27.2059 L1686 72.576 L1678.55 72.576 L1678.55 65.6084 Q1675.83 69.7404 1672.23 71.7658 Q1668.66 73.7508 1663.92 73.7508 Q1656.11 73.7508 1652.05 68.8897 Q1648 64.0286 1648 54.671 M1666.76 26.1121 L1666.76 26.1121 Z" fill="#000000" fill-rule="nonzero" fill-opacity="1" /><path clip-path="url(#clip470)" d="M1739.07 45.1919 L1739.07 72.576 L1731.61 72.576 L1731.61 45.4349 Q1731.61 38.994 1729.1 35.7938 Q1726.59 32.5936 1721.57 32.5936 Q1715.53 32.5936 1712.05 36.4419 Q1708.56 40.2903 1708.56 46.9338 L1708.56 72.576 L1701.07 72.576 L1701.07 27.2059 L1708.56 27.2059 L1708.56 34.2544 Q1711.24 30.163 1714.84 28.1376 Q1718.49 26.1121 1723.23 26.1121 Q1731.05 26.1121 1735.06 30.9732 Q1739.07 35.7938 1739.07 45.1919 Z" fill="#000000" fill-rule="nonzero" fill-opacity="1" /><path clip-path="url(#clip470)" d="M1786.58 28.9478 L1786.58 35.9153 Q1783.43 34.1734 1780.22 33.3227 Q1777.07 32.4315 1773.82 32.4315 Q1766.57 32.4315 1762.56 37.0496 Q1758.55 41.6271 1758.55 49.9314 Q1758.55 58.2358 1762.56 62.8538 Q1766.57 67.4314 1773.82 67.4314 Q1777.07 67.4314 1780.22 66.5807 Q1783.43 65.6895 1786.58 63.9476 L1786.58 70.8341 Q1783.47 72.2924 1780.1 73.0216 Q1776.78 73.7508 1773.01 73.7508 Q1762.77 73.7508 1756.73 67.3098 Q1750.69 60.8689 1750.69 49.9314 Q1750.69 38.832 1756.77 32.472 Q1762.89 26.1121 1773.5 26.1121 Q1776.94 26.1121 1780.22 26.8413 Q1783.51 27.5299 1786.58 28.9478 Z" fill="#000000" fill-rule="nonzero" fill-opacity="1" /><path clip-path="url(#clip470)" d="M1806.92 14.324 L1806.92 27.2059 L1822.27 27.2059 L1822.27 32.9987 L1806.92 32.9987 L1806.92 57.6282 Q1806.92 63.1779 1808.42 64.7578 Q1809.96 66.3376 1814.62 66.3376 L1822.27 66.3376 L1822.27 72.576 L1814.62 72.576 Q1805.99 72.576 1802.71 69.3758 Q1799.43 66.1351 1799.43 57.6282 L1799.43 32.9987 L1793.96 32.9987 L1793.96 27.2059 L1799.43 27.2059 L1799.43 14.324 L1806.92 14.324 Z" fill="#000000" fill-rule="nonzero" fill-opacity="1" /><path clip-path="url(#clip470)" d="M1832.08 27.2059 L1839.53 27.2059 L1839.53 72.576 L1832.08 72.576 L1832.08 27.2059 M1832.08 9.54393 L1839.53 9.54393 L1839.53 18.9825 L1832.08 18.9825 L1832.08 9.54393 Z" fill="#000000" fill-rule="nonzero" fill-opacity="1" /><path clip-path="url(#clip470)" d="M1872.71 32.4315 Q1866.71 32.4315 1863.23 37.1306 Q1859.74 41.7891 1859.74 49.9314 Q1859.74 58.0738 1863.19 62.7728 Q1866.67 67.4314 1872.71 67.4314 Q1878.66 67.4314 1882.15 62.7323 Q1885.63 58.0333 1885.63 49.9314 Q1885.63 41.8701 1882.15 37.1711 Q1878.66 32.4315 1872.71 32.4315 M1872.71 26.1121 Q1882.43 26.1121 1887.98 32.4315 Q1893.53 38.7509 1893.53 49.9314 Q1893.53 61.0714 1887.98 67.4314 Q1882.43 73.7508 1872.71 73.7508 Q1862.94 73.7508 1857.39 67.4314 Q1851.89 61.0714 1851.89 49.9314 Q1851.89 38.7509 1857.39 32.4315 Q1862.94 26.1121 1872.71 26.1121 Z" fill="#000000" fill-rule="nonzero" fill-opacity="1" /><path clip-path="url(#clip470)" d="M1943.6 45.1919 L1943.6 72.576 L1936.14 72.576 L1936.14 45.4349 Q1936.14 38.994 1933.63 35.7938 Q1931.12 32.5936 1926.1 32.5936 Q1920.06 32.5936 1916.58 36.4419 Q1913.09 40.2903 1913.09 46.9338 L1913.09 72.576 L1905.6 72.576 L1905.6 27.2059 L1913.09 27.2059 L1913.09 34.2544 Q1915.77 30.163 1919.37 28.1376 Q1923.02 26.1121 1927.76 26.1121 Q1935.58 26.1121 1939.59 30.9732 Q1943.6 35.7938 1943.6 45.1919 Z" fill="#000000" fill-rule="nonzero" fill-opacity="1" /><polyline clip-path="url(#clip472)" style="stroke:#009af9; stroke-linecap:round; stroke-linejoin:round; stroke-width:4; stroke-opacity:1; fill:none" points="259.011,1662.38 439.011,1578.08 548.39,1499.82 628.859,1427 693.491,1359.07 748.107,1295.56 795.815,1236.08 838.467,1180.25 877.26,1127.77 913.011,1078.35 946.302,1031.74 977.564,987.716 1007.12,946.083 1035.23,906.659 1062.09,869.283 1087.87,833.809 1112.7,800.105 1136.68,768.052 1159.91,737.541 1182.47,708.474 1204.43,680.761 1225.84,654.318 1246.75,629.071 1267.21,604.951 1287.25,581.894 1306.91,559.843 1326.22,538.742 1345.2,518.544 1363.88,499.201 1382.28,480.674 1400.42,462.922 1418.31,445.909 1435.98,429.603 1453.44,413.973 1470.7,398.991 1487.78,384.63 1504.68,370.866 1521.41,357.677 1537.99,345.042 1554.43,332.943 1570.73,321.362 1586.9,310.283 1602.95,299.691 1618.89,289.574 1634.72,279.919 1650.45,270.716 1666.08,261.954 1681.62,253.626 1697.08,245.725 1712.47,238.244 1727.77,231.178 1743.01,224.523 1758.19,218.276 1773.3,212.437 1788.36,207.003 1803.37,201.976 1818.33,197.358 1833.26,193.152 1848.14,189.363 1862.99,185.996 1877.8,183.06 1892.6,180.563 1907.37,178.517 1922.12,176.936 1936.86,175.833 1951.6,175.228 1966.33,175.141 1981.06,175.594 1995.8,176.616 2010.55,178.236 2025.32,180.49 2040.11,183.418 2054.94,187.065 2069.8,191.483 2084.71,196.732 2099.67,202.88 2114.7,210.007 2129.8,218.204 2144.99,227.575 2160.28,238.244 2175.69,250.354 2191.22,264.075 2206.91,279.607 2222.78,297.187 2238.85,317.101 2255.17,339.695 2271.76,365.389 2288.68,394.703 2306.01,428.285 2323.81,466.951 2342.19,511.748 2361.31,564.035 2381.37,625.616 2402.66,698.932 2425.65,787.372 2451.13,895.778 2480.53,1031.32 2517.14,1205.1 2571.38,1435.22 "/>
<path clip-path="url(#clip470)" d="M271.344 287.238 L1934.34 287.238 L1934.34 183.558 L271.344 183.558  Z" fill="#ffffff" fill-rule="evenodd" fill-opacity="1"/>
<polyline clip-path="url(#clip470)" style="stroke:#000000; stroke-linecap:round; stroke-linejoin:round; stroke-width:4; stroke-opacity:1; fill:none" points="271.344,287.238 1934.34,287.238 1934.34,183.558 271.344,183.558 271.344,287.238 "/>
<polyline clip-path="url(#clip470)" style="stroke:#009af9; stroke-linecap:round; stroke-linejoin:round; stroke-width:4; stroke-opacity:1; fill:none" points="298.579,235.398 461.986,235.398 "/>
<path clip-path="url(#clip470)" d="M505.239 221.29 Q500.147 221.29 497.138 225.086 Q494.151 228.882 494.151 235.433 Q494.151 241.961 497.138 245.757 Q500.147 249.553 505.239 249.553 Q510.332 249.553 513.295 245.757 Q516.281 241.961 516.281 235.433 Q516.281 228.882 513.295 225.086 Q510.332 221.29 505.239 221.29 M511.79 252.053 L517.948 258.789 L512.3 258.789 L507.184 253.257 Q506.42 253.303 506.003 253.327 Q505.61 253.35 505.239 253.35 Q497.948 253.35 493.573 248.489 Q489.221 243.604 489.221 235.433 Q489.221 227.239 493.573 222.378 Q497.948 217.493 505.239 217.493 Q512.508 217.493 516.86 222.378 Q521.211 227.239 521.211 235.433 Q521.211 241.452 518.781 245.734 Q516.374 250.016 511.79 252.053 Z" fill="#000000" fill-rule="nonzero" fill-opacity="1" /><path clip-path="url(#clip470)" d="M533.202 221.961 L533.202 248.836 L538.85 248.836 Q546.003 248.836 549.313 245.595 Q552.647 242.354 552.647 235.364 Q552.647 228.419 549.313 225.202 Q546.003 221.961 538.85 221.961 L533.202 221.961 M528.526 218.118 L538.133 218.118 Q548.179 218.118 552.878 222.308 Q557.577 226.475 557.577 235.364 Q557.577 244.299 552.855 248.489 Q548.133 252.678 538.133 252.678 L528.526 252.678 L528.526 218.118 Z" fill="#000000" fill-rule="nonzero" fill-opacity="1" /><path clip-path="url(#clip470)" d="M564.846 226.753 L569.105 226.753 L569.105 252.678 L564.846 252.678 L564.846 226.753 M564.846 216.66 L569.105 216.66 L569.105 222.054 L564.846 222.054 L564.846 216.66 Z" fill="#000000" fill-rule="nonzero" fill-opacity="1" /><path clip-path="url(#clip470)" d="M594.544 227.516 L594.544 231.544 Q592.739 230.618 590.794 230.155 Q588.85 229.692 586.767 229.692 Q583.595 229.692 581.998 230.665 Q580.424 231.637 580.424 233.581 Q580.424 235.063 581.558 235.919 Q582.693 236.753 586.119 237.516 L587.577 237.84 Q592.114 238.813 594.012 240.595 Q595.933 242.354 595.933 245.526 Q595.933 249.137 593.063 251.243 Q590.216 253.35 585.216 253.35 Q583.132 253.35 580.864 252.933 Q578.619 252.539 576.119 251.729 L576.119 247.331 Q578.48 248.558 580.771 249.183 Q583.063 249.785 585.308 249.785 Q588.318 249.785 589.938 248.766 Q591.558 247.725 591.558 245.85 Q591.558 244.114 590.378 243.188 Q589.22 242.262 585.262 241.405 L583.781 241.058 Q579.822 240.225 578.063 238.512 Q576.304 236.776 576.304 233.766 Q576.304 230.109 578.896 228.118 Q581.489 226.128 586.257 226.128 Q588.619 226.128 590.702 226.475 Q592.785 226.822 594.544 227.516 Z" fill="#000000" fill-rule="nonzero" fill-opacity="1" /><path clip-path="url(#clip470)" d="M606.929 219.392 L606.929 226.753 L615.702 226.753 L615.702 230.063 L606.929 230.063 L606.929 244.137 Q606.929 247.308 607.785 248.211 Q608.665 249.114 611.327 249.114 L615.702 249.114 L615.702 252.678 L611.327 252.678 Q606.396 252.678 604.521 250.85 Q602.646 248.998 602.646 244.137 L602.646 230.063 L599.521 230.063 L599.521 226.753 L602.646 226.753 L602.646 219.392 L606.929 219.392 Z" fill="#000000" fill-rule="nonzero" fill-opacity="1" /><path clip-path="url(#clip470)" d="M636.327 230.734 Q635.609 230.317 634.753 230.132 Q633.919 229.924 632.901 229.924 Q629.29 229.924 627.345 232.285 Q625.424 234.623 625.424 239.021 L625.424 252.678 L621.142 252.678 L621.142 226.753 L625.424 226.753 L625.424 230.78 Q626.766 228.419 628.919 227.285 Q631.072 226.128 634.151 226.128 Q634.591 226.128 635.123 226.197 Q635.655 226.243 636.303 226.359 L636.327 230.734 Z" fill="#000000" fill-rule="nonzero" fill-opacity="1" /><path clip-path="url(#clip470)" d="M640.794 226.753 L645.053 226.753 L645.053 252.678 L640.794 252.678 L640.794 226.753 M640.794 216.66 L645.053 216.66 L645.053 222.054 L640.794 222.054 L640.794 216.66 Z" fill="#000000" fill-rule="nonzero" fill-opacity="1" /><path clip-path="url(#clip470)" d="M672.576 239.739 Q672.576 235.04 670.632 232.378 Q668.711 229.692 665.331 229.692 Q661.951 229.692 660.007 232.378 Q658.086 235.04 658.086 239.739 Q658.086 244.438 660.007 247.123 Q661.951 249.785 665.331 249.785 Q668.711 249.785 670.632 247.123 Q672.576 244.438 672.576 239.739 M658.086 230.688 Q659.428 228.373 661.465 227.262 Q663.526 226.128 666.373 226.128 Q671.095 226.128 674.035 229.878 Q676.998 233.628 676.998 239.739 Q676.998 245.85 674.035 249.6 Q671.095 253.35 666.373 253.35 Q663.526 253.35 661.465 252.239 Q659.428 251.104 658.086 248.789 L658.086 252.678 L653.803 252.678 L653.803 216.66 L658.086 216.66 L658.086 230.688 Z" fill="#000000" fill-rule="nonzero" fill-opacity="1" /><path clip-path="url(#clip470)" d="M683.618 242.447 L683.618 226.753 L687.877 226.753 L687.877 242.285 Q687.877 245.965 689.312 247.817 Q690.748 249.646 693.618 249.646 Q697.067 249.646 699.058 247.447 Q701.072 245.248 701.072 241.452 L701.072 226.753 L705.331 226.753 L705.331 252.678 L701.072 252.678 L701.072 248.697 Q699.521 251.058 697.461 252.215 Q695.424 253.35 692.715 253.35 Q688.248 253.35 685.933 250.572 Q683.618 247.794 683.618 242.447 M694.336 226.128 L694.336 226.128 Z" fill="#000000" fill-rule="nonzero" fill-opacity="1" /><path clip-path="url(#clip470)" d="M718.317 219.392 L718.317 226.753 L727.09 226.753 L727.09 230.063 L718.317 230.063 L718.317 244.137 Q718.317 247.308 719.173 248.211 Q720.053 249.114 722.715 249.114 L727.09 249.114 L727.09 252.678 L722.715 252.678 Q717.785 252.678 715.91 250.85 Q714.035 248.998 714.035 244.137 L714.035 230.063 L710.91 230.063 L710.91 226.753 L714.035 226.753 L714.035 219.392 L718.317 219.392 Z" fill="#000000" fill-rule="nonzero" fill-opacity="1" /><path clip-path="url(#clip470)" d="M732.692 226.753 L736.951 226.753 L736.951 252.678 L732.692 252.678 L732.692 226.753 M732.692 216.66 L736.951 216.66 L736.951 222.054 L732.692 222.054 L732.692 216.66 Z" fill="#000000" fill-rule="nonzero" fill-opacity="1" /><path clip-path="url(#clip470)" d="M755.909 229.739 Q752.483 229.739 750.493 232.424 Q748.502 235.086 748.502 239.739 Q748.502 244.391 750.47 247.077 Q752.46 249.739 755.909 249.739 Q759.312 249.739 761.303 247.053 Q763.294 244.368 763.294 239.739 Q763.294 235.132 761.303 232.447 Q759.312 229.739 755.909 229.739 M755.909 226.128 Q761.465 226.128 764.636 229.739 Q767.807 233.35 767.807 239.739 Q767.807 246.104 764.636 249.739 Q761.465 253.35 755.909 253.35 Q750.331 253.35 747.159 249.739 Q744.011 246.104 744.011 239.739 Q744.011 233.35 747.159 229.739 Q750.331 226.128 755.909 226.128 Z" fill="#000000" fill-rule="nonzero" fill-opacity="1" /><path clip-path="url(#clip470)" d="M796.418 237.03 L796.418 252.678 L792.159 252.678 L792.159 237.169 Q792.159 233.489 790.724 231.66 Q789.289 229.831 786.418 229.831 Q782.969 229.831 780.979 232.03 Q778.988 234.229 778.988 238.026 L778.988 252.678 L774.706 252.678 L774.706 226.753 L778.988 226.753 L778.988 230.78 Q780.516 228.442 782.576 227.285 Q784.659 226.128 787.367 226.128 Q791.835 226.128 794.127 228.905 Q796.418 231.66 796.418 237.03 Z" fill="#000000" fill-rule="nonzero" fill-opacity="1" /><path clip-path="url(#clip470)" d="M821.441 227.516 L821.441 231.544 Q819.636 230.618 817.691 230.155 Q815.747 229.692 813.664 229.692 Q810.492 229.692 808.895 230.665 Q807.321 231.637 807.321 233.581 Q807.321 235.063 808.455 235.919 Q809.59 236.753 813.015 237.516 L814.474 237.84 Q819.011 238.813 820.909 240.595 Q822.83 242.354 822.83 245.526 Q822.83 249.137 819.96 251.243 Q817.113 253.35 812.113 253.35 Q810.029 253.35 807.761 252.933 Q805.516 252.539 803.016 251.729 L803.016 247.331 Q805.377 248.558 807.668 249.183 Q809.96 249.785 812.205 249.785 Q815.215 249.785 816.835 248.766 Q818.455 247.725 818.455 245.85 Q818.455 244.114 817.275 243.188 Q816.117 242.262 812.159 241.405 L810.678 241.058 Q806.719 240.225 804.96 238.512 Q803.201 236.776 803.201 233.766 Q803.201 230.109 805.793 228.118 Q808.386 226.128 813.154 226.128 Q815.515 226.128 817.599 226.475 Q819.682 226.822 821.441 227.516 Z" fill="#000000" fill-rule="nonzero" fill-opacity="1" /><path clip-path="url(#clip470)" d="M830.214 246.799 L835.099 246.799 L835.099 252.678 L830.214 252.678 L830.214 246.799 Z" fill="#000000" fill-rule="nonzero" fill-opacity="1" /><path clip-path="url(#clip470)" d="M844.867 218.118 L864.728 218.118 L864.728 222.054 L849.543 222.054 L849.543 232.239 L863.247 232.239 L863.247 236.174 L849.543 236.174 L849.543 252.678 L844.867 252.678 L844.867 218.118 Z" fill="#000000" fill-rule="nonzero" fill-opacity="1" /><path clip-path="url(#clip470)" d="M895.7 247.748 L895.7 238.465 L888.061 238.465 L888.061 234.623 L900.33 234.623 L900.33 249.461 Q897.622 251.382 894.358 252.377 Q891.094 253.35 887.39 253.35 Q879.288 253.35 874.705 248.627 Q870.145 243.882 870.145 235.433 Q870.145 226.961 874.705 222.239 Q879.288 217.493 887.39 217.493 Q890.77 217.493 893.802 218.327 Q896.858 219.16 899.427 220.78 L899.427 225.757 Q896.834 223.558 893.918 222.447 Q891.001 221.336 887.784 221.336 Q881.441 221.336 878.247 224.878 Q875.075 228.419 875.075 235.433 Q875.075 242.424 878.247 245.965 Q881.441 249.507 887.784 249.507 Q890.26 249.507 892.205 249.09 Q894.149 248.651 895.7 247.748 Z" fill="#000000" fill-rule="nonzero" fill-opacity="1" /><path clip-path="url(#clip470)" d="M908.871 218.118 L913.547 218.118 L913.547 248.743 L930.376 248.743 L930.376 252.678 L908.871 252.678 L908.871 218.118 Z" fill="#000000" fill-rule="nonzero" fill-opacity="1" /><path clip-path="url(#clip470)" d="M939.959 221.961 L939.959 248.836 L945.607 248.836 Q952.76 248.836 956.07 245.595 Q959.404 242.354 959.404 235.364 Q959.404 228.419 956.07 225.202 Q952.76 221.961 945.607 221.961 L939.959 221.961 M935.283 218.118 L944.89 218.118 Q954.936 218.118 959.635 222.308 Q964.334 226.475 964.334 235.364 Q964.334 244.299 959.612 248.489 Q954.89 252.678 944.89 252.678 L935.283 252.678 L935.283 218.118 Z" fill="#000000" fill-rule="nonzero" fill-opacity="1" /><path clip-path="url(#clip470)" d="M991.371 257.076 L991.371 260.41 L989.936 260.41 Q984.172 260.41 982.204 258.697 Q980.26 256.984 980.26 251.868 L980.26 246.336 Q980.26 242.84 979.01 241.498 Q977.76 240.155 974.473 240.155 L973.061 240.155 L973.061 236.845 L974.473 236.845 Q977.783 236.845 979.01 235.526 Q980.26 234.183 980.26 230.734 L980.26 225.179 Q980.26 220.063 982.204 218.373 Q984.172 216.66 989.936 216.66 L991.371 216.66 L991.371 219.97 L989.797 219.97 Q986.533 219.97 985.538 220.989 Q984.542 222.007 984.542 225.271 L984.542 231.012 Q984.542 234.646 983.478 236.29 Q982.436 237.933 979.89 238.512 Q982.459 239.137 983.501 240.78 Q984.542 242.424 984.542 246.035 L984.542 251.776 Q984.542 255.039 985.538 256.058 Q986.533 257.076 989.797 257.076 L991.371 257.076 Z" fill="#000000" fill-rule="nonzero" fill-opacity="1" /><path clip-path="url(#clip470)" d="M1001.95 218.118 L1021.81 218.118 L1021.81 222.054 L1006.63 222.054 L1006.63 232.239 L1020.33 232.239 L1020.33 236.174 L1006.63 236.174 L1006.63 252.678 L1001.95 252.678 L1001.95 218.118 Z" fill="#000000" fill-rule="nonzero" fill-opacity="1" /><path clip-path="url(#clip470)" d="M1029.03 216.66 L1033.29 216.66 L1033.29 252.678 L1029.03 252.678 L1029.03 216.66 Z" fill="#000000" fill-rule="nonzero" fill-opacity="1" /><path clip-path="url(#clip470)" d="M1052.25 229.739 Q1048.82 229.739 1046.83 232.424 Q1044.84 235.086 1044.84 239.739 Q1044.84 244.391 1046.81 247.077 Q1048.8 249.739 1052.25 249.739 Q1055.65 249.739 1057.64 247.053 Q1059.63 244.368 1059.63 239.739 Q1059.63 235.132 1057.64 232.447 Q1055.65 229.739 1052.25 229.739 M1052.25 226.128 Q1057.81 226.128 1060.98 229.739 Q1064.15 233.35 1064.15 239.739 Q1064.15 246.104 1060.98 249.739 Q1057.81 253.35 1052.25 253.35 Q1046.67 253.35 1043.5 249.739 Q1040.35 246.104 1040.35 239.739 Q1040.35 233.35 1043.5 229.739 Q1046.67 226.128 1052.25 226.128 Z" fill="#000000" fill-rule="nonzero" fill-opacity="1" /><path clip-path="url(#clip470)" d="M1082.99 239.646 Q1077.83 239.646 1075.84 240.827 Q1073.85 242.007 1073.85 244.854 Q1073.85 247.123 1075.33 248.465 Q1076.83 249.785 1079.4 249.785 Q1082.94 249.785 1085.07 247.285 Q1087.23 244.762 1087.23 240.595 L1087.23 239.646 L1082.99 239.646 M1091.49 237.887 L1091.49 252.678 L1087.23 252.678 L1087.23 248.743 Q1085.77 251.104 1083.59 252.239 Q1081.42 253.35 1078.27 253.35 Q1074.29 253.35 1071.93 251.127 Q1069.59 248.882 1069.59 245.132 Q1069.59 240.757 1072.5 238.535 Q1075.44 236.313 1081.25 236.313 L1087.23 236.313 L1087.23 235.896 Q1087.23 232.956 1085.28 231.359 Q1083.36 229.739 1079.87 229.739 Q1077.64 229.739 1075.54 230.271 Q1073.43 230.803 1071.49 231.868 L1071.49 227.933 Q1073.82 227.03 1076.02 226.591 Q1078.22 226.128 1080.31 226.128 Q1085.93 226.128 1088.71 229.044 Q1091.49 231.961 1091.49 237.887 Z" fill="#000000" fill-rule="nonzero" fill-opacity="1" /><path clip-path="url(#clip470)" d="M1104.47 219.392 L1104.47 226.753 L1113.25 226.753 L1113.25 230.063 L1104.47 230.063 L1104.47 244.137 Q1104.47 247.308 1105.33 248.211 Q1106.21 249.114 1108.87 249.114 L1113.25 249.114 L1113.25 252.678 L1108.87 252.678 Q1103.94 252.678 1102.06 250.85 Q1100.19 248.998 1100.19 244.137 L1100.19 230.063 L1097.06 230.063 L1097.06 226.753 L1100.19 226.753 L1100.19 219.392 L1104.47 219.392 Z" fill="#000000" fill-rule="nonzero" fill-opacity="1" /><path clip-path="url(#clip470)" d="M1130.03 233.535 Q1126.88 233.535 1125.03 235.688 Q1123.2 237.84 1123.2 241.59 Q1123.2 245.317 1125.03 247.493 Q1126.88 249.646 1130.03 249.646 Q1133.18 249.646 1135 247.493 Q1136.86 245.317 1136.86 241.59 Q1136.86 237.84 1135 235.688 Q1133.18 233.535 1130.03 233.535 M1139.31 218.882 L1139.31 223.141 Q1137.55 222.308 1135.75 221.868 Q1133.96 221.429 1132.2 221.429 Q1127.57 221.429 1125.12 224.554 Q1122.69 227.678 1122.34 233.998 Q1123.71 231.984 1125.77 230.919 Q1127.83 229.831 1130.31 229.831 Q1135.51 229.831 1138.52 233.003 Q1141.56 236.151 1141.56 241.59 Q1141.56 246.915 1138.41 250.132 Q1135.26 253.35 1130.03 253.35 Q1124.03 253.35 1120.86 248.766 Q1117.69 244.16 1117.69 235.433 Q1117.69 227.239 1121.58 222.378 Q1125.47 217.493 1132.02 217.493 Q1133.78 217.493 1135.56 217.841 Q1137.37 218.188 1139.31 218.882 Z" fill="#000000" fill-rule="nonzero" fill-opacity="1" /><path clip-path="url(#clip470)" d="M1162.46 222.192 L1150.65 240.641 L1162.46 240.641 L1162.46 222.192 M1161.23 218.118 L1167.11 218.118 L1167.11 240.641 L1172.04 240.641 L1172.04 244.53 L1167.11 244.53 L1167.11 252.678 L1162.46 252.678 L1162.46 244.53 L1146.86 244.53 L1146.86 240.016 L1161.23 218.118 Z" fill="#000000" fill-rule="nonzero" fill-opacity="1" /><path clip-path="url(#clip470)" d="M1180.63 257.076 L1182.25 257.076 Q1185.49 257.076 1186.46 256.081 Q1187.46 255.086 1187.46 251.776 L1187.46 246.035 Q1187.46 242.424 1188.5 240.78 Q1189.54 239.137 1192.11 238.512 Q1189.54 237.933 1188.5 236.29 Q1187.46 234.646 1187.46 231.012 L1187.46 225.271 Q1187.46 221.984 1186.46 220.989 Q1185.49 219.97 1182.25 219.97 L1180.63 219.97 L1180.63 216.66 L1182.09 216.66 Q1187.85 216.66 1189.77 218.373 Q1191.72 220.063 1191.72 225.179 L1191.72 230.734 Q1191.72 234.183 1192.97 235.526 Q1194.22 236.845 1197.5 236.845 L1198.94 236.845 L1198.94 240.155 L1197.5 240.155 Q1194.22 240.155 1192.97 241.498 Q1191.72 242.84 1191.72 246.336 L1191.72 251.868 Q1191.72 256.984 1189.77 258.697 Q1187.85 260.41 1182.09 260.41 L1180.63 260.41 L1180.63 257.076 Z" fill="#000000" fill-rule="nonzero" fill-opacity="1" /><path clip-path="url(#clip470)" d="M1219.56 216.706 Q1216.46 222.03 1214.96 227.239 Q1213.45 232.447 1213.45 237.794 Q1213.45 243.141 1214.96 248.396 Q1216.49 253.627 1219.56 258.928 L1215.86 258.928 Q1212.39 253.489 1210.65 248.234 Q1208.94 242.979 1208.94 237.794 Q1208.94 232.632 1210.65 227.401 Q1212.37 222.169 1215.86 216.706 L1219.56 216.706 Z" fill="#000000" fill-rule="nonzero" fill-opacity="1" /><path clip-path="url(#clip470)" d="M1242.94 240.618 L1241.93 235.271 Q1240.88 229.785 1236.76 229.785 Q1233.66 229.785 1232.25 232.331 Q1230.47 235.526 1230.47 239.739 Q1230.47 244.831 1232.2 247.262 Q1233.96 249.739 1236.76 249.739 Q1239.87 249.739 1241.53 244.808 L1242.94 240.618 M1245.33 233.535 L1247.62 226.753 L1251.42 226.753 L1246.67 240.803 L1247.6 245.873 Q1247.8 247.007 1248.62 247.956 Q1249.56 249.067 1250.3 249.067 L1252.34 249.067 L1252.34 252.678 L1249.8 252.678 Q1247.62 252.678 1245.68 250.734 Q1244.73 249.762 1244.33 247.725 Q1243.27 250.294 1241.09 252.308 Q1240.07 253.257 1236.76 253.257 Q1231.32 253.257 1228.68 249.739 Q1225.98 246.104 1225.98 239.739 Q1225.98 232.933 1228.92 229.739 Q1232.18 226.174 1236.76 226.174 Q1243.96 226.174 1245.33 233.535 Z" fill="#000000" fill-rule="nonzero" fill-opacity="1" /><path clip-path="url(#clip470)" d="M1259.63 231.151 L1289.31 231.151 L1289.31 235.04 L1259.63 235.04 L1259.63 231.151 M1259.63 240.595 L1289.31 240.595 L1289.31 244.53 L1259.63 244.53 L1259.63 240.595 Z" fill="#000000" fill-rule="nonzero" fill-opacity="1" /><path clip-path="url(#clip470)" d="M1300.21 248.743 L1307.85 248.743 L1307.85 222.378 L1299.54 224.044 L1299.54 219.785 L1307.8 218.118 L1312.48 218.118 L1312.48 248.743 L1320.12 248.743 L1320.12 252.678 L1300.21 252.678 L1300.21 248.743 Z" fill="#000000" fill-rule="nonzero" fill-opacity="1" /><path clip-path="url(#clip470)" d="M1329.56 246.799 L1334.45 246.799 L1334.45 252.678 L1329.56 252.678 L1329.56 246.799 Z" fill="#000000" fill-rule="nonzero" fill-opacity="1" /><path clip-path="url(#clip470)" d="M1354.63 221.197 Q1351.02 221.197 1349.19 224.762 Q1347.39 228.303 1347.39 235.433 Q1347.39 242.54 1349.19 246.104 Q1351.02 249.646 1354.63 249.646 Q1358.27 249.646 1360.07 246.104 Q1361.9 242.54 1361.9 235.433 Q1361.9 228.303 1360.07 224.762 Q1358.27 221.197 1354.63 221.197 M1354.63 217.493 Q1360.44 217.493 1363.5 222.1 Q1366.58 226.683 1366.58 235.433 Q1366.58 244.16 1363.5 248.766 Q1360.44 253.35 1354.63 253.35 Q1348.82 253.35 1345.74 248.766 Q1342.69 244.16 1342.69 235.433 Q1342.69 226.683 1345.74 222.1 Q1348.82 217.493 1354.63 217.493 Z" fill="#000000" fill-rule="nonzero" fill-opacity="1" /><path clip-path="url(#clip470)" d="M1375.28 246.799 L1380.17 246.799 L1380.17 250.78 L1376.37 258.188 L1373.38 258.188 L1375.28 250.78 L1375.28 246.799 Z" fill="#000000" fill-rule="nonzero" fill-opacity="1" /><path clip-path="url(#clip470)" d="M1408.59 251.081 L1408.59 262.539 L1404.31 262.539 L1404.31 226.915 Q1404.31 216.359 1414.17 216.359 Q1424.22 216.359 1424.22 225.271 Q1424.22 231.614 1420.23 233.928 Q1426.72 236.012 1426.72 242.192 Q1426.72 253.164 1415.56 253.164 Q1410.65 253.164 1408.59 251.081 M1408.59 245.526 Q1411.16 249.53 1415.72 249.53 Q1422.39 249.53 1422.39 242.262 Q1422.39 235.734 1411.65 236.243 L1411.65 232.308 Q1420.05 232.308 1420.05 224.901 Q1420.05 219.831 1414.63 219.831 Q1408.59 219.831 1408.59 227.054 L1408.59 245.526 Z" fill="#000000" fill-rule="nonzero" fill-opacity="1" /><path clip-path="url(#clip470)" d="M1435.14 231.151 L1464.82 231.151 L1464.82 235.04 L1435.14 235.04 L1435.14 231.151 M1435.14 240.595 L1464.82 240.595 L1464.82 244.53 L1435.14 244.53 L1435.14 240.595 Z" fill="#000000" fill-rule="nonzero" fill-opacity="1" /><path clip-path="url(#clip470)" d="M1474.96 218.118 L1493.31 218.118 L1493.31 222.054 L1479.24 222.054 L1479.24 230.526 Q1480.26 230.178 1481.28 230.016 Q1482.29 229.831 1483.31 229.831 Q1489.1 229.831 1492.48 233.003 Q1495.86 236.174 1495.86 241.59 Q1495.86 247.169 1492.39 250.271 Q1488.91 253.35 1482.6 253.35 Q1480.42 253.35 1478.15 252.979 Q1475.91 252.609 1473.5 251.868 L1473.5 247.169 Q1475.58 248.303 1477.8 248.859 Q1480.03 249.414 1482.5 249.414 Q1486.51 249.414 1488.85 247.308 Q1491.18 245.202 1491.18 241.59 Q1491.18 237.979 1488.85 235.873 Q1486.51 233.766 1482.5 233.766 Q1480.63 233.766 1478.75 234.183 Q1476.9 234.6 1474.96 235.479 L1474.96 218.118 Z" fill="#000000" fill-rule="nonzero" fill-opacity="1" /><path clip-path="url(#clip470)" d="M1505.07 246.799 L1509.96 246.799 L1509.96 252.678 L1505.07 252.678 L1505.07 246.799 Z" fill="#000000" fill-rule="nonzero" fill-opacity="1" /><path clip-path="url(#clip470)" d="M1530.14 221.197 Q1526.53 221.197 1524.7 224.762 Q1522.9 228.303 1522.9 235.433 Q1522.9 242.54 1524.7 246.104 Q1526.53 249.646 1530.14 249.646 Q1533.78 249.646 1535.58 246.104 Q1537.41 242.54 1537.41 235.433 Q1537.41 228.303 1535.58 224.762 Q1533.78 221.197 1530.14 221.197 M1530.14 217.493 Q1535.95 217.493 1539.01 222.1 Q1542.09 226.683 1542.09 235.433 Q1542.09 244.16 1539.01 248.766 Q1535.95 253.35 1530.14 253.35 Q1524.33 253.35 1521.25 248.766 Q1518.2 244.16 1518.2 235.433 Q1518.2 226.683 1521.25 222.1 Q1524.33 217.493 1530.14 217.493 Z" fill="#000000" fill-rule="nonzero" fill-opacity="1" /><path clip-path="url(#clip470)" d="M1550.79 246.799 L1555.67 246.799 L1555.67 250.78 L1551.88 258.188 L1548.89 258.188 L1550.79 250.78 L1550.79 246.799 Z" fill="#000000" fill-rule="nonzero" fill-opacity="1" /><path clip-path="url(#clip470)" d="M1598.61 222.655 Q1596.25 221.035 1590.72 221.035 Q1584.86 221.035 1584.86 223.743 Q1584.86 225.873 1590.97 226.984 Q1595.79 227.841 1598.5 230.433 Q1601.78 233.558 1601.78 239.97 Q1601.78 246.104 1598.61 249.715 Q1595.44 253.35 1589.89 253.35 Q1584.35 253.35 1581.16 249.715 Q1577.99 246.104 1577.99 239.739 Q1577.99 235.016 1581.16 231.197 Q1582.39 229.716 1584.12 228.882 Q1580.51 227.054 1580.51 223.79 Q1580.51 217.493 1590.72 217.493 Q1595.84 217.493 1598.61 219.114 L1598.61 222.655 M1587.32 230.04 Q1585.74 230.711 1584.47 232.401 Q1582.48 235.016 1582.48 239.739 Q1582.48 244.438 1584.45 247.077 Q1586.44 249.739 1589.89 249.739 Q1593.29 249.739 1595.28 247.053 Q1597.27 244.368 1597.27 239.97 Q1597.27 235.364 1595.16 233.141 Q1592.92 230.757 1590 230.503 Q1588.52 230.364 1587.32 230.04 Z" fill="#000000" fill-rule="nonzero" fill-opacity="1" /><path clip-path="url(#clip470)" d="M1609.4 231.151 L1639.08 231.151 L1639.08 235.04 L1609.4 235.04 L1609.4 231.151 M1609.4 240.595 L1639.08 240.595 L1639.08 244.53 L1609.4 244.53 L1609.4 240.595 Z" fill="#000000" fill-rule="nonzero" fill-opacity="1" /><path clip-path="url(#clip470)" d="M1659.17 221.197 Q1655.56 221.197 1653.73 224.762 Q1651.92 228.303 1651.92 235.433 Q1651.92 242.54 1653.73 246.104 Q1655.56 249.646 1659.17 249.646 Q1662.8 249.646 1664.61 246.104 Q1666.44 242.54 1666.44 235.433 Q1666.44 228.303 1664.61 224.762 Q1662.8 221.197 1659.17 221.197 M1659.17 217.493 Q1664.98 217.493 1668.03 222.1 Q1671.11 226.683 1671.11 235.433 Q1671.11 244.16 1668.03 248.766 Q1664.98 253.35 1659.17 253.35 Q1653.36 253.35 1650.28 248.766 Q1647.22 244.16 1647.22 235.433 Q1647.22 226.683 1650.28 222.1 Q1653.36 217.493 1659.17 217.493 Z" fill="#000000" fill-rule="nonzero" fill-opacity="1" /><path clip-path="url(#clip470)" d="M1679.33 246.799 L1684.21 246.799 L1684.21 252.678 L1679.33 252.678 L1679.33 246.799 Z" fill="#000000" fill-rule="nonzero" fill-opacity="1" /><path clip-path="url(#clip470)" d="M1698.43 248.743 L1714.75 248.743 L1714.75 252.678 L1692.8 252.678 L1692.8 248.743 Q1695.46 245.989 1700.05 241.359 Q1704.65 236.706 1705.83 235.364 Q1708.08 232.841 1708.96 231.104 Q1709.86 229.345 1709.86 227.655 Q1709.86 224.901 1707.92 223.165 Q1706 221.429 1702.89 221.429 Q1700.7 221.429 1698.24 222.192 Q1695.81 222.956 1693.03 224.507 L1693.03 219.785 Q1695.86 218.651 1698.31 218.072 Q1700.77 217.493 1702.8 217.493 Q1708.17 217.493 1711.37 220.179 Q1714.56 222.864 1714.56 227.354 Q1714.56 229.484 1713.75 231.405 Q1712.96 233.303 1710.86 235.896 Q1710.28 236.567 1707.18 239.785 Q1704.08 242.979 1698.43 248.743 Z" fill="#000000" fill-rule="nonzero" fill-opacity="1" /><path clip-path="url(#clip470)" d="M1725.05 246.799 L1729.93 246.799 L1729.93 250.78 L1726.14 258.188 L1723.15 258.188 L1725.05 250.78 L1725.05 246.799 Z" fill="#000000" fill-rule="nonzero" fill-opacity="1" /><path clip-path="url(#clip470)" d="M1754.05 226.753 L1758.45 226.753 L1758.45 237.516 L1769.63 226.753 L1774.82 226.753 L1764.61 236.521 L1776.41 252.678 L1771.2 252.678 L1761.62 239.299 L1758.45 242.285 L1758.45 252.678 L1754.05 252.678 L1754.05 226.753 Z" fill="#000000" fill-rule="nonzero" fill-opacity="1" /><path clip-path="url(#clip470)" d="M1782.59 231.151 L1812.27 231.151 L1812.27 235.04 L1782.59 235.04 L1782.59 231.151 M1782.59 240.595 L1812.27 240.595 L1812.27 244.53 L1782.59 244.53 L1782.59 240.595 Z" fill="#000000" fill-rule="nonzero" fill-opacity="1" /><path clip-path="url(#clip470)" d="M1836.53 234.044 Q1839.88 234.762 1841.76 237.03 Q1843.66 239.299 1843.66 242.632 Q1843.66 247.748 1840.14 250.549 Q1836.62 253.35 1830.14 253.35 Q1827.96 253.35 1825.65 252.91 Q1823.36 252.493 1820.9 251.637 L1820.9 247.123 Q1822.85 248.257 1825.16 248.836 Q1827.48 249.414 1830 249.414 Q1834.4 249.414 1836.69 247.678 Q1839.01 245.942 1839.01 242.632 Q1839.01 239.577 1836.85 237.864 Q1834.72 236.128 1830.9 236.128 L1826.88 236.128 L1826.88 232.285 L1831.09 232.285 Q1834.54 232.285 1836.37 230.919 Q1838.2 229.53 1838.2 226.938 Q1838.2 224.276 1836.3 222.864 Q1834.42 221.429 1830.9 221.429 Q1828.98 221.429 1826.78 221.845 Q1824.58 222.262 1821.95 223.141 L1821.95 218.975 Q1824.61 218.234 1826.92 217.864 Q1829.26 217.493 1831.32 217.493 Q1836.64 217.493 1839.75 219.924 Q1842.85 222.331 1842.85 226.452 Q1842.85 229.322 1841.2 231.313 Q1839.56 233.28 1836.53 234.044 Z" fill="#000000" fill-rule="nonzero" fill-opacity="1" /><path clip-path="url(#clip470)" d="M1852.52 246.799 L1857.41 246.799 L1857.41 252.678 L1852.52 252.678 L1852.52 246.799 Z" fill="#000000" fill-rule="nonzero" fill-opacity="1" /><path clip-path="url(#clip470)" d="M1877.59 221.197 Q1873.98 221.197 1872.15 224.762 Q1870.35 228.303 1870.35 235.433 Q1870.35 242.54 1872.15 246.104 Q1873.98 249.646 1877.59 249.646 Q1881.23 249.646 1883.03 246.104 Q1884.86 242.54 1884.86 235.433 Q1884.86 228.303 1883.03 224.762 Q1881.23 221.197 1877.59 221.197 M1877.59 217.493 Q1883.4 217.493 1886.46 222.1 Q1889.54 226.683 1889.54 235.433 Q1889.54 244.16 1886.46 248.766 Q1883.4 253.35 1877.59 253.35 Q1871.78 253.35 1868.7 248.766 Q1865.65 244.16 1865.65 235.433 Q1865.65 226.683 1868.7 222.1 Q1871.78 217.493 1877.59 217.493 Z" fill="#000000" fill-rule="nonzero" fill-opacity="1" /><path clip-path="url(#clip470)" d="M1896.48 216.706 L1900.19 216.706 Q1903.66 222.169 1905.37 227.401 Q1907.11 232.632 1907.11 237.794 Q1907.11 242.979 1905.37 248.234 Q1903.66 253.489 1900.19 258.928 L1896.48 258.928 Q1899.56 253.627 1901.07 248.396 Q1902.59 243.141 1902.59 237.794 Q1902.59 232.447 1901.07 227.239 Q1899.56 222.03 1896.48 216.706 Z" fill="#000000" fill-rule="nonzero" fill-opacity="1" /></svg>
