<?xml version="1.0" encoding="utf-8"?>
<svg xmlns="http://www.w3.org/2000/svg" xmlns:xlink="http://www.w3.org/1999/xlink" width="672" height="480" viewBox="0 0 2688 1920">
<defs>
  <clipPath id="clip290">
    <rect x="0" y="0" width="2688" height="1920"/>
  </clipPath>
</defs>
<path clip-path="url(#clip290)" d="M0 1920 L2688 1920 L2688 0 L0 0  Z" fill="#ffffff" fill-rule="evenodd" fill-opacity="1"/>
<defs>
  <clipPath id="clip291">
    <rect x="537" y="0" width="1883" height="1883"/>
  </clipPath>
</defs>
<path clip-path="url(#clip290)" d="M181.747 1800.78 L2640.76 1800.78 L2640.76 127.792 L181.747 127.792  Z" fill="#ffffff" fill-rule="evenodd" fill-opacity="1"/>
<defs>
  <clipPath id="clip292">
    <rect x="181" y="127" width="2460" height="1674"/>
  </clipPath>
</defs>
<polyline clip-path="url(#clip292)" style="stroke:#000000; stroke-linecap:round; stroke-linejoin:round; stroke-width:2; stroke-opacity:0.1; fill:none" points="251.341,1800.78 251.341,127.792 "/>
<polyline clip-path="url(#clip292)" style="stroke:#000000; stroke-linecap:round; stroke-linejoin:round; stroke-width:2; stroke-opacity:0.1; fill:none" points="831.296,1800.78 831.296,127.792 "/>
<polyline clip-path="url(#clip292)" style="stroke:#000000; stroke-linecap:round; stroke-linejoin:round; stroke-width:2; stroke-opacity:0.1; fill:none" points="1411.25,1800.78 1411.25,127.792 "/>
<polyline clip-path="url(#clip292)" style="stroke:#000000; stroke-linecap:round; stroke-linejoin:round; stroke-width:2; stroke-opacity:0.1; fill:none" points="1991.21,1800.78 1991.21,127.792 "/>
<polyline clip-path="url(#clip292)" style="stroke:#000000; stroke-linecap:round; stroke-linejoin:round; stroke-width:2; stroke-opacity:0.1; fill:none" points="2571.16,1800.78 2571.16,127.792 "/>
<polyline clip-path="url(#clip290)" style="stroke:#000000; stroke-linecap:round; stroke-linejoin:round; stroke-width:4; stroke-opacity:1; fill:none" points="181.747,1800.78 2640.76,1800.78 "/>
<polyline clip-path="url(#clip290)" style="stroke:#000000; stroke-linecap:round; stroke-linejoin:round; stroke-width:4; stroke-opacity:1; fill:none" points="251.341,1800.78 251.341,1781.88 "/>
<polyline clip-path="url(#clip290)" style="stroke:#000000; stroke-linecap:round; stroke-linejoin:round; stroke-width:4; stroke-opacity:1; fill:none" points="831.296,1800.78 831.296,1781.88 "/>
<polyline clip-path="url(#clip290)" style="stroke:#000000; stroke-linecap:round; stroke-linejoin:round; stroke-width:4; stroke-opacity:1; fill:none" points="1411.25,1800.78 1411.25,1781.88 "/>
<polyline clip-path="url(#clip290)" style="stroke:#000000; stroke-linecap:round; stroke-linejoin:round; stroke-width:4; stroke-opacity:1; fill:none" points="1991.21,1800.78 1991.21,1781.88 "/>
<polyline clip-path="url(#clip290)" style="stroke:#000000; stroke-linecap:round; stroke-linejoin:round; stroke-width:4; stroke-opacity:1; fill:none" points="2571.16,1800.78 2571.16,1781.88 "/>
<path clip-path="url(#clip290)" d="M213.645 1834 Q210.034 1834 208.205 1837.57 Q206.399 1841.11 206.399 1848.24 Q206.399 1855.34 208.205 1858.91 Q210.034 1862.45 213.645 1862.45 Q217.279 1862.45 219.084 1858.91 Q220.913 1855.34 220.913 1848.24 Q220.913 1841.11 219.084 1837.57 Q217.279 1834 213.645 1834 M213.645 1830.3 Q219.455 1830.3 222.51 1834.9 Q225.589 1839.49 225.589 1848.24 Q225.589 1856.96 222.51 1861.57 Q219.455 1866.15 213.645 1866.15 Q207.835 1866.15 204.756 1861.57 Q201.7 1856.96 201.7 1848.24 Q201.7 1839.49 204.756 1834.9 Q207.835 1830.3 213.645 1830.3 Z" fill="#000000" fill-rule="nonzero" fill-opacity="1" /><path clip-path="url(#clip290)" d="M233.807 1859.6 L238.691 1859.6 L238.691 1865.48 L233.807 1865.48 L233.807 1859.6 Z" fill="#000000" fill-rule="nonzero" fill-opacity="1" /><path clip-path="url(#clip290)" d="M258.876 1834 Q255.265 1834 253.436 1837.57 Q251.631 1841.11 251.631 1848.24 Q251.631 1855.34 253.436 1858.91 Q255.265 1862.45 258.876 1862.45 Q262.51 1862.45 264.316 1858.91 Q266.144 1855.34 266.144 1848.24 Q266.144 1841.11 264.316 1837.57 Q262.51 1834 258.876 1834 M258.876 1830.3 Q264.686 1830.3 267.742 1834.9 Q270.82 1839.49 270.82 1848.24 Q270.82 1856.96 267.742 1861.57 Q264.686 1866.15 258.876 1866.15 Q253.066 1866.15 249.987 1861.57 Q246.932 1856.96 246.932 1848.24 Q246.932 1839.49 249.987 1834.9 Q253.066 1830.3 258.876 1830.3 Z" fill="#000000" fill-rule="nonzero" fill-opacity="1" /><path clip-path="url(#clip290)" d="M289.038 1834 Q285.427 1834 283.598 1837.57 Q281.792 1841.11 281.792 1848.24 Q281.792 1855.34 283.598 1858.91 Q285.427 1862.45 289.038 1862.45 Q292.672 1862.45 294.478 1858.91 Q296.306 1855.34 296.306 1848.24 Q296.306 1841.11 294.478 1837.57 Q292.672 1834 289.038 1834 M289.038 1830.3 Q294.848 1830.3 297.903 1834.9 Q300.982 1839.49 300.982 1848.24 Q300.982 1856.96 297.903 1861.57 Q294.848 1866.15 289.038 1866.15 Q283.228 1866.15 280.149 1861.57 Q277.093 1856.96 277.093 1848.24 Q277.093 1839.49 280.149 1834.9 Q283.228 1830.3 289.038 1830.3 Z" fill="#000000" fill-rule="nonzero" fill-opacity="1" /><path clip-path="url(#clip290)" d="M794.097 1834 Q790.486 1834 788.658 1837.57 Q786.852 1841.11 786.852 1848.24 Q786.852 1855.34 788.658 1858.91 Q790.486 1862.45 794.097 1862.45 Q797.732 1862.45 799.537 1858.91 Q801.366 1855.34 801.366 1848.24 Q801.366 1841.11 799.537 1837.57 Q797.732 1834 794.097 1834 M794.097 1830.3 Q799.908 1830.3 802.963 1834.9 Q806.042 1839.49 806.042 1848.24 Q806.042 1856.96 802.963 1861.57 Q799.908 1866.15 794.097 1866.15 Q788.287 1866.15 785.209 1861.57 Q782.153 1856.96 782.153 1848.24 Q782.153 1839.49 785.209 1834.9 Q788.287 1830.3 794.097 1830.3 Z" fill="#000000" fill-rule="nonzero" fill-opacity="1" /><path clip-path="url(#clip290)" d="M814.259 1859.6 L819.144 1859.6 L819.144 1865.48 L814.259 1865.48 L814.259 1859.6 Z" fill="#000000" fill-rule="nonzero" fill-opacity="1" /><path clip-path="url(#clip290)" d="M833.356 1861.55 L849.676 1861.55 L849.676 1865.48 L827.731 1865.48 L827.731 1861.55 Q830.393 1858.79 834.977 1854.16 Q839.583 1849.51 840.764 1848.17 Q843.009 1845.65 843.889 1843.91 Q844.792 1842.15 844.792 1840.46 Q844.792 1837.71 842.847 1835.97 Q840.926 1834.23 837.824 1834.23 Q835.625 1834.23 833.171 1835 Q830.741 1835.76 827.963 1837.31 L827.963 1832.59 Q830.787 1831.46 833.241 1830.88 Q835.694 1830.3 837.731 1830.3 Q843.102 1830.3 846.296 1832.98 Q849.491 1835.67 849.491 1840.16 Q849.491 1842.29 848.68 1844.21 Q847.893 1846.11 845.787 1848.7 Q845.208 1849.37 842.106 1852.59 Q839.005 1855.78 833.356 1861.55 Z" fill="#000000" fill-rule="nonzero" fill-opacity="1" /><path clip-path="url(#clip290)" d="M859.537 1830.92 L877.893 1830.92 L877.893 1834.86 L863.819 1834.86 L863.819 1843.33 Q864.838 1842.98 865.856 1842.82 Q866.875 1842.64 867.893 1842.64 Q873.68 1842.64 877.06 1845.81 Q880.44 1848.98 880.44 1854.4 Q880.44 1859.97 876.967 1863.08 Q873.495 1866.15 867.176 1866.15 Q865 1866.15 862.731 1865.78 Q860.486 1865.41 858.079 1864.67 L858.079 1859.97 Q860.162 1861.11 862.384 1861.66 Q864.606 1862.22 867.083 1862.22 Q871.088 1862.22 873.426 1860.11 Q875.764 1858.01 875.764 1854.4 Q875.764 1850.78 873.426 1848.68 Q871.088 1846.57 867.083 1846.57 Q865.208 1846.57 863.333 1846.99 Q861.481 1847.4 859.537 1848.28 L859.537 1830.92 Z" fill="#000000" fill-rule="nonzero" fill-opacity="1" /><path clip-path="url(#clip290)" d="M1373.55 1834 Q1369.94 1834 1368.11 1837.57 Q1366.31 1841.11 1366.31 1848.24 Q1366.31 1855.34 1368.11 1858.91 Q1369.94 1862.45 1373.55 1862.45 Q1377.19 1862.45 1378.99 1858.91 Q1380.82 1855.34 1380.82 1848.24 Q1380.82 1841.11 1378.99 1837.57 Q1377.19 1834 1373.55 1834 M1373.55 1830.3 Q1379.36 1830.3 1382.42 1834.9 Q1385.5 1839.49 1385.5 1848.24 Q1385.5 1856.96 1382.42 1861.57 Q1379.36 1866.15 1373.55 1866.15 Q1367.74 1866.15 1364.67 1861.57 Q1361.61 1856.96 1361.61 1848.24 Q1361.61 1839.49 1364.67 1834.9 Q1367.74 1830.3 1373.55 1830.3 Z" fill="#000000" fill-rule="nonzero" fill-opacity="1" /><path clip-path="url(#clip290)" d="M1393.72 1859.6 L1398.6 1859.6 L1398.6 1865.48 L1393.72 1865.48 L1393.72 1859.6 Z" fill="#000000" fill-rule="nonzero" fill-opacity="1" /><path clip-path="url(#clip290)" d="M1408.83 1830.92 L1427.19 1830.92 L1427.19 1834.86 L1413.11 1834.86 L1413.11 1843.33 Q1414.13 1842.98 1415.15 1842.82 Q1416.17 1842.64 1417.19 1842.64 Q1422.98 1842.64 1426.36 1845.81 Q1429.73 1848.98 1429.73 1854.4 Q1429.73 1859.97 1426.26 1863.08 Q1422.79 1866.15 1416.47 1866.15 Q1414.3 1866.15 1412.03 1865.78 Q1409.78 1865.41 1407.37 1864.67 L1407.37 1859.97 Q1409.46 1861.11 1411.68 1861.66 Q1413.9 1862.22 1416.38 1862.22 Q1420.38 1862.22 1422.72 1860.11 Q1425.06 1858.01 1425.06 1854.4 Q1425.06 1850.78 1422.72 1848.68 Q1420.38 1846.57 1416.38 1846.57 Q1414.5 1846.57 1412.63 1846.99 Q1410.78 1847.4 1408.83 1848.28 L1408.83 1830.92 Z" fill="#000000" fill-rule="nonzero" fill-opacity="1" /><path clip-path="url(#clip290)" d="M1448.95 1834 Q1445.34 1834 1443.51 1837.57 Q1441.7 1841.11 1441.7 1848.24 Q1441.7 1855.34 1443.51 1858.91 Q1445.34 1862.45 1448.95 1862.45 Q1452.58 1862.45 1454.39 1858.91 Q1456.22 1855.34 1456.22 1848.24 Q1456.22 1841.11 1454.39 1837.57 Q1452.58 1834 1448.95 1834 M1448.95 1830.3 Q1454.76 1830.3 1457.81 1834.9 Q1460.89 1839.49 1460.89 1848.24 Q1460.89 1856.96 1457.81 1861.57 Q1454.76 1866.15 1448.95 1866.15 Q1443.14 1866.15 1440.06 1861.57 Q1437 1856.96 1437 1848.24 Q1437 1839.49 1440.06 1834.9 Q1443.14 1830.3 1448.95 1830.3 Z" fill="#000000" fill-rule="nonzero" fill-opacity="1" /><path clip-path="url(#clip290)" d="M1954.01 1834 Q1950.4 1834 1948.57 1837.57 Q1946.76 1841.11 1946.76 1848.24 Q1946.76 1855.34 1948.57 1858.91 Q1950.4 1862.45 1954.01 1862.45 Q1957.64 1862.45 1959.45 1858.91 Q1961.28 1855.34 1961.28 1848.24 Q1961.28 1841.11 1959.45 1837.57 Q1957.64 1834 1954.01 1834 M1954.01 1830.3 Q1959.82 1830.3 1962.87 1834.9 Q1965.95 1839.49 1965.95 1848.24 Q1965.95 1856.96 1962.87 1861.57 Q1959.82 1866.15 1954.01 1866.15 Q1948.2 1866.15 1945.12 1861.57 Q1942.06 1856.96 1942.06 1848.24 Q1942.06 1839.49 1945.12 1834.9 Q1948.2 1830.3 1954.01 1830.3 Z" fill="#000000" fill-rule="nonzero" fill-opacity="1" /><path clip-path="url(#clip290)" d="M1974.17 1859.6 L1979.05 1859.6 L1979.05 1865.48 L1974.17 1865.48 L1974.17 1859.6 Z" fill="#000000" fill-rule="nonzero" fill-opacity="1" /><path clip-path="url(#clip290)" d="M1988.06 1830.92 L2010.28 1830.92 L2010.28 1832.91 L1997.73 1865.48 L1992.85 1865.48 L2004.66 1834.86 L1988.06 1834.86 L1988.06 1830.92 Z" fill="#000000" fill-rule="nonzero" fill-opacity="1" /><path clip-path="url(#clip290)" d="M2019.45 1830.92 L2037.8 1830.92 L2037.8 1834.86 L2023.73 1834.86 L2023.73 1843.33 Q2024.75 1842.98 2025.77 1842.82 Q2026.78 1842.64 2027.8 1842.64 Q2033.59 1842.64 2036.97 1845.81 Q2040.35 1848.98 2040.35 1854.4 Q2040.35 1859.97 2036.88 1863.08 Q2033.41 1866.15 2027.09 1866.15 Q2024.91 1866.15 2022.64 1865.78 Q2020.4 1865.41 2017.99 1864.67 L2017.99 1859.97 Q2020.07 1861.11 2022.29 1861.66 Q2024.52 1862.22 2026.99 1862.22 Q2031 1862.22 2033.34 1860.11 Q2035.67 1858.01 2035.67 1854.4 Q2035.67 1850.78 2033.34 1848.68 Q2031 1846.57 2026.99 1846.57 Q2025.12 1846.57 2023.24 1846.99 Q2021.39 1847.4 2019.45 1848.28 L2019.45 1830.92 Z" fill="#000000" fill-rule="nonzero" fill-opacity="1" /><path clip-path="url(#clip290)" d="M2523.23 1861.55 L2530.87 1861.55 L2530.87 1835.18 L2522.56 1836.85 L2522.56 1832.59 L2530.83 1830.92 L2535.5 1830.92 L2535.5 1861.55 L2543.14 1861.55 L2543.14 1865.48 L2523.23 1865.48 L2523.23 1861.55 Z" fill="#000000" fill-rule="nonzero" fill-opacity="1" /><path clip-path="url(#clip290)" d="M2552.59 1859.6 L2557.47 1859.6 L2557.47 1865.48 L2552.59 1865.48 L2552.59 1859.6 Z" fill="#000000" fill-rule="nonzero" fill-opacity="1" /><path clip-path="url(#clip290)" d="M2577.65 1834 Q2574.04 1834 2572.21 1837.57 Q2570.41 1841.11 2570.41 1848.24 Q2570.41 1855.34 2572.21 1858.91 Q2574.04 1862.45 2577.65 1862.45 Q2581.29 1862.45 2583.09 1858.91 Q2584.92 1855.34 2584.92 1848.24 Q2584.92 1841.11 2583.09 1837.57 Q2581.29 1834 2577.65 1834 M2577.65 1830.3 Q2583.46 1830.3 2586.52 1834.9 Q2589.6 1839.49 2589.6 1848.24 Q2589.6 1856.96 2586.52 1861.57 Q2583.46 1866.15 2577.65 1866.15 Q2571.84 1866.15 2568.77 1861.57 Q2565.71 1856.96 2565.71 1848.24 Q2565.71 1839.49 2568.77 1834.9 Q2571.84 1830.3 2577.65 1830.3 Z" fill="#000000" fill-rule="nonzero" fill-opacity="1" /><path clip-path="url(#clip290)" d="M2607.82 1834 Q2604.21 1834 2602.38 1837.57 Q2600.57 1841.11 2600.57 1848.24 Q2600.57 1855.34 2602.38 1858.91 Q2604.21 1862.45 2607.82 1862.45 Q2611.45 1862.45 2613.26 1858.91 Q2615.08 1855.34 2615.08 1848.24 Q2615.08 1841.11 2613.26 1837.57 Q2611.45 1834 2607.82 1834 M2607.82 1830.3 Q2613.63 1830.3 2616.68 1834.9 Q2619.76 1839.49 2619.76 1848.24 Q2619.76 1856.96 2616.68 1861.57 Q2613.63 1866.15 2607.82 1866.15 Q2602.01 1866.15 2598.93 1861.57 Q2595.87 1856.96 2595.87 1848.24 Q2595.87 1839.49 2598.93 1834.9 Q2602.01 1830.3 2607.82 1830.3 Z" fill="#000000" fill-rule="nonzero" fill-opacity="1" /><polyline clip-path="url(#clip292)" style="stroke:#000000; stroke-linecap:round; stroke-linejoin:round; stroke-width:2; stroke-opacity:0.1; fill:none" points="181.747,1449.27 2640.76,1449.27 "/>
<polyline clip-path="url(#clip292)" style="stroke:#000000; stroke-linecap:round; stroke-linejoin:round; stroke-width:2; stroke-opacity:0.1; fill:none" points="181.747,1030.36 2640.76,1030.36 "/>
<polyline clip-path="url(#clip292)" style="stroke:#000000; stroke-linecap:round; stroke-linejoin:round; stroke-width:2; stroke-opacity:0.1; fill:none" points="181.747,611.44 2640.76,611.44 "/>
<polyline clip-path="url(#clip292)" style="stroke:#000000; stroke-linecap:round; stroke-linejoin:round; stroke-width:2; stroke-opacity:0.1; fill:none" points="181.747,192.525 2640.76,192.525 "/>
<polyline clip-path="url(#clip290)" style="stroke:#000000; stroke-linecap:round; stroke-linejoin:round; stroke-width:4; stroke-opacity:1; fill:none" points="181.747,1800.78 181.747,127.792 "/>
<polyline clip-path="url(#clip290)" style="stroke:#000000; stroke-linecap:round; stroke-linejoin:round; stroke-width:4; stroke-opacity:1; fill:none" points="181.747,1449.27 200.644,1449.27 "/>
<polyline clip-path="url(#clip290)" style="stroke:#000000; stroke-linecap:round; stroke-linejoin:round; stroke-width:4; stroke-opacity:1; fill:none" points="181.747,1030.36 200.644,1030.36 "/>
<polyline clip-path="url(#clip290)" style="stroke:#000000; stroke-linecap:round; stroke-linejoin:round; stroke-width:4; stroke-opacity:1; fill:none" points="181.747,611.44 200.644,611.44 "/>
<polyline clip-path="url(#clip290)" style="stroke:#000000; stroke-linecap:round; stroke-linejoin:round; stroke-width:4; stroke-opacity:1; fill:none" points="181.747,192.525 200.644,192.525 "/>
<path clip-path="url(#clip290)" d="M49.5521 1449.72 L79.2279 1449.72 L79.2279 1453.66 L49.5521 1453.66 L49.5521 1449.72 Z" fill="#000000" fill-rule="nonzero" fill-opacity="1" /><path clip-path="url(#clip290)" d="M90.1306 1462.62 L97.7695 1462.62 L97.7695 1436.25 L89.4593 1437.92 L89.4593 1433.66 L97.7232 1431.99 L102.399 1431.99 L102.399 1462.62 L110.038 1462.62 L110.038 1466.55 L90.1306 1466.55 L90.1306 1462.62 Z" fill="#000000" fill-rule="nonzero" fill-opacity="1" /><path clip-path="url(#clip290)" d="M129.482 1435.07 Q125.871 1435.07 124.042 1438.63 Q122.237 1442.18 122.237 1449.31 Q122.237 1456.41 124.042 1459.98 Q125.871 1463.52 129.482 1463.52 Q133.116 1463.52 134.922 1459.98 Q136.751 1456.41 136.751 1449.31 Q136.751 1442.18 134.922 1438.63 Q133.116 1435.07 129.482 1435.07 M129.482 1431.37 Q135.292 1431.37 138.348 1435.97 Q141.427 1440.56 141.427 1449.31 Q141.427 1458.03 138.348 1462.64 Q135.292 1467.22 129.482 1467.22 Q123.672 1467.22 120.593 1462.64 Q117.538 1458.03 117.538 1449.31 Q117.538 1440.56 120.593 1435.97 Q123.672 1431.37 129.482 1431.37 Z" fill="#000000" fill-rule="nonzero" fill-opacity="1" /><path clip-path="url(#clip290)" d="M129.482 1016.15 Q125.871 1016.15 124.042 1019.72 Q122.237 1023.26 122.237 1030.39 Q122.237 1037.5 124.042 1041.06 Q125.871 1044.6 129.482 1044.6 Q133.116 1044.6 134.922 1041.06 Q136.751 1037.5 136.751 1030.39 Q136.751 1023.26 134.922 1019.72 Q133.116 1016.15 129.482 1016.15 M129.482 1012.45 Q135.292 1012.45 138.348 1017.06 Q141.427 1021.64 141.427 1030.39 Q141.427 1039.12 138.348 1043.72 Q135.292 1048.31 129.482 1048.31 Q123.672 1048.31 120.593 1043.72 Q117.538 1039.12 117.538 1030.39 Q117.538 1021.64 120.593 1017.06 Q123.672 1012.45 129.482 1012.45 Z" fill="#000000" fill-rule="nonzero" fill-opacity="1" /><path clip-path="url(#clip290)" d="M90.1306 624.785 L97.7695 624.785 L97.7695 598.419 L89.4593 600.086 L89.4593 595.827 L97.7232 594.16 L102.399 594.16 L102.399 624.785 L110.038 624.785 L110.038 628.72 L90.1306 628.72 L90.1306 624.785 Z" fill="#000000" fill-rule="nonzero" fill-opacity="1" /><path clip-path="url(#clip290)" d="M129.482 597.239 Q125.871 597.239 124.042 600.804 Q122.237 604.345 122.237 611.475 Q122.237 618.581 124.042 622.146 Q125.871 625.688 129.482 625.688 Q133.116 625.688 134.922 622.146 Q136.751 618.581 136.751 611.475 Q136.751 604.345 134.922 600.804 Q133.116 597.239 129.482 597.239 M129.482 593.535 Q135.292 593.535 138.348 598.142 Q141.427 602.725 141.427 611.475 Q141.427 620.202 138.348 624.808 Q135.292 629.391 129.482 629.391 Q123.672 629.391 120.593 624.808 Q117.538 620.202 117.538 611.475 Q117.538 602.725 120.593 598.142 Q123.672 593.535 129.482 593.535 Z" fill="#000000" fill-rule="nonzero" fill-opacity="1" /><path clip-path="url(#clip290)" d="M93.3482 205.869 L109.668 205.869 L109.668 209.805 L87.7232 209.805 L87.7232 205.869 Q90.3852 203.115 94.9685 198.485 Q99.575 193.832 100.756 192.49 Q103.001 189.967 103.881 188.231 Q104.783 186.471 104.783 184.781 Q104.783 182.027 102.839 180.291 Q100.918 178.555 97.8158 178.555 Q95.6167 178.555 93.163 179.319 Q90.7325 180.082 87.9547 181.633 L87.9547 176.911 Q90.7788 175.777 93.2324 175.198 Q95.6861 174.62 97.7232 174.62 Q103.094 174.62 106.288 177.305 Q109.482 179.99 109.482 184.481 Q109.482 186.61 108.672 188.531 Q107.885 190.43 105.779 193.022 Q105.2 193.693 102.098 196.911 Q98.9963 200.105 93.3482 205.869 Z" fill="#000000" fill-rule="nonzero" fill-opacity="1" /><path clip-path="url(#clip290)" d="M129.482 178.323 Q125.871 178.323 124.042 181.888 Q122.237 185.43 122.237 192.559 Q122.237 199.666 124.042 203.23 Q125.871 206.772 129.482 206.772 Q133.116 206.772 134.922 203.23 Q136.751 199.666 136.751 192.559 Q136.751 185.43 134.922 181.888 Q133.116 178.323 129.482 178.323 M129.482 174.62 Q135.292 174.62 138.348 179.226 Q141.427 183.809 141.427 192.559 Q141.427 201.286 138.348 205.892 Q135.292 210.476 129.482 210.476 Q123.672 210.476 120.593 205.892 Q117.538 201.286 117.538 192.559 Q117.538 183.809 120.593 179.226 Q123.672 174.62 129.482 174.62 Z" fill="#000000" fill-rule="nonzero" fill-opacity="1" /><path clip-path="url(#clip290)" d="M1087.02 17.6457 Q1078.1 17.6457 1072.84 24.2892 Q1067.61 30.9327 1067.61 42.3968 Q1067.61 53.8203 1072.84 60.4638 Q1078.1 67.1073 1087.02 67.1073 Q1095.93 67.1073 1101.11 60.4638 Q1106.34 53.8203 1106.34 42.3968 Q1106.34 30.9327 1101.11 24.2892 Q1095.93 17.6457 1087.02 17.6457 M1098.48 71.4823 L1109.26 83.2704 L1099.37 83.2704 L1090.42 73.5887 Q1089.08 73.6697 1088.35 73.7103 Q1087.67 73.7508 1087.02 73.7508 Q1074.26 73.7508 1066.6 65.2439 Q1058.98 56.6965 1058.98 42.3968 Q1058.98 28.0566 1066.6 19.5497 Q1074.26 11.0023 1087.02 11.0023 Q1099.74 11.0023 1107.35 19.5497 Q1114.97 28.0566 1114.97 42.3968 Q1114.97 52.9291 1110.71 60.4233 Q1106.5 67.9175 1098.48 71.4823 Z" fill="#000000" fill-rule="nonzero" fill-opacity="1" /><path clip-path="url(#clip290)" d="M1126.68 54.671 L1126.68 27.2059 L1134.13 27.2059 L1134.13 54.3874 Q1134.13 60.8284 1136.64 64.0691 Q1139.15 67.2693 1144.18 67.2693 Q1150.21 67.2693 1153.69 63.421 Q1157.22 59.5726 1157.22 52.9291 L1157.22 27.2059 L1164.67 27.2059 L1164.67 72.576 L1157.22 72.576 L1157.22 65.6084 Q1154.5 69.7404 1150.9 71.7658 Q1147.33 73.7508 1142.6 73.7508 Q1134.78 73.7508 1130.73 68.8897 Q1126.68 64.0286 1126.68 54.671 M1145.43 26.1121 L1145.43 26.1121 Z" fill="#000000" fill-rule="nonzero" fill-opacity="1" /><path clip-path="url(#clip290)" d="M1200.64 49.7694 Q1191.61 49.7694 1188.13 51.8354 Q1184.64 53.9013 1184.64 58.8839 Q1184.64 62.8538 1187.24 65.2034 Q1189.87 67.5124 1194.37 67.5124 Q1200.56 67.5124 1204.29 63.1374 Q1208.06 58.7219 1208.06 51.4303 L1208.06 49.7694 L1200.64 49.7694 M1215.51 46.6907 L1215.51 72.576 L1208.06 72.576 L1208.06 65.6895 Q1205.51 69.8214 1201.7 71.8063 Q1197.89 73.7508 1192.38 73.7508 Q1185.41 73.7508 1181.28 69.8619 Q1177.19 65.9325 1177.19 59.3701 Q1177.19 51.7138 1182.29 47.825 Q1187.44 43.9361 1197.61 43.9361 L1208.06 43.9361 L1208.06 43.2069 Q1208.06 38.0623 1204.66 35.2672 Q1201.29 32.4315 1195.18 32.4315 Q1191.29 32.4315 1187.6 33.3632 Q1183.91 34.295 1180.51 36.1584 L1180.51 29.2718 Q1184.6 27.692 1188.45 26.9223 Q1192.3 26.1121 1195.95 26.1121 Q1205.79 26.1121 1210.65 31.2163 Q1215.51 36.3204 1215.51 46.6907 Z" fill="#000000" fill-rule="nonzero" fill-opacity="1" /><path clip-path="url(#clip290)" d="M1268.58 45.1919 L1268.58 72.576 L1261.12 72.576 L1261.12 45.4349 Q1261.12 38.994 1258.61 35.7938 Q1256.1 32.5936 1251.08 32.5936 Q1245.04 32.5936 1241.56 36.4419 Q1238.08 40.2903 1238.08 46.9338 L1238.08 72.576 L1230.58 72.576 L1230.58 27.2059 L1238.08 27.2059 L1238.08 34.2544 Q1240.75 30.163 1244.35 28.1376 Q1248 26.1121 1252.74 26.1121 Q1260.56 26.1121 1264.57 30.9732 Q1268.58 35.7938 1268.58 45.1919 Z" fill="#000000" fill-rule="nonzero" fill-opacity="1" /><path clip-path="url(#clip290)" d="M1290.82 14.324 L1290.82 27.2059 L1306.17 27.2059 L1306.17 32.9987 L1290.82 32.9987 L1290.82 57.6282 Q1290.82 63.1779 1292.32 64.7578 Q1293.86 66.3376 1298.51 66.3376 L1306.17 66.3376 L1306.17 72.576 L1298.51 72.576 Q1289.89 72.576 1286.6 69.3758 Q1283.32 66.1351 1283.32 57.6282 L1283.32 32.9987 L1277.85 32.9987 L1277.85 27.2059 L1283.32 27.2059 L1283.32 14.324 L1290.82 14.324 Z" fill="#000000" fill-rule="nonzero" fill-opacity="1" /><path clip-path="url(#clip290)" d="M1315.97 27.2059 L1323.43 27.2059 L1323.43 72.576 L1315.97 72.576 L1315.97 27.2059 M1315.97 9.54393 L1323.43 9.54393 L1323.43 18.9825 L1315.97 18.9825 L1315.97 9.54393 Z" fill="#000000" fill-rule="nonzero" fill-opacity="1" /><path clip-path="url(#clip290)" d="M1339.02 9.54393 L1346.48 9.54393 L1346.48 72.576 L1339.02 72.576 L1339.02 9.54393 Z" fill="#000000" fill-rule="nonzero" fill-opacity="1" /><path clip-path="url(#clip290)" d="M1400.88 48.0275 L1400.88 51.6733 L1366.61 51.6733 Q1367.1 59.3701 1371.23 63.421 Q1375.4 67.4314 1382.81 67.4314 Q1387.11 67.4314 1391.12 66.3781 Q1395.17 65.3249 1399.14 63.2184 L1399.14 70.267 Q1395.13 71.9684 1390.92 72.8596 Q1386.7 73.7508 1382.37 73.7508 Q1371.51 73.7508 1365.15 67.4314 Q1358.83 61.1119 1358.83 50.3365 Q1358.83 39.1965 1364.83 32.6746 Q1370.86 26.1121 1381.07 26.1121 Q1390.23 26.1121 1395.53 32.0264 Q1400.88 37.9003 1400.88 48.0275 M1393.43 45.84 Q1393.35 39.7232 1389.98 36.0774 Q1386.66 32.4315 1381.15 32.4315 Q1374.91 32.4315 1371.15 35.9558 Q1367.42 39.4801 1366.85 45.8805 L1393.43 45.84 Z" fill="#000000" fill-rule="nonzero" fill-opacity="1" /><path clip-path="url(#clip290)" d="M1462.45 9.54393 L1462.45 15.7418 L1455.33 15.7418 Q1451.31 15.7418 1449.73 17.3622 Q1448.2 18.9825 1448.2 23.1955 L1448.2 27.2059 L1460.47 27.2059 L1460.47 32.9987 L1448.2 32.9987 L1448.2 72.576 L1440.7 72.576 L1440.7 32.9987 L1433.57 32.9987 L1433.57 27.2059 L1440.7 27.2059 L1440.7 24.0462 Q1440.7 16.471 1444.23 13.0277 Q1447.75 9.54393 1455.41 9.54393 L1462.45 9.54393 Z" fill="#000000" fill-rule="nonzero" fill-opacity="1" /><path clip-path="url(#clip290)" d="M1467.92 54.671 L1467.92 27.2059 L1475.38 27.2059 L1475.38 54.3874 Q1475.38 60.8284 1477.89 64.0691 Q1480.4 67.2693 1485.42 67.2693 Q1491.46 67.2693 1494.94 63.421 Q1498.47 59.5726 1498.47 52.9291 L1498.47 27.2059 L1505.92 27.2059 L1505.92 72.576 L1498.47 72.576 L1498.47 65.6084 Q1495.75 69.7404 1492.15 71.7658 Q1488.58 73.7508 1483.84 73.7508 Q1476.03 73.7508 1471.97 68.8897 Q1467.92 64.0286 1467.92 54.671 M1486.68 26.1121 L1486.68 26.1121 Z" fill="#000000" fill-rule="nonzero" fill-opacity="1" /><path clip-path="url(#clip290)" d="M1558.99 45.1919 L1558.99 72.576 L1551.53 72.576 L1551.53 45.4349 Q1551.53 38.994 1549.02 35.7938 Q1546.51 32.5936 1541.49 32.5936 Q1535.45 32.5936 1531.97 36.4419 Q1528.48 40.2903 1528.48 46.9338 L1528.48 72.576 L1520.99 72.576 L1520.99 27.2059 L1528.48 27.2059 L1528.48 34.2544 Q1531.16 30.163 1534.76 28.1376 Q1538.41 26.1121 1543.15 26.1121 Q1550.97 26.1121 1554.98 30.9732 Q1558.99 35.7938 1558.99 45.1919 Z" fill="#000000" fill-rule="nonzero" fill-opacity="1" /><path clip-path="url(#clip290)" d="M1606.5 28.9478 L1606.5 35.9153 Q1603.35 34.1734 1600.14 33.3227 Q1596.99 32.4315 1593.74 32.4315 Q1586.49 32.4315 1582.48 37.0496 Q1578.47 41.6271 1578.47 49.9314 Q1578.47 58.2358 1582.48 62.8538 Q1586.49 67.4314 1593.74 67.4314 Q1596.99 67.4314 1600.14 66.5807 Q1603.35 65.6895 1606.5 63.9476 L1606.5 70.8341 Q1603.39 72.2924 1600.02 73.0216 Q1596.7 73.7508 1592.93 73.7508 Q1582.69 73.7508 1576.65 67.3098 Q1570.61 60.8689 1570.61 49.9314 Q1570.61 38.832 1576.69 32.472 Q1582.81 26.1121 1593.42 26.1121 Q1596.86 26.1121 1600.14 26.8413 Q1603.43 27.5299 1606.5 28.9478 Z" fill="#000000" fill-rule="nonzero" fill-opacity="1" /><path clip-path="url(#clip290)" d="M1626.84 14.324 L1626.84 27.2059 L1642.19 27.2059 L1642.19 32.9987 L1626.84 32.9987 L1626.84 57.6282 Q1626.84 63.1779 1628.34 64.7578 Q1629.88 66.3376 1634.54 66.3376 L1642.19 66.3376 L1642.19 72.576 L1634.54 72.576 Q1625.91 72.576 1622.63 69.3758 Q1619.35 66.1351 1619.35 57.6282 L1619.35 32.9987 L1613.88 32.9987 L1613.88 27.2059 L1619.35 27.2059 L1619.35 14.324 L1626.84 14.324 Z" fill="#000000" fill-rule="nonzero" fill-opacity="1" /><path clip-path="url(#clip290)" d="M1652 27.2059 L1659.45 27.2059 L1659.45 72.576 L1652 72.576 L1652 27.2059 M1652 9.54393 L1659.45 9.54393 L1659.45 18.9825 L1652 18.9825 L1652 9.54393 Z" fill="#000000" fill-rule="nonzero" fill-opacity="1" /><path clip-path="url(#clip290)" d="M1692.63 32.4315 Q1686.63 32.4315 1683.15 37.1306 Q1679.66 41.7891 1679.66 49.9314 Q1679.66 58.0738 1683.11 62.7728 Q1686.59 67.4314 1692.63 67.4314 Q1698.58 67.4314 1702.07 62.7323 Q1705.55 58.0333 1705.55 49.9314 Q1705.55 41.8701 1702.07 37.1711 Q1698.58 32.4315 1692.63 32.4315 M1692.63 26.1121 Q1702.35 26.1121 1707.9 32.4315 Q1713.45 38.7509 1713.45 49.9314 Q1713.45 61.0714 1707.9 67.4314 Q1702.35 73.7508 1692.63 73.7508 Q1682.86 73.7508 1677.31 67.4314 Q1671.81 61.0714 1671.81 49.9314 Q1671.81 38.7509 1677.31 32.4315 Q1682.86 26.1121 1692.63 26.1121 Z" fill="#000000" fill-rule="nonzero" fill-opacity="1" /><path clip-path="url(#clip290)" d="M1763.52 45.1919 L1763.52 72.576 L1756.06 72.576 L1756.06 45.4349 Q1756.06 38.994 1753.55 35.7938 Q1751.04 32.5936 1746.02 32.5936 Q1739.98 32.5936 1736.5 36.4419 Q1733.01 40.2903 1733.01 46.9338 L1733.01 72.576 L1725.52 72.576 L1725.52 27.2059 L1733.01 27.2059 L1733.01 34.2544 Q1735.69 30.163 1739.29 28.1376 Q1742.94 26.1121 1747.68 26.1121 Q1755.5 26.1121 1759.51 30.9732 Q1763.52 35.7938 1763.52 45.1919 Z" fill="#000000" fill-rule="nonzero" fill-opacity="1" /><polyline clip-path="url(#clip292)" style="stroke:#009af9; stroke-linecap:round; stroke-linejoin:round; stroke-width:4; stroke-opacity:1; fill:none" points="274.539,1753.43 297.738,1630.57 320.936,1555.92 344.134,1500.99 367.332,1456.88 390.53,1419.6 413.729,1387.04 436.927,1357.93 460.125,1331.45 483.323,1307.05 506.521,1284.33 529.72,1262.99 552.918,1242.81 576.116,1223.63 599.314,1205.29 622.512,1187.7 645.711,1170.76 668.909,1154.39 692.107,1138.53 715.305,1123.13 738.503,1108.14 761.702,1093.53 784.9,1079.26 808.098,1065.29 831.296,1051.62 854.494,1038.2 877.693,1025.02 900.891,1012.06 924.089,999.314 947.287,986.756 970.485,974.375 993.684,962.159 1016.88,950.099 1040.08,938.183 1063.28,926.402 1086.48,914.748 1109.67,903.214 1132.87,891.791 1156.07,880.474 1179.27,869.255 1202.47,858.13 1225.67,847.092 1248.86,836.137 1272.06,825.259 1295.26,814.455 1318.46,803.719 1341.66,793.049 1364.85,782.439 1388.05,771.887 1411.25,761.389 1434.45,750.94 1457.65,740.539 1480.85,730.181 1504.04,719.865 1527.24,709.585 1550.44,699.341 1573.64,689.128 1596.84,678.945 1620.04,668.787 1643.23,658.652 1666.43,648.538 1689.63,638.442 1712.83,628.36 1736.03,618.289 1759.22,608.227 1782.42,598.171 1805.62,588.117 1828.82,578.062 1852.02,568.002 1875.22,557.933 1898.41,547.852 1921.61,537.755 1944.81,527.636 1968.01,517.492 1991.21,507.316 2014.4,497.103 2037.6,486.846 2060.8,476.537 2084,466.17 2107.2,455.735 2130.4,445.221 2153.59,434.616 2176.79,423.907 2199.99,413.077 2223.19,402.106 2246.39,390.972 2269.58,379.647 2292.78,368.095 2315.98,356.273 2339.18,344.124 2362.38,331.575 2385.58,318.526 2408.77,304.837 2431.97,290.303 2455.17,274.609 2478.37,257.222 2501.57,237.151 2524.76,212.163 2547.96,175.141 "/>
<path clip-path="url(#clip290)" d="M263.714 287.238 L1927.5 287.238 L1927.5 183.558 L263.714 183.558  Z" fill="#ffffff" fill-rule="evenodd" fill-opacity="1"/>
<polyline clip-path="url(#clip290)" style="stroke:#000000; stroke-linecap:round; stroke-linejoin:round; stroke-width:4; stroke-opacity:1; fill:none" points="263.714,287.238 1927.5,287.238 1927.5,183.558 263.714,183.558 263.714,287.238 "/>
<polyline clip-path="url(#clip290)" style="stroke:#009af9; stroke-linecap:round; stroke-linejoin:round; stroke-width:4; stroke-opacity:1; fill:none" points="291.036,235.398 454.97,235.398 "/>
<path clip-path="url(#clip290)" d="M498.311 221.29 Q493.218 221.29 490.209 225.086 Q487.223 228.882 487.223 235.433 Q487.223 241.961 490.209 245.757 Q493.218 249.553 498.311 249.553 Q503.403 249.553 506.366 245.757 Q509.352 241.961 509.352 235.433 Q509.352 228.882 506.366 225.086 Q503.403 221.29 498.311 221.29 M504.862 252.053 L511.019 258.789 L505.371 258.789 L500.255 253.257 Q499.491 253.303 499.075 253.327 Q498.681 253.35 498.311 253.35 Q491.019 253.35 486.644 248.489 Q482.292 243.604 482.292 235.433 Q482.292 227.239 486.644 222.378 Q491.019 217.493 498.311 217.493 Q505.579 217.493 509.931 222.378 Q514.283 227.239 514.283 235.433 Q514.283 241.452 511.852 245.734 Q509.445 250.016 504.862 252.053 Z" fill="#000000" fill-rule="nonzero" fill-opacity="1" /><path clip-path="url(#clip290)" d="M526.273 221.961 L526.273 248.836 L531.922 248.836 Q539.074 248.836 542.384 245.595 Q545.718 242.354 545.718 235.364 Q545.718 228.419 542.384 225.202 Q539.074 221.961 531.922 221.961 L526.273 221.961 M521.598 218.118 L531.204 218.118 Q541.25 218.118 545.949 222.308 Q550.648 226.475 550.648 235.364 Q550.648 244.299 545.926 248.489 Q541.204 252.678 531.204 252.678 L521.598 252.678 L521.598 218.118 Z" fill="#000000" fill-rule="nonzero" fill-opacity="1" /><path clip-path="url(#clip290)" d="M557.917 226.753 L562.176 226.753 L562.176 252.678 L557.917 252.678 L557.917 226.753 M557.917 216.66 L562.176 216.66 L562.176 222.054 L557.917 222.054 L557.917 216.66 Z" fill="#000000" fill-rule="nonzero" fill-opacity="1" /><path clip-path="url(#clip290)" d="M587.616 227.516 L587.616 231.544 Q585.81 230.618 583.866 230.155 Q581.921 229.692 579.838 229.692 Q576.667 229.692 575.069 230.665 Q573.495 231.637 573.495 233.581 Q573.495 235.063 574.63 235.919 Q575.764 236.753 579.19 237.516 L580.648 237.84 Q585.185 238.813 587.083 240.595 Q589.005 242.354 589.005 245.526 Q589.005 249.137 586.134 251.243 Q583.287 253.35 578.287 253.35 Q576.204 253.35 573.935 252.933 Q571.69 252.539 569.19 251.729 L569.19 247.331 Q571.551 248.558 573.843 249.183 Q576.134 249.785 578.38 249.785 Q581.389 249.785 583.009 248.766 Q584.63 247.725 584.63 245.85 Q584.63 244.114 583.449 243.188 Q582.292 242.262 578.333 241.405 L576.852 241.058 Q572.894 240.225 571.134 238.512 Q569.375 236.776 569.375 233.766 Q569.375 230.109 571.968 228.118 Q574.56 226.128 579.329 226.128 Q581.69 226.128 583.773 226.475 Q585.856 226.822 587.616 227.516 Z" fill="#000000" fill-rule="nonzero" fill-opacity="1" /><path clip-path="url(#clip290)" d="M600 219.392 L600 226.753 L608.773 226.753 L608.773 230.063 L600 230.063 L600 244.137 Q600 247.308 600.856 248.211 Q601.736 249.114 604.398 249.114 L608.773 249.114 L608.773 252.678 L604.398 252.678 Q599.468 252.678 597.593 250.85 Q595.718 248.998 595.718 244.137 L595.718 230.063 L592.593 230.063 L592.593 226.753 L595.718 226.753 L595.718 219.392 L600 219.392 Z" fill="#000000" fill-rule="nonzero" fill-opacity="1" /><path clip-path="url(#clip290)" d="M629.398 230.734 Q628.68 230.317 627.824 230.132 Q626.991 229.924 625.972 229.924 Q622.361 229.924 620.416 232.285 Q618.495 234.623 618.495 239.021 L618.495 252.678 L614.213 252.678 L614.213 226.753 L618.495 226.753 L618.495 230.78 Q619.838 228.419 621.991 227.285 Q624.143 226.128 627.222 226.128 Q627.662 226.128 628.194 226.197 Q628.727 226.243 629.375 226.359 L629.398 230.734 Z" fill="#000000" fill-rule="nonzero" fill-opacity="1" /><path clip-path="url(#clip290)" d="M633.865 226.753 L638.125 226.753 L638.125 252.678 L633.865 252.678 L633.865 226.753 M633.865 216.66 L638.125 216.66 L638.125 222.054 L633.865 222.054 L633.865 216.66 Z" fill="#000000" fill-rule="nonzero" fill-opacity="1" /><path clip-path="url(#clip290)" d="M665.648 239.739 Q665.648 235.04 663.703 232.378 Q661.782 229.692 658.402 229.692 Q655.023 229.692 653.078 232.378 Q651.157 235.04 651.157 239.739 Q651.157 244.438 653.078 247.123 Q655.023 249.785 658.402 249.785 Q661.782 249.785 663.703 247.123 Q665.648 244.438 665.648 239.739 M651.157 230.688 Q652.5 228.373 654.537 227.262 Q656.597 226.128 659.444 226.128 Q664.166 226.128 667.106 229.878 Q670.069 233.628 670.069 239.739 Q670.069 245.85 667.106 249.6 Q664.166 253.35 659.444 253.35 Q656.597 253.35 654.537 252.239 Q652.5 251.104 651.157 248.789 L651.157 252.678 L646.875 252.678 L646.875 216.66 L651.157 216.66 L651.157 230.688 Z" fill="#000000" fill-rule="nonzero" fill-opacity="1" /><path clip-path="url(#clip290)" d="M676.689 242.447 L676.689 226.753 L680.949 226.753 L680.949 242.285 Q680.949 245.965 682.384 247.817 Q683.819 249.646 686.689 249.646 Q690.138 249.646 692.129 247.447 Q694.143 245.248 694.143 241.452 L694.143 226.753 L698.402 226.753 L698.402 252.678 L694.143 252.678 L694.143 248.697 Q692.592 251.058 690.532 252.215 Q688.495 253.35 685.786 253.35 Q681.319 253.35 679.004 250.572 Q676.689 247.794 676.689 242.447 M687.407 226.128 L687.407 226.128 Z" fill="#000000" fill-rule="nonzero" fill-opacity="1" /><path clip-path="url(#clip290)" d="M711.388 219.392 L711.388 226.753 L720.161 226.753 L720.161 230.063 L711.388 230.063 L711.388 244.137 Q711.388 247.308 712.245 248.211 Q713.124 249.114 715.786 249.114 L720.161 249.114 L720.161 252.678 L715.786 252.678 Q710.856 252.678 708.981 250.85 Q707.106 248.998 707.106 244.137 L707.106 230.063 L703.981 230.063 L703.981 226.753 L707.106 226.753 L707.106 219.392 L711.388 219.392 Z" fill="#000000" fill-rule="nonzero" fill-opacity="1" /><path clip-path="url(#clip290)" d="M725.763 226.753 L730.022 226.753 L730.022 252.678 L725.763 252.678 L725.763 226.753 M725.763 216.66 L730.022 216.66 L730.022 222.054 L725.763 222.054 L725.763 216.66 Z" fill="#000000" fill-rule="nonzero" fill-opacity="1" /><path clip-path="url(#clip290)" d="M748.981 229.739 Q745.555 229.739 743.564 232.424 Q741.573 235.086 741.573 239.739 Q741.573 244.391 743.541 247.077 Q745.532 249.739 748.981 249.739 Q752.383 249.739 754.374 247.053 Q756.365 244.368 756.365 239.739 Q756.365 235.132 754.374 232.447 Q752.383 229.739 748.981 229.739 M748.981 226.128 Q754.536 226.128 757.707 229.739 Q760.879 233.35 760.879 239.739 Q760.879 246.104 757.707 249.739 Q754.536 253.35 748.981 253.35 Q743.402 253.35 740.231 249.739 Q737.083 246.104 737.083 239.739 Q737.083 233.35 740.231 229.739 Q743.402 226.128 748.981 226.128 Z" fill="#000000" fill-rule="nonzero" fill-opacity="1" /><path clip-path="url(#clip290)" d="M789.49 237.03 L789.49 252.678 L785.23 252.678 L785.23 237.169 Q785.23 233.489 783.795 231.66 Q782.36 229.831 779.49 229.831 Q776.041 229.831 774.05 232.03 Q772.059 234.229 772.059 238.026 L772.059 252.678 L767.777 252.678 L767.777 226.753 L772.059 226.753 L772.059 230.78 Q773.587 228.442 775.647 227.285 Q777.73 226.128 780.439 226.128 Q784.906 226.128 787.198 228.905 Q789.49 231.66 789.49 237.03 Z" fill="#000000" fill-rule="nonzero" fill-opacity="1" /><path clip-path="url(#clip290)" d="M814.513 227.516 L814.513 231.544 Q812.707 230.618 810.763 230.155 Q808.818 229.692 806.735 229.692 Q803.564 229.692 801.966 230.665 Q800.392 231.637 800.392 233.581 Q800.392 235.063 801.527 235.919 Q802.661 236.753 806.087 237.516 L807.545 237.84 Q812.082 238.813 813.98 240.595 Q815.902 242.354 815.902 245.526 Q815.902 249.137 813.031 251.243 Q810.184 253.35 805.184 253.35 Q803.101 253.35 800.832 252.933 Q798.587 252.539 796.087 251.729 L796.087 247.331 Q798.448 248.558 800.74 249.183 Q803.031 249.785 805.277 249.785 Q808.286 249.785 809.906 248.766 Q811.527 247.725 811.527 245.85 Q811.527 244.114 810.346 243.188 Q809.189 242.262 805.23 241.405 L803.749 241.058 Q799.791 240.225 798.031 238.512 Q796.272 236.776 796.272 233.766 Q796.272 230.109 798.865 228.118 Q801.457 226.128 806.226 226.128 Q808.587 226.128 810.67 226.475 Q812.753 226.822 814.513 227.516 Z" fill="#000000" fill-rule="nonzero" fill-opacity="1" /><path clip-path="url(#clip290)" d="M823.286 246.799 L828.17 246.799 L828.17 252.678 L823.286 252.678 L823.286 246.799 Z" fill="#000000" fill-rule="nonzero" fill-opacity="1" /><path clip-path="url(#clip290)" d="M837.938 218.118 L857.799 218.118 L857.799 222.054 L842.614 222.054 L842.614 232.239 L856.318 232.239 L856.318 236.174 L842.614 236.174 L842.614 252.678 L837.938 252.678 L837.938 218.118 Z" fill="#000000" fill-rule="nonzero" fill-opacity="1" /><path clip-path="url(#clip290)" d="M888.772 247.748 L888.772 238.465 L881.133 238.465 L881.133 234.623 L893.401 234.623 L893.401 249.461 Q890.693 251.382 887.429 252.377 Q884.165 253.35 880.461 253.35 Q872.36 253.35 867.776 248.627 Q863.216 243.882 863.216 235.433 Q863.216 226.961 867.776 222.239 Q872.36 217.493 880.461 217.493 Q883.841 217.493 886.873 218.327 Q889.929 219.16 892.498 220.78 L892.498 225.757 Q889.906 223.558 886.989 222.447 Q884.072 221.336 880.855 221.336 Q874.512 221.336 871.318 224.878 Q868.147 228.419 868.147 235.433 Q868.147 242.424 871.318 245.965 Q874.512 249.507 880.855 249.507 Q883.332 249.507 885.276 249.09 Q887.221 248.651 888.772 247.748 Z" fill="#000000" fill-rule="nonzero" fill-opacity="1" /><path clip-path="url(#clip290)" d="M901.943 218.118 L906.619 218.118 L906.619 248.743 L923.447 248.743 L923.447 252.678 L901.943 252.678 L901.943 218.118 Z" fill="#000000" fill-rule="nonzero" fill-opacity="1" /><path clip-path="url(#clip290)" d="M933.031 221.961 L933.031 248.836 L938.679 248.836 Q945.831 248.836 949.142 245.595 Q952.475 242.354 952.475 235.364 Q952.475 228.419 949.142 225.202 Q945.831 221.961 938.679 221.961 L933.031 221.961 M928.355 218.118 L937.961 218.118 Q948.007 218.118 952.706 222.308 Q957.405 226.475 957.405 235.364 Q957.405 244.299 952.683 248.489 Q947.961 252.678 937.961 252.678 L928.355 252.678 L928.355 218.118 Z" fill="#000000" fill-rule="nonzero" fill-opacity="1" /><path clip-path="url(#clip290)" d="M984.442 257.076 L984.442 260.41 L983.007 260.41 Q977.243 260.41 975.276 258.697 Q973.331 256.984 973.331 251.868 L973.331 246.336 Q973.331 242.84 972.081 241.498 Q970.831 240.155 967.544 240.155 L966.132 240.155 L966.132 236.845 L967.544 236.845 Q970.854 236.845 972.081 235.526 Q973.331 234.183 973.331 230.734 L973.331 225.179 Q973.331 220.063 975.276 218.373 Q977.243 216.66 983.007 216.66 L984.442 216.66 L984.442 219.97 L982.868 219.97 Q979.604 219.97 978.609 220.989 Q977.614 222.007 977.614 225.271 L977.614 231.012 Q977.614 234.646 976.549 236.29 Q975.507 237.933 972.961 238.512 Q975.53 239.137 976.572 240.78 Q977.614 242.424 977.614 246.035 L977.614 251.776 Q977.614 255.039 978.609 256.058 Q979.604 257.076 982.868 257.076 L984.442 257.076 Z" fill="#000000" fill-rule="nonzero" fill-opacity="1" /><path clip-path="url(#clip290)" d="M995.021 218.118 L1014.88 218.118 L1014.88 222.054 L999.697 222.054 L999.697 232.239 L1013.4 232.239 L1013.4 236.174 L999.697 236.174 L999.697 252.678 L995.021 252.678 L995.021 218.118 Z" fill="#000000" fill-rule="nonzero" fill-opacity="1" /><path clip-path="url(#clip290)" d="M1022.1 216.66 L1026.36 216.66 L1026.36 252.678 L1022.1 252.678 L1022.1 216.66 Z" fill="#000000" fill-rule="nonzero" fill-opacity="1" /><path clip-path="url(#clip290)" d="M1045.32 229.739 Q1041.9 229.739 1039.9 232.424 Q1037.91 235.086 1037.91 239.739 Q1037.91 244.391 1039.88 247.077 Q1041.87 249.739 1045.32 249.739 Q1048.72 249.739 1050.72 247.053 Q1052.71 244.368 1052.71 239.739 Q1052.71 235.132 1050.72 232.447 Q1048.72 229.739 1045.32 229.739 M1045.32 226.128 Q1050.88 226.128 1054.05 229.739 Q1057.22 233.35 1057.22 239.739 Q1057.22 246.104 1054.05 249.739 Q1050.88 253.35 1045.32 253.35 Q1039.74 253.35 1036.57 249.739 Q1033.42 246.104 1033.42 239.739 Q1033.42 233.35 1036.57 229.739 Q1039.74 226.128 1045.32 226.128 Z" fill="#000000" fill-rule="nonzero" fill-opacity="1" /><path clip-path="url(#clip290)" d="M1076.06 239.646 Q1070.9 239.646 1068.91 240.827 Q1066.92 242.007 1066.92 244.854 Q1066.92 247.123 1068.4 248.465 Q1069.9 249.785 1072.47 249.785 Q1076.02 249.785 1078.15 247.285 Q1080.3 244.762 1080.3 240.595 L1080.3 239.646 L1076.06 239.646 M1084.56 237.887 L1084.56 252.678 L1080.3 252.678 L1080.3 248.743 Q1078.84 251.104 1076.66 252.239 Q1074.49 253.35 1071.34 253.35 Q1067.36 253.35 1065 251.127 Q1062.66 248.882 1062.66 245.132 Q1062.66 240.757 1065.58 238.535 Q1068.52 236.313 1074.33 236.313 L1080.3 236.313 L1080.3 235.896 Q1080.3 232.956 1078.35 231.359 Q1076.43 229.739 1072.94 229.739 Q1070.71 229.739 1068.61 230.271 Q1066.5 230.803 1064.56 231.868 L1064.56 227.933 Q1066.9 227.03 1069.09 226.591 Q1071.29 226.128 1073.38 226.128 Q1079 226.128 1081.78 229.044 Q1084.56 231.961 1084.56 237.887 Z" fill="#000000" fill-rule="nonzero" fill-opacity="1" /><path clip-path="url(#clip290)" d="M1097.54 219.392 L1097.54 226.753 L1106.32 226.753 L1106.32 230.063 L1097.54 230.063 L1097.54 244.137 Q1097.54 247.308 1098.4 248.211 Q1099.28 249.114 1101.94 249.114 L1106.32 249.114 L1106.32 252.678 L1101.94 252.678 Q1097.01 252.678 1095.14 250.85 Q1093.26 248.998 1093.26 244.137 L1093.26 230.063 L1090.14 230.063 L1090.14 226.753 L1093.26 226.753 L1093.26 219.392 L1097.54 219.392 Z" fill="#000000" fill-rule="nonzero" fill-opacity="1" /><path clip-path="url(#clip290)" d="M1123.1 233.535 Q1119.95 233.535 1118.1 235.688 Q1116.27 237.84 1116.27 241.59 Q1116.27 245.317 1118.1 247.493 Q1119.95 249.646 1123.1 249.646 Q1126.25 249.646 1128.08 247.493 Q1129.93 245.317 1129.93 241.59 Q1129.93 237.84 1128.08 235.688 Q1126.25 233.535 1123.1 233.535 M1132.38 218.882 L1132.38 223.141 Q1130.62 222.308 1128.82 221.868 Q1127.03 221.429 1125.27 221.429 Q1120.65 221.429 1118.19 224.554 Q1115.76 227.678 1115.41 233.998 Q1116.78 231.984 1118.84 230.919 Q1120.9 229.831 1123.38 229.831 Q1128.59 229.831 1131.59 233.003 Q1134.63 236.151 1134.63 241.59 Q1134.63 246.915 1131.48 250.132 Q1128.33 253.35 1123.1 253.35 Q1117.1 253.35 1113.93 248.766 Q1110.76 244.16 1110.76 235.433 Q1110.76 227.239 1114.65 222.378 Q1118.54 217.493 1125.09 217.493 Q1126.85 217.493 1128.63 217.841 Q1130.44 218.188 1132.38 218.882 Z" fill="#000000" fill-rule="nonzero" fill-opacity="1" /><path clip-path="url(#clip290)" d="M1155.53 222.192 L1143.72 240.641 L1155.53 240.641 L1155.53 222.192 M1154.3 218.118 L1160.18 218.118 L1160.18 240.641 L1165.11 240.641 L1165.11 244.53 L1160.18 244.53 L1160.18 252.678 L1155.53 252.678 L1155.53 244.53 L1139.93 244.53 L1139.93 240.016 L1154.3 218.118 Z" fill="#000000" fill-rule="nonzero" fill-opacity="1" /><path clip-path="url(#clip290)" d="M1173.7 257.076 L1175.32 257.076 Q1178.56 257.076 1179.53 256.081 Q1180.53 255.086 1180.53 251.776 L1180.53 246.035 Q1180.53 242.424 1181.57 240.78 Q1182.61 239.137 1185.18 238.512 Q1182.61 237.933 1181.57 236.29 Q1180.53 234.646 1180.53 231.012 L1180.53 225.271 Q1180.53 221.984 1179.53 220.989 Q1178.56 219.97 1175.32 219.97 L1173.7 219.97 L1173.7 216.66 L1175.16 216.66 Q1180.92 216.66 1182.84 218.373 Q1184.79 220.063 1184.79 225.179 L1184.79 230.734 Q1184.79 234.183 1186.04 235.526 Q1187.29 236.845 1190.58 236.845 L1192.01 236.845 L1192.01 240.155 L1190.58 240.155 Q1187.29 240.155 1186.04 241.498 Q1184.79 242.84 1184.79 246.336 L1184.79 251.868 Q1184.79 256.984 1182.84 258.697 Q1180.92 260.41 1175.16 260.41 L1173.7 260.41 L1173.7 257.076 Z" fill="#000000" fill-rule="nonzero" fill-opacity="1" /><path clip-path="url(#clip290)" d="M1212.64 216.706 Q1209.53 222.03 1208.03 227.239 Q1206.52 232.447 1206.52 237.794 Q1206.52 243.141 1208.03 248.396 Q1209.56 253.627 1212.64 258.928 L1208.93 258.928 Q1205.46 253.489 1203.72 248.234 Q1202.01 242.979 1202.01 237.794 Q1202.01 232.632 1203.72 227.401 Q1205.44 222.169 1208.93 216.706 L1212.64 216.706 Z" fill="#000000" fill-rule="nonzero" fill-opacity="1" /><path clip-path="url(#clip290)" d="M1236.02 240.618 L1235 235.271 Q1233.95 229.785 1229.83 229.785 Q1226.73 229.785 1225.32 232.331 Q1223.54 235.526 1223.54 239.739 Q1223.54 244.831 1225.27 247.262 Q1227.03 249.739 1229.83 249.739 Q1232.94 249.739 1234.6 244.808 L1236.02 240.618 M1238.4 233.535 L1240.69 226.753 L1244.49 226.753 L1239.74 240.803 L1240.67 245.873 Q1240.88 247.007 1241.69 247.956 Q1242.64 249.067 1243.38 249.067 L1245.41 249.067 L1245.41 252.678 L1242.87 252.678 Q1240.69 252.678 1238.75 250.734 Q1237.8 249.762 1237.4 247.725 Q1236.34 250.294 1234.16 252.308 Q1233.14 253.257 1229.83 253.257 Q1224.39 253.257 1221.76 249.739 Q1219.05 246.104 1219.05 239.739 Q1219.05 232.933 1221.99 229.739 Q1225.25 226.174 1229.83 226.174 Q1237.03 226.174 1238.4 233.535 Z" fill="#000000" fill-rule="nonzero" fill-opacity="1" /><path clip-path="url(#clip290)" d="M1252.7 231.151 L1282.38 231.151 L1282.38 235.04 L1252.7 235.04 L1252.7 231.151 M1252.7 240.595 L1282.38 240.595 L1282.38 244.53 L1252.7 244.53 L1252.7 240.595 Z" fill="#000000" fill-rule="nonzero" fill-opacity="1" /><path clip-path="url(#clip290)" d="M1293.28 248.743 L1300.92 248.743 L1300.92 222.378 L1292.61 224.044 L1292.61 219.785 L1300.88 218.118 L1305.55 218.118 L1305.55 248.743 L1313.19 248.743 L1313.19 252.678 L1293.28 252.678 L1293.28 248.743 Z" fill="#000000" fill-rule="nonzero" fill-opacity="1" /><path clip-path="url(#clip290)" d="M1322.63 246.799 L1327.52 246.799 L1327.52 252.678 L1322.63 252.678 L1322.63 246.799 Z" fill="#000000" fill-rule="nonzero" fill-opacity="1" /><path clip-path="url(#clip290)" d="M1347.7 221.197 Q1344.09 221.197 1342.26 224.762 Q1340.46 228.303 1340.46 235.433 Q1340.46 242.54 1342.26 246.104 Q1344.09 249.646 1347.7 249.646 Q1351.34 249.646 1353.14 246.104 Q1354.97 242.54 1354.97 235.433 Q1354.97 228.303 1353.14 224.762 Q1351.34 221.197 1347.7 221.197 M1347.7 217.493 Q1353.51 217.493 1356.57 222.1 Q1359.65 226.683 1359.65 235.433 Q1359.65 244.16 1356.57 248.766 Q1353.51 253.35 1347.7 253.35 Q1341.89 253.35 1338.82 248.766 Q1335.76 244.16 1335.76 235.433 Q1335.76 226.683 1338.82 222.1 Q1341.89 217.493 1347.7 217.493 Z" fill="#000000" fill-rule="nonzero" fill-opacity="1" /><path clip-path="url(#clip290)" d="M1368.35 246.799 L1373.24 246.799 L1373.24 250.78 L1369.44 258.188 L1366.45 258.188 L1368.35 250.78 L1368.35 246.799 Z" fill="#000000" fill-rule="nonzero" fill-opacity="1" /><path clip-path="url(#clip290)" d="M1401.66 251.081 L1401.66 262.539 L1397.38 262.539 L1397.38 226.915 Q1397.38 216.359 1407.24 216.359 Q1417.29 216.359 1417.29 225.271 Q1417.29 231.614 1413.31 233.928 Q1419.79 236.012 1419.79 242.192 Q1419.79 253.164 1408.63 253.164 Q1403.72 253.164 1401.66 251.081 M1401.66 245.526 Q1404.23 249.53 1408.79 249.53 Q1415.46 249.53 1415.46 242.262 Q1415.46 235.734 1404.72 236.243 L1404.72 232.308 Q1413.12 232.308 1413.12 224.901 Q1413.12 219.831 1407.7 219.831 Q1401.66 219.831 1401.66 227.054 L1401.66 245.526 Z" fill="#000000" fill-rule="nonzero" fill-opacity="1" /><path clip-path="url(#clip290)" d="M1428.21 231.151 L1457.89 231.151 L1457.89 235.04 L1428.21 235.04 L1428.21 231.151 M1428.21 240.595 L1457.89 240.595 L1457.89 244.53 L1428.21 244.53 L1428.21 240.595 Z" fill="#000000" fill-rule="nonzero" fill-opacity="1" /><path clip-path="url(#clip290)" d="M1468.03 218.118 L1486.38 218.118 L1486.38 222.054 L1472.31 222.054 L1472.31 230.526 Q1473.33 230.178 1474.35 230.016 Q1475.37 229.831 1476.38 229.831 Q1482.17 229.831 1485.55 233.003 Q1488.93 236.174 1488.93 241.59 Q1488.93 247.169 1485.46 250.271 Q1481.99 253.35 1475.67 253.35 Q1473.49 253.35 1471.22 252.979 Q1468.98 252.609 1466.57 251.868 L1466.57 247.169 Q1468.65 248.303 1470.87 248.859 Q1473.1 249.414 1475.57 249.414 Q1479.58 249.414 1481.92 247.308 Q1484.25 245.202 1484.25 241.59 Q1484.25 237.979 1481.92 235.873 Q1479.58 233.766 1475.57 233.766 Q1473.7 233.766 1471.82 234.183 Q1469.97 234.6 1468.03 235.479 L1468.03 218.118 Z" fill="#000000" fill-rule="nonzero" fill-opacity="1" /><path clip-path="url(#clip290)" d="M1498.14 246.799 L1503.03 246.799 L1503.03 252.678 L1498.14 252.678 L1498.14 246.799 Z" fill="#000000" fill-rule="nonzero" fill-opacity="1" /><path clip-path="url(#clip290)" d="M1523.21 221.197 Q1519.6 221.197 1517.77 224.762 Q1515.97 228.303 1515.97 235.433 Q1515.97 242.54 1517.77 246.104 Q1519.6 249.646 1523.21 249.646 Q1526.85 249.646 1528.65 246.104 Q1530.48 242.54 1530.48 235.433 Q1530.48 228.303 1528.65 224.762 Q1526.85 221.197 1523.21 221.197 M1523.21 217.493 Q1529.02 217.493 1532.08 222.1 Q1535.16 226.683 1535.16 235.433 Q1535.16 244.16 1532.08 248.766 Q1529.02 253.35 1523.21 253.35 Q1517.4 253.35 1514.32 248.766 Q1511.27 244.16 1511.27 235.433 Q1511.27 226.683 1514.32 222.1 Q1517.4 217.493 1523.21 217.493 Z" fill="#000000" fill-rule="nonzero" fill-opacity="1" /><path clip-path="url(#clip290)" d="M1543.86 246.799 L1548.74 246.799 L1548.74 250.78 L1544.95 258.188 L1541.96 258.188 L1543.86 250.78 L1543.86 246.799 Z" fill="#000000" fill-rule="nonzero" fill-opacity="1" /><path clip-path="url(#clip290)" d="M1591.68 222.655 Q1589.32 221.035 1583.79 221.035 Q1577.93 221.035 1577.93 223.743 Q1577.93 225.873 1584.05 226.984 Q1588.86 227.841 1591.57 230.433 Q1594.86 233.558 1594.86 239.97 Q1594.86 246.104 1591.68 249.715 Q1588.51 253.35 1582.96 253.35 Q1577.43 253.35 1574.23 249.715 Q1571.06 246.104 1571.06 239.739 Q1571.06 235.016 1574.23 231.197 Q1575.46 229.716 1577.19 228.882 Q1573.58 227.054 1573.58 223.79 Q1573.58 217.493 1583.79 217.493 Q1588.91 217.493 1591.68 219.114 L1591.68 222.655 M1580.39 230.04 Q1578.81 230.711 1577.54 232.401 Q1575.55 235.016 1575.55 239.739 Q1575.55 244.438 1577.52 247.077 Q1579.51 249.739 1582.96 249.739 Q1586.36 249.739 1588.35 247.053 Q1590.34 244.368 1590.34 239.97 Q1590.34 235.364 1588.24 233.141 Q1585.99 230.757 1583.07 230.503 Q1581.59 230.364 1580.39 230.04 Z" fill="#000000" fill-rule="nonzero" fill-opacity="1" /><path clip-path="url(#clip290)" d="M1602.47 231.151 L1632.15 231.151 L1632.15 235.04 L1602.47 235.04 L1602.47 231.151 M1602.47 240.595 L1632.15 240.595 L1632.15 244.53 L1602.47 244.53 L1602.47 240.595 Z" fill="#000000" fill-rule="nonzero" fill-opacity="1" /><path clip-path="url(#clip290)" d="M1652.24 221.197 Q1648.63 221.197 1646.8 224.762 Q1644.99 228.303 1644.99 235.433 Q1644.99 242.54 1646.8 246.104 Q1648.63 249.646 1652.24 249.646 Q1655.87 249.646 1657.68 246.104 Q1659.51 242.54 1659.51 235.433 Q1659.51 228.303 1657.68 224.762 Q1655.87 221.197 1652.24 221.197 M1652.24 217.493 Q1658.05 217.493 1661.11 222.1 Q1664.18 226.683 1664.18 235.433 Q1664.18 244.16 1661.11 248.766 Q1658.05 253.35 1652.24 253.35 Q1646.43 253.35 1643.35 248.766 Q1640.3 244.16 1640.3 235.433 Q1640.3 226.683 1643.35 222.1 Q1646.43 217.493 1652.24 217.493 Z" fill="#000000" fill-rule="nonzero" fill-opacity="1" /><path clip-path="url(#clip290)" d="M1672.4 246.799 L1677.29 246.799 L1677.29 252.678 L1672.4 252.678 L1672.4 246.799 Z" fill="#000000" fill-rule="nonzero" fill-opacity="1" /><path clip-path="url(#clip290)" d="M1691.5 248.743 L1707.82 248.743 L1707.82 252.678 L1685.87 252.678 L1685.87 248.743 Q1688.54 245.989 1693.12 241.359 Q1697.73 236.706 1698.91 235.364 Q1701.15 232.841 1702.03 231.104 Q1702.93 229.345 1702.93 227.655 Q1702.93 224.901 1700.99 223.165 Q1699.07 221.429 1695.97 221.429 Q1693.77 221.429 1691.31 222.192 Q1688.88 222.956 1686.11 224.507 L1686.11 219.785 Q1688.93 218.651 1691.38 218.072 Q1693.84 217.493 1695.87 217.493 Q1701.24 217.493 1704.44 220.179 Q1707.63 222.864 1707.63 227.354 Q1707.63 229.484 1706.82 231.405 Q1706.04 233.303 1703.93 235.896 Q1703.35 236.567 1700.25 239.785 Q1697.15 242.979 1691.5 248.743 Z" fill="#000000" fill-rule="nonzero" fill-opacity="1" /><path clip-path="url(#clip290)" d="M1718.12 246.799 L1723 246.799 L1723 250.78 L1719.21 258.188 L1716.22 258.188 L1718.12 250.78 L1718.12 246.799 Z" fill="#000000" fill-rule="nonzero" fill-opacity="1" /><path clip-path="url(#clip290)" d="M1747.12 226.753 L1751.52 226.753 L1751.52 237.516 L1762.7 226.753 L1767.89 226.753 L1757.68 236.521 L1769.48 252.678 L1764.28 252.678 L1754.69 239.299 L1751.52 242.285 L1751.52 252.678 L1747.12 252.678 L1747.12 226.753 Z" fill="#000000" fill-rule="nonzero" fill-opacity="1" /><path clip-path="url(#clip290)" d="M1775.66 231.151 L1805.34 231.151 L1805.34 235.04 L1775.66 235.04 L1775.66 231.151 M1775.66 240.595 L1805.34 240.595 L1805.34 244.53 L1775.66 244.53 L1775.66 240.595 Z" fill="#000000" fill-rule="nonzero" fill-opacity="1" /><path clip-path="url(#clip290)" d="M1829.6 234.044 Q1832.96 234.762 1834.83 237.03 Q1836.73 239.299 1836.73 242.632 Q1836.73 247.748 1833.21 250.549 Q1829.69 253.35 1823.21 253.35 Q1821.04 253.35 1818.72 252.91 Q1816.43 252.493 1813.97 251.637 L1813.97 247.123 Q1815.92 248.257 1818.23 248.836 Q1820.55 249.414 1823.07 249.414 Q1827.47 249.414 1829.76 247.678 Q1832.08 245.942 1832.08 242.632 Q1832.08 239.577 1829.92 237.864 Q1827.79 236.128 1823.97 236.128 L1819.95 236.128 L1819.95 232.285 L1824.16 232.285 Q1827.61 232.285 1829.44 230.919 Q1831.27 229.53 1831.27 226.938 Q1831.27 224.276 1829.37 222.864 Q1827.49 221.429 1823.97 221.429 Q1822.05 221.429 1819.85 221.845 Q1817.66 222.262 1815.02 223.141 L1815.02 218.975 Q1817.68 218.234 1819.99 217.864 Q1822.33 217.493 1824.39 217.493 Q1829.72 217.493 1832.82 219.924 Q1835.92 222.331 1835.92 226.452 Q1835.92 229.322 1834.28 231.313 Q1832.63 233.28 1829.6 234.044 Z" fill="#000000" fill-rule="nonzero" fill-opacity="1" /><path clip-path="url(#clip290)" d="M1845.6 246.799 L1850.48 246.799 L1850.48 252.678 L1845.6 252.678 L1845.6 246.799 Z" fill="#000000" fill-rule="nonzero" fill-opacity="1" /><path clip-path="url(#clip290)" d="M1870.66 221.197 Q1867.05 221.197 1865.22 224.762 Q1863.42 228.303 1863.42 235.433 Q1863.42 242.54 1865.22 246.104 Q1867.05 249.646 1870.66 249.646 Q1874.3 249.646 1876.1 246.104 Q1877.93 242.54 1877.93 235.433 Q1877.93 228.303 1876.1 224.762 Q1874.3 221.197 1870.66 221.197 M1870.66 217.493 Q1876.47 217.493 1879.53 222.1 Q1882.61 226.683 1882.61 235.433 Q1882.61 244.16 1879.53 248.766 Q1876.47 253.35 1870.66 253.35 Q1864.85 253.35 1861.78 248.766 Q1858.72 244.16 1858.72 235.433 Q1858.72 226.683 1861.78 222.1 Q1864.85 217.493 1870.66 217.493 Z" fill="#000000" fill-rule="nonzero" fill-opacity="1" /><path clip-path="url(#clip290)" d="M1889.55 216.706 L1893.26 216.706 Q1896.73 222.169 1898.44 227.401 Q1900.18 232.632 1900.18 237.794 Q1900.18 242.979 1898.44 248.234 Q1896.73 253.489 1893.26 258.928 L1889.55 258.928 Q1892.63 253.627 1894.14 248.396 Q1895.66 243.141 1895.66 237.794 Q1895.66 232.447 1894.14 227.239 Q1892.63 222.03 1889.55 216.706 Z" fill="#000000" fill-rule="nonzero" fill-opacity="1" /></svg>
