<?xml version="1.0" encoding="utf-8"?>
<svg xmlns="http://www.w3.org/2000/svg" xmlns:xlink="http://www.w3.org/1999/xlink" width="672" height="480" viewBox="0 0 2688 1920">
<defs>
  <clipPath id="clip210">
    <rect x="0" y="0" width="2688" height="1920"/>
  </clipPath>
</defs>
<path clip-path="url(#clip210)" d="M0 1920 L2688 1920 L2688 0 L0 0  Z" fill="#ffffff" fill-rule="evenodd" fill-opacity="1"/>
<defs>
  <clipPath id="clip211">
    <rect x="537" y="0" width="1883" height="1883"/>
  </clipPath>
</defs>
<path clip-path="url(#clip210)" d="M219.316 1800.78 L2640.76 1800.78 L2640.76 127.792 L219.316 127.792  Z" fill="#ffffff" fill-rule="evenodd" fill-opacity="1"/>
<defs>
  <clipPath id="clip212">
    <rect x="219" y="127" width="2422" height="1674"/>
  </clipPath>
</defs>
<polyline clip-path="url(#clip212)" style="stroke:#000000; stroke-linecap:round; stroke-linejoin:round; stroke-width:2; stroke-opacity:0.1; fill:none" points="399.832,1800.78 399.832,127.792 "/>
<polyline clip-path="url(#clip212)" style="stroke:#000000; stroke-linecap:round; stroke-linejoin:round; stroke-width:2; stroke-opacity:0.1; fill:none" points="883.528,1800.78 883.528,127.792 "/>
<polyline clip-path="url(#clip212)" style="stroke:#000000; stroke-linecap:round; stroke-linejoin:round; stroke-width:2; stroke-opacity:0.1; fill:none" points="1367.22,1800.78 1367.22,127.792 "/>
<polyline clip-path="url(#clip212)" style="stroke:#000000; stroke-linecap:round; stroke-linejoin:round; stroke-width:2; stroke-opacity:0.1; fill:none" points="1850.92,1800.78 1850.92,127.792 "/>
<polyline clip-path="url(#clip212)" style="stroke:#000000; stroke-linecap:round; stroke-linejoin:round; stroke-width:2; stroke-opacity:0.1; fill:none" points="2334.61,1800.78 2334.61,127.792 "/>
<polyline clip-path="url(#clip210)" style="stroke:#000000; stroke-linecap:round; stroke-linejoin:round; stroke-width:4; stroke-opacity:1; fill:none" points="219.316,1800.78 2640.76,1800.78 "/>
<polyline clip-path="url(#clip210)" style="stroke:#000000; stroke-linecap:round; stroke-linejoin:round; stroke-width:4; stroke-opacity:1; fill:none" points="399.832,1800.78 399.832,1781.88 "/>
<polyline clip-path="url(#clip210)" style="stroke:#000000; stroke-linecap:round; stroke-linejoin:round; stroke-width:4; stroke-opacity:1; fill:none" points="883.528,1800.78 883.528,1781.88 "/>
<polyline clip-path="url(#clip210)" style="stroke:#000000; stroke-linecap:round; stroke-linejoin:round; stroke-width:4; stroke-opacity:1; fill:none" points="1367.22,1800.78 1367.22,1781.88 "/>
<polyline clip-path="url(#clip210)" style="stroke:#000000; stroke-linecap:round; stroke-linejoin:round; stroke-width:4; stroke-opacity:1; fill:none" points="1850.92,1800.78 1850.92,1781.88 "/>
<polyline clip-path="url(#clip210)" style="stroke:#000000; stroke-linecap:round; stroke-linejoin:round; stroke-width:4; stroke-opacity:1; fill:none" points="2334.61,1800.78 2334.61,1781.88 "/>
<path clip-path="url(#clip210)" d="M354.392 1848.65 L384.068 1848.65 L384.068 1852.59 L354.392 1852.59 L354.392 1848.65 Z" fill="#000000" fill-rule="nonzero" fill-opacity="1" /><path clip-path="url(#clip210)" d="M394.971 1861.55 L402.61 1861.55 L402.61 1835.18 L394.3 1836.85 L394.3 1832.59 L402.563 1830.92 L407.239 1830.92 L407.239 1861.55 L414.878 1861.55 L414.878 1865.48 L394.971 1865.48 L394.971 1861.55 Z" fill="#000000" fill-rule="nonzero" fill-opacity="1" /><path clip-path="url(#clip210)" d="M424.369 1830.92 L442.725 1830.92 L442.725 1834.86 L428.651 1834.86 L428.651 1843.33 Q429.67 1842.98 430.688 1842.82 Q431.707 1842.64 432.725 1842.64 Q438.512 1842.64 441.892 1845.81 Q445.272 1848.98 445.272 1854.4 Q445.272 1859.97 441.799 1863.08 Q438.327 1866.15 432.008 1866.15 Q429.832 1866.15 427.563 1865.78 Q425.318 1865.41 422.911 1864.67 L422.911 1859.97 Q424.994 1861.11 427.216 1861.66 Q429.438 1862.22 431.915 1862.22 Q435.92 1862.22 438.258 1860.11 Q440.596 1858.01 440.596 1854.4 Q440.596 1850.78 438.258 1848.68 Q435.92 1846.57 431.915 1846.57 Q430.04 1846.57 428.165 1846.99 Q426.313 1847.4 424.369 1848.28 L424.369 1830.92 Z" fill="#000000" fill-rule="nonzero" fill-opacity="1" /><path clip-path="url(#clip210)" d="M837.59 1848.65 L867.266 1848.65 L867.266 1852.59 L837.59 1852.59 L837.59 1848.65 Z" fill="#000000" fill-rule="nonzero" fill-opacity="1" /><path clip-path="url(#clip210)" d="M878.169 1861.55 L885.808 1861.55 L885.808 1835.18 L877.497 1836.85 L877.497 1832.59 L885.761 1830.92 L890.437 1830.92 L890.437 1861.55 L898.076 1861.55 L898.076 1865.48 L878.169 1865.48 L878.169 1861.55 Z" fill="#000000" fill-rule="nonzero" fill-opacity="1" /><path clip-path="url(#clip210)" d="M917.52 1834 Q913.909 1834 912.081 1837.57 Q910.275 1841.11 910.275 1848.24 Q910.275 1855.34 912.081 1858.91 Q913.909 1862.45 917.52 1862.45 Q921.155 1862.45 922.96 1858.91 Q924.789 1855.34 924.789 1848.24 Q924.789 1841.11 922.96 1837.57 Q921.155 1834 917.52 1834 M917.52 1830.3 Q923.331 1830.3 926.386 1834.9 Q929.465 1839.49 929.465 1848.24 Q929.465 1856.96 926.386 1861.57 Q923.331 1866.15 917.52 1866.15 Q911.71 1866.15 908.632 1861.57 Q905.576 1856.96 905.576 1848.24 Q905.576 1839.49 908.632 1834.9 Q911.71 1830.3 917.52 1830.3 Z" fill="#000000" fill-rule="nonzero" fill-opacity="1" /><path clip-path="url(#clip210)" d="M1336.86 1848.65 L1366.54 1848.65 L1366.54 1852.59 L1336.86 1852.59 L1336.86 1848.65 Z" fill="#000000" fill-rule="nonzero" fill-opacity="1" /><path clip-path="url(#clip210)" d="M1376.68 1830.92 L1395.04 1830.92 L1395.04 1834.86 L1380.96 1834.86 L1380.96 1843.33 Q1381.98 1842.98 1383 1842.82 Q1384.02 1842.64 1385.04 1842.64 Q1390.82 1842.64 1394.2 1845.81 Q1397.58 1848.98 1397.58 1854.4 Q1397.58 1859.97 1394.11 1863.08 Q1390.64 1866.15 1384.32 1866.15 Q1382.14 1866.15 1379.87 1865.78 Q1377.63 1865.41 1375.22 1864.67 L1375.22 1859.97 Q1377.3 1861.11 1379.53 1861.66 Q1381.75 1862.22 1384.23 1862.22 Q1388.23 1862.22 1390.57 1860.11 Q1392.91 1858.01 1392.91 1854.4 Q1392.91 1850.78 1390.57 1848.68 Q1388.23 1846.57 1384.23 1846.57 Q1382.35 1846.57 1380.48 1846.99 Q1378.62 1847.4 1376.68 1848.28 L1376.68 1830.92 Z" fill="#000000" fill-rule="nonzero" fill-opacity="1" /><path clip-path="url(#clip210)" d="M1850.92 1834 Q1847.31 1834 1845.48 1837.57 Q1843.67 1841.11 1843.67 1848.24 Q1843.67 1855.34 1845.48 1858.91 Q1847.31 1862.45 1850.92 1862.45 Q1854.55 1862.45 1856.36 1858.91 Q1858.19 1855.34 1858.19 1848.24 Q1858.19 1841.11 1856.36 1837.57 Q1854.55 1834 1850.92 1834 M1850.92 1830.3 Q1856.73 1830.3 1859.78 1834.9 Q1862.86 1839.49 1862.86 1848.24 Q1862.86 1856.96 1859.78 1861.57 Q1856.73 1866.15 1850.92 1866.15 Q1845.11 1866.15 1842.03 1861.57 Q1838.97 1856.96 1838.97 1848.24 Q1838.97 1839.49 1842.03 1834.9 Q1845.11 1830.3 1850.92 1830.3 Z" fill="#000000" fill-rule="nonzero" fill-opacity="1" /><path clip-path="url(#clip210)" d="M2324.89 1830.92 L2343.25 1830.92 L2343.25 1834.86 L2329.17 1834.86 L2329.17 1843.33 Q2330.19 1842.98 2331.21 1842.82 Q2332.23 1842.64 2333.25 1842.64 Q2339.04 1842.64 2342.42 1845.81 Q2345.79 1848.98 2345.79 1854.4 Q2345.79 1859.97 2342.32 1863.08 Q2338.85 1866.15 2332.53 1866.15 Q2330.35 1866.15 2328.09 1865.78 Q2325.84 1865.41 2323.43 1864.67 L2323.43 1859.97 Q2325.52 1861.11 2327.74 1861.66 Q2329.96 1862.22 2332.44 1862.22 Q2336.44 1862.22 2338.78 1860.11 Q2341.12 1858.01 2341.12 1854.4 Q2341.12 1850.78 2338.78 1848.68 Q2336.44 1846.57 2332.44 1846.57 Q2330.56 1846.57 2328.69 1846.99 Q2326.84 1847.4 2324.89 1848.28 L2324.89 1830.92 Z" fill="#000000" fill-rule="nonzero" fill-opacity="1" /><polyline clip-path="url(#clip212)" style="stroke:#000000; stroke-linecap:round; stroke-linejoin:round; stroke-width:2; stroke-opacity:0.1; fill:none" points="219.316,1753.43 2640.76,1753.43 "/>
<polyline clip-path="url(#clip212)" style="stroke:#000000; stroke-linecap:round; stroke-linejoin:round; stroke-width:2; stroke-opacity:0.1; fill:none" points="219.316,1416.39 2640.76,1416.39 "/>
<polyline clip-path="url(#clip212)" style="stroke:#000000; stroke-linecap:round; stroke-linejoin:round; stroke-width:2; stroke-opacity:0.1; fill:none" points="219.316,1079.35 2640.76,1079.35 "/>
<polyline clip-path="url(#clip212)" style="stroke:#000000; stroke-linecap:round; stroke-linejoin:round; stroke-width:2; stroke-opacity:0.1; fill:none" points="219.316,742.311 2640.76,742.311 "/>
<polyline clip-path="url(#clip212)" style="stroke:#000000; stroke-linecap:round; stroke-linejoin:round; stroke-width:2; stroke-opacity:0.1; fill:none" points="219.316,405.271 2640.76,405.271 "/>
<polyline clip-path="url(#clip210)" style="stroke:#000000; stroke-linecap:round; stroke-linejoin:round; stroke-width:4; stroke-opacity:1; fill:none" points="219.316,1800.78 219.316,127.792 "/>
<polyline clip-path="url(#clip210)" style="stroke:#000000; stroke-linecap:round; stroke-linejoin:round; stroke-width:4; stroke-opacity:1; fill:none" points="219.316,1753.43 238.214,1753.43 "/>
<polyline clip-path="url(#clip210)" style="stroke:#000000; stroke-linecap:round; stroke-linejoin:round; stroke-width:4; stroke-opacity:1; fill:none" points="219.316,1416.39 238.214,1416.39 "/>
<polyline clip-path="url(#clip210)" style="stroke:#000000; stroke-linecap:round; stroke-linejoin:round; stroke-width:4; stroke-opacity:1; fill:none" points="219.316,1079.35 238.214,1079.35 "/>
<polyline clip-path="url(#clip210)" style="stroke:#000000; stroke-linecap:round; stroke-linejoin:round; stroke-width:4; stroke-opacity:1; fill:none" points="219.316,742.311 238.214,742.311 "/>
<polyline clip-path="url(#clip210)" style="stroke:#000000; stroke-linecap:round; stroke-linejoin:round; stroke-width:4; stroke-opacity:1; fill:none" points="219.316,405.271 238.214,405.271 "/>
<path clip-path="url(#clip210)" d="M61.4965 1739.23 Q57.8854 1739.23 56.0567 1742.79 Q54.2512 1746.34 54.2512 1753.47 Q54.2512 1760.57 56.0567 1764.14 Q57.8854 1767.68 61.4965 1767.68 Q65.1307 1767.68 66.9363 1764.14 Q68.765 1760.57 68.765 1753.47 Q68.765 1746.34 66.9363 1742.79 Q65.1307 1739.23 61.4965 1739.23 M61.4965 1735.53 Q67.3067 1735.53 70.3622 1740.13 Q73.4409 1744.72 73.4409 1753.47 Q73.4409 1762.19 70.3622 1766.8 Q67.3067 1771.38 61.4965 1771.38 Q55.6864 1771.38 52.6077 1766.8 Q49.5521 1762.19 49.5521 1753.47 Q49.5521 1744.72 52.6077 1740.13 Q55.6864 1735.53 61.4965 1735.53 Z" fill="#000000" fill-rule="nonzero" fill-opacity="1" /><path clip-path="url(#clip210)" d="M81.6584 1764.83 L86.5427 1764.83 L86.5427 1770.71 L81.6584 1770.71 L81.6584 1764.83 Z" fill="#000000" fill-rule="nonzero" fill-opacity="1" /><path clip-path="url(#clip210)" d="M106.728 1739.23 Q103.117 1739.23 101.288 1742.79 Q99.4824 1746.34 99.4824 1753.47 Q99.4824 1760.57 101.288 1764.14 Q103.117 1767.68 106.728 1767.68 Q110.362 1767.68 112.168 1764.14 Q113.996 1760.57 113.996 1753.47 Q113.996 1746.34 112.168 1742.79 Q110.362 1739.23 106.728 1739.23 M106.728 1735.53 Q112.538 1735.53 115.593 1740.13 Q118.672 1744.72 118.672 1753.47 Q118.672 1762.19 115.593 1766.8 Q112.538 1771.38 106.728 1771.38 Q100.918 1771.38 97.8389 1766.8 Q94.7834 1762.19 94.7834 1753.47 Q94.7834 1744.72 97.8389 1740.13 Q100.918 1735.53 106.728 1735.53 Z" fill="#000000" fill-rule="nonzero" fill-opacity="1" /><path clip-path="url(#clip210)" d="M136.89 1739.23 Q133.279 1739.23 131.45 1742.79 Q129.644 1746.34 129.644 1753.47 Q129.644 1760.57 131.45 1764.14 Q133.279 1767.68 136.89 1767.68 Q140.524 1767.68 142.329 1764.14 Q144.158 1760.57 144.158 1753.47 Q144.158 1746.34 142.329 1742.79 Q140.524 1739.23 136.89 1739.23 M136.89 1735.53 Q142.7 1735.53 145.755 1740.13 Q148.834 1744.72 148.834 1753.47 Q148.834 1762.19 145.755 1766.8 Q142.7 1771.38 136.89 1771.38 Q131.079 1771.38 128.001 1766.8 Q124.945 1762.19 124.945 1753.47 Q124.945 1744.72 128.001 1740.13 Q131.079 1735.53 136.89 1735.53 Z" fill="#000000" fill-rule="nonzero" fill-opacity="1" /><path clip-path="url(#clip210)" d="M167.051 1739.23 Q163.44 1739.23 161.612 1742.79 Q159.806 1746.34 159.806 1753.47 Q159.806 1760.57 161.612 1764.14 Q163.44 1767.68 167.051 1767.68 Q170.686 1767.68 172.491 1764.14 Q174.32 1760.57 174.32 1753.47 Q174.32 1746.34 172.491 1742.79 Q170.686 1739.23 167.051 1739.23 M167.051 1735.53 Q172.862 1735.53 175.917 1740.13 Q178.996 1744.72 178.996 1753.47 Q178.996 1762.19 175.917 1766.8 Q172.862 1771.38 167.051 1771.38 Q161.241 1771.38 158.163 1766.8 Q155.107 1762.19 155.107 1753.47 Q155.107 1744.72 158.163 1740.13 Q161.241 1735.53 167.051 1735.53 Z" fill="#000000" fill-rule="nonzero" fill-opacity="1" /><path clip-path="url(#clip210)" d="M62.4919 1402.19 Q58.8808 1402.19 57.0521 1405.75 Q55.2465 1409.3 55.2465 1416.43 Q55.2465 1423.53 57.0521 1427.1 Q58.8808 1430.64 62.4919 1430.64 Q66.1261 1430.64 67.9317 1427.1 Q69.7604 1423.53 69.7604 1416.43 Q69.7604 1409.3 67.9317 1405.75 Q66.1261 1402.19 62.4919 1402.19 M62.4919 1398.49 Q68.302 1398.49 71.3576 1403.09 Q74.4363 1407.68 74.4363 1416.43 Q74.4363 1425.15 71.3576 1429.76 Q68.302 1434.34 62.4919 1434.34 Q56.6817 1434.34 53.603 1429.76 Q50.5475 1425.15 50.5475 1416.43 Q50.5475 1407.68 53.603 1403.09 Q56.6817 1398.49 62.4919 1398.49 Z" fill="#000000" fill-rule="nonzero" fill-opacity="1" /><path clip-path="url(#clip210)" d="M82.6538 1427.79 L87.538 1427.79 L87.538 1433.67 L82.6538 1433.67 L82.6538 1427.79 Z" fill="#000000" fill-rule="nonzero" fill-opacity="1" /><path clip-path="url(#clip210)" d="M107.723 1402.19 Q104.112 1402.19 102.283 1405.75 Q100.478 1409.3 100.478 1416.43 Q100.478 1423.53 102.283 1427.1 Q104.112 1430.64 107.723 1430.64 Q111.357 1430.64 113.163 1427.1 Q114.992 1423.53 114.992 1416.43 Q114.992 1409.3 113.163 1405.75 Q111.357 1402.19 107.723 1402.19 M107.723 1398.49 Q113.533 1398.49 116.589 1403.09 Q119.667 1407.68 119.667 1416.43 Q119.667 1425.15 116.589 1429.76 Q113.533 1434.34 107.723 1434.34 Q101.913 1434.34 98.8343 1429.76 Q95.7787 1425.15 95.7787 1416.43 Q95.7787 1407.68 98.8343 1403.09 Q101.913 1398.49 107.723 1398.49 Z" fill="#000000" fill-rule="nonzero" fill-opacity="1" /><path clip-path="url(#clip210)" d="M131.913 1429.74 L148.232 1429.74 L148.232 1433.67 L126.288 1433.67 L126.288 1429.74 Q128.95 1426.98 133.533 1422.35 Q138.14 1417.7 139.32 1416.36 Q141.566 1413.83 142.445 1412.1 Q143.348 1410.34 143.348 1408.65 Q143.348 1405.89 141.403 1404.16 Q139.482 1402.42 136.38 1402.42 Q134.181 1402.42 131.728 1403.18 Q129.297 1403.95 126.519 1405.5 L126.519 1400.78 Q129.343 1399.64 131.797 1399.06 Q134.251 1398.49 136.288 1398.49 Q141.658 1398.49 144.853 1401.17 Q148.047 1403.86 148.047 1408.35 Q148.047 1410.48 147.237 1412.4 Q146.45 1414.3 144.343 1416.89 Q143.765 1417.56 140.663 1420.78 Q137.561 1423.97 131.913 1429.74 Z" fill="#000000" fill-rule="nonzero" fill-opacity="1" /><path clip-path="url(#clip210)" d="M158.093 1399.11 L176.45 1399.11 L176.45 1403.05 L162.376 1403.05 L162.376 1411.52 Q163.394 1411.17 164.413 1411.01 Q165.431 1410.82 166.45 1410.82 Q172.237 1410.82 175.616 1413.99 Q178.996 1417.17 178.996 1422.58 Q178.996 1428.16 175.524 1431.26 Q172.051 1434.34 165.732 1434.34 Q163.556 1434.34 161.288 1433.97 Q159.042 1433.6 156.635 1432.86 L156.635 1428.16 Q158.718 1429.3 160.94 1429.85 Q163.163 1430.41 165.639 1430.41 Q169.644 1430.41 171.982 1428.3 Q174.32 1426.19 174.32 1422.58 Q174.32 1418.97 171.982 1416.87 Q169.644 1414.76 165.639 1414.76 Q163.764 1414.76 161.889 1415.18 Q160.038 1415.59 158.093 1416.47 L158.093 1399.11 Z" fill="#000000" fill-rule="nonzero" fill-opacity="1" /><path clip-path="url(#clip210)" d="M61.4965 1065.15 Q57.8854 1065.15 56.0567 1068.71 Q54.2512 1072.26 54.2512 1079.39 Q54.2512 1086.49 56.0567 1090.06 Q57.8854 1093.6 61.4965 1093.6 Q65.1307 1093.6 66.9363 1090.06 Q68.765 1086.49 68.765 1079.39 Q68.765 1072.26 66.9363 1068.71 Q65.1307 1065.15 61.4965 1065.15 M61.4965 1061.45 Q67.3067 1061.45 70.3622 1066.05 Q73.4409 1070.64 73.4409 1079.39 Q73.4409 1088.11 70.3622 1092.72 Q67.3067 1097.3 61.4965 1097.3 Q55.6864 1097.3 52.6077 1092.72 Q49.5521 1088.11 49.5521 1079.39 Q49.5521 1070.64 52.6077 1066.05 Q55.6864 1061.45 61.4965 1061.45 Z" fill="#000000" fill-rule="nonzero" fill-opacity="1" /><path clip-path="url(#clip210)" d="M81.6584 1090.75 L86.5427 1090.75 L86.5427 1096.63 L81.6584 1096.63 L81.6584 1090.75 Z" fill="#000000" fill-rule="nonzero" fill-opacity="1" /><path clip-path="url(#clip210)" d="M106.728 1065.15 Q103.117 1065.15 101.288 1068.71 Q99.4824 1072.26 99.4824 1079.39 Q99.4824 1086.49 101.288 1090.06 Q103.117 1093.6 106.728 1093.6 Q110.362 1093.6 112.168 1090.06 Q113.996 1086.49 113.996 1079.39 Q113.996 1072.26 112.168 1068.71 Q110.362 1065.15 106.728 1065.15 M106.728 1061.45 Q112.538 1061.45 115.593 1066.05 Q118.672 1070.64 118.672 1079.39 Q118.672 1088.11 115.593 1092.72 Q112.538 1097.3 106.728 1097.3 Q100.918 1097.3 97.8389 1092.72 Q94.7834 1088.11 94.7834 1079.39 Q94.7834 1070.64 97.8389 1066.05 Q100.918 1061.45 106.728 1061.45 Z" fill="#000000" fill-rule="nonzero" fill-opacity="1" /><path clip-path="url(#clip210)" d="M126.936 1062.07 L145.292 1062.07 L145.292 1066.01 L131.218 1066.01 L131.218 1074.48 Q132.237 1074.13 133.255 1073.97 Q134.274 1073.78 135.292 1073.78 Q141.079 1073.78 144.459 1076.96 Q147.839 1080.13 147.839 1085.54 Q147.839 1091.12 144.366 1094.22 Q140.894 1097.3 134.575 1097.3 Q132.399 1097.3 130.13 1096.93 Q127.885 1096.56 125.478 1095.82 L125.478 1091.12 Q127.561 1092.26 129.783 1092.81 Q132.005 1093.37 134.482 1093.37 Q138.487 1093.37 140.825 1091.26 Q143.163 1089.15 143.163 1085.54 Q143.163 1081.93 140.825 1079.83 Q138.487 1077.72 134.482 1077.72 Q132.607 1077.72 130.732 1078.14 Q128.88 1078.55 126.936 1079.43 L126.936 1062.07 Z" fill="#000000" fill-rule="nonzero" fill-opacity="1" /><path clip-path="url(#clip210)" d="M167.051 1065.15 Q163.44 1065.15 161.612 1068.71 Q159.806 1072.26 159.806 1079.39 Q159.806 1086.49 161.612 1090.06 Q163.44 1093.6 167.051 1093.6 Q170.686 1093.6 172.491 1090.06 Q174.32 1086.49 174.32 1079.39 Q174.32 1072.26 172.491 1068.71 Q170.686 1065.15 167.051 1065.15 M167.051 1061.45 Q172.862 1061.45 175.917 1066.05 Q178.996 1070.64 178.996 1079.39 Q178.996 1088.11 175.917 1092.72 Q172.862 1097.3 167.051 1097.3 Q161.241 1097.3 158.163 1092.72 Q155.107 1088.11 155.107 1079.39 Q155.107 1070.64 158.163 1066.05 Q161.241 1061.45 167.051 1061.45 Z" fill="#000000" fill-rule="nonzero" fill-opacity="1" /><path clip-path="url(#clip210)" d="M62.4919 728.11 Q58.8808 728.11 57.0521 731.674 Q55.2465 735.216 55.2465 742.346 Q55.2465 749.452 57.0521 753.017 Q58.8808 756.559 62.4919 756.559 Q66.1261 756.559 67.9317 753.017 Q69.7604 749.452 69.7604 742.346 Q69.7604 735.216 67.9317 731.674 Q66.1261 728.11 62.4919 728.11 M62.4919 724.406 Q68.302 724.406 71.3576 729.012 Q74.4363 733.596 74.4363 742.346 Q74.4363 751.073 71.3576 755.679 Q68.302 760.262 62.4919 760.262 Q56.6817 760.262 53.603 755.679 Q50.5475 751.073 50.5475 742.346 Q50.5475 733.596 53.603 729.012 Q56.6817 724.406 62.4919 724.406 Z" fill="#000000" fill-rule="nonzero" fill-opacity="1" /><path clip-path="url(#clip210)" d="M82.6538 753.711 L87.538 753.711 L87.538 759.591 L82.6538 759.591 L82.6538 753.711 Z" fill="#000000" fill-rule="nonzero" fill-opacity="1" /><path clip-path="url(#clip210)" d="M107.723 728.11 Q104.112 728.11 102.283 731.674 Q100.478 735.216 100.478 742.346 Q100.478 749.452 102.283 753.017 Q104.112 756.559 107.723 756.559 Q111.357 756.559 113.163 753.017 Q114.992 749.452 114.992 742.346 Q114.992 735.216 113.163 731.674 Q111.357 728.11 107.723 728.11 M107.723 724.406 Q113.533 724.406 116.589 729.012 Q119.667 733.596 119.667 742.346 Q119.667 751.073 116.589 755.679 Q113.533 760.262 107.723 760.262 Q101.913 760.262 98.8343 755.679 Q95.7787 751.073 95.7787 742.346 Q95.7787 733.596 98.8343 729.012 Q101.913 724.406 107.723 724.406 Z" fill="#000000" fill-rule="nonzero" fill-opacity="1" /><path clip-path="url(#clip210)" d="M126.704 725.031 L148.927 725.031 L148.927 727.022 L136.38 759.591 L131.496 759.591 L143.302 728.966 L126.704 728.966 L126.704 725.031 Z" fill="#000000" fill-rule="nonzero" fill-opacity="1" /><path clip-path="url(#clip210)" d="M158.093 725.031 L176.45 725.031 L176.45 728.966 L162.376 728.966 L162.376 737.438 Q163.394 737.091 164.413 736.929 Q165.431 736.744 166.45 736.744 Q172.237 736.744 175.616 739.915 Q178.996 743.086 178.996 748.503 Q178.996 754.082 175.524 757.184 Q172.051 760.262 165.732 760.262 Q163.556 760.262 161.288 759.892 Q159.042 759.522 156.635 758.781 L156.635 754.082 Q158.718 755.216 160.94 755.772 Q163.163 756.327 165.639 756.327 Q169.644 756.327 171.982 754.221 Q174.32 752.114 174.32 748.503 Q174.32 744.892 171.982 742.786 Q169.644 740.679 165.639 740.679 Q163.764 740.679 161.889 741.096 Q160.038 741.512 158.093 742.392 L158.093 725.031 Z" fill="#000000" fill-rule="nonzero" fill-opacity="1" /><path clip-path="url(#clip210)" d="M61.4965 391.07 Q57.8854 391.07 56.0567 394.635 Q54.2512 398.176 54.2512 405.306 Q54.2512 412.412 56.0567 415.977 Q57.8854 419.519 61.4965 419.519 Q65.1307 419.519 66.9363 415.977 Q68.765 412.412 68.765 405.306 Q68.765 398.176 66.9363 394.635 Q65.1307 391.07 61.4965 391.07 M61.4965 387.366 Q67.3067 387.366 70.3622 391.973 Q73.4409 396.556 73.4409 405.306 Q73.4409 414.033 70.3622 418.639 Q67.3067 423.222 61.4965 423.222 Q55.6864 423.222 52.6077 418.639 Q49.5521 414.033 49.5521 405.306 Q49.5521 396.556 52.6077 391.973 Q55.6864 387.366 61.4965 387.366 Z" fill="#000000" fill-rule="nonzero" fill-opacity="1" /><path clip-path="url(#clip210)" d="M81.6584 416.672 L86.5427 416.672 L86.5427 422.551 L81.6584 422.551 L81.6584 416.672 Z" fill="#000000" fill-rule="nonzero" fill-opacity="1" /><path clip-path="url(#clip210)" d="M97.538 418.616 L105.177 418.616 L105.177 392.25 L96.8667 393.917 L96.8667 389.658 L105.131 387.991 L109.806 387.991 L109.806 418.616 L117.445 418.616 L117.445 422.551 L97.538 422.551 L97.538 418.616 Z" fill="#000000" fill-rule="nonzero" fill-opacity="1" /><path clip-path="url(#clip210)" d="M136.89 391.07 Q133.279 391.07 131.45 394.635 Q129.644 398.176 129.644 405.306 Q129.644 412.412 131.45 415.977 Q133.279 419.519 136.89 419.519 Q140.524 419.519 142.329 415.977 Q144.158 412.412 144.158 405.306 Q144.158 398.176 142.329 394.635 Q140.524 391.07 136.89 391.07 M136.89 387.366 Q142.7 387.366 145.755 391.973 Q148.834 396.556 148.834 405.306 Q148.834 414.033 145.755 418.639 Q142.7 423.222 136.89 423.222 Q131.079 423.222 128.001 418.639 Q124.945 414.033 124.945 405.306 Q124.945 396.556 128.001 391.973 Q131.079 387.366 136.89 387.366 Z" fill="#000000" fill-rule="nonzero" fill-opacity="1" /><path clip-path="url(#clip210)" d="M167.051 391.07 Q163.44 391.07 161.612 394.635 Q159.806 398.176 159.806 405.306 Q159.806 412.412 161.612 415.977 Q163.44 419.519 167.051 419.519 Q170.686 419.519 172.491 415.977 Q174.32 412.412 174.32 405.306 Q174.32 398.176 172.491 394.635 Q170.686 391.07 167.051 391.07 M167.051 387.366 Q172.862 387.366 175.917 391.973 Q178.996 396.556 178.996 405.306 Q178.996 414.033 175.917 418.639 Q172.862 423.222 167.051 423.222 Q161.241 423.222 158.163 418.639 Q155.107 414.033 155.107 405.306 Q155.107 396.556 158.163 391.973 Q161.241 387.366 167.051 387.366 Z" fill="#000000" fill-rule="nonzero" fill-opacity="1" /><path clip-path="url(#clip210)" d="M909.819 18.8205 L909.819 65.8515 L919.703 65.8515 Q932.22 65.8515 938.013 60.1802 Q943.846 54.509 943.846 42.2752 Q943.846 30.1225 938.013 24.4918 Q932.22 18.8205 919.703 18.8205 L909.819 18.8205 M901.636 12.096 L918.447 12.096 Q936.028 12.096 944.251 19.4281 Q952.475 26.7198 952.475 42.2752 Q952.475 57.9117 944.211 65.2439 Q935.947 72.576 918.447 72.576 L901.636 72.576 L901.636 12.096 Z" fill="#000000" fill-rule="nonzero" fill-opacity="1" /><path clip-path="url(#clip210)" d="M1004 48.0275 L1004 51.6733 L969.732 51.6733 Q970.218 59.3701 974.35 63.421 Q978.522 67.4314 985.935 67.4314 Q990.229 67.4314 994.24 66.3781 Q998.291 65.3249 1002.26 63.2184 L1002.26 70.267 Q998.25 71.9684 994.037 72.8596 Q989.824 73.7508 985.49 73.7508 Q974.633 73.7508 968.273 67.4314 Q961.954 61.1119 961.954 50.3365 Q961.954 39.1965 967.949 32.6746 Q973.985 26.1121 984.193 26.1121 Q993.348 26.1121 998.655 32.0264 Q1004 37.9003 1004 48.0275 M996.549 45.84 Q996.468 39.7232 993.105 36.0774 Q989.784 32.4315 984.274 32.4315 Q978.036 32.4315 974.269 35.9558 Q970.542 39.4801 969.975 45.8805 L996.549 45.84 Z" fill="#000000" fill-rule="nonzero" fill-opacity="1" /><path clip-path="url(#clip210)" d="M1053.95 45.1919 L1053.95 72.576 L1046.5 72.576 L1046.5 45.4349 Q1046.5 38.994 1043.98 35.7938 Q1041.47 32.5936 1036.45 32.5936 Q1030.41 32.5936 1026.93 36.4419 Q1023.45 40.2903 1023.45 46.9338 L1023.45 72.576 L1015.95 72.576 L1015.95 27.2059 L1023.45 27.2059 L1023.45 34.2544 Q1026.12 30.163 1029.73 28.1376 Q1033.37 26.1121 1038.11 26.1121 Q1045.93 26.1121 1049.94 30.9732 Q1053.95 35.7938 1053.95 45.1919 Z" fill="#000000" fill-rule="nonzero" fill-opacity="1" /><path clip-path="url(#clip210)" d="M1097.74 28.5427 L1097.74 35.5912 Q1094.58 33.9709 1091.18 33.1607 Q1087.77 32.3505 1084.13 32.3505 Q1078.58 32.3505 1075.78 34.0519 Q1073.03 35.7533 1073.03 39.156 Q1073.03 41.7486 1075.01 43.2475 Q1077 44.7058 1082.99 46.0426 L1085.55 46.6097 Q1093.49 48.3111 1096.81 51.4303 Q1100.17 54.509 1100.17 60.0587 Q1100.17 66.3781 1095.15 70.0644 Q1090.17 73.7508 1081.42 73.7508 Q1077.77 73.7508 1073.8 73.0216 Q1069.87 72.3329 1065.5 70.9151 L1065.5 63.2184 Q1069.63 65.3654 1073.64 66.4591 Q1077.65 67.5124 1081.58 67.5124 Q1086.84 67.5124 1089.68 65.73 Q1092.51 63.9071 1092.51 60.6258 Q1092.51 57.5877 1090.45 55.9673 Q1088.42 54.3469 1081.5 52.8481 L1078.9 52.2405 Q1071.98 50.7821 1068.9 47.7845 Q1065.82 44.7463 1065.82 39.4801 Q1065.82 33.0797 1070.36 29.5959 Q1074.89 26.1121 1083.24 26.1121 Q1087.37 26.1121 1091.02 26.7198 Q1094.66 27.3274 1097.74 28.5427 Z" fill="#000000" fill-rule="nonzero" fill-opacity="1" /><path clip-path="url(#clip210)" d="M1112.04 27.2059 L1119.49 27.2059 L1119.49 72.576 L1112.04 72.576 L1112.04 27.2059 M1112.04 9.54393 L1119.49 9.54393 L1119.49 18.9825 L1112.04 18.9825 L1112.04 9.54393 Z" fill="#000000" fill-rule="nonzero" fill-opacity="1" /><path clip-path="url(#clip210)" d="M1142.46 14.324 L1142.46 27.2059 L1157.82 27.2059 L1157.82 32.9987 L1142.46 32.9987 L1142.46 57.6282 Q1142.46 63.1779 1143.96 64.7578 Q1145.5 66.3376 1150.16 66.3376 L1157.82 66.3376 L1157.82 72.576 L1150.16 72.576 Q1141.53 72.576 1138.25 69.3758 Q1134.97 66.1351 1134.97 57.6282 L1134.97 32.9987 L1129.5 32.9987 L1129.5 27.2059 L1134.97 27.2059 L1134.97 14.324 L1142.46 14.324 Z" fill="#000000" fill-rule="nonzero" fill-opacity="1" /><path clip-path="url(#clip210)" d="M1186.5 76.7889 Q1183.34 84.8907 1180.34 87.3618 Q1177.34 89.8329 1172.32 89.8329 L1166.36 89.8329 L1166.36 83.5945 L1170.74 83.5945 Q1173.82 83.5945 1175.52 82.1361 Q1177.22 80.6778 1179.28 75.2496 L1180.62 71.8468 L1162.27 27.2059 L1170.17 27.2059 L1184.35 62.6918 L1198.53 27.2059 L1206.43 27.2059 L1186.5 76.7889 Z" fill="#000000" fill-rule="nonzero" fill-opacity="1" /><path clip-path="url(#clip210)" d="M1267.96 17.6457 Q1259.05 17.6457 1253.78 24.2892 Q1248.56 30.9327 1248.56 42.3968 Q1248.56 53.8203 1253.78 60.4638 Q1259.05 67.1073 1267.96 67.1073 Q1276.87 67.1073 1282.06 60.4638 Q1287.28 53.8203 1287.28 42.3968 Q1287.28 30.9327 1282.06 24.2892 Q1276.87 17.6457 1267.96 17.6457 M1279.42 71.4823 L1290.2 83.2704 L1280.31 83.2704 L1271.36 73.5887 Q1270.03 73.6697 1269.3 73.7103 Q1268.61 73.7508 1267.96 73.7508 Q1255.2 73.7508 1247.54 65.2439 Q1239.93 56.6965 1239.93 42.3968 Q1239.93 28.0566 1247.54 19.5497 Q1255.2 11.0023 1267.96 11.0023 Q1280.68 11.0023 1288.29 19.5497 Q1295.91 28.0566 1295.91 42.3968 Q1295.91 52.9291 1291.66 60.4233 Q1287.44 67.9175 1279.42 71.4823 Z" fill="#000000" fill-rule="nonzero" fill-opacity="1" /><path clip-path="url(#clip210)" d="M1307.62 54.671 L1307.62 27.2059 L1315.07 27.2059 L1315.07 54.3874 Q1315.07 60.8284 1317.58 64.0691 Q1320.09 67.2693 1325.12 67.2693 Q1331.15 67.2693 1334.64 63.421 Q1338.16 59.5726 1338.16 52.9291 L1338.16 27.2059 L1345.62 27.2059 L1345.62 72.576 L1338.16 72.576 L1338.16 65.6084 Q1335.45 69.7404 1331.84 71.7658 Q1328.28 73.7508 1323.54 73.7508 Q1315.72 73.7508 1311.67 68.8897 Q1307.62 64.0286 1307.62 54.671 M1326.37 26.1121 L1326.37 26.1121 Z" fill="#000000" fill-rule="nonzero" fill-opacity="1" /><path clip-path="url(#clip210)" d="M1381.59 49.7694 Q1372.55 49.7694 1369.07 51.8354 Q1365.59 53.9013 1365.59 58.8839 Q1365.59 62.8538 1368.18 65.2034 Q1370.81 67.5124 1375.31 67.5124 Q1381.51 67.5124 1385.23 63.1374 Q1389 58.7219 1389 51.4303 L1389 49.7694 L1381.59 49.7694 M1396.45 46.6907 L1396.45 72.576 L1389 72.576 L1389 65.6895 Q1386.45 69.8214 1382.64 71.8063 Q1378.83 73.7508 1373.32 73.7508 Q1366.36 73.7508 1362.22 69.8619 Q1358.13 65.9325 1358.13 59.3701 Q1358.13 51.7138 1363.24 47.825 Q1368.38 43.9361 1378.55 43.9361 L1389 43.9361 L1389 43.2069 Q1389 38.0623 1385.6 35.2672 Q1382.24 32.4315 1376.12 32.4315 Q1372.23 32.4315 1368.54 33.3632 Q1364.86 34.295 1361.45 36.1584 L1361.45 29.2718 Q1365.55 27.692 1369.39 26.9223 Q1373.24 26.1121 1376.89 26.1121 Q1386.73 26.1121 1391.59 31.2163 Q1396.45 36.3204 1396.45 46.6907 Z" fill="#000000" fill-rule="nonzero" fill-opacity="1" /><path clip-path="url(#clip210)" d="M1449.52 45.1919 L1449.52 72.576 L1442.07 72.576 L1442.07 45.4349 Q1442.07 38.994 1439.56 35.7938 Q1437.04 32.5936 1432.02 32.5936 Q1425.98 32.5936 1422.5 36.4419 Q1419.02 40.2903 1419.02 46.9338 L1419.02 72.576 L1411.52 72.576 L1411.52 27.2059 L1419.02 27.2059 L1419.02 34.2544 Q1421.69 30.163 1425.3 28.1376 Q1428.94 26.1121 1433.68 26.1121 Q1441.5 26.1121 1445.51 30.9732 Q1449.52 35.7938 1449.52 45.1919 Z" fill="#000000" fill-rule="nonzero" fill-opacity="1" /><path clip-path="url(#clip210)" d="M1471.76 14.324 L1471.76 27.2059 L1487.11 27.2059 L1487.11 32.9987 L1471.76 32.9987 L1471.76 57.6282 Q1471.76 63.1779 1473.26 64.7578 Q1474.8 66.3376 1479.46 66.3376 L1487.11 66.3376 L1487.11 72.576 L1479.46 72.576 Q1470.83 72.576 1467.55 69.3758 Q1464.27 66.1351 1464.27 57.6282 L1464.27 32.9987 L1458.8 32.9987 L1458.8 27.2059 L1464.27 27.2059 L1464.27 14.324 L1471.76 14.324 Z" fill="#000000" fill-rule="nonzero" fill-opacity="1" /><path clip-path="url(#clip210)" d="M1496.92 27.2059 L1504.37 27.2059 L1504.37 72.576 L1496.92 72.576 L1496.92 27.2059 M1496.92 9.54393 L1504.37 9.54393 L1504.37 18.9825 L1496.92 18.9825 L1496.92 9.54393 Z" fill="#000000" fill-rule="nonzero" fill-opacity="1" /><path clip-path="url(#clip210)" d="M1519.97 9.54393 L1527.42 9.54393 L1527.42 72.576 L1519.97 72.576 L1519.97 9.54393 Z" fill="#000000" fill-rule="nonzero" fill-opacity="1" /><path clip-path="url(#clip210)" d="M1581.82 48.0275 L1581.82 51.6733 L1547.55 51.6733 Q1548.04 59.3701 1552.17 63.421 Q1556.34 67.4314 1563.76 67.4314 Q1568.05 67.4314 1572.06 66.3781 Q1576.11 65.3249 1580.08 63.2184 L1580.08 70.267 Q1576.07 71.9684 1571.86 72.8596 Q1567.65 73.7508 1563.31 73.7508 Q1552.45 73.7508 1546.09 67.4314 Q1539.77 61.1119 1539.77 50.3365 Q1539.77 39.1965 1545.77 32.6746 Q1551.81 26.1121 1562.01 26.1121 Q1571.17 26.1121 1576.48 32.0264 Q1581.82 37.9003 1581.82 48.0275 M1574.37 45.84 Q1574.29 39.7232 1570.93 36.0774 Q1567.6 32.4315 1562.1 32.4315 Q1555.86 32.4315 1552.09 35.9558 Q1548.36 39.4801 1547.8 45.8805 L1574.37 45.84 Z" fill="#000000" fill-rule="nonzero" fill-opacity="1" /><path clip-path="url(#clip210)" d="M1620.75 12.096 L1655.51 12.096 L1655.51 18.9825 L1628.94 18.9825 L1628.94 36.8065 L1652.92 36.8065 L1652.92 43.6931 L1628.94 43.6931 L1628.94 72.576 L1620.75 72.576 L1620.75 12.096 Z" fill="#000000" fill-rule="nonzero" fill-opacity="1" /><path clip-path="url(#clip210)" d="M1662.84 54.671 L1662.84 27.2059 L1670.3 27.2059 L1670.3 54.3874 Q1670.3 60.8284 1672.81 64.0691 Q1675.32 67.2693 1680.34 67.2693 Q1686.38 67.2693 1689.86 63.421 Q1693.39 59.5726 1693.39 52.9291 L1693.39 27.2059 L1700.84 27.2059 L1700.84 72.576 L1693.39 72.576 L1693.39 65.6084 Q1690.67 69.7404 1687.07 71.7658 Q1683.5 73.7508 1678.76 73.7508 Q1670.94 73.7508 1666.89 68.8897 Q1662.84 64.0286 1662.84 54.671 M1681.6 26.1121 L1681.6 26.1121 Z" fill="#000000" fill-rule="nonzero" fill-opacity="1" /><path clip-path="url(#clip210)" d="M1753.91 45.1919 L1753.91 72.576 L1746.45 72.576 L1746.45 45.4349 Q1746.45 38.994 1743.94 35.7938 Q1741.43 32.5936 1736.41 32.5936 Q1730.37 32.5936 1726.89 36.4419 Q1723.4 40.2903 1723.4 46.9338 L1723.4 72.576 L1715.91 72.576 L1715.91 27.2059 L1723.4 27.2059 L1723.4 34.2544 Q1726.08 30.163 1729.68 28.1376 Q1733.33 26.1121 1738.07 26.1121 Q1745.88 26.1121 1749.9 30.9732 Q1753.91 35.7938 1753.91 45.1919 Z" fill="#000000" fill-rule="nonzero" fill-opacity="1" /><path clip-path="url(#clip210)" d="M1801.42 28.9478 L1801.42 35.9153 Q1798.26 34.1734 1795.06 33.3227 Q1791.9 32.4315 1788.66 32.4315 Q1781.41 32.4315 1777.4 37.0496 Q1773.39 41.6271 1773.39 49.9314 Q1773.39 58.2358 1777.4 62.8538 Q1781.41 67.4314 1788.66 67.4314 Q1791.9 67.4314 1795.06 66.5807 Q1798.26 65.6895 1801.42 63.9476 L1801.42 70.8341 Q1798.3 72.2924 1794.94 73.0216 Q1791.62 73.7508 1787.85 73.7508 Q1777.6 73.7508 1771.57 67.3098 Q1765.53 60.8689 1765.53 49.9314 Q1765.53 38.832 1771.61 32.472 Q1777.73 26.1121 1788.34 26.1121 Q1791.78 26.1121 1795.06 26.8413 Q1798.34 27.5299 1801.42 28.9478 Z" fill="#000000" fill-rule="nonzero" fill-opacity="1" /><path clip-path="url(#clip210)" d="M1821.76 14.324 L1821.76 27.2059 L1837.11 27.2059 L1837.11 32.9987 L1821.76 32.9987 L1821.76 57.6282 Q1821.76 63.1779 1823.26 64.7578 Q1824.8 66.3376 1829.46 66.3376 L1837.11 66.3376 L1837.11 72.576 L1829.46 72.576 Q1820.83 72.576 1817.55 69.3758 Q1814.26 66.1351 1814.26 57.6282 L1814.26 32.9987 L1808.8 32.9987 L1808.8 27.2059 L1814.26 27.2059 L1814.26 14.324 L1821.76 14.324 Z" fill="#000000" fill-rule="nonzero" fill-opacity="1" /><path clip-path="url(#clip210)" d="M1846.91 27.2059 L1854.37 27.2059 L1854.37 72.576 L1846.91 72.576 L1846.91 27.2059 M1846.91 9.54393 L1854.37 9.54393 L1854.37 18.9825 L1846.91 18.9825 L1846.91 9.54393 Z" fill="#000000" fill-rule="nonzero" fill-opacity="1" /><path clip-path="url(#clip210)" d="M1887.55 32.4315 Q1881.55 32.4315 1878.07 37.1306 Q1874.58 41.7891 1874.58 49.9314 Q1874.58 58.0738 1878.03 62.7728 Q1881.51 67.4314 1887.55 67.4314 Q1893.5 67.4314 1896.98 62.7323 Q1900.47 58.0333 1900.47 49.9314 Q1900.47 41.8701 1896.98 37.1711 Q1893.5 32.4315 1887.55 32.4315 M1887.55 26.1121 Q1897.27 26.1121 1902.82 32.4315 Q1908.37 38.7509 1908.37 49.9314 Q1908.37 61.0714 1902.82 67.4314 Q1897.27 73.7508 1887.55 73.7508 Q1877.78 73.7508 1872.23 67.4314 Q1866.72 61.0714 1866.72 49.9314 Q1866.72 38.7509 1872.23 32.4315 Q1877.78 26.1121 1887.55 26.1121 Z" fill="#000000" fill-rule="nonzero" fill-opacity="1" /><path clip-path="url(#clip210)" d="M1958.44 45.1919 L1958.44 72.576 L1950.98 72.576 L1950.98 45.4349 Q1950.98 38.994 1948.47 35.7938 Q1945.96 32.5936 1940.94 32.5936 Q1934.9 32.5936 1931.42 36.4419 Q1927.93 40.2903 1927.93 46.9338 L1927.93 72.576 L1920.44 72.576 L1920.44 27.2059 L1927.93 27.2059 L1927.93 34.2544 Q1930.61 30.163 1934.21 28.1376 Q1937.86 26.1121 1942.6 26.1121 Q1950.42 26.1121 1954.43 30.9732 Q1958.44 35.7938 1958.44 45.1919 Z" fill="#000000" fill-rule="nonzero" fill-opacity="1" /><polyline clip-path="url(#clip212)" style="stroke:#009af9; stroke-linecap:round; stroke-linejoin:round; stroke-width:4; stroke-opacity:1; fill:none" points="287.847,1729.73 646.448,1699.78 836.812,1667.15 964.208,1632.82 1059.05,1597.33 1134.19,1561 1196.21,1524.08 1248.9,1486.75 1294.65,1449.14 1335.05,1411.38 1371.22,1373.56 1403.94,1335.77 1433.84,1298.08 1461.36,1260.55 1486.87,1223.25 1510.64,1186.21 1532.92,1149.49 1553.89,1113.13 1573.71,1077.16 1592.5,1041.61 1610.39,1006.53 1627.45,971.928 1643.79,937.842 1659.46,904.294 1674.52,871.306 1689.04,838.899 1703.06,807.094 1716.62,775.909 1729.76,745.361 1742.51,715.467 1754.9,686.243 1766.96,657.703 1778.71,629.861 1790.18,602.731 1801.38,576.325 1812.34,550.656 1823.08,525.736 1833.6,501.575 1843.92,478.186 1854.05,455.578 1864.02,433.763 1873.82,412.75 1883.48,392.551 1892.99,373.174 1902.38,354.63 1911.64,336.93 1920.8,320.083 1929.84,304.099 1938.8,288.988 1947.66,274.762 1956.44,261.43 1965.14,249.004 1973.78,237.495 1982.35,226.915 1990.87,217.275 1999.33,208.588 2007.75,200.868 2016.14,194.128 2024.48,188.382 2032.8,183.646 2041.1,179.937 2049.38,177.27 2057.65,175.665 2065.92,175.141 2074.18,175.718 2082.45,177.419 2090.73,180.268 2099.03,184.29 2107.36,189.513 2115.72,195.967 2124.11,203.685 2132.55,212.702 2141.04,223.056 2149.6,234.791 2158.22,247.953 2166.93,262.591 2175.72,278.765 2184.62,296.534 2193.63,315.971 2202.77,337.152 2212.05,360.166 2221.5,385.112 2231.12,412.103 2240.95,441.268 2251.01,472.757 2261.33,506.744 2271.94,543.434 2282.9,583.068 2294.25,625.941 2306.06,672.408 2318.41,722.915 2331.41,778.028 2345.21,838.486 2360,905.29 2376.08,979.85 2393.91,1064.29 2414.28,1162.07 2438.77,1279.71 2471.68,1433.15 2572.22,1753.43 "/>
<path clip-path="url(#clip210)" d="M300.031 287.238 L2035.01 287.238 L2035.01 183.558 L300.031 183.558  Z" fill="#ffffff" fill-rule="evenodd" fill-opacity="1"/>
<polyline clip-path="url(#clip210)" style="stroke:#000000; stroke-linecap:round; stroke-linejoin:round; stroke-width:4; stroke-opacity:1; fill:none" points="300.031,287.238 2035.01,287.238 2035.01,183.558 300.031,183.558 300.031,287.238 "/>
<polyline clip-path="url(#clip210)" style="stroke:#009af9; stroke-linecap:round; stroke-linejoin:round; stroke-width:4; stroke-opacity:1; fill:none" points="326.935,235.398 488.365,235.398 "/>
<path clip-path="url(#clip210)" d="M531.288 221.29 Q526.196 221.29 523.186 225.086 Q520.2 228.882 520.2 235.433 Q520.2 241.961 523.186 245.757 Q526.196 249.553 531.288 249.553 Q536.381 249.553 539.344 245.757 Q542.33 241.961 542.33 235.433 Q542.33 228.882 539.344 225.086 Q536.381 221.29 531.288 221.29 M537.839 252.053 L543.996 258.789 L538.348 258.789 L533.233 253.257 Q532.469 253.303 532.052 253.327 Q531.658 253.35 531.288 253.35 Q523.996 253.35 519.621 248.489 Q515.27 243.604 515.27 235.433 Q515.27 227.239 519.621 222.378 Q523.996 217.493 531.288 217.493 Q538.557 217.493 542.908 222.378 Q547.26 227.239 547.26 235.433 Q547.26 241.452 544.83 245.734 Q542.422 250.016 537.839 252.053 Z" fill="#000000" fill-rule="nonzero" fill-opacity="1" /><path clip-path="url(#clip210)" d="M559.251 221.961 L559.251 248.836 L564.899 248.836 Q572.052 248.836 575.362 245.595 Q578.695 242.354 578.695 235.364 Q578.695 228.419 575.362 225.202 Q572.052 221.961 564.899 221.961 L559.251 221.961 M554.575 218.118 L564.181 218.118 Q574.228 218.118 578.927 222.308 Q583.626 226.475 583.626 235.364 Q583.626 244.299 578.904 248.489 Q574.181 252.678 564.181 252.678 L554.575 252.678 L554.575 218.118 Z" fill="#000000" fill-rule="nonzero" fill-opacity="1" /><path clip-path="url(#clip210)" d="M590.894 226.753 L595.153 226.753 L595.153 252.678 L590.894 252.678 L590.894 226.753 M590.894 216.66 L595.153 216.66 L595.153 222.054 L590.894 222.054 L590.894 216.66 Z" fill="#000000" fill-rule="nonzero" fill-opacity="1" /><path clip-path="url(#clip210)" d="M620.593 227.516 L620.593 231.544 Q618.788 230.618 616.843 230.155 Q614.899 229.692 612.815 229.692 Q609.644 229.692 608.047 230.665 Q606.473 231.637 606.473 233.581 Q606.473 235.063 607.607 235.919 Q608.741 236.753 612.167 237.516 L613.626 237.84 Q618.163 238.813 620.061 240.595 Q621.982 242.354 621.982 245.526 Q621.982 249.137 619.112 251.243 Q616.264 253.35 611.265 253.35 Q609.181 253.35 606.913 252.933 Q604.667 252.539 602.167 251.729 L602.167 247.331 Q604.528 248.558 606.82 249.183 Q609.112 249.785 611.357 249.785 Q614.366 249.785 615.987 248.766 Q617.607 247.725 617.607 245.85 Q617.607 244.114 616.427 243.188 Q615.269 242.262 611.311 241.405 L609.829 241.058 Q605.871 240.225 604.112 238.512 Q602.353 236.776 602.353 233.766 Q602.353 230.109 604.945 228.118 Q607.538 226.128 612.306 226.128 Q614.667 226.128 616.751 226.475 Q618.834 226.822 620.593 227.516 Z" fill="#000000" fill-rule="nonzero" fill-opacity="1" /><path clip-path="url(#clip210)" d="M632.977 219.392 L632.977 226.753 L641.75 226.753 L641.75 230.063 L632.977 230.063 L632.977 244.137 Q632.977 247.308 633.834 248.211 Q634.713 249.114 637.375 249.114 L641.75 249.114 L641.75 252.678 L637.375 252.678 Q632.445 252.678 630.57 250.85 Q628.695 248.998 628.695 244.137 L628.695 230.063 L625.57 230.063 L625.57 226.753 L628.695 226.753 L628.695 219.392 L632.977 219.392 Z" fill="#000000" fill-rule="nonzero" fill-opacity="1" /><path clip-path="url(#clip210)" d="M662.375 230.734 Q661.658 230.317 660.801 230.132 Q659.968 229.924 658.949 229.924 Q655.338 229.924 653.394 232.285 Q651.473 234.623 651.473 239.021 L651.473 252.678 L647.19 252.678 L647.19 226.753 L651.473 226.753 L651.473 230.78 Q652.815 228.419 654.968 227.285 Q657.121 226.128 660.199 226.128 Q660.639 226.128 661.172 226.197 Q661.704 226.243 662.352 226.359 L662.375 230.734 Z" fill="#000000" fill-rule="nonzero" fill-opacity="1" /><path clip-path="url(#clip210)" d="M666.843 226.753 L671.102 226.753 L671.102 252.678 L666.843 252.678 L666.843 226.753 M666.843 216.66 L671.102 216.66 L671.102 222.054 L666.843 222.054 L666.843 216.66 Z" fill="#000000" fill-rule="nonzero" fill-opacity="1" /><path clip-path="url(#clip210)" d="M698.625 239.739 Q698.625 235.04 696.681 232.378 Q694.759 229.692 691.38 229.692 Q688 229.692 686.056 232.378 Q684.134 235.04 684.134 239.739 Q684.134 244.438 686.056 247.123 Q688 249.785 691.38 249.785 Q694.759 249.785 696.681 247.123 Q698.625 244.438 698.625 239.739 M684.134 230.688 Q685.477 228.373 687.514 227.262 Q689.574 226.128 692.421 226.128 Q697.144 226.128 700.083 229.878 Q703.046 233.628 703.046 239.739 Q703.046 245.85 700.083 249.6 Q697.144 253.35 692.421 253.35 Q689.574 253.35 687.514 252.239 Q685.477 251.104 684.134 248.789 L684.134 252.678 L679.852 252.678 L679.852 216.66 L684.134 216.66 L684.134 230.688 Z" fill="#000000" fill-rule="nonzero" fill-opacity="1" /><path clip-path="url(#clip210)" d="M709.667 242.447 L709.667 226.753 L713.926 226.753 L713.926 242.285 Q713.926 245.965 715.361 247.817 Q716.796 249.646 719.667 249.646 Q723.116 249.646 725.106 247.447 Q727.12 245.248 727.12 241.452 L727.12 226.753 L731.38 226.753 L731.38 252.678 L727.12 252.678 L727.12 248.697 Q725.569 251.058 723.509 252.215 Q721.472 253.35 718.764 253.35 Q714.296 253.35 711.982 250.572 Q709.667 247.794 709.667 242.447 M720.384 226.128 L720.384 226.128 Z" fill="#000000" fill-rule="nonzero" fill-opacity="1" /><path clip-path="url(#clip210)" d="M744.366 219.392 L744.366 226.753 L753.139 226.753 L753.139 230.063 L744.366 230.063 L744.366 244.137 Q744.366 247.308 745.222 248.211 Q746.102 249.114 748.764 249.114 L753.139 249.114 L753.139 252.678 L748.764 252.678 Q743.833 252.678 741.958 250.85 Q740.083 248.998 740.083 244.137 L740.083 230.063 L736.958 230.063 L736.958 226.753 L740.083 226.753 L740.083 219.392 L744.366 219.392 Z" fill="#000000" fill-rule="nonzero" fill-opacity="1" /><path clip-path="url(#clip210)" d="M758.741 226.753 L763 226.753 L763 252.678 L758.741 252.678 L758.741 226.753 M758.741 216.66 L763 216.66 L763 222.054 L758.741 222.054 L758.741 216.66 Z" fill="#000000" fill-rule="nonzero" fill-opacity="1" /><path clip-path="url(#clip210)" d="M781.958 229.739 Q778.532 229.739 776.541 232.424 Q774.551 235.086 774.551 239.739 Q774.551 244.391 776.518 247.077 Q778.509 249.739 781.958 249.739 Q785.361 249.739 787.352 247.053 Q789.342 244.368 789.342 239.739 Q789.342 235.132 787.352 232.447 Q785.361 229.739 781.958 229.739 M781.958 226.128 Q787.514 226.128 790.685 229.739 Q793.856 233.35 793.856 239.739 Q793.856 246.104 790.685 249.739 Q787.514 253.35 781.958 253.35 Q776.379 253.35 773.208 249.739 Q770.06 246.104 770.06 239.739 Q770.06 233.35 773.208 229.739 Q776.379 226.128 781.958 226.128 Z" fill="#000000" fill-rule="nonzero" fill-opacity="1" /><path clip-path="url(#clip210)" d="M822.467 237.03 L822.467 252.678 L818.208 252.678 L818.208 237.169 Q818.208 233.489 816.773 231.66 Q815.337 229.831 812.467 229.831 Q809.018 229.831 807.027 232.03 Q805.037 234.229 805.037 238.026 L805.037 252.678 L800.754 252.678 L800.754 226.753 L805.037 226.753 L805.037 230.78 Q806.564 228.442 808.625 227.285 Q810.708 226.128 813.416 226.128 Q817.884 226.128 820.175 228.905 Q822.467 231.66 822.467 237.03 Z" fill="#000000" fill-rule="nonzero" fill-opacity="1" /><path clip-path="url(#clip210)" d="M847.49 227.516 L847.49 231.544 Q845.685 230.618 843.74 230.155 Q841.796 229.692 839.712 229.692 Q836.541 229.692 834.944 230.665 Q833.37 231.637 833.37 233.581 Q833.37 235.063 834.504 235.919 Q835.638 236.753 839.064 237.516 L840.523 237.84 Q845.06 238.813 846.958 240.595 Q848.879 242.354 848.879 245.526 Q848.879 249.137 846.009 251.243 Q843.161 253.35 838.161 253.35 Q836.078 253.35 833.81 252.933 Q831.564 252.539 829.064 251.729 L829.064 247.331 Q831.425 248.558 833.717 249.183 Q836.009 249.785 838.254 249.785 Q841.263 249.785 842.884 248.766 Q844.504 247.725 844.504 245.85 Q844.504 244.114 843.323 243.188 Q842.166 242.262 838.208 241.405 L836.726 241.058 Q832.768 240.225 831.009 238.512 Q829.249 236.776 829.249 233.766 Q829.249 230.109 831.842 228.118 Q834.435 226.128 839.203 226.128 Q841.564 226.128 843.648 226.475 Q845.731 226.822 847.49 227.516 Z" fill="#000000" fill-rule="nonzero" fill-opacity="1" /><path clip-path="url(#clip210)" d="M856.263 246.799 L861.147 246.799 L861.147 252.678 L856.263 252.678 L856.263 246.799 Z" fill="#000000" fill-rule="nonzero" fill-opacity="1" /><path clip-path="url(#clip210)" d="M894.481 247.748 L894.481 238.465 L886.842 238.465 L886.842 234.623 L899.11 234.623 L899.11 249.461 Q896.402 251.382 893.138 252.377 Q889.874 253.35 886.17 253.35 Q878.069 253.35 873.485 248.627 Q868.925 243.882 868.925 235.433 Q868.925 226.961 873.485 222.239 Q878.069 217.493 886.17 217.493 Q889.55 217.493 892.582 218.327 Q895.638 219.16 898.207 220.78 L898.207 225.757 Q895.615 223.558 892.698 222.447 Q889.782 221.336 886.564 221.336 Q880.221 221.336 877.027 224.878 Q873.856 228.419 873.856 235.433 Q873.856 242.424 877.027 245.965 Q880.221 249.507 886.564 249.507 Q889.041 249.507 890.985 249.09 Q892.93 248.651 894.481 247.748 Z" fill="#000000" fill-rule="nonzero" fill-opacity="1" /><path clip-path="url(#clip210)" d="M907.652 218.118 L912.328 218.118 L912.328 248.743 L929.156 248.743 L929.156 252.678 L907.652 252.678 L907.652 218.118 Z" fill="#000000" fill-rule="nonzero" fill-opacity="1" /><path clip-path="url(#clip210)" d="M938.74 221.961 L938.74 248.836 L944.388 248.836 Q951.54 248.836 954.851 245.595 Q958.184 242.354 958.184 235.364 Q958.184 228.419 954.851 225.202 Q951.54 221.961 944.388 221.961 L938.74 221.961 M934.064 218.118 L943.67 218.118 Q953.716 218.118 958.415 222.308 Q963.114 226.475 963.114 235.364 Q963.114 244.299 958.392 248.489 Q953.67 252.678 943.67 252.678 L934.064 252.678 L934.064 218.118 Z" fill="#000000" fill-rule="nonzero" fill-opacity="1" /><path clip-path="url(#clip210)" d="M989.04 227.748 L989.04 231.729 Q987.235 230.734 985.406 230.248 Q983.6 229.739 981.749 229.739 Q977.605 229.739 975.313 232.378 Q973.022 234.993 973.022 239.739 Q973.022 244.484 975.313 247.123 Q977.605 249.739 981.749 249.739 Q983.6 249.739 985.406 249.252 Q987.235 248.743 989.04 247.748 L989.04 251.683 Q987.258 252.516 985.337 252.933 Q983.438 253.35 981.286 253.35 Q975.429 253.35 971.98 249.669 Q968.531 245.989 968.531 239.739 Q968.531 233.396 972.003 229.762 Q975.499 226.128 981.563 226.128 Q983.531 226.128 985.406 226.544 Q987.281 226.938 989.04 227.748 Z" fill="#000000" fill-rule="nonzero" fill-opacity="1" /><path clip-path="url(#clip210)" d="M1012.98 227.516 L1012.98 231.544 Q1011.17 230.618 1009.23 230.155 Q1007.28 229.692 1005.2 229.692 Q1002.03 229.692 1000.43 230.665 Q998.855 231.637 998.855 233.581 Q998.855 235.063 999.989 235.919 Q1001.12 236.753 1004.55 237.516 L1006.01 237.84 Q1010.54 238.813 1012.44 240.595 Q1014.36 242.354 1014.36 245.526 Q1014.36 249.137 1011.49 251.243 Q1008.65 253.35 1003.65 253.35 Q1001.56 253.35 999.295 252.933 Q997.049 252.539 994.549 251.729 L994.549 247.331 Q996.911 248.558 999.202 249.183 Q1001.49 249.785 1003.74 249.785 Q1006.75 249.785 1008.37 248.766 Q1009.99 247.725 1009.99 245.85 Q1009.99 244.114 1008.81 243.188 Q1007.65 242.262 1003.69 241.405 L1002.21 241.058 Q998.253 240.225 996.494 238.512 Q994.735 236.776 994.735 233.766 Q994.735 230.109 997.327 228.118 Q999.92 226.128 1004.69 226.128 Q1007.05 226.128 1009.13 226.475 Q1011.22 226.822 1012.98 227.516 Z" fill="#000000" fill-rule="nonzero" fill-opacity="1" /><path clip-path="url(#clip210)" d="M1018.67 226.753 L1022.93 226.753 L1028.25 246.984 L1033.55 226.753 L1038.58 226.753 L1043.9 246.984 L1049.2 226.753 L1053.46 226.753 L1046.68 252.678 L1041.66 252.678 L1036.08 231.428 L1030.48 252.678 L1025.45 252.678 L1018.67 226.753 Z" fill="#000000" fill-rule="nonzero" fill-opacity="1" /><path clip-path="url(#clip210)" d="M1079.69 257.076 L1079.69 260.41 L1078.25 260.41 Q1072.49 260.41 1070.52 258.697 Q1068.58 256.984 1068.58 251.868 L1068.58 246.336 Q1068.58 242.84 1067.33 241.498 Q1066.08 240.155 1062.79 240.155 L1061.38 240.155 L1061.38 236.845 L1062.79 236.845 Q1066.1 236.845 1067.33 235.526 Q1068.58 234.183 1068.58 230.734 L1068.58 225.179 Q1068.58 220.063 1070.52 218.373 Q1072.49 216.66 1078.25 216.66 L1079.69 216.66 L1079.69 219.97 L1078.11 219.97 Q1074.85 219.97 1073.85 220.989 Q1072.86 222.007 1072.86 225.271 L1072.86 231.012 Q1072.86 234.646 1071.79 236.29 Q1070.75 237.933 1068.21 238.512 Q1070.78 239.137 1071.82 240.78 Q1072.86 242.424 1072.86 246.035 L1072.86 251.776 Q1072.86 255.039 1073.85 256.058 Q1074.85 257.076 1078.11 257.076 L1079.69 257.076 Z" fill="#000000" fill-rule="nonzero" fill-opacity="1" /><path clip-path="url(#clip210)" d="M1090.27 218.118 L1110.13 218.118 L1110.13 222.054 L1094.94 222.054 L1094.94 232.239 L1108.65 232.239 L1108.65 236.174 L1094.94 236.174 L1094.94 252.678 L1090.27 252.678 L1090.27 218.118 Z" fill="#000000" fill-rule="nonzero" fill-opacity="1" /><path clip-path="url(#clip210)" d="M1117.35 216.66 L1121.61 216.66 L1121.61 252.678 L1117.35 252.678 L1117.35 216.66 Z" fill="#000000" fill-rule="nonzero" fill-opacity="1" /><path clip-path="url(#clip210)" d="M1140.57 229.739 Q1137.14 229.739 1135.15 232.424 Q1133.16 235.086 1133.16 239.739 Q1133.16 244.391 1135.13 247.077 Q1137.12 249.739 1140.57 249.739 Q1143.97 249.739 1145.96 247.053 Q1147.95 244.368 1147.95 239.739 Q1147.95 235.132 1145.96 232.447 Q1143.97 229.739 1140.57 229.739 M1140.57 226.128 Q1146.12 226.128 1149.29 229.739 Q1152.47 233.35 1152.47 239.739 Q1152.47 246.104 1149.29 249.739 Q1146.12 253.35 1140.57 253.35 Q1134.99 253.35 1131.82 249.739 Q1128.67 246.104 1128.67 239.739 Q1128.67 233.35 1131.82 229.739 Q1134.99 226.128 1140.57 226.128 Z" fill="#000000" fill-rule="nonzero" fill-opacity="1" /><path clip-path="url(#clip210)" d="M1171.31 239.646 Q1166.15 239.646 1164.16 240.827 Q1162.16 242.007 1162.16 244.854 Q1162.16 247.123 1163.65 248.465 Q1165.15 249.785 1167.72 249.785 Q1171.26 249.785 1173.39 247.285 Q1175.54 244.762 1175.54 240.595 L1175.54 239.646 L1171.31 239.646 M1179.8 237.887 L1179.8 252.678 L1175.54 252.678 L1175.54 248.743 Q1174.09 251.104 1171.91 252.239 Q1169.73 253.35 1166.59 253.35 Q1162.6 253.35 1160.24 251.127 Q1157.91 248.882 1157.91 245.132 Q1157.91 240.757 1160.82 238.535 Q1163.76 236.313 1169.57 236.313 L1175.54 236.313 L1175.54 235.896 Q1175.54 232.956 1173.6 231.359 Q1171.68 229.739 1168.18 229.739 Q1165.96 229.739 1163.85 230.271 Q1161.75 230.803 1159.8 231.868 L1159.8 227.933 Q1162.14 227.03 1164.34 226.591 Q1166.54 226.128 1168.62 226.128 Q1174.25 226.128 1177.03 229.044 Q1179.8 231.961 1179.8 237.887 Z" fill="#000000" fill-rule="nonzero" fill-opacity="1" /><path clip-path="url(#clip210)" d="M1192.79 219.392 L1192.79 226.753 L1201.56 226.753 L1201.56 230.063 L1192.79 230.063 L1192.79 244.137 Q1192.79 247.308 1193.65 248.211 Q1194.53 249.114 1197.19 249.114 L1201.56 249.114 L1201.56 252.678 L1197.19 252.678 Q1192.26 252.678 1190.38 250.85 Q1188.51 248.998 1188.51 244.137 L1188.51 230.063 L1185.38 230.063 L1185.38 226.753 L1188.51 226.753 L1188.51 219.392 L1192.79 219.392 Z" fill="#000000" fill-rule="nonzero" fill-opacity="1" /><path clip-path="url(#clip210)" d="M1218.34 233.535 Q1215.2 233.535 1213.34 235.688 Q1211.52 237.84 1211.52 241.59 Q1211.52 245.317 1213.34 247.493 Q1215.2 249.646 1218.34 249.646 Q1221.49 249.646 1223.32 247.493 Q1225.17 245.317 1225.17 241.59 Q1225.17 237.84 1223.32 235.688 Q1221.49 233.535 1218.34 233.535 M1227.63 218.882 L1227.63 223.141 Q1225.87 222.308 1224.06 221.868 Q1222.28 221.429 1220.52 221.429 Q1215.89 221.429 1213.44 224.554 Q1211.01 227.678 1210.66 233.998 Q1212.03 231.984 1214.09 230.919 Q1216.15 229.831 1218.62 229.831 Q1223.83 229.831 1226.84 233.003 Q1229.87 236.151 1229.87 241.59 Q1229.87 246.915 1226.72 250.132 Q1223.58 253.35 1218.34 253.35 Q1212.35 253.35 1209.18 248.766 Q1206.01 244.16 1206.01 235.433 Q1206.01 227.239 1209.9 222.378 Q1213.78 217.493 1220.34 217.493 Q1222.09 217.493 1223.88 217.841 Q1225.68 218.188 1227.63 218.882 Z" fill="#000000" fill-rule="nonzero" fill-opacity="1" /><path clip-path="url(#clip210)" d="M1250.77 222.192 L1238.97 240.641 L1250.77 240.641 L1250.77 222.192 M1249.55 218.118 L1255.43 218.118 L1255.43 240.641 L1260.36 240.641 L1260.36 244.53 L1255.43 244.53 L1255.43 252.678 L1250.77 252.678 L1250.77 244.53 L1235.17 244.53 L1235.17 240.016 L1249.55 218.118 Z" fill="#000000" fill-rule="nonzero" fill-opacity="1" /><path clip-path="url(#clip210)" d="M1268.95 257.076 L1270.57 257.076 Q1273.81 257.076 1274.78 256.081 Q1275.77 255.086 1275.77 251.776 L1275.77 246.035 Q1275.77 242.424 1276.82 240.78 Q1277.86 239.137 1280.43 238.512 Q1277.86 237.933 1276.82 236.29 Q1275.77 234.646 1275.77 231.012 L1275.77 225.271 Q1275.77 221.984 1274.78 220.989 Q1273.81 219.97 1270.57 219.97 L1268.95 219.97 L1268.95 216.66 L1270.4 216.66 Q1276.17 216.66 1278.09 218.373 Q1280.03 220.063 1280.03 225.179 L1280.03 230.734 Q1280.03 234.183 1281.28 235.526 Q1282.53 236.845 1285.82 236.845 L1287.26 236.845 L1287.26 240.155 L1285.82 240.155 Q1282.53 240.155 1281.28 241.498 Q1280.03 242.84 1280.03 246.336 L1280.03 251.868 Q1280.03 256.984 1278.09 258.697 Q1276.17 260.41 1270.4 260.41 L1268.95 260.41 L1268.95 257.076 Z" fill="#000000" fill-rule="nonzero" fill-opacity="1" /><path clip-path="url(#clip210)" d="M1307.88 216.706 Q1304.78 222.03 1303.27 227.239 Q1301.77 232.447 1301.77 237.794 Q1301.77 243.141 1303.27 248.396 Q1304.8 253.627 1307.88 258.928 L1304.18 258.928 Q1300.71 253.489 1298.97 248.234 Q1297.26 242.979 1297.26 237.794 Q1297.26 232.632 1298.97 227.401 Q1300.68 222.169 1304.18 216.706 L1307.88 216.706 Z" fill="#000000" fill-rule="nonzero" fill-opacity="1" /><path clip-path="url(#clip210)" d="M1315.71 262.539 L1315.71 226.753 L1319.96 226.753 L1319.96 242.864 Q1319.96 246.22 1321.56 247.933 Q1323.16 249.646 1326.28 249.646 Q1329.71 249.646 1331.42 247.702 Q1333.16 245.757 1333.16 241.868 L1333.16 226.753 L1337.42 226.753 L1337.42 246.706 Q1337.42 248.095 1337.81 248.766 Q1338.23 249.414 1339.08 249.414 Q1339.29 249.414 1339.66 249.299 Q1340.03 249.16 1340.68 248.882 L1340.68 252.308 Q1339.73 252.84 1338.88 253.095 Q1338.04 253.35 1337.23 253.35 Q1335.64 253.35 1334.69 252.447 Q1333.74 251.544 1333.39 249.692 Q1332.23 251.521 1330.54 252.447 Q1328.88 253.35 1326.61 253.35 Q1324.25 253.35 1322.58 252.447 Q1320.94 251.544 1319.96 249.739 L1319.96 262.539 L1315.71 262.539 Z" fill="#000000" fill-rule="nonzero" fill-opacity="1" /><path clip-path="url(#clip210)" d="M1346.86 231.151 L1376.54 231.151 L1376.54 235.04 L1346.86 235.04 L1346.86 231.151 M1346.86 240.595 L1376.54 240.595 L1376.54 244.53 L1346.86 244.53 L1346.86 240.595 Z" fill="#000000" fill-rule="nonzero" fill-opacity="1" /><path clip-path="url(#clip210)" d="M1387.44 248.743 L1395.08 248.743 L1395.08 222.378 L1386.77 224.044 L1386.77 219.785 L1395.03 218.118 L1399.71 218.118 L1399.71 248.743 L1407.35 248.743 L1407.35 252.678 L1387.44 252.678 L1387.44 248.743 Z" fill="#000000" fill-rule="nonzero" fill-opacity="1" /><path clip-path="url(#clip210)" d="M1416.79 246.799 L1421.68 246.799 L1421.68 252.678 L1416.79 252.678 L1416.79 246.799 Z" fill="#000000" fill-rule="nonzero" fill-opacity="1" /><path clip-path="url(#clip210)" d="M1441.86 221.197 Q1438.25 221.197 1436.42 224.762 Q1434.62 228.303 1434.62 235.433 Q1434.62 242.54 1436.42 246.104 Q1438.25 249.646 1441.86 249.646 Q1445.5 249.646 1447.3 246.104 Q1449.13 242.54 1449.13 235.433 Q1449.13 228.303 1447.3 224.762 Q1445.5 221.197 1441.86 221.197 M1441.86 217.493 Q1447.67 217.493 1450.73 222.1 Q1453.81 226.683 1453.81 235.433 Q1453.81 244.16 1450.73 248.766 Q1447.67 253.35 1441.86 253.35 Q1436.05 253.35 1432.97 248.766 Q1429.92 244.16 1429.92 235.433 Q1429.92 226.683 1432.97 222.1 Q1436.05 217.493 1441.86 217.493 Z" fill="#000000" fill-rule="nonzero" fill-opacity="1" /><path clip-path="url(#clip210)" d="M1462.51 246.799 L1467.39 246.799 L1467.39 250.78 L1463.6 258.188 L1460.61 258.188 L1462.51 250.78 L1462.51 246.799 Z" fill="#000000" fill-rule="nonzero" fill-opacity="1" /><path clip-path="url(#clip210)" d="M1501.61 230.132 Q1498.09 230.132 1496.19 232.678 Q1494.2 235.34 1494.2 239.739 Q1494.2 244.391 1496.17 247.077 Q1498.16 249.739 1501.61 249.739 Q1505.01 249.739 1507 247.053 Q1508.99 244.368 1508.99 239.739 Q1508.99 235.503 1507 232.678 Q1505.17 230.132 1501.61 230.132 M1501.61 226.753 L1515.75 226.753 L1515.75 231.012 L1510.98 231.012 Q1513.51 234.623 1513.51 239.739 Q1513.51 246.104 1510.33 249.715 Q1507.16 253.35 1501.61 253.35 Q1496.03 253.35 1492.88 249.715 Q1489.71 246.104 1489.71 239.739 Q1489.71 233.327 1492.88 229.739 Q1495.5 226.753 1501.61 226.753 Z" fill="#000000" fill-rule="nonzero" fill-opacity="1" /><path clip-path="url(#clip210)" d="M1522.16 231.151 L1551.84 231.151 L1551.84 235.04 L1522.16 235.04 L1522.16 231.151 M1522.16 240.595 L1551.84 240.595 L1551.84 244.53 L1522.16 244.53 L1522.16 240.595 Z" fill="#000000" fill-rule="nonzero" fill-opacity="1" /><path clip-path="url(#clip210)" d="M1561.98 218.118 L1580.33 218.118 L1580.33 222.054 L1566.26 222.054 L1566.26 230.526 Q1567.28 230.178 1568.3 230.016 Q1569.31 229.831 1570.33 229.831 Q1576.12 229.831 1579.5 233.003 Q1582.88 236.174 1582.88 241.59 Q1582.88 247.169 1579.41 250.271 Q1575.94 253.35 1569.62 253.35 Q1567.44 253.35 1565.17 252.979 Q1562.93 252.609 1560.52 251.868 L1560.52 247.169 Q1562.6 248.303 1564.82 248.859 Q1567.05 249.414 1569.52 249.414 Q1573.53 249.414 1575.87 247.308 Q1578.2 245.202 1578.2 241.59 Q1578.2 237.979 1575.87 235.873 Q1573.53 233.766 1569.52 233.766 Q1567.65 233.766 1565.77 234.183 Q1563.92 234.6 1561.98 235.479 L1561.98 218.118 Z" fill="#000000" fill-rule="nonzero" fill-opacity="1" /><path clip-path="url(#clip210)" d="M1592.09 246.799 L1596.98 246.799 L1596.98 252.678 L1592.09 252.678 L1592.09 246.799 Z" fill="#000000" fill-rule="nonzero" fill-opacity="1" /><path clip-path="url(#clip210)" d="M1617.16 221.197 Q1613.55 221.197 1611.72 224.762 Q1609.92 228.303 1609.92 235.433 Q1609.92 242.54 1611.72 246.104 Q1613.55 249.646 1617.16 249.646 Q1620.8 249.646 1622.6 246.104 Q1624.43 242.54 1624.43 235.433 Q1624.43 228.303 1622.6 224.762 Q1620.8 221.197 1617.16 221.197 M1617.16 217.493 Q1622.97 217.493 1626.03 222.1 Q1629.11 226.683 1629.11 235.433 Q1629.11 244.16 1626.03 248.766 Q1622.97 253.35 1617.16 253.35 Q1611.35 253.35 1608.27 248.766 Q1605.22 244.16 1605.22 235.433 Q1605.22 226.683 1608.27 222.1 Q1611.35 217.493 1617.16 217.493 Z" fill="#000000" fill-rule="nonzero" fill-opacity="1" /><path clip-path="url(#clip210)" d="M1637.81 246.799 L1642.69 246.799 L1642.69 250.78 L1638.9 258.188 L1635.91 258.188 L1637.81 250.78 L1637.81 246.799 Z" fill="#000000" fill-rule="nonzero" fill-opacity="1" /><path clip-path="url(#clip210)" d="M1679.34 258.465 L1675.89 249.6 L1668.78 262.563 L1663.76 262.563 L1673.81 244.229 L1669.59 233.327 Q1668.46 230.41 1664.89 230.41 L1663.76 230.41 L1663.76 226.753 L1665.38 226.799 Q1671.35 226.961 1672.86 230.827 L1676.28 239.692 L1683.39 226.729 L1688.41 226.729 L1678.37 245.063 L1682.58 255.965 Q1683.71 258.882 1687.28 258.882 L1688.41 258.882 L1688.41 262.539 L1686.79 262.493 Q1680.82 262.331 1679.34 258.465 Z" fill="#000000" fill-rule="nonzero" fill-opacity="1" /><path clip-path="url(#clip210)" d="M1694.8 231.151 L1724.48 231.151 L1724.48 235.04 L1694.8 235.04 L1694.8 231.151 M1694.8 240.595 L1724.48 240.595 L1724.48 244.53 L1694.8 244.53 L1694.8 240.595 Z" fill="#000000" fill-rule="nonzero" fill-opacity="1" /><path clip-path="url(#clip210)" d="M1731.81 237.794 L1744.29 237.794 L1744.29 241.59 L1731.81 241.59 L1731.81 237.794 Z" fill="#000000" fill-rule="nonzero" fill-opacity="1" /><path clip-path="url(#clip210)" d="M1761.68 221.197 Q1758.06 221.197 1756.24 224.762 Q1754.43 228.303 1754.43 235.433 Q1754.43 242.54 1756.24 246.104 Q1758.06 249.646 1761.68 249.646 Q1765.31 249.646 1767.11 246.104 Q1768.94 242.54 1768.94 235.433 Q1768.94 228.303 1767.11 224.762 Q1765.31 221.197 1761.68 221.197 M1761.68 217.493 Q1767.49 217.493 1770.54 222.1 Q1773.62 226.683 1773.62 235.433 Q1773.62 244.16 1770.54 248.766 Q1767.49 253.35 1761.68 253.35 Q1755.86 253.35 1752.79 248.766 Q1749.73 244.16 1749.73 235.433 Q1749.73 226.683 1752.79 222.1 Q1755.86 217.493 1761.68 217.493 Z" fill="#000000" fill-rule="nonzero" fill-opacity="1" /><path clip-path="url(#clip210)" d="M1781.84 246.799 L1786.72 246.799 L1786.72 252.678 L1781.84 252.678 L1781.84 246.799 Z" fill="#000000" fill-rule="nonzero" fill-opacity="1" /><path clip-path="url(#clip210)" d="M1796.95 218.118 L1815.31 218.118 L1815.31 222.054 L1801.23 222.054 L1801.23 230.526 Q1802.25 230.178 1803.27 230.016 Q1804.29 229.831 1805.31 229.831 Q1811.1 229.831 1814.48 233.003 Q1817.86 236.174 1817.86 241.59 Q1817.86 247.169 1814.38 250.271 Q1810.91 253.35 1804.59 253.35 Q1802.42 253.35 1800.15 252.979 Q1797.9 252.609 1795.49 251.868 L1795.49 247.169 Q1797.58 248.303 1799.8 248.859 Q1802.02 249.414 1804.5 249.414 Q1808.5 249.414 1810.84 247.308 Q1813.18 245.202 1813.18 241.59 Q1813.18 237.979 1810.84 235.873 Q1808.5 233.766 1804.5 233.766 Q1802.62 233.766 1800.75 234.183 Q1798.9 234.6 1796.95 235.479 L1796.95 218.118 Z" fill="#000000" fill-rule="nonzero" fill-opacity="1" /><path clip-path="url(#clip210)" d="M1827.55 246.799 L1832.44 246.799 L1832.44 250.78 L1828.64 258.188 L1825.66 258.188 L1827.55 250.78 L1827.55 246.799 Z" fill="#000000" fill-rule="nonzero" fill-opacity="1" /><path clip-path="url(#clip210)" d="M1869.04 249.739 Q1872.09 249.762 1873.92 251.498 Q1875.86 253.327 1875.86 256.104 Q1875.86 258.766 1874.15 260.618 Q1872.3 262.632 1868.53 262.632 Q1868.53 260.896 1868.53 259.137 Q1870.12 259.252 1871.1 258.234 Q1871.84 257.424 1871.84 256.567 Q1871.84 255.34 1871.1 254.322 Q1870.38 253.35 1869.04 253.35 Q1854.61 253.35 1854.61 243.234 Q1854.61 236.29 1862.32 234.253 Q1855.84 233.419 1855.84 227.401 Q1855.84 222.841 1860.93 220.942 L1856.12 220.942 L1856.12 216.66 L1874.38 216.66 L1874.38 220.942 Q1859.82 220.942 1859.82 227.678 Q1859.82 232.1 1872.04 232.308 L1872.04 236.243 Q1858.85 235.734 1858.9 243.234 Q1858.92 249.507 1869.04 249.739 Z" fill="#000000" fill-rule="nonzero" fill-opacity="1" /><path clip-path="url(#clip210)" d="M1883.6 231.151 L1913.27 231.151 L1913.27 235.04 L1883.6 235.04 L1883.6 231.151 M1883.6 240.595 L1913.27 240.595 L1913.27 244.53 L1883.6 244.53 L1883.6 240.595 Z" fill="#000000" fill-rule="nonzero" fill-opacity="1" /><path clip-path="url(#clip210)" d="M1933.36 221.197 Q1929.75 221.197 1927.92 224.762 Q1926.12 228.303 1926.12 235.433 Q1926.12 242.54 1927.92 246.104 Q1929.75 249.646 1933.36 249.646 Q1937 249.646 1938.8 246.104 Q1940.63 242.54 1940.63 235.433 Q1940.63 228.303 1938.8 224.762 Q1937 221.197 1933.36 221.197 M1933.36 217.493 Q1939.17 217.493 1942.23 222.1 Q1945.31 226.683 1945.31 235.433 Q1945.31 244.16 1942.23 248.766 Q1939.17 253.35 1933.36 253.35 Q1927.55 253.35 1924.48 248.766 Q1921.42 244.16 1921.42 235.433 Q1921.42 226.683 1924.48 222.1 Q1927.55 217.493 1933.36 217.493 Z" fill="#000000" fill-rule="nonzero" fill-opacity="1" /><path clip-path="url(#clip210)" d="M1953.53 246.799 L1958.41 246.799 L1958.41 252.678 L1953.53 252.678 L1953.53 246.799 Z" fill="#000000" fill-rule="nonzero" fill-opacity="1" /><path clip-path="url(#clip210)" d="M1981.44 222.192 L1969.64 240.641 L1981.44 240.641 L1981.44 222.192 M1980.22 218.118 L1986.1 218.118 L1986.1 240.641 L1991.03 240.641 L1991.03 244.53 L1986.1 244.53 L1986.1 252.678 L1981.44 252.678 L1981.44 244.53 L1965.84 244.53 L1965.84 240.016 L1980.22 218.118 Z" fill="#000000" fill-rule="nonzero" fill-opacity="1" /><path clip-path="url(#clip210)" d="M1997.48 216.706 L2001.19 216.706 Q2004.66 222.169 2006.37 227.401 Q2008.11 232.632 2008.11 237.794 Q2008.11 242.979 2006.37 248.234 Q2004.66 253.489 2001.19 258.928 L1997.48 258.928 Q2000.56 253.627 2002.07 248.396 Q2003.6 243.141 2003.6 237.794 Q2003.6 232.447 2002.07 227.239 Q2000.56 222.03 1997.48 216.706 Z" fill="#000000" fill-rule="nonzero" fill-opacity="1" /></svg>
