<?xml version="1.0" encoding="utf-8"?>
<svg xmlns="http://www.w3.org/2000/svg" xmlns:xlink="http://www.w3.org/1999/xlink" width="672" height="480" viewBox="0 0 2688 1920">
<defs>
  <clipPath id="clip150">
    <rect x="0" y="0" width="2688" height="1920"/>
  </clipPath>
</defs>
<path clip-path="url(#clip150)" d="M0 1920 L2688 1920 L2688 0 L0 0  Z" fill="#ffffff" fill-rule="evenodd" fill-opacity="1"/>
<defs>
  <clipPath id="clip151">
    <rect x="537" y="0" width="1883" height="1883"/>
  </clipPath>
</defs>
<path clip-path="url(#clip150)" d="M174.895 1800.78 L2640.76 1800.78 L2640.76 127.792 L174.895 127.792  Z" fill="#ffffff" fill-rule="evenodd" fill-opacity="1"/>
<defs>
  <clipPath id="clip152">
    <rect x="174" y="127" width="2467" height="1674"/>
  </clipPath>
</defs>
<polyline clip-path="url(#clip152)" style="stroke:#000000; stroke-linecap:round; stroke-linejoin:round; stroke-width:2; stroke-opacity:0.1; fill:none" points="244.683,1800.78 244.683,127.792 "/>
<polyline clip-path="url(#clip152)" style="stroke:#000000; stroke-linecap:round; stroke-linejoin:round; stroke-width:2; stroke-opacity:0.1; fill:none" points="826.254,1800.78 826.254,127.792 "/>
<polyline clip-path="url(#clip152)" style="stroke:#000000; stroke-linecap:round; stroke-linejoin:round; stroke-width:2; stroke-opacity:0.1; fill:none" points="1407.83,1800.78 1407.83,127.792 "/>
<polyline clip-path="url(#clip152)" style="stroke:#000000; stroke-linecap:round; stroke-linejoin:round; stroke-width:2; stroke-opacity:0.1; fill:none" points="1989.4,1800.78 1989.4,127.792 "/>
<polyline clip-path="url(#clip152)" style="stroke:#000000; stroke-linecap:round; stroke-linejoin:round; stroke-width:2; stroke-opacity:0.1; fill:none" points="2570.97,1800.78 2570.97,127.792 "/>
<polyline clip-path="url(#clip150)" style="stroke:#000000; stroke-linecap:round; stroke-linejoin:round; stroke-width:4; stroke-opacity:1; fill:none" points="174.895,1800.78 2640.76,1800.78 "/>
<polyline clip-path="url(#clip150)" style="stroke:#000000; stroke-linecap:round; stroke-linejoin:round; stroke-width:4; stroke-opacity:1; fill:none" points="244.683,1800.78 244.683,1781.88 "/>
<polyline clip-path="url(#clip150)" style="stroke:#000000; stroke-linecap:round; stroke-linejoin:round; stroke-width:4; stroke-opacity:1; fill:none" points="826.254,1800.78 826.254,1781.88 "/>
<polyline clip-path="url(#clip150)" style="stroke:#000000; stroke-linecap:round; stroke-linejoin:round; stroke-width:4; stroke-opacity:1; fill:none" points="1407.83,1800.78 1407.83,1781.88 "/>
<polyline clip-path="url(#clip150)" style="stroke:#000000; stroke-linecap:round; stroke-linejoin:round; stroke-width:4; stroke-opacity:1; fill:none" points="1989.4,1800.78 1989.4,1781.88 "/>
<polyline clip-path="url(#clip150)" style="stroke:#000000; stroke-linecap:round; stroke-linejoin:round; stroke-width:4; stroke-opacity:1; fill:none" points="2570.97,1800.78 2570.97,1781.88 "/>
<path clip-path="url(#clip150)" d="M206.987 1834 Q203.376 1834 201.547 1837.57 Q199.741 1841.11 199.741 1848.24 Q199.741 1855.34 201.547 1858.91 Q203.376 1862.45 206.987 1862.45 Q210.621 1862.45 212.427 1858.91 Q214.255 1855.34 214.255 1848.24 Q214.255 1841.11 212.427 1837.57 Q210.621 1834 206.987 1834 M206.987 1830.3 Q212.797 1830.3 215.852 1834.9 Q218.931 1839.49 218.931 1848.24 Q218.931 1856.96 215.852 1861.57 Q212.797 1866.15 206.987 1866.15 Q201.177 1866.15 198.098 1861.57 Q195.042 1856.96 195.042 1848.24 Q195.042 1839.49 198.098 1834.9 Q201.177 1830.3 206.987 1830.3 Z" fill="#000000" fill-rule="nonzero" fill-opacity="1" /><path clip-path="url(#clip150)" d="M227.149 1859.6 L232.033 1859.6 L232.033 1865.48 L227.149 1865.48 L227.149 1859.6 Z" fill="#000000" fill-rule="nonzero" fill-opacity="1" /><path clip-path="url(#clip150)" d="M252.218 1834 Q248.607 1834 246.778 1837.57 Q244.973 1841.11 244.973 1848.24 Q244.973 1855.34 246.778 1858.91 Q248.607 1862.45 252.218 1862.45 Q255.852 1862.45 257.658 1858.91 Q259.487 1855.34 259.487 1848.24 Q259.487 1841.11 257.658 1837.57 Q255.852 1834 252.218 1834 M252.218 1830.3 Q258.028 1830.3 261.084 1834.9 Q264.162 1839.49 264.162 1848.24 Q264.162 1856.96 261.084 1861.57 Q258.028 1866.15 252.218 1866.15 Q246.408 1866.15 243.329 1861.57 Q240.274 1856.96 240.274 1848.24 Q240.274 1839.49 243.329 1834.9 Q246.408 1830.3 252.218 1830.3 Z" fill="#000000" fill-rule="nonzero" fill-opacity="1" /><path clip-path="url(#clip150)" d="M282.38 1834 Q278.769 1834 276.94 1837.57 Q275.135 1841.11 275.135 1848.24 Q275.135 1855.34 276.94 1858.91 Q278.769 1862.45 282.38 1862.45 Q286.014 1862.45 287.82 1858.91 Q289.648 1855.34 289.648 1848.24 Q289.648 1841.11 287.82 1837.57 Q286.014 1834 282.38 1834 M282.38 1830.3 Q288.19 1830.3 291.246 1834.9 Q294.324 1839.49 294.324 1848.24 Q294.324 1856.96 291.246 1861.57 Q288.19 1866.15 282.38 1866.15 Q276.57 1866.15 273.491 1861.57 Q270.436 1856.96 270.436 1848.24 Q270.436 1839.49 273.491 1834.9 Q276.57 1830.3 282.38 1830.3 Z" fill="#000000" fill-rule="nonzero" fill-opacity="1" /><path clip-path="url(#clip150)" d="M789.055 1834 Q785.444 1834 783.616 1837.57 Q781.81 1841.11 781.81 1848.24 Q781.81 1855.34 783.616 1858.91 Q785.444 1862.45 789.055 1862.45 Q792.69 1862.45 794.495 1858.91 Q796.324 1855.34 796.324 1848.24 Q796.324 1841.11 794.495 1837.57 Q792.69 1834 789.055 1834 M789.055 1830.3 Q794.866 1830.3 797.921 1834.9 Q801 1839.49 801 1848.24 Q801 1856.96 797.921 1861.57 Q794.866 1866.15 789.055 1866.15 Q783.245 1866.15 780.167 1861.57 Q777.111 1856.96 777.111 1848.24 Q777.111 1839.49 780.167 1834.9 Q783.245 1830.3 789.055 1830.3 Z" fill="#000000" fill-rule="nonzero" fill-opacity="1" /><path clip-path="url(#clip150)" d="M809.217 1859.6 L814.102 1859.6 L814.102 1865.48 L809.217 1865.48 L809.217 1859.6 Z" fill="#000000" fill-rule="nonzero" fill-opacity="1" /><path clip-path="url(#clip150)" d="M828.315 1861.55 L844.634 1861.55 L844.634 1865.48 L822.69 1865.48 L822.69 1861.55 Q825.352 1858.79 829.935 1854.16 Q834.541 1849.51 835.722 1848.17 Q837.967 1845.65 838.847 1843.91 Q839.75 1842.15 839.75 1840.46 Q839.75 1837.71 837.805 1835.97 Q835.884 1834.23 832.782 1834.23 Q830.583 1834.23 828.129 1835 Q825.699 1835.76 822.921 1837.31 L822.921 1832.59 Q825.745 1831.46 828.199 1830.88 Q830.652 1830.3 832.69 1830.3 Q838.06 1830.3 841.254 1832.98 Q844.449 1835.67 844.449 1840.16 Q844.449 1842.29 843.639 1844.21 Q842.851 1846.11 840.745 1848.7 Q840.166 1849.37 837.064 1852.59 Q833.963 1855.78 828.315 1861.55 Z" fill="#000000" fill-rule="nonzero" fill-opacity="1" /><path clip-path="url(#clip150)" d="M854.495 1830.92 L872.851 1830.92 L872.851 1834.86 L858.777 1834.86 L858.777 1843.33 Q859.796 1842.98 860.814 1842.82 Q861.833 1842.64 862.851 1842.64 Q868.638 1842.64 872.018 1845.81 Q875.398 1848.98 875.398 1854.4 Q875.398 1859.97 871.925 1863.08 Q868.453 1866.15 862.134 1866.15 Q859.958 1866.15 857.689 1865.78 Q855.444 1865.41 853.037 1864.67 L853.037 1859.97 Q855.12 1861.11 857.342 1861.66 Q859.564 1862.22 862.041 1862.22 Q866.046 1862.22 868.384 1860.11 Q870.722 1858.01 870.722 1854.4 Q870.722 1850.78 868.384 1848.68 Q866.046 1846.57 862.041 1846.57 Q860.166 1846.57 858.291 1846.99 Q856.439 1847.4 854.495 1848.28 L854.495 1830.92 Z" fill="#000000" fill-rule="nonzero" fill-opacity="1" /><path clip-path="url(#clip150)" d="M1370.13 1834 Q1366.52 1834 1364.69 1837.57 Q1362.88 1841.11 1362.88 1848.24 Q1362.88 1855.34 1364.69 1858.91 Q1366.52 1862.45 1370.13 1862.45 Q1373.76 1862.45 1375.57 1858.91 Q1377.4 1855.34 1377.4 1848.24 Q1377.4 1841.11 1375.57 1837.57 Q1373.76 1834 1370.13 1834 M1370.13 1830.3 Q1375.94 1830.3 1378.99 1834.9 Q1382.07 1839.49 1382.07 1848.24 Q1382.07 1856.96 1378.99 1861.57 Q1375.94 1866.15 1370.13 1866.15 Q1364.32 1866.15 1361.24 1861.57 Q1358.18 1856.96 1358.18 1848.24 Q1358.18 1839.49 1361.24 1834.9 Q1364.32 1830.3 1370.13 1830.3 Z" fill="#000000" fill-rule="nonzero" fill-opacity="1" /><path clip-path="url(#clip150)" d="M1390.29 1859.6 L1395.17 1859.6 L1395.17 1865.48 L1390.29 1865.48 L1390.29 1859.6 Z" fill="#000000" fill-rule="nonzero" fill-opacity="1" /><path clip-path="url(#clip150)" d="M1405.41 1830.92 L1423.76 1830.92 L1423.76 1834.86 L1409.69 1834.86 L1409.69 1843.33 Q1410.71 1842.98 1411.73 1842.82 Q1412.74 1842.64 1413.76 1842.64 Q1419.55 1842.64 1422.93 1845.81 Q1426.31 1848.98 1426.31 1854.4 Q1426.31 1859.97 1422.84 1863.08 Q1419.36 1866.15 1413.05 1866.15 Q1410.87 1866.15 1408.6 1865.78 Q1406.36 1865.41 1403.95 1864.67 L1403.95 1859.97 Q1406.03 1861.11 1408.25 1861.66 Q1410.48 1862.22 1412.95 1862.22 Q1416.96 1862.22 1419.3 1860.11 Q1421.63 1858.01 1421.63 1854.4 Q1421.63 1850.78 1419.3 1848.68 Q1416.96 1846.57 1412.95 1846.57 Q1411.08 1846.57 1409.2 1846.99 Q1407.35 1847.4 1405.41 1848.28 L1405.41 1830.92 Z" fill="#000000" fill-rule="nonzero" fill-opacity="1" /><path clip-path="url(#clip150)" d="M1445.52 1834 Q1441.91 1834 1440.08 1837.57 Q1438.28 1841.11 1438.28 1848.24 Q1438.28 1855.34 1440.08 1858.91 Q1441.91 1862.45 1445.52 1862.45 Q1449.16 1862.45 1450.96 1858.91 Q1452.79 1855.34 1452.79 1848.24 Q1452.79 1841.11 1450.96 1837.57 Q1449.16 1834 1445.52 1834 M1445.52 1830.3 Q1451.33 1830.3 1454.39 1834.9 Q1457.47 1839.49 1457.47 1848.24 Q1457.47 1856.96 1454.39 1861.57 Q1451.33 1866.15 1445.52 1866.15 Q1439.71 1866.15 1436.63 1861.57 Q1433.58 1856.96 1433.58 1848.24 Q1433.58 1839.49 1436.63 1834.9 Q1439.71 1830.3 1445.52 1830.3 Z" fill="#000000" fill-rule="nonzero" fill-opacity="1" /><path clip-path="url(#clip150)" d="M1952.2 1834 Q1948.59 1834 1946.76 1837.57 Q1944.95 1841.11 1944.95 1848.24 Q1944.95 1855.34 1946.76 1858.91 Q1948.59 1862.45 1952.2 1862.45 Q1955.83 1862.45 1957.64 1858.91 Q1959.47 1855.34 1959.47 1848.24 Q1959.47 1841.11 1957.64 1837.57 Q1955.83 1834 1952.2 1834 M1952.2 1830.3 Q1958.01 1830.3 1961.06 1834.9 Q1964.14 1839.49 1964.14 1848.24 Q1964.14 1856.96 1961.06 1861.57 Q1958.01 1866.15 1952.2 1866.15 Q1946.39 1866.15 1943.31 1861.57 Q1940.25 1856.96 1940.25 1848.24 Q1940.25 1839.49 1943.31 1834.9 Q1946.39 1830.3 1952.2 1830.3 Z" fill="#000000" fill-rule="nonzero" fill-opacity="1" /><path clip-path="url(#clip150)" d="M1972.36 1859.6 L1977.24 1859.6 L1977.24 1865.48 L1972.36 1865.48 L1972.36 1859.6 Z" fill="#000000" fill-rule="nonzero" fill-opacity="1" /><path clip-path="url(#clip150)" d="M1986.25 1830.92 L2008.47 1830.92 L2008.47 1832.91 L1995.92 1865.48 L1991.04 1865.48 L2002.85 1834.86 L1986.25 1834.86 L1986.25 1830.92 Z" fill="#000000" fill-rule="nonzero" fill-opacity="1" /><path clip-path="url(#clip150)" d="M2017.64 1830.92 L2035.99 1830.92 L2035.99 1834.86 L2021.92 1834.86 L2021.92 1843.33 Q2022.94 1842.98 2023.96 1842.82 Q2024.97 1842.64 2025.99 1842.64 Q2031.78 1842.64 2035.16 1845.81 Q2038.54 1848.98 2038.54 1854.4 Q2038.54 1859.97 2035.07 1863.08 Q2031.6 1866.15 2025.28 1866.15 Q2023.1 1866.15 2020.83 1865.78 Q2018.59 1865.41 2016.18 1864.67 L2016.18 1859.97 Q2018.26 1861.11 2020.48 1861.66 Q2022.71 1862.22 2025.18 1862.22 Q2029.19 1862.22 2031.53 1860.11 Q2033.86 1858.01 2033.86 1854.4 Q2033.86 1850.78 2031.53 1848.68 Q2029.19 1846.57 2025.18 1846.57 Q2023.31 1846.57 2021.43 1846.99 Q2019.58 1847.4 2017.64 1848.28 L2017.64 1830.92 Z" fill="#000000" fill-rule="nonzero" fill-opacity="1" /><path clip-path="url(#clip150)" d="M2523.04 1861.55 L2530.68 1861.55 L2530.68 1835.18 L2522.37 1836.85 L2522.37 1832.59 L2530.63 1830.92 L2535.31 1830.92 L2535.31 1861.55 L2542.95 1861.55 L2542.95 1865.48 L2523.04 1865.48 L2523.04 1861.55 Z" fill="#000000" fill-rule="nonzero" fill-opacity="1" /><path clip-path="url(#clip150)" d="M2552.39 1859.6 L2557.28 1859.6 L2557.28 1865.48 L2552.39 1865.48 L2552.39 1859.6 Z" fill="#000000" fill-rule="nonzero" fill-opacity="1" /><path clip-path="url(#clip150)" d="M2577.46 1834 Q2573.85 1834 2572.02 1837.57 Q2570.22 1841.11 2570.22 1848.24 Q2570.22 1855.34 2572.02 1858.91 Q2573.85 1862.45 2577.46 1862.45 Q2581.09 1862.45 2582.9 1858.91 Q2584.73 1855.34 2584.73 1848.24 Q2584.73 1841.11 2582.9 1837.57 Q2581.09 1834 2577.46 1834 M2577.46 1830.3 Q2583.27 1830.3 2586.33 1834.9 Q2589.4 1839.49 2589.4 1848.24 Q2589.4 1856.96 2586.33 1861.57 Q2583.27 1866.15 2577.46 1866.15 Q2571.65 1866.15 2568.57 1861.57 Q2565.52 1856.96 2565.52 1848.24 Q2565.52 1839.49 2568.57 1834.9 Q2571.65 1830.3 2577.46 1830.3 Z" fill="#000000" fill-rule="nonzero" fill-opacity="1" /><path clip-path="url(#clip150)" d="M2607.62 1834 Q2604.01 1834 2602.18 1837.57 Q2600.38 1841.11 2600.38 1848.24 Q2600.38 1855.34 2602.18 1858.91 Q2604.01 1862.45 2607.62 1862.45 Q2611.26 1862.45 2613.06 1858.91 Q2614.89 1855.34 2614.89 1848.24 Q2614.89 1841.11 2613.06 1837.57 Q2611.26 1834 2607.62 1834 M2607.62 1830.3 Q2613.43 1830.3 2616.49 1834.9 Q2619.57 1839.49 2619.57 1848.24 Q2619.57 1856.96 2616.49 1861.57 Q2613.43 1866.15 2607.62 1866.15 Q2601.81 1866.15 2598.73 1861.57 Q2595.68 1856.96 2595.68 1848.24 Q2595.68 1839.49 2598.73 1834.9 Q2601.81 1830.3 2607.62 1830.3 Z" fill="#000000" fill-rule="nonzero" fill-opacity="1" /><polyline clip-path="url(#clip152)" style="stroke:#000000; stroke-linecap:round; stroke-linejoin:round; stroke-width:2; stroke-opacity:0.1; fill:none" points="174.895,1777.49 2640.76,1777.49 "/>
<polyline clip-path="url(#clip152)" style="stroke:#000000; stroke-linecap:round; stroke-linejoin:round; stroke-width:2; stroke-opacity:0.1; fill:none" points="174.895,1495.79 2640.76,1495.79 "/>
<polyline clip-path="url(#clip152)" style="stroke:#000000; stroke-linecap:round; stroke-linejoin:round; stroke-width:2; stroke-opacity:0.1; fill:none" points="174.895,1214.09 2640.76,1214.09 "/>
<polyline clip-path="url(#clip152)" style="stroke:#000000; stroke-linecap:round; stroke-linejoin:round; stroke-width:2; stroke-opacity:0.1; fill:none" points="174.895,932.391 2640.76,932.391 "/>
<polyline clip-path="url(#clip152)" style="stroke:#000000; stroke-linecap:round; stroke-linejoin:round; stroke-width:2; stroke-opacity:0.1; fill:none" points="174.895,650.69 2640.76,650.69 "/>
<polyline clip-path="url(#clip152)" style="stroke:#000000; stroke-linecap:round; stroke-linejoin:round; stroke-width:2; stroke-opacity:0.1; fill:none" points="174.895,368.989 2640.76,368.989 "/>
<polyline clip-path="url(#clip150)" style="stroke:#000000; stroke-linecap:round; stroke-linejoin:round; stroke-width:4; stroke-opacity:1; fill:none" points="174.895,1800.78 174.895,127.792 "/>
<polyline clip-path="url(#clip150)" style="stroke:#000000; stroke-linecap:round; stroke-linejoin:round; stroke-width:4; stroke-opacity:1; fill:none" points="174.895,1777.49 193.792,1777.49 "/>
<polyline clip-path="url(#clip150)" style="stroke:#000000; stroke-linecap:round; stroke-linejoin:round; stroke-width:4; stroke-opacity:1; fill:none" points="174.895,1495.79 193.792,1495.79 "/>
<polyline clip-path="url(#clip150)" style="stroke:#000000; stroke-linecap:round; stroke-linejoin:round; stroke-width:4; stroke-opacity:1; fill:none" points="174.895,1214.09 193.792,1214.09 "/>
<polyline clip-path="url(#clip150)" style="stroke:#000000; stroke-linecap:round; stroke-linejoin:round; stroke-width:4; stroke-opacity:1; fill:none" points="174.895,932.391 193.792,932.391 "/>
<polyline clip-path="url(#clip150)" style="stroke:#000000; stroke-linecap:round; stroke-linejoin:round; stroke-width:4; stroke-opacity:1; fill:none" points="174.895,650.69 193.792,650.69 "/>
<polyline clip-path="url(#clip150)" style="stroke:#000000; stroke-linecap:round; stroke-linejoin:round; stroke-width:4; stroke-opacity:1; fill:none" points="174.895,368.989 193.792,368.989 "/>
<path clip-path="url(#clip150)" d="M122.63 1763.29 Q119.019 1763.29 117.191 1766.86 Q115.385 1770.4 115.385 1777.53 Q115.385 1784.63 117.191 1788.2 Q119.019 1791.74 122.63 1791.74 Q126.265 1791.74 128.07 1788.2 Q129.899 1784.63 129.899 1777.53 Q129.899 1770.4 128.07 1766.86 Q126.265 1763.29 122.63 1763.29 M122.63 1759.59 Q128.441 1759.59 131.496 1764.19 Q134.575 1768.78 134.575 1777.53 Q134.575 1786.25 131.496 1790.86 Q128.441 1795.44 122.63 1795.44 Q116.82 1795.44 113.742 1790.86 Q110.686 1786.25 110.686 1777.53 Q110.686 1768.78 113.742 1764.19 Q116.82 1759.59 122.63 1759.59 Z" fill="#000000" fill-rule="nonzero" fill-opacity="1" /><path clip-path="url(#clip150)" d="M53.1169 1509.14 L60.7558 1509.14 L60.7558 1482.77 L52.4456 1484.44 L52.4456 1480.18 L60.7095 1478.51 L65.3854 1478.51 L65.3854 1509.14 L73.0242 1509.14 L73.0242 1513.07 L53.1169 1513.07 L53.1169 1509.14 Z" fill="#000000" fill-rule="nonzero" fill-opacity="1" /><path clip-path="url(#clip150)" d="M92.4686 1481.59 Q88.8575 1481.59 87.0288 1485.16 Q85.2232 1488.7 85.2232 1495.83 Q85.2232 1502.93 87.0288 1506.5 Q88.8575 1510.04 92.4686 1510.04 Q96.1028 1510.04 97.9083 1506.5 Q99.737 1502.93 99.737 1495.83 Q99.737 1488.7 97.9083 1485.16 Q96.1028 1481.59 92.4686 1481.59 M92.4686 1477.89 Q98.2787 1477.89 101.334 1482.49 Q104.413 1487.08 104.413 1495.83 Q104.413 1504.55 101.334 1509.16 Q98.2787 1513.74 92.4686 1513.74 Q86.6584 1513.74 83.5797 1509.16 Q80.5242 1504.55 80.5242 1495.83 Q80.5242 1487.08 83.5797 1482.49 Q86.6584 1477.89 92.4686 1477.89 Z" fill="#000000" fill-rule="nonzero" fill-opacity="1" /><path clip-path="url(#clip150)" d="M122.63 1481.59 Q119.019 1481.59 117.191 1485.16 Q115.385 1488.7 115.385 1495.83 Q115.385 1502.93 117.191 1506.5 Q119.019 1510.04 122.63 1510.04 Q126.265 1510.04 128.07 1506.5 Q129.899 1502.93 129.899 1495.83 Q129.899 1488.7 128.07 1485.16 Q126.265 1481.59 122.63 1481.59 M122.63 1477.89 Q128.441 1477.89 131.496 1482.49 Q134.575 1487.08 134.575 1495.83 Q134.575 1504.55 131.496 1509.16 Q128.441 1513.74 122.63 1513.74 Q116.82 1513.74 113.742 1509.16 Q110.686 1504.55 110.686 1495.83 Q110.686 1487.08 113.742 1482.49 Q116.82 1477.89 122.63 1477.89 Z" fill="#000000" fill-rule="nonzero" fill-opacity="1" /><path clip-path="url(#clip150)" d="M56.3345 1227.44 L72.6539 1227.44 L72.6539 1231.37 L50.7095 1231.37 L50.7095 1227.44 Q53.3715 1224.68 57.9549 1220.05 Q62.5613 1215.4 63.7419 1214.06 Q65.9872 1211.53 66.8668 1209.8 Q67.7696 1208.04 67.7696 1206.35 Q67.7696 1203.59 65.8252 1201.86 Q63.9039 1200.12 60.8021 1200.12 Q58.603 1200.12 56.1493 1200.89 Q53.7188 1201.65 50.941 1203.2 L50.941 1198.48 Q53.7651 1197.34 56.2188 1196.77 Q58.6724 1196.19 60.7095 1196.19 Q66.0798 1196.19 69.2742 1198.87 Q72.4687 1201.56 72.4687 1206.05 Q72.4687 1208.18 71.6585 1210.1 Q70.8715 1212 68.765 1214.59 Q68.1863 1215.26 65.0845 1218.48 Q61.9826 1221.67 56.3345 1227.44 Z" fill="#000000" fill-rule="nonzero" fill-opacity="1" /><path clip-path="url(#clip150)" d="M92.4686 1199.89 Q88.8575 1199.89 87.0288 1203.45 Q85.2232 1207 85.2232 1214.13 Q85.2232 1221.23 87.0288 1224.8 Q88.8575 1228.34 92.4686 1228.34 Q96.1028 1228.34 97.9083 1224.8 Q99.737 1221.23 99.737 1214.13 Q99.737 1207 97.9083 1203.45 Q96.1028 1199.89 92.4686 1199.89 M92.4686 1196.19 Q98.2787 1196.19 101.334 1200.79 Q104.413 1205.38 104.413 1214.13 Q104.413 1222.85 101.334 1227.46 Q98.2787 1232.04 92.4686 1232.04 Q86.6584 1232.04 83.5797 1227.46 Q80.5242 1222.85 80.5242 1214.13 Q80.5242 1205.38 83.5797 1200.79 Q86.6584 1196.19 92.4686 1196.19 Z" fill="#000000" fill-rule="nonzero" fill-opacity="1" /><path clip-path="url(#clip150)" d="M122.63 1199.89 Q119.019 1199.89 117.191 1203.45 Q115.385 1207 115.385 1214.13 Q115.385 1221.23 117.191 1224.8 Q119.019 1228.34 122.63 1228.34 Q126.265 1228.34 128.07 1224.8 Q129.899 1221.23 129.899 1214.13 Q129.899 1207 128.07 1203.45 Q126.265 1199.89 122.63 1199.89 M122.63 1196.19 Q128.441 1196.19 131.496 1200.79 Q134.575 1205.38 134.575 1214.13 Q134.575 1222.85 131.496 1227.46 Q128.441 1232.04 122.63 1232.04 Q116.82 1232.04 113.742 1227.46 Q110.686 1222.85 110.686 1214.13 Q110.686 1205.38 113.742 1200.79 Q116.82 1196.19 122.63 1196.19 Z" fill="#000000" fill-rule="nonzero" fill-opacity="1" /><path clip-path="url(#clip150)" d="M66.4733 931.036 Q69.8298 931.754 71.7048 934.023 Q73.6029 936.291 73.6029 939.624 Q73.6029 944.74 70.0844 947.541 Q66.5659 950.342 60.0845 950.342 Q57.9086 950.342 55.5938 949.902 Q53.3021 949.485 50.8484 948.629 L50.8484 944.115 Q52.7928 945.249 55.1077 945.828 Q57.4225 946.407 59.9456 946.407 Q64.3437 946.407 66.6354 944.671 Q68.9502 942.935 68.9502 939.624 Q68.9502 936.569 66.7974 934.856 Q64.6678 933.12 60.8484 933.12 L56.8206 933.12 L56.8206 929.277 L61.0335 929.277 Q64.4826 929.277 66.3113 927.911 Q68.14 926.523 68.14 923.93 Q68.14 921.268 66.2419 919.856 Q64.3669 918.421 60.8484 918.421 Q58.9271 918.421 56.728 918.837 Q54.529 919.254 51.8901 920.134 L51.8901 915.967 Q54.5521 915.226 56.8669 914.856 Q59.2049 914.486 61.265 914.486 Q66.5891 914.486 69.6909 916.916 Q72.7927 919.324 72.7927 923.444 Q72.7927 926.314 71.1492 928.305 Q69.5057 930.273 66.4733 931.036 Z" fill="#000000" fill-rule="nonzero" fill-opacity="1" /><path clip-path="url(#clip150)" d="M92.4686 918.189 Q88.8575 918.189 87.0288 921.754 Q85.2232 925.296 85.2232 932.425 Q85.2232 939.532 87.0288 943.097 Q88.8575 946.638 92.4686 946.638 Q96.1028 946.638 97.9083 943.097 Q99.737 939.532 99.737 932.425 Q99.737 925.296 97.9083 921.754 Q96.1028 918.189 92.4686 918.189 M92.4686 914.486 Q98.2787 914.486 101.334 919.092 Q104.413 923.675 104.413 932.425 Q104.413 941.152 101.334 945.759 Q98.2787 950.342 92.4686 950.342 Q86.6584 950.342 83.5797 945.759 Q80.5242 941.152 80.5242 932.425 Q80.5242 923.675 83.5797 919.092 Q86.6584 914.486 92.4686 914.486 Z" fill="#000000" fill-rule="nonzero" fill-opacity="1" /><path clip-path="url(#clip150)" d="M122.63 918.189 Q119.019 918.189 117.191 921.754 Q115.385 925.296 115.385 932.425 Q115.385 939.532 117.191 943.097 Q119.019 946.638 122.63 946.638 Q126.265 946.638 128.07 943.097 Q129.899 939.532 129.899 932.425 Q129.899 925.296 128.07 921.754 Q126.265 918.189 122.63 918.189 M122.63 914.486 Q128.441 914.486 131.496 919.092 Q134.575 923.675 134.575 932.425 Q134.575 941.152 131.496 945.759 Q128.441 950.342 122.63 950.342 Q116.82 950.342 113.742 945.759 Q110.686 941.152 110.686 932.425 Q110.686 923.675 113.742 919.092 Q116.82 914.486 122.63 914.486 Z" fill="#000000" fill-rule="nonzero" fill-opacity="1" /><path clip-path="url(#clip150)" d="M65.1539 637.484 L53.3484 655.933 L65.1539 655.933 L65.1539 637.484 M63.927 633.41 L69.8066 633.41 L69.8066 655.933 L74.7372 655.933 L74.7372 659.822 L69.8066 659.822 L69.8066 667.97 L65.1539 667.97 L65.1539 659.822 L49.5521 659.822 L49.5521 655.308 L63.927 633.41 Z" fill="#000000" fill-rule="nonzero" fill-opacity="1" /><path clip-path="url(#clip150)" d="M92.4686 636.488 Q88.8575 636.488 87.0288 640.053 Q85.2232 643.595 85.2232 650.724 Q85.2232 657.831 87.0288 661.396 Q88.8575 664.937 92.4686 664.937 Q96.1028 664.937 97.9083 661.396 Q99.737 657.831 99.737 650.724 Q99.737 643.595 97.9083 640.053 Q96.1028 636.488 92.4686 636.488 M92.4686 632.785 Q98.2787 632.785 101.334 637.391 Q104.413 641.975 104.413 650.724 Q104.413 659.451 101.334 664.058 Q98.2787 668.641 92.4686 668.641 Q86.6584 668.641 83.5797 664.058 Q80.5242 659.451 80.5242 650.724 Q80.5242 641.975 83.5797 637.391 Q86.6584 632.785 92.4686 632.785 Z" fill="#000000" fill-rule="nonzero" fill-opacity="1" /><path clip-path="url(#clip150)" d="M122.63 636.488 Q119.019 636.488 117.191 640.053 Q115.385 643.595 115.385 650.724 Q115.385 657.831 117.191 661.396 Q119.019 664.937 122.63 664.937 Q126.265 664.937 128.07 661.396 Q129.899 657.831 129.899 650.724 Q129.899 643.595 128.07 640.053 Q126.265 636.488 122.63 636.488 M122.63 632.785 Q128.441 632.785 131.496 637.391 Q134.575 641.975 134.575 650.724 Q134.575 659.451 131.496 664.058 Q128.441 668.641 122.63 668.641 Q116.82 668.641 113.742 664.058 Q110.686 659.451 110.686 650.724 Q110.686 641.975 113.742 637.391 Q116.82 632.785 122.63 632.785 Z" fill="#000000" fill-rule="nonzero" fill-opacity="1" /><path clip-path="url(#clip150)" d="M52.353 351.709 L70.7094 351.709 L70.7094 355.644 L56.6354 355.644 L56.6354 364.116 Q57.6539 363.769 58.6724 363.607 Q59.691 363.422 60.7095 363.422 Q66.4965 363.422 69.8761 366.593 Q73.2557 369.764 73.2557 375.181 Q73.2557 380.76 69.7835 383.861 Q66.3113 386.94 59.9919 386.94 Q57.816 386.94 55.5475 386.57 Q53.3021 386.199 50.8947 385.459 L50.8947 380.76 Q52.978 381.894 55.2002 382.449 Q57.4225 383.005 59.8993 383.005 Q63.9039 383.005 66.2419 380.899 Q68.5798 378.792 68.5798 375.181 Q68.5798 371.57 66.2419 369.463 Q63.9039 367.357 59.8993 367.357 Q58.0243 367.357 56.1493 367.774 Q54.2975 368.19 52.353 369.07 L52.353 351.709 Z" fill="#000000" fill-rule="nonzero" fill-opacity="1" /><path clip-path="url(#clip150)" d="M92.4686 354.788 Q88.8575 354.788 87.0288 358.352 Q85.2232 361.894 85.2232 369.024 Q85.2232 376.13 87.0288 379.695 Q88.8575 383.236 92.4686 383.236 Q96.1028 383.236 97.9083 379.695 Q99.737 376.13 99.737 369.024 Q99.737 361.894 97.9083 358.352 Q96.1028 354.788 92.4686 354.788 M92.4686 351.084 Q98.2787 351.084 101.334 355.69 Q104.413 360.274 104.413 369.024 Q104.413 377.75 101.334 382.357 Q98.2787 386.94 92.4686 386.94 Q86.6584 386.94 83.5797 382.357 Q80.5242 377.75 80.5242 369.024 Q80.5242 360.274 83.5797 355.69 Q86.6584 351.084 92.4686 351.084 Z" fill="#000000" fill-rule="nonzero" fill-opacity="1" /><path clip-path="url(#clip150)" d="M122.63 354.788 Q119.019 354.788 117.191 358.352 Q115.385 361.894 115.385 369.024 Q115.385 376.13 117.191 379.695 Q119.019 383.236 122.63 383.236 Q126.265 383.236 128.07 379.695 Q129.899 376.13 129.899 369.024 Q129.899 361.894 128.07 358.352 Q126.265 354.788 122.63 354.788 M122.63 351.084 Q128.441 351.084 131.496 355.69 Q134.575 360.274 134.575 369.024 Q134.575 377.75 131.496 382.357 Q128.441 386.94 122.63 386.94 Q116.82 386.94 113.742 382.357 Q110.686 377.75 110.686 369.024 Q110.686 360.274 113.742 355.69 Q116.82 351.084 122.63 351.084 Z" fill="#000000" fill-rule="nonzero" fill-opacity="1" /><path clip-path="url(#clip150)" d="M918.314 17.6457 Q909.402 17.6457 904.136 24.2892 Q898.91 30.9327 898.91 42.3968 Q898.91 53.8203 904.136 60.4638 Q909.402 67.1073 918.314 67.1073 Q927.226 67.1073 932.411 60.4638 Q937.637 53.8203 937.637 42.3968 Q937.637 30.9327 932.411 24.2892 Q927.226 17.6457 918.314 17.6457 M929.778 71.4823 L940.554 83.2704 L930.669 83.2704 L921.717 73.5887 Q920.38 73.6697 919.651 73.7103 Q918.962 73.7508 918.314 73.7508 Q905.554 73.7508 897.898 65.2439 Q890.282 56.6965 890.282 42.3968 Q890.282 28.0566 897.898 19.5497 Q905.554 11.0023 918.314 11.0023 Q931.034 11.0023 938.65 19.5497 Q946.265 28.0566 946.265 42.3968 Q946.265 52.9291 942.012 60.4233 Q937.799 67.9175 929.778 71.4823 Z" fill="#000000" fill-rule="nonzero" fill-opacity="1" /><path clip-path="url(#clip150)" d="M957.972 54.671 L957.972 27.2059 L965.426 27.2059 L965.426 54.3874 Q965.426 60.8284 967.938 64.0691 Q970.449 67.2693 975.472 67.2693 Q981.508 67.2693 984.992 63.421 Q988.516 59.5726 988.516 52.9291 L988.516 27.2059 L995.97 27.2059 L995.97 72.576 L988.516 72.576 L988.516 65.6084 Q985.802 69.7404 982.197 71.7658 Q978.632 73.7508 973.893 73.7508 Q966.074 73.7508 962.023 68.8897 Q957.972 64.0286 957.972 54.671 M976.728 26.1121 L976.728 26.1121 Z" fill="#000000" fill-rule="nonzero" fill-opacity="1" /><path clip-path="url(#clip150)" d="M1031.94 49.7694 Q1022.91 49.7694 1019.42 51.8354 Q1015.94 53.9013 1015.94 58.8839 Q1015.94 62.8538 1018.53 65.2034 Q1021.17 67.5124 1025.66 67.5124 Q1031.86 67.5124 1035.59 63.1374 Q1039.36 58.7219 1039.36 51.4303 L1039.36 49.7694 L1031.94 49.7694 M1046.81 46.6907 L1046.81 72.576 L1039.36 72.576 L1039.36 65.6895 Q1036.8 69.8214 1033 71.8063 Q1029.19 73.7508 1023.68 73.7508 Q1016.71 73.7508 1012.58 69.8619 Q1008.49 65.9325 1008.49 59.3701 Q1008.49 51.7138 1013.59 47.825 Q1018.74 43.9361 1028.9 43.9361 L1039.36 43.9361 L1039.36 43.2069 Q1039.36 38.0623 1035.95 35.2672 Q1032.59 32.4315 1026.47 32.4315 Q1022.58 32.4315 1018.9 33.3632 Q1015.21 34.295 1011.81 36.1584 L1011.81 29.2718 Q1015.9 27.692 1019.75 26.9223 Q1023.6 26.1121 1027.24 26.1121 Q1037.09 26.1121 1041.95 31.2163 Q1046.81 36.3204 1046.81 46.6907 Z" fill="#000000" fill-rule="nonzero" fill-opacity="1" /><path clip-path="url(#clip150)" d="M1099.88 45.1919 L1099.88 72.576 L1092.42 72.576 L1092.42 45.4349 Q1092.42 38.994 1089.91 35.7938 Q1087.4 32.5936 1082.38 32.5936 Q1076.34 32.5936 1072.86 36.4419 Q1069.37 40.2903 1069.37 46.9338 L1069.37 72.576 L1061.88 72.576 L1061.88 27.2059 L1069.37 27.2059 L1069.37 34.2544 Q1072.05 30.163 1075.65 28.1376 Q1079.3 26.1121 1084.04 26.1121 Q1091.85 26.1121 1095.87 30.9732 Q1099.88 35.7938 1099.88 45.1919 Z" fill="#000000" fill-rule="nonzero" fill-opacity="1" /><path clip-path="url(#clip150)" d="M1122.12 14.324 L1122.12 27.2059 L1137.47 27.2059 L1137.47 32.9987 L1122.12 32.9987 L1122.12 57.6282 Q1122.12 63.1779 1123.61 64.7578 Q1125.15 66.3376 1129.81 66.3376 L1137.47 66.3376 L1137.47 72.576 L1129.81 72.576 Q1121.18 72.576 1117.9 69.3758 Q1114.62 66.1351 1114.62 57.6282 L1114.62 32.9987 L1109.15 32.9987 L1109.15 27.2059 L1114.62 27.2059 L1114.62 14.324 L1122.12 14.324 Z" fill="#000000" fill-rule="nonzero" fill-opacity="1" /><path clip-path="url(#clip150)" d="M1147.27 27.2059 L1154.72 27.2059 L1154.72 72.576 L1147.27 72.576 L1147.27 27.2059 M1147.27 9.54393 L1154.72 9.54393 L1154.72 18.9825 L1147.27 18.9825 L1147.27 9.54393 Z" fill="#000000" fill-rule="nonzero" fill-opacity="1" /><path clip-path="url(#clip150)" d="M1170.32 9.54393 L1177.77 9.54393 L1177.77 72.576 L1170.32 72.576 L1170.32 9.54393 Z" fill="#000000" fill-rule="nonzero" fill-opacity="1" /><path clip-path="url(#clip150)" d="M1232.18 48.0275 L1232.18 51.6733 L1197.91 51.6733 Q1198.39 59.3701 1202.53 63.421 Q1206.7 67.4314 1214.11 67.4314 Q1218.41 67.4314 1222.42 66.3781 Q1226.47 65.3249 1230.44 63.2184 L1230.44 70.267 Q1226.43 71.9684 1222.21 72.8596 Q1218 73.7508 1213.67 73.7508 Q1202.81 73.7508 1196.45 67.4314 Q1190.13 61.1119 1190.13 50.3365 Q1190.13 39.1965 1196.13 32.6746 Q1202.16 26.1121 1212.37 26.1121 Q1221.52 26.1121 1226.83 32.0264 Q1232.18 37.9003 1232.18 48.0275 M1224.72 45.84 Q1224.64 39.7232 1221.28 36.0774 Q1217.96 32.4315 1212.45 32.4315 Q1206.21 32.4315 1202.44 35.9558 Q1198.72 39.4801 1198.15 45.8805 L1224.72 45.84 Z" fill="#000000" fill-rule="nonzero" fill-opacity="1" /><path clip-path="url(#clip150)" d="M1300.64 34.0924 L1300.64 9.54393 L1308.09 9.54393 L1308.09 72.576 L1300.64 72.576 L1300.64 65.7705 Q1298.29 69.8214 1294.68 71.8063 Q1291.12 73.7508 1286.1 73.7508 Q1277.87 73.7508 1272.69 67.1883 Q1267.54 60.6258 1267.54 49.9314 Q1267.54 39.2371 1272.69 32.6746 Q1277.87 26.1121 1286.1 26.1121 Q1291.12 26.1121 1294.68 28.0971 Q1298.29 30.0415 1300.64 34.0924 M1275.24 49.9314 Q1275.24 58.1548 1278.6 62.8538 Q1282 67.5124 1287.92 67.5124 Q1293.83 67.5124 1297.24 62.8538 Q1300.64 58.1548 1300.64 49.9314 Q1300.64 41.7081 1297.24 37.0496 Q1293.83 32.3505 1287.92 32.3505 Q1282 32.3505 1278.6 37.0496 Q1275.24 41.7081 1275.24 49.9314 Z" fill="#000000" fill-rule="nonzero" fill-opacity="1" /><path clip-path="url(#clip150)" d="M1362.25 48.0275 L1362.25 51.6733 L1327.98 51.6733 Q1328.47 59.3701 1332.6 63.421 Q1336.77 67.4314 1344.19 67.4314 Q1348.48 67.4314 1352.49 66.3781 Q1356.54 65.3249 1360.51 63.2184 L1360.51 70.267 Q1356.5 71.9684 1352.29 72.8596 Q1348.07 73.7508 1343.74 73.7508 Q1332.88 73.7508 1326.52 67.4314 Q1320.2 61.1119 1320.2 50.3365 Q1320.2 39.1965 1326.2 32.6746 Q1332.24 26.1121 1342.44 26.1121 Q1351.6 26.1121 1356.91 32.0264 Q1362.25 37.9003 1362.25 48.0275 M1354.8 45.84 Q1354.72 39.7232 1351.36 36.0774 Q1348.03 32.4315 1342.52 32.4315 Q1336.29 32.4315 1332.52 35.9558 Q1328.79 39.4801 1328.23 45.8805 L1354.8 45.84 Z" fill="#000000" fill-rule="nonzero" fill-opacity="1" /><path clip-path="url(#clip150)" d="M1412.2 45.1919 L1412.2 72.576 L1404.75 72.576 L1404.75 45.4349 Q1404.75 38.994 1402.24 35.7938 Q1399.72 32.5936 1394.7 32.5936 Q1388.66 32.5936 1385.18 36.4419 Q1381.7 40.2903 1381.7 46.9338 L1381.7 72.576 L1374.2 72.576 L1374.2 27.2059 L1381.7 27.2059 L1381.7 34.2544 Q1384.37 30.163 1387.98 28.1376 Q1391.62 26.1121 1396.36 26.1121 Q1404.18 26.1121 1408.19 30.9732 Q1412.2 35.7938 1412.2 45.1919 Z" fill="#000000" fill-rule="nonzero" fill-opacity="1" /><path clip-path="url(#clip150)" d="M1455.99 28.5427 L1455.99 35.5912 Q1452.83 33.9709 1449.43 33.1607 Q1446.03 32.3505 1442.38 32.3505 Q1436.83 32.3505 1434.03 34.0519 Q1431.28 35.7533 1431.28 39.156 Q1431.28 41.7486 1433.27 43.2475 Q1435.25 44.7058 1441.25 46.0426 L1443.8 46.6097 Q1451.74 48.3111 1455.06 51.4303 Q1458.42 54.509 1458.42 60.0587 Q1458.42 66.3781 1453.4 70.0644 Q1448.42 73.7508 1439.67 73.7508 Q1436.02 73.7508 1432.05 73.0216 Q1428.12 72.3329 1423.75 70.9151 L1423.75 63.2184 Q1427.88 65.3654 1431.89 66.4591 Q1435.9 67.5124 1439.83 67.5124 Q1445.09 67.5124 1447.93 65.73 Q1450.76 63.9071 1450.76 60.6258 Q1450.76 57.5877 1448.7 55.9673 Q1446.67 54.3469 1439.75 52.8481 L1437.15 52.2405 Q1430.23 50.7821 1427.15 47.7845 Q1424.07 44.7463 1424.07 39.4801 Q1424.07 33.0797 1428.61 29.5959 Q1433.14 26.1121 1441.49 26.1121 Q1445.62 26.1121 1449.27 26.7198 Q1452.91 27.3274 1455.99 28.5427 Z" fill="#000000" fill-rule="nonzero" fill-opacity="1" /><path clip-path="url(#clip150)" d="M1470.29 27.2059 L1477.74 27.2059 L1477.74 72.576 L1470.29 72.576 L1470.29 27.2059 M1470.29 9.54393 L1477.74 9.54393 L1477.74 18.9825 L1470.29 18.9825 L1470.29 9.54393 Z" fill="#000000" fill-rule="nonzero" fill-opacity="1" /><path clip-path="url(#clip150)" d="M1500.71 14.324 L1500.71 27.2059 L1516.07 27.2059 L1516.07 32.9987 L1500.71 32.9987 L1500.71 57.6282 Q1500.71 63.1779 1502.21 64.7578 Q1503.75 66.3376 1508.41 66.3376 L1516.07 66.3376 L1516.07 72.576 L1508.41 72.576 Q1499.78 72.576 1496.5 69.3758 Q1493.22 66.1351 1493.22 57.6282 L1493.22 32.9987 L1487.75 32.9987 L1487.75 27.2059 L1493.22 27.2059 L1493.22 14.324 L1500.71 14.324 Z" fill="#000000" fill-rule="nonzero" fill-opacity="1" /><path clip-path="url(#clip150)" d="M1544.75 76.7889 Q1541.59 84.8907 1538.59 87.3618 Q1535.59 89.8329 1530.57 89.8329 L1524.61 89.8329 L1524.61 83.5945 L1528.99 83.5945 Q1532.07 83.5945 1533.77 82.1361 Q1535.47 80.6778 1537.54 75.2496 L1538.87 71.8468 L1520.52 27.2059 L1528.42 27.2059 L1542.6 62.6918 L1556.78 27.2059 L1564.68 27.2059 L1544.75 76.7889 Z" fill="#000000" fill-rule="nonzero" fill-opacity="1" /><path clip-path="url(#clip150)" d="M1624.31 9.54393 L1624.31 15.7418 L1617.18 15.7418 Q1613.17 15.7418 1611.59 17.3622 Q1610.05 18.9825 1610.05 23.1955 L1610.05 27.2059 L1622.32 27.2059 L1622.32 32.9987 L1610.05 32.9987 L1610.05 72.576 L1602.55 72.576 L1602.55 32.9987 L1595.42 32.9987 L1595.42 27.2059 L1602.55 27.2059 L1602.55 24.0462 Q1602.55 16.471 1606.08 13.0277 Q1609.6 9.54393 1617.26 9.54393 L1624.31 9.54393 Z" fill="#000000" fill-rule="nonzero" fill-opacity="1" /><path clip-path="url(#clip150)" d="M1629.77 54.671 L1629.77 27.2059 L1637.23 27.2059 L1637.23 54.3874 Q1637.23 60.8284 1639.74 64.0691 Q1642.25 67.2693 1647.27 67.2693 Q1653.31 67.2693 1656.79 63.421 Q1660.32 59.5726 1660.32 52.9291 L1660.32 27.2059 L1667.77 27.2059 L1667.77 72.576 L1660.32 72.576 L1660.32 65.6084 Q1657.6 69.7404 1654 71.7658 Q1650.43 73.7508 1645.69 73.7508 Q1637.88 73.7508 1633.83 68.8897 Q1629.77 64.0286 1629.77 54.671 M1648.53 26.1121 L1648.53 26.1121 Z" fill="#000000" fill-rule="nonzero" fill-opacity="1" /><path clip-path="url(#clip150)" d="M1720.84 45.1919 L1720.84 72.576 L1713.39 72.576 L1713.39 45.4349 Q1713.39 38.994 1710.87 35.7938 Q1708.36 32.5936 1703.34 32.5936 Q1697.3 32.5936 1693.82 36.4419 Q1690.34 40.2903 1690.34 46.9338 L1690.34 72.576 L1682.84 72.576 L1682.84 27.2059 L1690.34 27.2059 L1690.34 34.2544 Q1693.01 30.163 1696.61 28.1376 Q1700.26 26.1121 1705 26.1121 Q1712.82 26.1121 1716.83 30.9732 Q1720.84 35.7938 1720.84 45.1919 Z" fill="#000000" fill-rule="nonzero" fill-opacity="1" /><path clip-path="url(#clip150)" d="M1768.36 28.9478 L1768.36 35.9153 Q1765.2 34.1734 1762 33.3227 Q1758.84 32.4315 1755.6 32.4315 Q1748.34 32.4315 1744.33 37.0496 Q1740.32 41.6271 1740.32 49.9314 Q1740.32 58.2358 1744.33 62.8538 Q1748.34 67.4314 1755.6 67.4314 Q1758.84 67.4314 1762 66.5807 Q1765.2 65.6895 1768.36 63.9476 L1768.36 70.8341 Q1765.24 72.2924 1761.87 73.0216 Q1758.55 73.7508 1754.79 73.7508 Q1744.54 73.7508 1738.5 67.3098 Q1732.46 60.8689 1732.46 49.9314 Q1732.46 38.832 1738.54 32.472 Q1744.66 26.1121 1755.27 26.1121 Q1758.71 26.1121 1762 26.8413 Q1765.28 27.5299 1768.36 28.9478 Z" fill="#000000" fill-rule="nonzero" fill-opacity="1" /><path clip-path="url(#clip150)" d="M1788.69 14.324 L1788.69 27.2059 L1804.04 27.2059 L1804.04 32.9987 L1788.69 32.9987 L1788.69 57.6282 Q1788.69 63.1779 1790.19 64.7578 Q1791.73 66.3376 1796.39 66.3376 L1804.04 66.3376 L1804.04 72.576 L1796.39 72.576 Q1787.76 72.576 1784.48 69.3758 Q1781.2 66.1351 1781.2 57.6282 L1781.2 32.9987 L1775.73 32.9987 L1775.73 27.2059 L1781.2 27.2059 L1781.2 14.324 L1788.69 14.324 Z" fill="#000000" fill-rule="nonzero" fill-opacity="1" /><path clip-path="url(#clip150)" d="M1813.85 27.2059 L1821.3 27.2059 L1821.3 72.576 L1813.85 72.576 L1813.85 27.2059 M1813.85 9.54393 L1821.3 9.54393 L1821.3 18.9825 L1813.85 18.9825 L1813.85 9.54393 Z" fill="#000000" fill-rule="nonzero" fill-opacity="1" /><path clip-path="url(#clip150)" d="M1854.48 32.4315 Q1848.48 32.4315 1845 37.1306 Q1841.52 41.7891 1841.52 49.9314 Q1841.52 58.0738 1844.96 62.7728 Q1848.44 67.4314 1854.48 67.4314 Q1860.43 67.4314 1863.92 62.7323 Q1867.4 58.0333 1867.4 49.9314 Q1867.4 41.8701 1863.92 37.1711 Q1860.43 32.4315 1854.48 32.4315 M1854.48 26.1121 Q1864.2 26.1121 1869.75 32.4315 Q1875.3 38.7509 1875.3 49.9314 Q1875.3 61.0714 1869.75 67.4314 Q1864.2 73.7508 1854.48 73.7508 Q1844.72 73.7508 1839.17 67.4314 Q1833.66 61.0714 1833.66 49.9314 Q1833.66 38.7509 1839.17 32.4315 Q1844.72 26.1121 1854.48 26.1121 Z" fill="#000000" fill-rule="nonzero" fill-opacity="1" /><path clip-path="url(#clip150)" d="M1925.37 45.1919 L1925.37 72.576 L1917.92 72.576 L1917.92 45.4349 Q1917.92 38.994 1915.4 35.7938 Q1912.89 32.5936 1907.87 32.5936 Q1901.83 32.5936 1898.35 36.4419 Q1894.87 40.2903 1894.87 46.9338 L1894.87 72.576 L1887.37 72.576 L1887.37 27.2059 L1894.87 27.2059 L1894.87 34.2544 Q1897.54 30.163 1901.14 28.1376 Q1904.79 26.1121 1909.53 26.1121 Q1917.35 26.1121 1921.36 30.9732 Q1925.37 35.7938 1925.37 45.1919 Z" fill="#000000" fill-rule="nonzero" fill-opacity="1" /><polyline clip-path="url(#clip152)" style="stroke:#009af9; stroke-linecap:round; stroke-linejoin:round; stroke-width:4; stroke-opacity:1; fill:none" points="267.946,175.141 291.209,1069.67 314.472,1337.35 337.735,1462.6 360.998,1534.2 384.26,1580.13 407.523,1611.9 430.786,1635.09 454.049,1652.69 477.312,1666.47 500.575,1677.52 523.837,1686.56 547.1,1694.09 570.363,1700.44 593.626,1705.86 616.889,1710.54 640.152,1714.61 663.414,1718.18 686.677,1721.34 709.94,1724.14 733.203,1726.65 756.466,1728.9 779.729,1730.93 802.992,1732.77 826.254,1734.44 849.517,1735.97 872.78,1737.36 896.043,1738.64 919.306,1739.82 942.569,1740.9 965.831,1741.91 989.094,1742.83 1012.36,1743.69 1035.62,1744.49 1058.88,1745.23 1082.15,1745.92 1105.41,1746.56 1128.67,1747.16 1151.93,1747.71 1175.2,1748.23 1198.46,1748.71 1221.72,1749.17 1244.99,1749.59 1268.25,1749.98 1291.51,1750.34 1314.77,1750.68 1338.04,1751 1361.3,1751.29 1384.56,1751.56 1407.83,1751.81 1431.09,1752.04 1454.35,1752.25 1477.61,1752.44 1500.88,1752.61 1524.14,1752.77 1547.4,1752.91 1570.67,1753.03 1593.93,1753.14 1617.19,1753.23 1640.45,1753.3 1663.72,1753.36 1686.98,1753.4 1710.24,1753.42 1733.51,1753.43 1756.77,1753.42 1780.03,1753.4 1803.29,1753.35 1826.56,1753.29 1849.82,1753.21 1873.08,1753.11 1896.35,1752.99 1919.61,1752.84 1942.87,1752.68 1966.13,1752.49 1989.4,1752.27 2012.66,1752.02 2035.92,1751.74 2059.18,1751.43 2082.45,1751.07 2105.71,1750.68 2128.97,1750.24 2152.24,1749.74 2175.5,1749.18 2198.76,1748.55 2222.02,1747.84 2245.29,1747.03 2268.55,1746.11 2291.81,1745.04 2315.08,1743.81 2338.34,1742.36 2361.6,1740.64 2384.86,1738.56 2408.13,1735.98 2431.39,1732.72 2454.65,1728.4 2477.92,1722.38 2501.18,1713.27 2524.44,1697.32 2547.7,1658.92 "/>
<path clip-path="url(#clip150)" d="M819.135 287.238 L2558.56 287.238 L2558.56 183.558 L819.135 183.558  Z" fill="#ffffff" fill-rule="evenodd" fill-opacity="1"/>
<polyline clip-path="url(#clip150)" style="stroke:#000000; stroke-linecap:round; stroke-linejoin:round; stroke-width:4; stroke-opacity:1; fill:none" points="819.135,287.238 2558.56,287.238 2558.56,183.558 819.135,183.558 819.135,287.238 "/>
<polyline clip-path="url(#clip150)" style="stroke:#009af9; stroke-linecap:round; stroke-linejoin:round; stroke-width:4; stroke-opacity:1; fill:none" points="846.534,235.398 1010.92,235.398 "/>
<path clip-path="url(#clip150)" d="M1054.34 221.29 Q1049.25 221.29 1046.24 225.086 Q1043.25 228.882 1043.25 235.433 Q1043.25 241.961 1046.24 245.757 Q1049.25 249.553 1054.34 249.553 Q1059.43 249.553 1062.4 245.757 Q1065.38 241.961 1065.38 235.433 Q1065.38 228.882 1062.4 225.086 Q1059.43 221.29 1054.34 221.29 M1060.89 252.053 L1067.05 258.789 L1061.4 258.789 L1056.29 253.257 Q1055.52 253.303 1055.11 253.327 Q1054.71 253.35 1054.34 253.35 Q1047.05 253.35 1042.67 248.489 Q1038.32 243.604 1038.32 235.433 Q1038.32 227.239 1042.67 222.378 Q1047.05 217.493 1054.34 217.493 Q1061.61 217.493 1065.96 222.378 Q1070.31 227.239 1070.31 235.433 Q1070.31 241.452 1067.88 245.734 Q1065.48 250.016 1060.89 252.053 Z" fill="#000000" fill-rule="nonzero" fill-opacity="1" /><path clip-path="url(#clip150)" d="M1082.3 221.961 L1082.3 248.836 L1087.95 248.836 Q1095.1 248.836 1098.42 245.595 Q1101.75 242.354 1101.75 235.364 Q1101.75 228.419 1098.42 225.202 Q1095.1 221.961 1087.95 221.961 L1082.3 221.961 M1077.63 218.118 L1087.23 218.118 Q1097.28 218.118 1101.98 222.308 Q1106.68 226.475 1106.68 235.364 Q1106.68 244.299 1101.96 248.489 Q1097.23 252.678 1087.23 252.678 L1077.63 252.678 L1077.63 218.118 Z" fill="#000000" fill-rule="nonzero" fill-opacity="1" /><path clip-path="url(#clip150)" d="M1113.95 226.753 L1118.21 226.753 L1118.21 252.678 L1113.95 252.678 L1113.95 226.753 M1113.95 216.66 L1118.21 216.66 L1118.21 222.054 L1113.95 222.054 L1113.95 216.66 Z" fill="#000000" fill-rule="nonzero" fill-opacity="1" /><path clip-path="url(#clip150)" d="M1143.65 227.516 L1143.65 231.544 Q1141.84 230.618 1139.9 230.155 Q1137.95 229.692 1135.87 229.692 Q1132.7 229.692 1131.1 230.665 Q1129.53 231.637 1129.53 233.581 Q1129.53 235.063 1130.66 235.919 Q1131.79 236.753 1135.22 237.516 L1136.68 237.84 Q1141.22 238.813 1143.11 240.595 Q1145.04 242.354 1145.04 245.526 Q1145.04 249.137 1142.16 251.243 Q1139.32 253.35 1134.32 253.35 Q1132.23 253.35 1129.97 252.933 Q1127.72 252.539 1125.22 251.729 L1125.22 247.331 Q1127.58 248.558 1129.87 249.183 Q1132.16 249.785 1134.41 249.785 Q1137.42 249.785 1139.04 248.766 Q1140.66 247.725 1140.66 245.85 Q1140.66 244.114 1139.48 243.188 Q1138.32 242.262 1134.36 241.405 L1132.88 241.058 Q1128.92 240.225 1127.16 238.512 Q1125.41 236.776 1125.41 233.766 Q1125.41 230.109 1128 228.118 Q1130.59 226.128 1135.36 226.128 Q1137.72 226.128 1139.8 226.475 Q1141.89 226.822 1143.65 227.516 Z" fill="#000000" fill-rule="nonzero" fill-opacity="1" /><path clip-path="url(#clip150)" d="M1156.03 219.392 L1156.03 226.753 L1164.8 226.753 L1164.8 230.063 L1156.03 230.063 L1156.03 244.137 Q1156.03 247.308 1156.89 248.211 Q1157.77 249.114 1160.43 249.114 L1164.8 249.114 L1164.8 252.678 L1160.43 252.678 Q1155.5 252.678 1153.62 250.85 Q1151.75 248.998 1151.75 244.137 L1151.75 230.063 L1148.62 230.063 L1148.62 226.753 L1151.75 226.753 L1151.75 219.392 L1156.03 219.392 Z" fill="#000000" fill-rule="nonzero" fill-opacity="1" /><path clip-path="url(#clip150)" d="M1185.43 230.734 Q1184.71 230.317 1183.85 230.132 Q1183.02 229.924 1182 229.924 Q1178.39 229.924 1176.45 232.285 Q1174.53 234.623 1174.53 239.021 L1174.53 252.678 L1170.24 252.678 L1170.24 226.753 L1174.53 226.753 L1174.53 230.78 Q1175.87 228.419 1178.02 227.285 Q1180.17 226.128 1183.25 226.128 Q1183.69 226.128 1184.22 226.197 Q1184.76 226.243 1185.41 226.359 L1185.43 230.734 Z" fill="#000000" fill-rule="nonzero" fill-opacity="1" /><path clip-path="url(#clip150)" d="M1189.9 226.753 L1194.16 226.753 L1194.16 252.678 L1189.9 252.678 L1189.9 226.753 M1189.9 216.66 L1194.16 216.66 L1194.16 222.054 L1189.9 222.054 L1189.9 216.66 Z" fill="#000000" fill-rule="nonzero" fill-opacity="1" /><path clip-path="url(#clip150)" d="M1221.68 239.739 Q1221.68 235.04 1219.73 232.378 Q1217.81 229.692 1214.43 229.692 Q1211.05 229.692 1209.11 232.378 Q1207.19 235.04 1207.19 239.739 Q1207.19 244.438 1209.11 247.123 Q1211.05 249.785 1214.43 249.785 Q1217.81 249.785 1219.73 247.123 Q1221.68 244.438 1221.68 239.739 M1207.19 230.688 Q1208.53 228.373 1210.57 227.262 Q1212.63 226.128 1215.47 226.128 Q1220.2 226.128 1223.14 229.878 Q1226.1 233.628 1226.1 239.739 Q1226.1 245.85 1223.14 249.6 Q1220.2 253.35 1215.47 253.35 Q1212.63 253.35 1210.57 252.239 Q1208.53 251.104 1207.19 248.789 L1207.19 252.678 L1202.91 252.678 L1202.91 216.66 L1207.19 216.66 L1207.19 230.688 Z" fill="#000000" fill-rule="nonzero" fill-opacity="1" /><path clip-path="url(#clip150)" d="M1232.72 242.447 L1232.72 226.753 L1236.98 226.753 L1236.98 242.285 Q1236.98 245.965 1238.41 247.817 Q1239.85 249.646 1242.72 249.646 Q1246.17 249.646 1248.16 247.447 Q1250.17 245.248 1250.17 241.452 L1250.17 226.753 L1254.43 226.753 L1254.43 252.678 L1250.17 252.678 L1250.17 248.697 Q1248.62 251.058 1246.56 252.215 Q1244.53 253.35 1241.82 253.35 Q1237.35 253.35 1235.03 250.572 Q1232.72 247.794 1232.72 242.447 M1243.44 226.128 L1243.44 226.128 Z" fill="#000000" fill-rule="nonzero" fill-opacity="1" /><path clip-path="url(#clip150)" d="M1267.42 219.392 L1267.42 226.753 L1276.19 226.753 L1276.19 230.063 L1267.42 230.063 L1267.42 244.137 Q1267.42 247.308 1268.28 248.211 Q1269.15 249.114 1271.82 249.114 L1276.19 249.114 L1276.19 252.678 L1271.82 252.678 Q1266.89 252.678 1265.01 250.85 Q1263.14 248.998 1263.14 244.137 L1263.14 230.063 L1260.01 230.063 L1260.01 226.753 L1263.14 226.753 L1263.14 219.392 L1267.42 219.392 Z" fill="#000000" fill-rule="nonzero" fill-opacity="1" /><path clip-path="url(#clip150)" d="M1281.79 226.753 L1286.05 226.753 L1286.05 252.678 L1281.79 252.678 L1281.79 226.753 M1281.79 216.66 L1286.05 216.66 L1286.05 222.054 L1281.79 222.054 L1281.79 216.66 Z" fill="#000000" fill-rule="nonzero" fill-opacity="1" /><path clip-path="url(#clip150)" d="M1305.01 229.739 Q1301.59 229.739 1299.59 232.424 Q1297.6 235.086 1297.6 239.739 Q1297.6 244.391 1299.57 247.077 Q1301.56 249.739 1305.01 249.739 Q1308.41 249.739 1310.4 247.053 Q1312.4 244.368 1312.4 239.739 Q1312.4 235.132 1310.4 232.447 Q1308.41 229.739 1305.01 229.739 M1305.01 226.128 Q1310.57 226.128 1313.74 229.739 Q1316.91 233.35 1316.91 239.739 Q1316.91 246.104 1313.74 249.739 Q1310.57 253.35 1305.01 253.35 Q1299.43 253.35 1296.26 249.739 Q1293.11 246.104 1293.11 239.739 Q1293.11 233.35 1296.26 229.739 Q1299.43 226.128 1305.01 226.128 Z" fill="#000000" fill-rule="nonzero" fill-opacity="1" /><path clip-path="url(#clip150)" d="M1345.52 237.03 L1345.52 252.678 L1341.26 252.678 L1341.26 237.169 Q1341.26 233.489 1339.83 231.66 Q1338.39 229.831 1335.52 229.831 Q1332.07 229.831 1330.08 232.03 Q1328.09 234.229 1328.09 238.026 L1328.09 252.678 L1323.81 252.678 L1323.81 226.753 L1328.09 226.753 L1328.09 230.78 Q1329.62 228.442 1331.68 227.285 Q1333.76 226.128 1336.47 226.128 Q1340.94 226.128 1343.23 228.905 Q1345.52 231.66 1345.52 237.03 Z" fill="#000000" fill-rule="nonzero" fill-opacity="1" /><path clip-path="url(#clip150)" d="M1370.54 227.516 L1370.54 231.544 Q1368.74 230.618 1366.79 230.155 Q1364.85 229.692 1362.77 229.692 Q1359.59 229.692 1358 230.665 Q1356.42 231.637 1356.42 233.581 Q1356.42 235.063 1357.56 235.919 Q1358.69 236.753 1362.12 237.516 L1363.58 237.84 Q1368.11 238.813 1370.01 240.595 Q1371.93 242.354 1371.93 245.526 Q1371.93 249.137 1369.06 251.243 Q1366.21 253.35 1361.21 253.35 Q1359.13 253.35 1356.86 252.933 Q1354.62 252.539 1352.12 251.729 L1352.12 247.331 Q1354.48 248.558 1356.77 249.183 Q1359.06 249.785 1361.31 249.785 Q1364.32 249.785 1365.94 248.766 Q1367.56 247.725 1367.56 245.85 Q1367.56 244.114 1366.38 243.188 Q1365.22 242.262 1361.26 241.405 L1359.78 241.058 Q1355.82 240.225 1354.06 238.512 Q1352.3 236.776 1352.3 233.766 Q1352.3 230.109 1354.9 228.118 Q1357.49 226.128 1362.26 226.128 Q1364.62 226.128 1366.7 226.475 Q1368.78 226.822 1370.54 227.516 Z" fill="#000000" fill-rule="nonzero" fill-opacity="1" /><path clip-path="url(#clip150)" d="M1379.32 246.799 L1384.2 246.799 L1384.2 252.678 L1379.32 252.678 L1379.32 246.799 Z" fill="#000000" fill-rule="nonzero" fill-opacity="1" /><path clip-path="url(#clip150)" d="M1417.53 247.748 L1417.53 238.465 L1409.89 238.465 L1409.89 234.623 L1422.16 234.623 L1422.16 249.461 Q1419.46 251.382 1416.19 252.377 Q1412.93 253.35 1409.22 253.35 Q1401.12 253.35 1396.54 248.627 Q1391.98 243.882 1391.98 235.433 Q1391.98 226.961 1396.54 222.239 Q1401.12 217.493 1409.22 217.493 Q1412.6 217.493 1415.64 218.327 Q1418.69 219.16 1421.26 220.78 L1421.26 225.757 Q1418.67 223.558 1415.75 222.447 Q1412.83 221.336 1409.62 221.336 Q1403.27 221.336 1400.08 224.878 Q1396.91 228.419 1396.91 235.433 Q1396.91 242.424 1400.08 245.965 Q1403.27 249.507 1409.62 249.507 Q1412.09 249.507 1414.04 249.09 Q1415.98 248.651 1417.53 247.748 Z" fill="#000000" fill-rule="nonzero" fill-opacity="1" /><path clip-path="url(#clip150)" d="M1430.71 218.118 L1435.38 218.118 L1435.38 248.743 L1452.21 248.743 L1452.21 252.678 L1430.71 252.678 L1430.71 218.118 Z" fill="#000000" fill-rule="nonzero" fill-opacity="1" /><path clip-path="url(#clip150)" d="M1461.79 221.961 L1461.79 248.836 L1467.44 248.836 Q1474.59 248.836 1477.9 245.595 Q1481.24 242.354 1481.24 235.364 Q1481.24 228.419 1477.9 225.202 Q1474.59 221.961 1467.44 221.961 L1461.79 221.961 M1457.12 218.118 L1466.72 218.118 Q1476.77 218.118 1481.47 222.308 Q1486.17 226.475 1486.17 235.364 Q1486.17 244.299 1481.45 248.489 Q1476.72 252.678 1466.72 252.678 L1457.12 252.678 L1457.12 218.118 Z" fill="#000000" fill-rule="nonzero" fill-opacity="1" /><path clip-path="url(#clip150)" d="M1512.09 227.748 L1512.09 231.729 Q1510.29 230.734 1508.46 230.248 Q1506.65 229.739 1504.8 229.739 Q1500.66 229.739 1498.37 232.378 Q1496.08 234.993 1496.08 239.739 Q1496.08 244.484 1498.37 247.123 Q1500.66 249.739 1504.8 249.739 Q1506.65 249.739 1508.46 249.252 Q1510.29 248.743 1512.09 247.748 L1512.09 251.683 Q1510.31 252.516 1508.39 252.933 Q1506.49 253.35 1504.34 253.35 Q1498.48 253.35 1495.03 249.669 Q1491.58 245.989 1491.58 239.739 Q1491.58 233.396 1495.06 229.762 Q1498.55 226.128 1504.62 226.128 Q1506.58 226.128 1508.46 226.544 Q1510.33 226.938 1512.09 227.748 Z" fill="#000000" fill-rule="nonzero" fill-opacity="1" /><path clip-path="url(#clip150)" d="M1536.03 227.516 L1536.03 231.544 Q1534.22 230.618 1532.28 230.155 Q1530.33 229.692 1528.25 229.692 Q1525.08 229.692 1523.48 230.665 Q1521.91 231.637 1521.91 233.581 Q1521.91 235.063 1523.04 235.919 Q1524.18 236.753 1527.6 237.516 L1529.06 237.84 Q1533.6 238.813 1535.5 240.595 Q1537.42 242.354 1537.42 245.526 Q1537.42 249.137 1534.55 251.243 Q1531.7 253.35 1526.7 253.35 Q1524.62 253.35 1522.35 252.933 Q1520.1 252.539 1517.6 251.729 L1517.6 247.331 Q1519.96 248.558 1522.26 249.183 Q1524.55 249.785 1526.79 249.785 Q1529.8 249.785 1531.42 248.766 Q1533.04 247.725 1533.04 245.85 Q1533.04 244.114 1531.86 243.188 Q1530.7 242.262 1526.75 241.405 L1525.26 241.058 Q1521.31 240.225 1519.55 238.512 Q1517.79 236.776 1517.79 233.766 Q1517.79 230.109 1520.38 228.118 Q1522.97 226.128 1527.74 226.128 Q1530.1 226.128 1532.19 226.475 Q1534.27 226.822 1536.03 227.516 Z" fill="#000000" fill-rule="nonzero" fill-opacity="1" /><path clip-path="url(#clip150)" d="M1541.72 226.753 L1545.98 226.753 L1551.31 246.984 L1556.61 226.753 L1561.63 226.753 L1566.95 246.984 L1572.26 226.753 L1576.51 226.753 L1569.73 252.678 L1564.71 252.678 L1559.13 231.428 L1553.53 252.678 L1548.51 252.678 L1541.72 226.753 Z" fill="#000000" fill-rule="nonzero" fill-opacity="1" /><path clip-path="url(#clip150)" d="M1602.74 257.076 L1602.74 260.41 L1601.31 260.41 Q1595.54 260.41 1593.57 258.697 Q1591.63 256.984 1591.63 251.868 L1591.63 246.336 Q1591.63 242.84 1590.38 241.498 Q1589.13 240.155 1585.84 240.155 L1584.43 240.155 L1584.43 236.845 L1585.84 236.845 Q1589.15 236.845 1590.38 235.526 Q1591.63 234.183 1591.63 230.734 L1591.63 225.179 Q1591.63 220.063 1593.57 218.373 Q1595.54 216.66 1601.31 216.66 L1602.74 216.66 L1602.74 219.97 L1601.17 219.97 Q1597.9 219.97 1596.91 220.989 Q1595.91 222.007 1595.91 225.271 L1595.91 231.012 Q1595.91 234.646 1594.85 236.29 Q1593.81 237.933 1591.26 238.512 Q1593.83 239.137 1594.87 240.78 Q1595.91 242.424 1595.91 246.035 L1595.91 251.776 Q1595.91 255.039 1596.91 256.058 Q1597.9 257.076 1601.17 257.076 L1602.74 257.076 Z" fill="#000000" fill-rule="nonzero" fill-opacity="1" /><path clip-path="url(#clip150)" d="M1613.32 218.118 L1633.18 218.118 L1633.18 222.054 L1618 222.054 L1618 232.239 L1631.7 232.239 L1631.7 236.174 L1618 236.174 L1618 252.678 L1613.32 252.678 L1613.32 218.118 Z" fill="#000000" fill-rule="nonzero" fill-opacity="1" /><path clip-path="url(#clip150)" d="M1640.4 216.66 L1644.66 216.66 L1644.66 252.678 L1640.4 252.678 L1640.4 216.66 Z" fill="#000000" fill-rule="nonzero" fill-opacity="1" /><path clip-path="url(#clip150)" d="M1663.62 229.739 Q1660.19 229.739 1658.2 232.424 Q1656.21 235.086 1656.21 239.739 Q1656.21 244.391 1658.18 247.077 Q1660.17 249.739 1663.62 249.739 Q1667.02 249.739 1669.01 247.053 Q1671 244.368 1671 239.739 Q1671 235.132 1669.01 232.447 Q1667.02 229.739 1663.62 229.739 M1663.62 226.128 Q1669.18 226.128 1672.35 229.739 Q1675.52 233.35 1675.52 239.739 Q1675.52 246.104 1672.35 249.739 Q1669.18 253.35 1663.62 253.35 Q1658.04 253.35 1654.87 249.739 Q1651.72 246.104 1651.72 239.739 Q1651.72 233.35 1654.87 229.739 Q1658.04 226.128 1663.62 226.128 Z" fill="#000000" fill-rule="nonzero" fill-opacity="1" /><path clip-path="url(#clip150)" d="M1694.36 239.646 Q1689.2 239.646 1687.21 240.827 Q1685.22 242.007 1685.22 244.854 Q1685.22 247.123 1686.7 248.465 Q1688.2 249.785 1690.77 249.785 Q1694.31 249.785 1696.44 247.285 Q1698.6 244.762 1698.6 240.595 L1698.6 239.646 L1694.36 239.646 M1702.86 237.887 L1702.86 252.678 L1698.6 252.678 L1698.6 248.743 Q1697.14 251.104 1694.96 252.239 Q1692.79 253.35 1689.64 253.35 Q1685.66 253.35 1683.3 251.127 Q1680.96 248.882 1680.96 245.132 Q1680.96 240.757 1683.87 238.535 Q1686.81 236.313 1692.62 236.313 L1698.6 236.313 L1698.6 235.896 Q1698.6 232.956 1696.65 231.359 Q1694.73 229.739 1691.24 229.739 Q1689.01 229.739 1686.91 230.271 Q1684.8 230.803 1682.86 231.868 L1682.86 227.933 Q1685.19 227.03 1687.39 226.591 Q1689.59 226.128 1691.68 226.128 Q1697.3 226.128 1700.08 229.044 Q1702.86 231.961 1702.86 237.887 Z" fill="#000000" fill-rule="nonzero" fill-opacity="1" /><path clip-path="url(#clip150)" d="M1715.84 219.392 L1715.84 226.753 L1724.62 226.753 L1724.62 230.063 L1715.84 230.063 L1715.84 244.137 Q1715.84 247.308 1716.7 248.211 Q1717.58 249.114 1720.24 249.114 L1724.62 249.114 L1724.62 252.678 L1720.24 252.678 Q1715.31 252.678 1713.43 250.85 Q1711.56 248.998 1711.56 244.137 L1711.56 230.063 L1708.44 230.063 L1708.44 226.753 L1711.56 226.753 L1711.56 219.392 L1715.84 219.392 Z" fill="#000000" fill-rule="nonzero" fill-opacity="1" /><path clip-path="url(#clip150)" d="M1741.4 233.535 Q1738.25 233.535 1736.4 235.688 Q1734.57 237.84 1734.57 241.59 Q1734.57 245.317 1736.4 247.493 Q1738.25 249.646 1741.4 249.646 Q1744.55 249.646 1746.37 247.493 Q1748.23 245.317 1748.23 241.59 Q1748.23 237.84 1746.37 235.688 Q1744.55 233.535 1741.4 233.535 M1750.68 218.882 L1750.68 223.141 Q1748.92 222.308 1747.12 221.868 Q1745.33 221.429 1743.57 221.429 Q1738.94 221.429 1736.49 224.554 Q1734.06 227.678 1733.71 233.998 Q1735.08 231.984 1737.14 230.919 Q1739.2 229.831 1741.68 229.831 Q1746.88 229.831 1749.89 233.003 Q1752.93 236.151 1752.93 241.59 Q1752.93 246.915 1749.78 250.132 Q1746.63 253.35 1741.4 253.35 Q1735.4 253.35 1732.23 248.766 Q1729.06 244.16 1729.06 235.433 Q1729.06 227.239 1732.95 222.378 Q1736.84 217.493 1743.39 217.493 Q1745.15 217.493 1746.93 217.841 Q1748.74 218.188 1750.68 218.882 Z" fill="#000000" fill-rule="nonzero" fill-opacity="1" /><path clip-path="url(#clip150)" d="M1773.83 222.192 L1762.02 240.641 L1773.83 240.641 L1773.83 222.192 M1772.6 218.118 L1778.48 218.118 L1778.48 240.641 L1783.41 240.641 L1783.41 244.53 L1778.48 244.53 L1778.48 252.678 L1773.83 252.678 L1773.83 244.53 L1758.23 244.53 L1758.23 240.016 L1772.6 218.118 Z" fill="#000000" fill-rule="nonzero" fill-opacity="1" /><path clip-path="url(#clip150)" d="M1792 257.076 L1793.62 257.076 Q1796.86 257.076 1797.83 256.081 Q1798.83 255.086 1798.83 251.776 L1798.83 246.035 Q1798.83 242.424 1799.87 240.78 Q1800.91 239.137 1803.48 238.512 Q1800.91 237.933 1799.87 236.29 Q1798.83 234.646 1798.83 231.012 L1798.83 225.271 Q1798.83 221.984 1797.83 220.989 Q1796.86 219.97 1793.62 219.97 L1792 219.97 L1792 216.66 L1793.46 216.66 Q1799.22 216.66 1801.14 218.373 Q1803.09 220.063 1803.09 225.179 L1803.09 230.734 Q1803.09 234.183 1804.34 235.526 Q1805.59 236.845 1808.87 236.845 L1810.31 236.845 L1810.31 240.155 L1808.87 240.155 Q1805.59 240.155 1804.34 241.498 Q1803.09 242.84 1803.09 246.336 L1803.09 251.868 Q1803.09 256.984 1801.14 258.697 Q1799.22 260.41 1793.46 260.41 L1792 260.41 L1792 257.076 Z" fill="#000000" fill-rule="nonzero" fill-opacity="1" /><path clip-path="url(#clip150)" d="M1830.93 216.706 Q1827.83 222.03 1826.33 227.239 Q1824.82 232.447 1824.82 237.794 Q1824.82 243.141 1826.33 248.396 Q1827.86 253.627 1830.93 258.928 L1827.23 258.928 Q1823.76 253.489 1822.02 248.234 Q1820.31 242.979 1820.31 237.794 Q1820.31 232.632 1822.02 227.401 Q1823.74 222.169 1827.23 216.706 L1830.93 216.706 Z" fill="#000000" fill-rule="nonzero" fill-opacity="1" /><path clip-path="url(#clip150)" d="M1838.76 262.539 L1838.76 226.753 L1843.02 226.753 L1843.02 242.864 Q1843.02 246.22 1844.61 247.933 Q1846.21 249.646 1849.34 249.646 Q1852.76 249.646 1854.48 247.702 Q1856.21 245.757 1856.21 241.868 L1856.21 226.753 L1860.47 226.753 L1860.47 246.706 Q1860.47 248.095 1860.86 248.766 Q1861.28 249.414 1862.14 249.414 Q1862.35 249.414 1862.72 249.299 Q1863.09 249.16 1863.74 248.882 L1863.74 252.308 Q1862.79 252.84 1861.93 253.095 Q1861.1 253.35 1860.29 253.35 Q1858.69 253.35 1857.74 252.447 Q1856.79 251.544 1856.44 249.692 Q1855.29 251.521 1853.6 252.447 Q1851.93 253.35 1849.66 253.35 Q1847.3 253.35 1845.63 252.447 Q1843.99 251.544 1843.02 249.739 L1843.02 262.539 L1838.76 262.539 Z" fill="#000000" fill-rule="nonzero" fill-opacity="1" /><path clip-path="url(#clip150)" d="M1869.92 231.151 L1899.59 231.151 L1899.59 235.04 L1869.92 235.04 L1869.92 231.151 M1869.92 240.595 L1899.59 240.595 L1899.59 244.53 L1869.92 244.53 L1869.92 240.595 Z" fill="#000000" fill-rule="nonzero" fill-opacity="1" /><path clip-path="url(#clip150)" d="M1910.49 248.743 L1918.13 248.743 L1918.13 222.378 L1909.82 224.044 L1909.82 219.785 L1918.09 218.118 L1922.76 218.118 L1922.76 248.743 L1930.4 248.743 L1930.4 252.678 L1910.49 252.678 L1910.49 248.743 Z" fill="#000000" fill-rule="nonzero" fill-opacity="1" /><path clip-path="url(#clip150)" d="M1939.85 246.799 L1944.73 246.799 L1944.73 252.678 L1939.85 252.678 L1939.85 246.799 Z" fill="#000000" fill-rule="nonzero" fill-opacity="1" /><path clip-path="url(#clip150)" d="M1964.92 221.197 Q1961.3 221.197 1959.48 224.762 Q1957.67 228.303 1957.67 235.433 Q1957.67 242.54 1959.48 246.104 Q1961.3 249.646 1964.92 249.646 Q1968.55 249.646 1970.35 246.104 Q1972.18 242.54 1972.18 235.433 Q1972.18 228.303 1970.35 224.762 Q1968.55 221.197 1964.92 221.197 M1964.92 217.493 Q1970.73 217.493 1973.78 222.1 Q1976.86 226.683 1976.86 235.433 Q1976.86 244.16 1973.78 248.766 Q1970.73 253.35 1964.92 253.35 Q1959.1 253.35 1956.03 248.766 Q1952.97 244.16 1952.97 235.433 Q1952.97 226.683 1956.03 222.1 Q1959.1 217.493 1964.92 217.493 Z" fill="#000000" fill-rule="nonzero" fill-opacity="1" /><path clip-path="url(#clip150)" d="M1985.56 246.799 L1990.45 246.799 L1990.45 250.78 L1986.65 258.188 L1983.67 258.188 L1985.56 250.78 L1985.56 246.799 Z" fill="#000000" fill-rule="nonzero" fill-opacity="1" /><path clip-path="url(#clip150)" d="M2024.66 230.132 Q2021.14 230.132 2019.24 232.678 Q2017.25 235.34 2017.25 239.739 Q2017.25 244.391 2019.22 247.077 Q2021.21 249.739 2024.66 249.739 Q2028.06 249.739 2030.05 247.053 Q2032.04 244.368 2032.04 239.739 Q2032.04 235.503 2030.05 232.678 Q2028.22 230.132 2024.66 230.132 M2024.66 226.753 L2038.8 226.753 L2038.8 231.012 L2034.04 231.012 Q2036.56 234.623 2036.56 239.739 Q2036.56 246.104 2033.39 249.715 Q2030.22 253.35 2024.66 253.35 Q2019.08 253.35 2015.93 249.715 Q2012.76 246.104 2012.76 239.739 Q2012.76 233.327 2015.93 229.739 Q2018.55 226.753 2024.66 226.753 Z" fill="#000000" fill-rule="nonzero" fill-opacity="1" /><path clip-path="url(#clip150)" d="M2045.22 231.151 L2074.89 231.151 L2074.89 235.04 L2045.22 235.04 L2045.22 231.151 M2045.22 240.595 L2074.89 240.595 L2074.89 244.53 L2045.22 244.53 L2045.22 240.595 Z" fill="#000000" fill-rule="nonzero" fill-opacity="1" /><path clip-path="url(#clip150)" d="M2085.03 218.118 L2103.39 218.118 L2103.39 222.054 L2089.31 222.054 L2089.31 230.526 Q2090.33 230.178 2091.35 230.016 Q2092.37 229.831 2093.39 229.831 Q2099.17 229.831 2102.55 233.003 Q2105.93 236.174 2105.93 241.59 Q2105.93 247.169 2102.46 250.271 Q2098.99 253.35 2092.67 253.35 Q2090.49 253.35 2088.22 252.979 Q2085.98 252.609 2083.57 251.868 L2083.57 247.169 Q2085.66 248.303 2087.88 248.859 Q2090.1 249.414 2092.58 249.414 Q2096.58 249.414 2098.92 247.308 Q2101.26 245.202 2101.26 241.59 Q2101.26 237.979 2098.92 235.873 Q2096.58 233.766 2092.58 233.766 Q2090.7 233.766 2088.83 234.183 Q2086.97 234.6 2085.03 235.479 L2085.03 218.118 Z" fill="#000000" fill-rule="nonzero" fill-opacity="1" /><path clip-path="url(#clip150)" d="M2115.15 246.799 L2120.03 246.799 L2120.03 252.678 L2115.15 252.678 L2115.15 246.799 Z" fill="#000000" fill-rule="nonzero" fill-opacity="1" /><path clip-path="url(#clip150)" d="M2140.22 221.197 Q2136.6 221.197 2134.78 224.762 Q2132.97 228.303 2132.97 235.433 Q2132.97 242.54 2134.78 246.104 Q2136.6 249.646 2140.22 249.646 Q2143.85 249.646 2145.65 246.104 Q2147.48 242.54 2147.48 235.433 Q2147.48 228.303 2145.65 224.762 Q2143.85 221.197 2140.22 221.197 M2140.22 217.493 Q2146.03 217.493 2149.08 222.1 Q2152.16 226.683 2152.16 235.433 Q2152.16 244.16 2149.08 248.766 Q2146.03 253.35 2140.22 253.35 Q2134.4 253.35 2131.33 248.766 Q2128.27 244.16 2128.27 235.433 Q2128.27 226.683 2131.33 222.1 Q2134.4 217.493 2140.22 217.493 Z" fill="#000000" fill-rule="nonzero" fill-opacity="1" /><path clip-path="url(#clip150)" d="M2160.86 246.799 L2165.75 246.799 L2165.75 250.78 L2161.95 258.188 L2158.96 258.188 L2160.86 250.78 L2160.86 246.799 Z" fill="#000000" fill-rule="nonzero" fill-opacity="1" /><path clip-path="url(#clip150)" d="M2202.39 258.465 L2198.94 249.6 L2191.84 262.563 L2186.81 262.563 L2196.86 244.229 L2192.65 233.327 Q2191.51 230.41 2187.95 230.41 L2186.81 230.41 L2186.81 226.753 L2188.43 226.799 Q2194.4 226.961 2195.91 230.827 L2199.34 239.692 L2206.44 226.729 L2211.46 226.729 L2201.42 245.063 L2205.63 255.965 Q2206.77 258.882 2210.33 258.882 L2211.46 258.882 L2211.46 262.539 L2209.84 262.493 Q2203.87 262.331 2202.39 258.465 Z" fill="#000000" fill-rule="nonzero" fill-opacity="1" /><path clip-path="url(#clip150)" d="M2217.85 231.151 L2247.53 231.151 L2247.53 235.04 L2217.85 235.04 L2217.85 231.151 M2217.85 240.595 L2247.53 240.595 L2247.53 244.53 L2217.85 244.53 L2217.85 240.595 Z" fill="#000000" fill-rule="nonzero" fill-opacity="1" /><path clip-path="url(#clip150)" d="M2254.87 237.794 L2267.34 237.794 L2267.34 241.59 L2254.87 241.59 L2254.87 237.794 Z" fill="#000000" fill-rule="nonzero" fill-opacity="1" /><path clip-path="url(#clip150)" d="M2284.73 221.197 Q2281.12 221.197 2279.29 224.762 Q2277.48 228.303 2277.48 235.433 Q2277.48 242.54 2279.29 246.104 Q2281.12 249.646 2284.73 249.646 Q2288.36 249.646 2290.17 246.104 Q2292 242.54 2292 235.433 Q2292 228.303 2290.17 224.762 Q2288.36 221.197 2284.73 221.197 M2284.73 217.493 Q2290.54 217.493 2293.59 222.1 Q2296.67 226.683 2296.67 235.433 Q2296.67 244.16 2293.59 248.766 Q2290.54 253.35 2284.73 253.35 Q2278.92 253.35 2275.84 248.766 Q2272.78 244.16 2272.78 235.433 Q2272.78 226.683 2275.84 222.1 Q2278.92 217.493 2284.73 217.493 Z" fill="#000000" fill-rule="nonzero" fill-opacity="1" /><path clip-path="url(#clip150)" d="M2304.89 246.799 L2309.77 246.799 L2309.77 252.678 L2304.89 252.678 L2304.89 246.799 Z" fill="#000000" fill-rule="nonzero" fill-opacity="1" /><path clip-path="url(#clip150)" d="M2320.01 218.118 L2338.36 218.118 L2338.36 222.054 L2324.29 222.054 L2324.29 230.526 Q2325.31 230.178 2326.33 230.016 Q2327.34 229.831 2328.36 229.831 Q2334.15 229.831 2337.53 233.003 Q2340.91 236.174 2340.91 241.59 Q2340.91 247.169 2337.44 250.271 Q2333.96 253.35 2327.64 253.35 Q2325.47 253.35 2323.2 252.979 Q2320.95 252.609 2318.55 251.868 L2318.55 247.169 Q2320.63 248.303 2322.85 248.859 Q2325.08 249.414 2327.55 249.414 Q2331.56 249.414 2333.89 247.308 Q2336.23 245.202 2336.23 241.59 Q2336.23 237.979 2333.89 235.873 Q2331.56 233.766 2327.55 233.766 Q2325.68 233.766 2323.8 234.183 Q2321.95 234.6 2320.01 235.479 L2320.01 218.118 Z" fill="#000000" fill-rule="nonzero" fill-opacity="1" /><path clip-path="url(#clip150)" d="M2350.61 246.799 L2355.49 246.799 L2355.49 250.78 L2351.7 258.188 L2348.71 258.188 L2350.61 250.78 L2350.61 246.799 Z" fill="#000000" fill-rule="nonzero" fill-opacity="1" /><path clip-path="url(#clip150)" d="M2392.09 249.739 Q2395.14 249.762 2396.97 251.498 Q2398.92 253.327 2398.92 256.104 Q2398.92 258.766 2397.2 260.618 Q2395.35 262.632 2391.58 262.632 Q2391.58 260.896 2391.58 259.137 Q2393.18 259.252 2394.15 258.234 Q2394.89 257.424 2394.89 256.567 Q2394.89 255.34 2394.15 254.322 Q2393.43 253.35 2392.09 253.35 Q2377.67 253.35 2377.67 243.234 Q2377.67 236.29 2385.38 234.253 Q2378.89 233.419 2378.89 227.401 Q2378.89 222.841 2383.99 220.942 L2379.17 220.942 L2379.17 216.66 L2397.44 216.66 L2397.44 220.942 Q2382.88 220.942 2382.88 227.678 Q2382.88 232.1 2395.1 232.308 L2395.1 236.243 Q2381.9 235.734 2381.95 243.234 Q2381.97 249.507 2392.09 249.739 Z" fill="#000000" fill-rule="nonzero" fill-opacity="1" /><path clip-path="url(#clip150)" d="M2406.65 231.151 L2436.32 231.151 L2436.32 235.04 L2406.65 235.04 L2406.65 231.151 M2406.65 240.595 L2436.32 240.595 L2436.32 244.53 L2406.65 244.53 L2406.65 240.595 Z" fill="#000000" fill-rule="nonzero" fill-opacity="1" /><path clip-path="url(#clip150)" d="M2456.42 221.197 Q2452.81 221.197 2450.98 224.762 Q2449.17 228.303 2449.17 235.433 Q2449.17 242.54 2450.98 246.104 Q2452.81 249.646 2456.42 249.646 Q2460.05 249.646 2461.86 246.104 Q2463.69 242.54 2463.69 235.433 Q2463.69 228.303 2461.86 224.762 Q2460.05 221.197 2456.42 221.197 M2456.42 217.493 Q2462.23 217.493 2465.28 222.1 Q2468.36 226.683 2468.36 235.433 Q2468.36 244.16 2465.28 248.766 Q2462.23 253.35 2456.42 253.35 Q2450.61 253.35 2447.53 248.766 Q2444.47 244.16 2444.47 235.433 Q2444.47 226.683 2447.53 222.1 Q2450.61 217.493 2456.42 217.493 Z" fill="#000000" fill-rule="nonzero" fill-opacity="1" /><path clip-path="url(#clip150)" d="M2476.58 246.799 L2481.46 246.799 L2481.46 252.678 L2476.58 252.678 L2476.58 246.799 Z" fill="#000000" fill-rule="nonzero" fill-opacity="1" /><path clip-path="url(#clip150)" d="M2504.5 222.192 L2492.69 240.641 L2504.5 240.641 L2504.5 222.192 M2503.27 218.118 L2509.15 218.118 L2509.15 240.641 L2514.08 240.641 L2514.08 244.53 L2509.15 244.53 L2509.15 252.678 L2504.5 252.678 L2504.5 244.53 L2488.89 244.53 L2488.89 240.016 L2503.27 218.118 Z" fill="#000000" fill-rule="nonzero" fill-opacity="1" /><path clip-path="url(#clip150)" d="M2520.54 216.706 L2524.24 216.706 Q2527.71 222.169 2529.43 227.401 Q2531.16 232.632 2531.16 237.794 Q2531.16 242.979 2529.43 248.234 Q2527.71 253.489 2524.24 258.928 L2520.54 258.928 Q2523.62 253.627 2525.12 248.396 Q2526.65 243.141 2526.65 237.794 Q2526.65 232.447 2525.12 227.239 Q2523.62 222.03 2520.54 216.706 Z" fill="#000000" fill-rule="nonzero" fill-opacity="1" /></svg>
