<?xml version="1.0" encoding="utf-8"?>
<svg xmlns="http://www.w3.org/2000/svg" xmlns:xlink="http://www.w3.org/1999/xlink" width="672" height="480" viewBox="0 0 2688 1920">
<defs>
  <clipPath id="clip300">
    <rect x="0" y="0" width="2688" height="1920"/>
  </clipPath>
</defs>
<path clip-path="url(#clip300)" d="M0 1920 L2688 1920 L2688 0 L0 0  Z" fill="#ffffff" fill-rule="evenodd" fill-opacity="1"/>
<defs>
  <clipPath id="clip301">
    <rect x="537" y="0" width="1883" height="1883"/>
  </clipPath>
</defs>
<path clip-path="url(#clip300)" d="M189.154 1800.78 L2640.76 1800.78 L2640.76 127.792 L189.154 127.792  Z" fill="#ffffff" fill-rule="evenodd" fill-opacity="1"/>
<defs>
  <clipPath id="clip302">
    <rect x="189" y="127" width="2453" height="1674"/>
  </clipPath>
</defs>
<polyline clip-path="url(#clip302)" style="stroke:#000000; stroke-linecap:round; stroke-linejoin:round; stroke-width:2; stroke-opacity:0.1; fill:none" points="704.255,1800.78 704.255,127.792 "/>
<polyline clip-path="url(#clip302)" style="stroke:#000000; stroke-linecap:round; stroke-linejoin:round; stroke-width:2; stroke-opacity:0.1; fill:none" points="1318.14,1800.78 1318.14,127.792 "/>
<polyline clip-path="url(#clip302)" style="stroke:#000000; stroke-linecap:round; stroke-linejoin:round; stroke-width:2; stroke-opacity:0.1; fill:none" points="1932.02,1800.78 1932.02,127.792 "/>
<polyline clip-path="url(#clip302)" style="stroke:#000000; stroke-linecap:round; stroke-linejoin:round; stroke-width:2; stroke-opacity:0.1; fill:none" points="2545.9,1800.78 2545.9,127.792 "/>
<polyline clip-path="url(#clip300)" style="stroke:#000000; stroke-linecap:round; stroke-linejoin:round; stroke-width:4; stroke-opacity:1; fill:none" points="189.154,1800.78 2640.76,1800.78 "/>
<polyline clip-path="url(#clip300)" style="stroke:#000000; stroke-linecap:round; stroke-linejoin:round; stroke-width:4; stroke-opacity:1; fill:none" points="704.255,1800.78 704.255,1781.88 "/>
<polyline clip-path="url(#clip300)" style="stroke:#000000; stroke-linecap:round; stroke-linejoin:round; stroke-width:4; stroke-opacity:1; fill:none" points="1318.14,1800.78 1318.14,1781.88 "/>
<polyline clip-path="url(#clip300)" style="stroke:#000000; stroke-linecap:round; stroke-linejoin:round; stroke-width:4; stroke-opacity:1; fill:none" points="1932.02,1800.78 1932.02,1781.88 "/>
<polyline clip-path="url(#clip300)" style="stroke:#000000; stroke-linecap:round; stroke-linejoin:round; stroke-width:4; stroke-opacity:1; fill:none" points="2545.9,1800.78 2545.9,1781.88 "/>
<path clip-path="url(#clip300)" d="M658.318 1848.65 L687.993 1848.65 L687.993 1852.59 L658.318 1852.59 L658.318 1848.65 Z" fill="#000000" fill-rule="nonzero" fill-opacity="1" /><path clip-path="url(#clip300)" d="M698.896 1861.55 L706.535 1861.55 L706.535 1835.18 L698.225 1836.85 L698.225 1832.59 L706.489 1830.92 L711.165 1830.92 L711.165 1861.55 L718.804 1861.55 L718.804 1865.48 L698.896 1865.48 L698.896 1861.55 Z" fill="#000000" fill-rule="nonzero" fill-opacity="1" /><path clip-path="url(#clip300)" d="M738.248 1834 Q734.637 1834 732.808 1837.57 Q731.003 1841.11 731.003 1848.24 Q731.003 1855.34 732.808 1858.91 Q734.637 1862.45 738.248 1862.45 Q741.882 1862.45 743.688 1858.91 Q745.516 1855.34 745.516 1848.24 Q745.516 1841.11 743.688 1837.57 Q741.882 1834 738.248 1834 M738.248 1830.3 Q744.058 1830.3 747.114 1834.9 Q750.192 1839.49 750.192 1848.24 Q750.192 1856.96 747.114 1861.57 Q744.058 1866.15 738.248 1866.15 Q732.438 1866.15 729.359 1861.57 Q726.303 1856.96 726.303 1848.24 Q726.303 1839.49 729.359 1834.9 Q732.438 1830.3 738.248 1830.3 Z" fill="#000000" fill-rule="nonzero" fill-opacity="1" /><path clip-path="url(#clip300)" d="M1318.14 1834 Q1314.52 1834 1312.7 1837.57 Q1310.89 1841.11 1310.89 1848.24 Q1310.89 1855.34 1312.7 1858.91 Q1314.52 1862.45 1318.14 1862.45 Q1321.77 1862.45 1323.58 1858.91 Q1325.4 1855.34 1325.4 1848.24 Q1325.4 1841.11 1323.58 1837.57 Q1321.77 1834 1318.14 1834 M1318.14 1830.3 Q1323.95 1830.3 1327 1834.9 Q1330.08 1839.49 1330.08 1848.24 Q1330.08 1856.96 1327 1861.57 Q1323.95 1866.15 1318.14 1866.15 Q1312.33 1866.15 1309.25 1861.57 Q1306.19 1856.96 1306.19 1848.24 Q1306.19 1839.49 1309.25 1834.9 Q1312.33 1830.3 1318.14 1830.3 Z" fill="#000000" fill-rule="nonzero" fill-opacity="1" /><path clip-path="url(#clip300)" d="M1906.7 1861.55 L1914.34 1861.55 L1914.34 1835.18 L1906.03 1836.85 L1906.03 1832.59 L1914.3 1830.92 L1918.97 1830.92 L1918.97 1861.55 L1926.61 1861.55 L1926.61 1865.48 L1906.7 1865.48 L1906.7 1861.55 Z" fill="#000000" fill-rule="nonzero" fill-opacity="1" /><path clip-path="url(#clip300)" d="M1946.06 1834 Q1942.44 1834 1940.62 1837.57 Q1938.81 1841.11 1938.81 1848.24 Q1938.81 1855.34 1940.62 1858.91 Q1942.44 1862.45 1946.06 1862.45 Q1949.69 1862.45 1951.5 1858.91 Q1953.32 1855.34 1953.32 1848.24 Q1953.32 1841.11 1951.5 1837.57 Q1949.69 1834 1946.06 1834 M1946.06 1830.3 Q1951.87 1830.3 1954.92 1834.9 Q1958 1839.49 1958 1848.24 Q1958 1856.96 1954.92 1861.57 Q1951.87 1866.15 1946.06 1866.15 Q1940.25 1866.15 1937.17 1861.57 Q1934.11 1856.96 1934.11 1848.24 Q1934.11 1839.49 1937.17 1834.9 Q1940.25 1830.3 1946.06 1830.3 Z" fill="#000000" fill-rule="nonzero" fill-opacity="1" /><path clip-path="url(#clip300)" d="M2524.67 1861.55 L2540.99 1861.55 L2540.99 1865.48 L2519.05 1865.48 L2519.05 1861.55 Q2521.71 1858.79 2526.29 1854.16 Q2530.9 1849.51 2532.08 1848.17 Q2534.32 1845.65 2535.2 1843.91 Q2536.11 1842.15 2536.11 1840.46 Q2536.11 1837.71 2534.16 1835.97 Q2532.24 1834.23 2529.14 1834.23 Q2526.94 1834.23 2524.48 1835 Q2522.05 1835.76 2519.28 1837.31 L2519.28 1832.59 Q2522.1 1831.46 2524.55 1830.88 Q2527.01 1830.3 2529.05 1830.3 Q2534.42 1830.3 2537.61 1832.98 Q2540.8 1835.67 2540.8 1840.16 Q2540.8 1842.29 2539.99 1844.21 Q2539.21 1846.11 2537.1 1848.7 Q2536.52 1849.37 2533.42 1852.59 Q2530.32 1855.78 2524.67 1861.55 Z" fill="#000000" fill-rule="nonzero" fill-opacity="1" /><path clip-path="url(#clip300)" d="M2560.8 1834 Q2557.19 1834 2555.36 1837.57 Q2553.56 1841.11 2553.56 1848.24 Q2553.56 1855.34 2555.36 1858.91 Q2557.19 1862.45 2560.8 1862.45 Q2564.44 1862.45 2566.24 1858.91 Q2568.07 1855.34 2568.07 1848.24 Q2568.07 1841.11 2566.24 1837.57 Q2564.44 1834 2560.8 1834 M2560.8 1830.3 Q2566.61 1830.3 2569.67 1834.9 Q2572.75 1839.49 2572.75 1848.24 Q2572.75 1856.96 2569.67 1861.57 Q2566.61 1866.15 2560.8 1866.15 Q2554.99 1866.15 2551.92 1861.57 Q2548.86 1856.96 2548.86 1848.24 Q2548.86 1839.49 2551.92 1834.9 Q2554.99 1830.3 2560.8 1830.3 Z" fill="#000000" fill-rule="nonzero" fill-opacity="1" /><polyline clip-path="url(#clip302)" style="stroke:#000000; stroke-linecap:round; stroke-linejoin:round; stroke-width:2; stroke-opacity:0.1; fill:none" points="189.154,1753.43 2640.76,1753.43 "/>
<polyline clip-path="url(#clip302)" style="stroke:#000000; stroke-linecap:round; stroke-linejoin:round; stroke-width:2; stroke-opacity:0.1; fill:none" points="189.154,1358.86 2640.76,1358.86 "/>
<polyline clip-path="url(#clip302)" style="stroke:#000000; stroke-linecap:round; stroke-linejoin:round; stroke-width:2; stroke-opacity:0.1; fill:none" points="189.154,964.286 2640.76,964.286 "/>
<polyline clip-path="url(#clip302)" style="stroke:#000000; stroke-linecap:round; stroke-linejoin:round; stroke-width:2; stroke-opacity:0.1; fill:none" points="189.154,569.713 2640.76,569.713 "/>
<polyline clip-path="url(#clip302)" style="stroke:#000000; stroke-linecap:round; stroke-linejoin:round; stroke-width:2; stroke-opacity:0.1; fill:none" points="189.154,175.141 2640.76,175.141 "/>
<polyline clip-path="url(#clip300)" style="stroke:#000000; stroke-linecap:round; stroke-linejoin:round; stroke-width:4; stroke-opacity:1; fill:none" points="189.154,1800.78 189.154,127.792 "/>
<polyline clip-path="url(#clip300)" style="stroke:#000000; stroke-linecap:round; stroke-linejoin:round; stroke-width:4; stroke-opacity:1; fill:none" points="189.154,1753.43 208.052,1753.43 "/>
<polyline clip-path="url(#clip300)" style="stroke:#000000; stroke-linecap:round; stroke-linejoin:round; stroke-width:4; stroke-opacity:1; fill:none" points="189.154,1358.86 208.052,1358.86 "/>
<polyline clip-path="url(#clip300)" style="stroke:#000000; stroke-linecap:round; stroke-linejoin:round; stroke-width:4; stroke-opacity:1; fill:none" points="189.154,964.286 208.052,964.286 "/>
<polyline clip-path="url(#clip300)" style="stroke:#000000; stroke-linecap:round; stroke-linejoin:round; stroke-width:4; stroke-opacity:1; fill:none" points="189.154,569.713 208.052,569.713 "/>
<polyline clip-path="url(#clip300)" style="stroke:#000000; stroke-linecap:round; stroke-linejoin:round; stroke-width:4; stroke-opacity:1; fill:none" points="189.154,175.141 208.052,175.141 "/>
<path clip-path="url(#clip300)" d="M61.4965 1739.23 Q57.8854 1739.23 56.0567 1742.79 Q54.2512 1746.34 54.2512 1753.47 Q54.2512 1760.57 56.0567 1764.14 Q57.8854 1767.68 61.4965 1767.68 Q65.1307 1767.68 66.9363 1764.14 Q68.765 1760.57 68.765 1753.47 Q68.765 1746.34 66.9363 1742.79 Q65.1307 1739.23 61.4965 1739.23 M61.4965 1735.53 Q67.3067 1735.53 70.3622 1740.13 Q73.4409 1744.72 73.4409 1753.47 Q73.4409 1762.19 70.3622 1766.8 Q67.3067 1771.38 61.4965 1771.38 Q55.6864 1771.38 52.6077 1766.8 Q49.5521 1762.19 49.5521 1753.47 Q49.5521 1744.72 52.6077 1740.13 Q55.6864 1735.53 61.4965 1735.53 Z" fill="#000000" fill-rule="nonzero" fill-opacity="1" /><path clip-path="url(#clip300)" d="M81.6584 1764.83 L86.5427 1764.83 L86.5427 1770.71 L81.6584 1770.71 L81.6584 1764.83 Z" fill="#000000" fill-rule="nonzero" fill-opacity="1" /><path clip-path="url(#clip300)" d="M106.728 1739.23 Q103.117 1739.23 101.288 1742.79 Q99.4824 1746.34 99.4824 1753.47 Q99.4824 1760.57 101.288 1764.14 Q103.117 1767.68 106.728 1767.68 Q110.362 1767.68 112.168 1764.14 Q113.996 1760.57 113.996 1753.47 Q113.996 1746.34 112.168 1742.79 Q110.362 1739.23 106.728 1739.23 M106.728 1735.53 Q112.538 1735.53 115.593 1740.13 Q118.672 1744.72 118.672 1753.47 Q118.672 1762.19 115.593 1766.8 Q112.538 1771.38 106.728 1771.38 Q100.918 1771.38 97.8389 1766.8 Q94.7834 1762.19 94.7834 1753.47 Q94.7834 1744.72 97.8389 1740.13 Q100.918 1735.53 106.728 1735.53 Z" fill="#000000" fill-rule="nonzero" fill-opacity="1" /><path clip-path="url(#clip300)" d="M136.89 1739.23 Q133.279 1739.23 131.45 1742.79 Q129.644 1746.34 129.644 1753.47 Q129.644 1760.57 131.45 1764.14 Q133.279 1767.68 136.89 1767.68 Q140.524 1767.68 142.329 1764.14 Q144.158 1760.57 144.158 1753.47 Q144.158 1746.34 142.329 1742.79 Q140.524 1739.23 136.89 1739.23 M136.89 1735.53 Q142.7 1735.53 145.755 1740.13 Q148.834 1744.72 148.834 1753.47 Q148.834 1762.19 145.755 1766.8 Q142.7 1771.38 136.89 1771.38 Q131.079 1771.38 128.001 1766.8 Q124.945 1762.19 124.945 1753.47 Q124.945 1744.72 128.001 1740.13 Q131.079 1735.53 136.89 1735.53 Z" fill="#000000" fill-rule="nonzero" fill-opacity="1" /><path clip-path="url(#clip300)" d="M62.4919 1344.66 Q58.8808 1344.66 57.0521 1348.22 Q55.2465 1351.76 55.2465 1358.89 Q55.2465 1366 57.0521 1369.56 Q58.8808 1373.11 62.4919 1373.11 Q66.1261 1373.11 67.9317 1369.56 Q69.7604 1366 69.7604 1358.89 Q69.7604 1351.76 67.9317 1348.22 Q66.1261 1344.66 62.4919 1344.66 M62.4919 1340.95 Q68.302 1340.95 71.3576 1345.56 Q74.4363 1350.14 74.4363 1358.89 Q74.4363 1367.62 71.3576 1372.23 Q68.302 1376.81 62.4919 1376.81 Q56.6817 1376.81 53.603 1372.23 Q50.5475 1367.62 50.5475 1358.89 Q50.5475 1350.14 53.603 1345.56 Q56.6817 1340.95 62.4919 1340.95 Z" fill="#000000" fill-rule="nonzero" fill-opacity="1" /><path clip-path="url(#clip300)" d="M82.6538 1370.26 L87.538 1370.26 L87.538 1376.14 L82.6538 1376.14 L82.6538 1370.26 Z" fill="#000000" fill-rule="nonzero" fill-opacity="1" /><path clip-path="url(#clip300)" d="M101.751 1372.2 L118.07 1372.2 L118.07 1376.14 L96.126 1376.14 L96.126 1372.2 Q98.788 1369.45 103.371 1364.82 Q107.978 1360.17 109.158 1358.82 Q111.404 1356.3 112.283 1354.56 Q113.186 1352.8 113.186 1351.12 Q113.186 1348.36 111.242 1346.62 Q109.32 1344.89 106.218 1344.89 Q104.019 1344.89 101.566 1345.65 Q99.1352 1346.42 96.3574 1347.97 L96.3574 1343.24 Q99.1815 1342.11 101.635 1341.53 Q104.089 1340.95 106.126 1340.95 Q111.496 1340.95 114.691 1343.64 Q117.885 1346.32 117.885 1350.81 Q117.885 1352.94 117.075 1354.87 Q116.288 1356.76 114.181 1359.36 Q113.603 1360.03 110.501 1363.24 Q107.399 1366.44 101.751 1372.2 Z" fill="#000000" fill-rule="nonzero" fill-opacity="1" /><path clip-path="url(#clip300)" d="M127.931 1341.58 L146.288 1341.58 L146.288 1345.51 L132.214 1345.51 L132.214 1353.99 Q133.232 1353.64 134.251 1353.48 Q135.269 1353.29 136.288 1353.29 Q142.075 1353.29 145.454 1356.46 Q148.834 1359.63 148.834 1365.05 Q148.834 1370.63 145.362 1373.73 Q141.89 1376.81 135.57 1376.81 Q133.394 1376.81 131.126 1376.44 Q128.88 1376.07 126.473 1375.33 L126.473 1370.63 Q128.556 1371.76 130.779 1372.32 Q133.001 1372.87 135.478 1372.87 Q139.482 1372.87 141.82 1370.77 Q144.158 1368.66 144.158 1365.05 Q144.158 1361.44 141.82 1359.33 Q139.482 1357.23 135.478 1357.23 Q133.603 1357.23 131.728 1357.64 Q129.876 1358.06 127.931 1358.94 L127.931 1341.58 Z" fill="#000000" fill-rule="nonzero" fill-opacity="1" /><path clip-path="url(#clip300)" d="M61.4965 950.084 Q57.8854 950.084 56.0567 953.649 Q54.2512 957.191 54.2512 964.32 Q54.2512 971.427 56.0567 974.992 Q57.8854 978.533 61.4965 978.533 Q65.1307 978.533 66.9363 974.992 Q68.765 971.427 68.765 964.32 Q68.765 957.191 66.9363 953.649 Q65.1307 950.084 61.4965 950.084 M61.4965 946.381 Q67.3067 946.381 70.3622 950.987 Q73.4409 955.57 73.4409 964.32 Q73.4409 973.047 70.3622 977.654 Q67.3067 982.237 61.4965 982.237 Q55.6864 982.237 52.6077 977.654 Q49.5521 973.047 49.5521 964.32 Q49.5521 955.57 52.6077 950.987 Q55.6864 946.381 61.4965 946.381 Z" fill="#000000" fill-rule="nonzero" fill-opacity="1" /><path clip-path="url(#clip300)" d="M81.6584 975.686 L86.5427 975.686 L86.5427 981.566 L81.6584 981.566 L81.6584 975.686 Z" fill="#000000" fill-rule="nonzero" fill-opacity="1" /><path clip-path="url(#clip300)" d="M96.7741 947.006 L115.13 947.006 L115.13 950.941 L101.056 950.941 L101.056 959.413 Q102.075 959.066 103.094 958.904 Q104.112 958.719 105.131 958.719 Q110.918 958.719 114.297 961.89 Q117.677 965.061 117.677 970.478 Q117.677 976.056 114.205 979.158 Q110.732 982.237 104.413 982.237 Q102.237 982.237 99.9685 981.867 Q97.7232 981.496 95.3158 980.756 L95.3158 976.056 Q97.3991 977.191 99.6213 977.746 Q101.844 978.302 104.32 978.302 Q108.325 978.302 110.663 976.195 Q113.001 974.089 113.001 970.478 Q113.001 966.867 110.663 964.76 Q108.325 962.654 104.32 962.654 Q102.445 962.654 100.57 963.07 Q98.7185 963.487 96.7741 964.367 L96.7741 947.006 Z" fill="#000000" fill-rule="nonzero" fill-opacity="1" /><path clip-path="url(#clip300)" d="M136.89 950.084 Q133.279 950.084 131.45 953.649 Q129.644 957.191 129.644 964.32 Q129.644 971.427 131.45 974.992 Q133.279 978.533 136.89 978.533 Q140.524 978.533 142.329 974.992 Q144.158 971.427 144.158 964.32 Q144.158 957.191 142.329 953.649 Q140.524 950.084 136.89 950.084 M136.89 946.381 Q142.7 946.381 145.755 950.987 Q148.834 955.57 148.834 964.32 Q148.834 973.047 145.755 977.654 Q142.7 982.237 136.89 982.237 Q131.079 982.237 128.001 977.654 Q124.945 973.047 124.945 964.32 Q124.945 955.57 128.001 950.987 Q131.079 946.381 136.89 946.381 Z" fill="#000000" fill-rule="nonzero" fill-opacity="1" /><path clip-path="url(#clip300)" d="M62.4919 555.512 Q58.8808 555.512 57.0521 559.077 Q55.2465 562.618 55.2465 569.748 Q55.2465 576.854 57.0521 580.419 Q58.8808 583.961 62.4919 583.961 Q66.1261 583.961 67.9317 580.419 Q69.7604 576.854 69.7604 569.748 Q69.7604 562.618 67.9317 559.077 Q66.1261 555.512 62.4919 555.512 M62.4919 551.808 Q68.302 551.808 71.3576 556.415 Q74.4363 560.998 74.4363 569.748 Q74.4363 578.475 71.3576 583.081 Q68.302 587.665 62.4919 587.665 Q56.6817 587.665 53.603 583.081 Q50.5475 578.475 50.5475 569.748 Q50.5475 560.998 53.603 556.415 Q56.6817 551.808 62.4919 551.808 Z" fill="#000000" fill-rule="nonzero" fill-opacity="1" /><path clip-path="url(#clip300)" d="M82.6538 581.114 L87.538 581.114 L87.538 586.993 L82.6538 586.993 L82.6538 581.114 Z" fill="#000000" fill-rule="nonzero" fill-opacity="1" /><path clip-path="url(#clip300)" d="M96.5426 552.433 L118.765 552.433 L118.765 554.424 L106.218 586.993 L101.334 586.993 L113.14 556.368 L96.5426 556.368 L96.5426 552.433 Z" fill="#000000" fill-rule="nonzero" fill-opacity="1" /><path clip-path="url(#clip300)" d="M127.931 552.433 L146.288 552.433 L146.288 556.368 L132.214 556.368 L132.214 564.841 Q133.232 564.493 134.251 564.331 Q135.269 564.146 136.288 564.146 Q142.075 564.146 145.454 567.317 Q148.834 570.489 148.834 575.905 Q148.834 581.484 145.362 584.586 Q141.89 587.665 135.57 587.665 Q133.394 587.665 131.126 587.294 Q128.88 586.924 126.473 586.183 L126.473 581.484 Q128.556 582.618 130.779 583.174 Q133.001 583.729 135.478 583.729 Q139.482 583.729 141.82 581.623 Q144.158 579.516 144.158 575.905 Q144.158 572.294 141.82 570.188 Q139.482 568.081 135.478 568.081 Q133.603 568.081 131.728 568.498 Q129.876 568.915 127.931 569.794 L127.931 552.433 Z" fill="#000000" fill-rule="nonzero" fill-opacity="1" /><path clip-path="url(#clip300)" d="M52.3067 188.486 L59.9456 188.486 L59.9456 162.12 L51.6354 163.787 L51.6354 159.527 L59.8993 157.861 L64.5752 157.861 L64.5752 188.486 L72.214 188.486 L72.214 192.421 L52.3067 192.421 L52.3067 188.486 Z" fill="#000000" fill-rule="nonzero" fill-opacity="1" /><path clip-path="url(#clip300)" d="M81.6584 186.541 L86.5427 186.541 L86.5427 192.421 L81.6584 192.421 L81.6584 186.541 Z" fill="#000000" fill-rule="nonzero" fill-opacity="1" /><path clip-path="url(#clip300)" d="M106.728 160.94 Q103.117 160.94 101.288 164.504 Q99.4824 168.046 99.4824 175.176 Q99.4824 182.282 101.288 185.847 Q103.117 189.388 106.728 189.388 Q110.362 189.388 112.168 185.847 Q113.996 182.282 113.996 175.176 Q113.996 168.046 112.168 164.504 Q110.362 160.94 106.728 160.94 M106.728 157.236 Q112.538 157.236 115.593 161.842 Q118.672 166.426 118.672 175.176 Q118.672 183.902 115.593 188.509 Q112.538 193.092 106.728 193.092 Q100.918 193.092 97.8389 188.509 Q94.7834 183.902 94.7834 175.176 Q94.7834 166.426 97.8389 161.842 Q100.918 157.236 106.728 157.236 Z" fill="#000000" fill-rule="nonzero" fill-opacity="1" /><path clip-path="url(#clip300)" d="M136.89 160.94 Q133.279 160.94 131.45 164.504 Q129.644 168.046 129.644 175.176 Q129.644 182.282 131.45 185.847 Q133.279 189.388 136.89 189.388 Q140.524 189.388 142.329 185.847 Q144.158 182.282 144.158 175.176 Q144.158 168.046 142.329 164.504 Q140.524 160.94 136.89 160.94 M136.89 157.236 Q142.7 157.236 145.755 161.842 Q148.834 166.426 148.834 175.176 Q148.834 183.902 145.755 188.509 Q142.7 193.092 136.89 193.092 Q131.079 193.092 128.001 188.509 Q124.945 183.902 124.945 175.176 Q124.945 166.426 128.001 161.842 Q131.079 157.236 136.89 157.236 Z" fill="#000000" fill-rule="nonzero" fill-opacity="1" /><path clip-path="url(#clip300)" d="M774.507 12.096 L782.69 12.096 L782.69 72.576 L774.507 72.576 L774.507 12.096 Z" fill="#000000" fill-rule="nonzero" fill-opacity="1" /><path clip-path="url(#clip300)" d="M836.364 45.1919 L836.364 72.576 L828.911 72.576 L828.911 45.4349 Q828.911 38.994 826.399 35.7938 Q823.888 32.5936 818.864 32.5936 Q812.829 32.5936 809.345 36.4419 Q805.861 40.2903 805.861 46.9338 L805.861 72.576 L798.367 72.576 L798.367 27.2059 L805.861 27.2059 L805.861 34.2544 Q808.535 30.163 812.14 28.1376 Q815.786 26.1121 820.525 26.1121 Q828.344 26.1121 832.354 30.9732 Q836.364 35.7938 836.364 45.1919 Z" fill="#000000" fill-rule="nonzero" fill-opacity="1" /><path clip-path="url(#clip300)" d="M845.884 27.2059 L853.783 27.2059 L867.961 65.2844 L882.14 27.2059 L890.039 27.2059 L873.025 72.576 L862.898 72.576 L845.884 27.2059 Z" fill="#000000" fill-rule="nonzero" fill-opacity="1" /><path clip-path="url(#clip300)" d="M939.136 48.0275 L939.136 51.6733 L904.865 51.6733 Q905.351 59.3701 909.483 63.421 Q913.656 67.4314 921.069 67.4314 Q925.363 67.4314 929.373 66.3781 Q933.424 65.3249 937.394 63.2184 L937.394 70.267 Q933.383 71.9684 929.171 72.8596 Q924.958 73.7508 920.623 73.7508 Q909.767 73.7508 903.407 67.4314 Q897.087 61.1119 897.087 50.3365 Q897.087 39.1965 903.083 32.6746 Q909.119 26.1121 919.327 26.1121 Q928.482 26.1121 933.789 32.0264 Q939.136 37.9003 939.136 48.0275 M931.682 45.84 Q931.601 39.7232 928.239 36.0774 Q924.917 32.4315 919.408 32.4315 Q913.169 32.4315 909.402 35.9558 Q905.675 39.4801 905.108 45.8805 L931.682 45.84 Z" fill="#000000" fill-rule="nonzero" fill-opacity="1" /><path clip-path="url(#clip300)" d="M977.66 34.1734 Q976.404 33.4443 974.905 33.1202 Q973.447 32.7556 971.665 32.7556 Q965.345 32.7556 961.942 36.8875 Q958.58 40.9789 958.58 48.6757 L958.58 72.576 L951.086 72.576 L951.086 27.2059 L958.58 27.2059 L958.58 34.2544 Q960.93 30.1225 964.697 28.1376 Q968.464 26.1121 973.852 26.1121 Q974.622 26.1121 975.553 26.2337 Q976.485 26.3147 977.619 26.5172 L977.66 34.1734 Z" fill="#000000" fill-rule="nonzero" fill-opacity="1" /><path clip-path="url(#clip300)" d="M1014.4 28.5427 L1014.4 35.5912 Q1011.24 33.9709 1007.84 33.1607 Q1004.44 32.3505 1000.79 32.3505 Q995.241 32.3505 992.446 34.0519 Q989.691 35.7533 989.691 39.156 Q989.691 41.7486 991.676 43.2475 Q993.661 44.7058 999.656 46.0426 L1002.21 46.6097 Q1010.15 48.3111 1013.47 51.4303 Q1016.83 54.509 1016.83 60.0587 Q1016.83 66.3781 1011.81 70.0644 Q1006.83 73.7508 998.076 73.7508 Q994.431 73.7508 990.461 73.0216 Q986.531 72.3329 982.156 70.9151 L982.156 63.2184 Q986.288 65.3654 990.299 66.4591 Q994.309 67.5124 998.238 67.5124 Q1003.5 67.5124 1006.34 65.73 Q1009.18 63.9071 1009.18 60.6258 Q1009.18 57.5877 1007.11 55.9673 Q1005.08 54.3469 998.157 52.8481 L995.565 52.2405 Q988.638 50.7821 985.559 47.7845 Q982.48 44.7463 982.48 39.4801 Q982.48 33.0797 987.017 29.5959 Q991.554 26.1121 999.899 26.1121 Q1004.03 26.1121 1007.68 26.7198 Q1011.32 27.3274 1014.4 28.5427 Z" fill="#000000" fill-rule="nonzero" fill-opacity="1" /><path clip-path="url(#clip300)" d="M1067.51 48.0275 L1067.51 51.6733 L1033.24 51.6733 Q1033.72 59.3701 1037.86 63.421 Q1042.03 67.4314 1049.44 67.4314 Q1053.74 67.4314 1057.75 66.3781 Q1061.8 65.3249 1065.77 63.2184 L1065.77 70.267 Q1061.76 71.9684 1057.54 72.8596 Q1053.33 73.7508 1049 73.7508 Q1038.14 73.7508 1031.78 67.4314 Q1025.46 61.1119 1025.46 50.3365 Q1025.46 39.1965 1031.46 32.6746 Q1037.49 26.1121 1047.7 26.1121 Q1056.86 26.1121 1062.16 32.0264 Q1067.51 37.9003 1067.51 48.0275 M1060.06 45.84 Q1059.97 39.7232 1056.61 36.0774 Q1053.29 32.4315 1047.78 32.4315 Q1041.54 32.4315 1037.78 35.9558 Q1034.05 39.4801 1033.48 45.8805 L1060.06 45.84 Z" fill="#000000" fill-rule="nonzero" fill-opacity="1" /><path clip-path="url(#clip300)" d="M1110.57 49.9314 Q1110.57 58.1548 1113.93 62.8538 Q1117.34 67.5124 1123.25 67.5124 Q1129.16 67.5124 1132.57 62.8538 Q1135.97 58.1548 1135.97 49.9314 Q1135.97 41.7081 1132.57 37.0496 Q1129.16 32.3505 1123.25 32.3505 Q1117.34 32.3505 1113.93 37.0496 Q1110.57 41.7081 1110.57 49.9314 M1135.97 65.7705 Q1133.62 69.8214 1130.01 71.8063 Q1126.45 73.7508 1121.43 73.7508 Q1113.2 73.7508 1108.02 67.1883 Q1102.87 60.6258 1102.87 49.9314 Q1102.87 39.2371 1108.02 32.6746 Q1113.2 26.1121 1121.43 26.1121 Q1126.45 26.1121 1130.01 28.0971 Q1133.62 30.0415 1135.97 34.0924 L1135.97 27.2059 L1143.42 27.2059 L1143.42 89.8329 L1135.97 89.8329 L1135.97 65.7705 Z" fill="#000000" fill-rule="nonzero" fill-opacity="1" /><path clip-path="url(#clip300)" d="M1158.01 54.671 L1158.01 27.2059 L1165.46 27.2059 L1165.46 54.3874 Q1165.46 60.8284 1167.97 64.0691 Q1170.48 67.2693 1175.51 67.2693 Q1181.54 67.2693 1185.03 63.421 Q1188.55 59.5726 1188.55 52.9291 L1188.55 27.2059 L1196 27.2059 L1196 72.576 L1188.55 72.576 L1188.55 65.6084 Q1185.84 69.7404 1182.23 71.7658 Q1178.67 73.7508 1173.93 73.7508 Q1166.11 73.7508 1162.06 68.8897 Q1158.01 64.0286 1158.01 54.671 M1176.76 26.1121 L1176.76 26.1121 Z" fill="#000000" fill-rule="nonzero" fill-opacity="1" /><path clip-path="url(#clip300)" d="M1231.98 49.7694 Q1222.94 49.7694 1219.46 51.8354 Q1215.97 53.9013 1215.97 58.8839 Q1215.97 62.8538 1218.57 65.2034 Q1221.2 67.5124 1225.7 67.5124 Q1231.89 67.5124 1235.62 63.1374 Q1239.39 58.7219 1239.39 51.4303 L1239.39 49.7694 L1231.98 49.7694 M1246.84 46.6907 L1246.84 72.576 L1239.39 72.576 L1239.39 65.6895 Q1236.84 69.8214 1233.03 71.8063 Q1229.22 73.7508 1223.71 73.7508 Q1216.74 73.7508 1212.61 69.8619 Q1208.52 65.9325 1208.52 59.3701 Q1208.52 51.7138 1213.63 47.825 Q1218.77 43.9361 1228.94 43.9361 L1239.39 43.9361 L1239.39 43.2069 Q1239.39 38.0623 1235.99 35.2672 Q1232.62 32.4315 1226.51 32.4315 Q1222.62 32.4315 1218.93 33.3632 Q1215.25 34.295 1211.84 36.1584 L1211.84 29.2718 Q1215.93 27.692 1219.78 26.9223 Q1223.63 26.1121 1227.28 26.1121 Q1237.12 26.1121 1241.98 31.2163 Q1246.84 36.3204 1246.84 46.6907 Z" fill="#000000" fill-rule="nonzero" fill-opacity="1" /><path clip-path="url(#clip300)" d="M1299.91 45.1919 L1299.91 72.576 L1292.46 72.576 L1292.46 45.4349 Q1292.46 38.994 1289.94 35.7938 Q1287.43 32.5936 1282.41 32.5936 Q1276.37 32.5936 1272.89 36.4419 Q1269.41 40.2903 1269.41 46.9338 L1269.41 72.576 L1261.91 72.576 L1261.91 27.2059 L1269.41 27.2059 L1269.41 34.2544 Q1272.08 30.163 1275.68 28.1376 Q1279.33 26.1121 1284.07 26.1121 Q1291.89 26.1121 1295.9 30.9732 Q1299.91 35.7938 1299.91 45.1919 Z" fill="#000000" fill-rule="nonzero" fill-opacity="1" /><path clip-path="url(#clip300)" d="M1322.15 14.324 L1322.15 27.2059 L1337.5 27.2059 L1337.5 32.9987 L1322.15 32.9987 L1322.15 57.6282 Q1322.15 63.1779 1323.65 64.7578 Q1325.19 66.3376 1329.85 66.3376 L1337.5 66.3376 L1337.5 72.576 L1329.85 72.576 Q1321.22 72.576 1317.94 69.3758 Q1314.65 66.1351 1314.65 57.6282 L1314.65 32.9987 L1309.19 32.9987 L1309.19 27.2059 L1314.65 27.2059 L1314.65 14.324 L1322.15 14.324 Z" fill="#000000" fill-rule="nonzero" fill-opacity="1" /><path clip-path="url(#clip300)" d="M1347.3 27.2059 L1354.76 27.2059 L1354.76 72.576 L1347.3 72.576 L1347.3 27.2059 M1347.3 9.54393 L1354.76 9.54393 L1354.76 18.9825 L1347.3 18.9825 L1347.3 9.54393 Z" fill="#000000" fill-rule="nonzero" fill-opacity="1" /><path clip-path="url(#clip300)" d="M1370.35 9.54393 L1377.81 9.54393 L1377.81 72.576 L1370.35 72.576 L1370.35 9.54393 Z" fill="#000000" fill-rule="nonzero" fill-opacity="1" /><path clip-path="url(#clip300)" d="M1432.21 48.0275 L1432.21 51.6733 L1397.94 51.6733 Q1398.43 59.3701 1402.56 63.421 Q1406.73 67.4314 1414.14 67.4314 Q1418.44 67.4314 1422.45 66.3781 Q1426.5 65.3249 1430.47 63.2184 L1430.47 70.267 Q1426.46 71.9684 1422.25 72.8596 Q1418.03 73.7508 1413.7 73.7508 Q1402.84 73.7508 1396.48 67.4314 Q1390.16 61.1119 1390.16 50.3365 Q1390.16 39.1965 1396.16 32.6746 Q1402.19 26.1121 1412.4 26.1121 Q1421.56 26.1121 1426.86 32.0264 Q1432.21 37.9003 1432.21 48.0275 M1424.76 45.84 Q1424.68 39.7232 1421.31 36.0774 Q1417.99 32.4315 1412.48 32.4315 Q1406.25 32.4315 1402.48 35.9558 Q1398.75 39.4801 1398.18 45.8805 L1424.76 45.84 Z" fill="#000000" fill-rule="nonzero" fill-opacity="1" /><path clip-path="url(#clip300)" d="M1493.79 9.54393 L1493.79 15.7418 L1486.66 15.7418 Q1482.65 15.7418 1481.07 17.3622 Q1479.53 18.9825 1479.53 23.1955 L1479.53 27.2059 L1491.8 27.2059 L1491.8 32.9987 L1479.53 32.9987 L1479.53 72.576 L1472.03 72.576 L1472.03 32.9987 L1464.9 32.9987 L1464.9 27.2059 L1472.03 27.2059 L1472.03 24.0462 Q1472.03 16.471 1475.56 13.0277 Q1479.08 9.54393 1486.74 9.54393 L1493.79 9.54393 Z" fill="#000000" fill-rule="nonzero" fill-opacity="1" /><path clip-path="url(#clip300)" d="M1499.25 54.671 L1499.25 27.2059 L1506.71 27.2059 L1506.71 54.3874 Q1506.71 60.8284 1509.22 64.0691 Q1511.73 67.2693 1516.75 67.2693 Q1522.79 67.2693 1526.27 63.421 Q1529.8 59.5726 1529.8 52.9291 L1529.8 27.2059 L1537.25 27.2059 L1537.25 72.576 L1529.8 72.576 L1529.8 65.6084 Q1527.08 69.7404 1523.48 71.7658 Q1519.91 73.7508 1515.17 73.7508 Q1507.36 73.7508 1503.31 68.8897 Q1499.25 64.0286 1499.25 54.671 M1518.01 26.1121 L1518.01 26.1121 Z" fill="#000000" fill-rule="nonzero" fill-opacity="1" /><path clip-path="url(#clip300)" d="M1590.32 45.1919 L1590.32 72.576 L1582.86 72.576 L1582.86 45.4349 Q1582.86 38.994 1580.35 35.7938 Q1577.84 32.5936 1572.82 32.5936 Q1566.78 32.5936 1563.3 36.4419 Q1559.82 40.2903 1559.82 46.9338 L1559.82 72.576 L1552.32 72.576 L1552.32 27.2059 L1559.82 27.2059 L1559.82 34.2544 Q1562.49 30.163 1566.09 28.1376 Q1569.74 26.1121 1574.48 26.1121 Q1582.3 26.1121 1586.31 30.9732 Q1590.32 35.7938 1590.32 45.1919 Z" fill="#000000" fill-rule="nonzero" fill-opacity="1" /><path clip-path="url(#clip300)" d="M1637.84 28.9478 L1637.84 35.9153 Q1634.68 34.1734 1631.48 33.3227 Q1628.32 32.4315 1625.08 32.4315 Q1617.82 32.4315 1613.81 37.0496 Q1609.8 41.6271 1609.8 49.9314 Q1609.8 58.2358 1613.81 62.8538 Q1617.82 67.4314 1625.08 67.4314 Q1628.32 67.4314 1631.48 66.5807 Q1634.68 65.6895 1637.84 63.9476 L1637.84 70.8341 Q1634.72 72.2924 1631.35 73.0216 Q1628.03 73.7508 1624.27 73.7508 Q1614.02 73.7508 1607.98 67.3098 Q1601.94 60.8689 1601.94 49.9314 Q1601.94 38.832 1608.02 32.472 Q1614.14 26.1121 1624.75 26.1121 Q1628.19 26.1121 1631.48 26.8413 Q1634.76 27.5299 1637.84 28.9478 Z" fill="#000000" fill-rule="nonzero" fill-opacity="1" /><path clip-path="url(#clip300)" d="M1658.17 14.324 L1658.17 27.2059 L1673.52 27.2059 L1673.52 32.9987 L1658.17 32.9987 L1658.17 57.6282 Q1658.17 63.1779 1659.67 64.7578 Q1661.21 66.3376 1665.87 66.3376 L1673.52 66.3376 L1673.52 72.576 L1665.87 72.576 Q1657.24 72.576 1653.96 69.3758 Q1650.68 66.1351 1650.68 57.6282 L1650.68 32.9987 L1645.21 32.9987 L1645.21 27.2059 L1650.68 27.2059 L1650.68 14.324 L1658.17 14.324 Z" fill="#000000" fill-rule="nonzero" fill-opacity="1" /><path clip-path="url(#clip300)" d="M1683.33 27.2059 L1690.78 27.2059 L1690.78 72.576 L1683.33 72.576 L1683.33 27.2059 M1683.33 9.54393 L1690.78 9.54393 L1690.78 18.9825 L1683.33 18.9825 L1683.33 9.54393 Z" fill="#000000" fill-rule="nonzero" fill-opacity="1" /><path clip-path="url(#clip300)" d="M1723.96 32.4315 Q1717.96 32.4315 1714.48 37.1306 Q1711 41.7891 1711 49.9314 Q1711 58.0738 1714.44 62.7728 Q1717.92 67.4314 1723.96 67.4314 Q1729.91 67.4314 1733.4 62.7323 Q1736.88 58.0333 1736.88 49.9314 Q1736.88 41.8701 1733.4 37.1711 Q1729.91 32.4315 1723.96 32.4315 M1723.96 26.1121 Q1733.68 26.1121 1739.23 32.4315 Q1744.78 38.7509 1744.78 49.9314 Q1744.78 61.0714 1739.23 67.4314 Q1733.68 73.7508 1723.96 73.7508 Q1714.2 73.7508 1708.65 67.4314 Q1703.14 61.0714 1703.14 49.9314 Q1703.14 38.7509 1708.65 32.4315 Q1714.2 26.1121 1723.96 26.1121 Z" fill="#000000" fill-rule="nonzero" fill-opacity="1" /><path clip-path="url(#clip300)" d="M1794.85 45.1919 L1794.85 72.576 L1787.4 72.576 L1787.4 45.4349 Q1787.4 38.994 1784.88 35.7938 Q1782.37 32.5936 1777.35 32.5936 Q1771.31 32.5936 1767.83 36.4419 Q1764.35 40.2903 1764.35 46.9338 L1764.35 72.576 L1756.85 72.576 L1756.85 27.2059 L1764.35 27.2059 L1764.35 34.2544 Q1767.02 30.163 1770.62 28.1376 Q1774.27 26.1121 1779.01 26.1121 Q1786.83 26.1121 1790.84 30.9732 Q1794.85 35.7938 1794.85 45.1919 Z" fill="#000000" fill-rule="nonzero" fill-opacity="1" /><path clip-path="url(#clip300)" d="M1853.99 9.62495 Q1848.56 18.942 1845.93 28.0566 Q1843.3 37.1711 1843.3 46.5287 Q1843.3 55.8863 1845.93 65.0818 Q1848.6 74.2369 1853.99 83.5134 L1847.51 83.5134 Q1841.43 73.9938 1838.4 64.7983 Q1835.4 55.6027 1835.4 46.5287 Q1835.4 37.4952 1838.4 28.3401 Q1841.39 19.1851 1847.51 9.62495 L1853.99 9.62495 Z" fill="#000000" fill-rule="nonzero" fill-opacity="1" /><path clip-path="url(#clip300)" d="M1914.07 16.7545 L1914.07 25.383 Q1909.93 21.5346 1905.24 19.6307 Q1900.58 17.7268 1895.31 17.7268 Q1884.94 17.7268 1879.43 24.0867 Q1873.92 30.4061 1873.92 42.3968 Q1873.92 54.3469 1879.43 60.7069 Q1884.94 67.0263 1895.31 67.0263 Q1900.58 67.0263 1905.24 65.1223 Q1909.93 63.2184 1914.07 59.3701 L1914.07 67.9175 Q1909.77 70.8341 1904.95 72.2924 Q1900.17 73.7508 1894.83 73.7508 Q1881.09 73.7508 1873.19 65.3654 Q1865.29 56.9395 1865.29 42.3968 Q1865.29 27.8135 1873.19 19.4281 Q1881.09 11.0023 1894.83 11.0023 Q1900.25 11.0023 1905.03 12.4606 Q1909.85 13.8784 1914.07 16.7545 Z" fill="#000000" fill-rule="nonzero" fill-opacity="1" /><path clip-path="url(#clip300)" d="M1934.89 18.8205 L1934.89 65.8515 L1944.77 65.8515 Q1957.29 65.8515 1963.08 60.1802 Q1968.92 54.509 1968.92 42.2752 Q1968.92 30.1225 1963.08 24.4918 Q1957.29 18.8205 1944.77 18.8205 L1934.89 18.8205 M1926.71 12.096 L1943.52 12.096 Q1961.1 12.096 1969.32 19.4281 Q1977.54 26.7198 1977.54 42.2752 Q1977.54 57.9117 1969.28 65.2439 Q1961.02 72.576 1943.52 72.576 L1926.71 72.576 L1926.71 12.096 Z" fill="#000000" fill-rule="nonzero" fill-opacity="1" /><path clip-path="url(#clip300)" d="M1990.59 12.096 L2025.35 12.096 L2025.35 18.9825 L1998.77 18.9825 L1998.77 36.8065 L2022.75 36.8065 L2022.75 43.6931 L1998.77 43.6931 L1998.77 72.576 L1990.59 72.576 L1990.59 12.096 Z" fill="#000000" fill-rule="nonzero" fill-opacity="1" /><path clip-path="url(#clip300)" d="M2036.81 9.62495 L2043.29 9.62495 Q2049.37 19.1851 2052.36 28.3401 Q2055.4 37.4952 2055.4 46.5287 Q2055.4 55.6027 2052.36 64.7983 Q2049.37 73.9938 2043.29 83.5134 L2036.81 83.5134 Q2042.2 74.2369 2044.83 65.0818 Q2047.5 55.8863 2047.5 46.5287 Q2047.5 37.1711 2044.83 28.0566 Q2042.2 18.942 2036.81 9.62495 Z" fill="#000000" fill-rule="nonzero" fill-opacity="1" /><polyline clip-path="url(#clip302)" style="stroke:#009af9; stroke-linecap:round; stroke-linejoin:round; stroke-width:4; stroke-opacity:1; fill:none" points="258.539,1737.65 438.574,1721.86 547.975,1706.08 628.46,1690.3 693.105,1674.52 747.732,1658.73 795.449,1642.95 838.11,1627.17 876.911,1611.38 912.669,1595.6 945.966,1579.82 977.234,1564.04 1006.8,1548.25 1034.91,1532.47 1061.78,1516.69 1087.56,1500.9 1112.39,1485.12 1136.38,1469.34 1159.62,1453.56 1182.19,1437.77 1204.15,1421.99 1225.56,1406.21 1246.47,1390.42 1266.94,1374.64 1286.98,1358.86 1306.64,1343.08 1325.96,1327.29 1344.94,1311.51 1363.62,1295.73 1382.03,1279.94 1400.17,1264.16 1418.07,1248.38 1435.74,1232.59 1453.21,1216.81 1470.47,1201.03 1487.55,1185.25 1504.45,1169.46 1521.19,1153.68 1537.77,1137.9 1554.21,1122.11 1570.52,1106.33 1586.69,1090.55 1602.75,1074.77 1618.69,1058.98 1634.52,1043.2 1650.25,1027.42 1665.89,1011.63 1681.43,995.852 1696.9,980.069 1712.28,964.286 1727.59,948.503 1742.83,932.72 1758.01,916.937 1773.13,901.154 1788.19,885.371 1803.21,869.588 1818.17,853.805 1833.09,838.023 1847.98,822.24 1862.83,806.457 1877.65,790.674 1892.45,774.891 1907.22,759.108 1921.98,743.325 1936.72,727.542 1951.46,711.759 1966.19,695.976 1980.93,680.194 1995.67,664.411 2010.43,648.628 2025.2,632.845 2039.99,617.062 2054.82,601.279 2069.69,585.496 2084.6,569.713 2099.57,553.93 2114.6,538.147 2129.7,522.365 2144.9,506.582 2160.19,490.799 2175.59,475.016 2191.13,459.233 2206.83,443.45 2222.7,427.667 2238.78,411.884 2255.09,396.101 2271.69,380.318 2288.62,364.536 2305.94,348.753 2323.74,332.97 2342.13,317.187 2361.25,301.404 2381.31,285.621 2402.61,269.838 2425.61,254.055 2451.09,238.272 2480.5,222.49 2517.12,206.707 2571.37,190.924 "/>
<path clip-path="url(#clip300)" d="M270.874 287.238 L1933.92 287.238 L1933.92 183.558 L270.874 183.558  Z" fill="#ffffff" fill-rule="evenodd" fill-opacity="1"/>
<polyline clip-path="url(#clip300)" style="stroke:#000000; stroke-linecap:round; stroke-linejoin:round; stroke-width:4; stroke-opacity:1; fill:none" points="270.874,287.238 1933.92,287.238 1933.92,183.558 270.874,183.558 270.874,287.238 "/>
<polyline clip-path="url(#clip300)" style="stroke:#009af9; stroke-linecap:round; stroke-linejoin:round; stroke-width:4; stroke-opacity:1; fill:none" points="298.114,235.398 461.554,235.398 "/>
<path clip-path="url(#clip300)" d="M504.813 221.29 Q499.72 221.29 496.711 225.086 Q493.725 228.882 493.725 235.433 Q493.725 241.961 496.711 245.757 Q499.72 249.553 504.813 249.553 Q509.905 249.553 512.868 245.757 Q515.854 241.961 515.854 235.433 Q515.854 228.882 512.868 225.086 Q509.905 221.29 504.813 221.29 M511.364 252.053 L517.521 258.789 L511.873 258.789 L506.757 253.257 Q505.993 253.303 505.577 253.327 Q505.183 253.35 504.813 253.35 Q497.521 253.35 493.146 248.489 Q488.794 243.604 488.794 235.433 Q488.794 227.239 493.146 222.378 Q497.521 217.493 504.813 217.493 Q512.081 217.493 516.433 222.378 Q520.785 227.239 520.785 235.433 Q520.785 241.452 518.354 245.734 Q515.947 250.016 511.364 252.053 Z" fill="#000000" fill-rule="nonzero" fill-opacity="1" /><path clip-path="url(#clip300)" d="M532.775 221.961 L532.775 248.836 L538.424 248.836 Q545.576 248.836 548.887 245.595 Q552.22 242.354 552.22 235.364 Q552.22 228.419 548.887 225.202 Q545.576 221.961 538.424 221.961 L532.775 221.961 M528.1 218.118 L537.706 218.118 Q547.752 218.118 552.451 222.308 Q557.15 226.475 557.15 235.364 Q557.15 244.299 552.428 248.489 Q547.706 252.678 537.706 252.678 L528.1 252.678 L528.1 218.118 Z" fill="#000000" fill-rule="nonzero" fill-opacity="1" /><path clip-path="url(#clip300)" d="M564.419 226.753 L568.678 226.753 L568.678 252.678 L564.419 252.678 L564.419 226.753 M564.419 216.66 L568.678 216.66 L568.678 222.054 L564.419 222.054 L564.419 216.66 Z" fill="#000000" fill-rule="nonzero" fill-opacity="1" /><path clip-path="url(#clip300)" d="M594.118 227.516 L594.118 231.544 Q592.312 230.618 590.368 230.155 Q588.423 229.692 586.34 229.692 Q583.169 229.692 581.572 230.665 Q579.997 231.637 579.997 233.581 Q579.997 235.063 581.132 235.919 Q582.266 236.753 585.692 237.516 L587.15 237.84 Q591.687 238.813 593.585 240.595 Q595.507 242.354 595.507 245.526 Q595.507 249.137 592.636 251.243 Q589.789 253.35 584.789 253.35 Q582.706 253.35 580.437 252.933 Q578.192 252.539 575.692 251.729 L575.692 247.331 Q578.053 248.558 580.345 249.183 Q582.636 249.785 584.882 249.785 Q587.891 249.785 589.511 248.766 Q591.132 247.725 591.132 245.85 Q591.132 244.114 589.951 243.188 Q588.794 242.262 584.835 241.405 L583.354 241.058 Q579.396 240.225 577.636 238.512 Q575.877 236.776 575.877 233.766 Q575.877 230.109 578.47 228.118 Q581.062 226.128 585.831 226.128 Q588.192 226.128 590.275 226.475 Q592.358 226.822 594.118 227.516 Z" fill="#000000" fill-rule="nonzero" fill-opacity="1" /><path clip-path="url(#clip300)" d="M606.502 219.392 L606.502 226.753 L615.275 226.753 L615.275 230.063 L606.502 230.063 L606.502 244.137 Q606.502 247.308 607.358 248.211 Q608.238 249.114 610.9 249.114 L615.275 249.114 L615.275 252.678 L610.9 252.678 Q605.97 252.678 604.095 250.85 Q602.22 248.998 602.22 244.137 L602.22 230.063 L599.095 230.063 L599.095 226.753 L602.22 226.753 L602.22 219.392 L606.502 219.392 Z" fill="#000000" fill-rule="nonzero" fill-opacity="1" /><path clip-path="url(#clip300)" d="M635.9 230.734 Q635.182 230.317 634.326 230.132 Q633.493 229.924 632.474 229.924 Q628.863 229.924 626.918 232.285 Q624.997 234.623 624.997 239.021 L624.997 252.678 L620.715 252.678 L620.715 226.753 L624.997 226.753 L624.997 230.78 Q626.34 228.419 628.493 227.285 Q630.645 226.128 633.724 226.128 Q634.164 226.128 634.696 226.197 Q635.229 226.243 635.877 226.359 L635.9 230.734 Z" fill="#000000" fill-rule="nonzero" fill-opacity="1" /><path clip-path="url(#clip300)" d="M640.367 226.753 L644.627 226.753 L644.627 252.678 L640.367 252.678 L640.367 226.753 M640.367 216.66 L644.627 216.66 L644.627 222.054 L640.367 222.054 L640.367 216.66 Z" fill="#000000" fill-rule="nonzero" fill-opacity="1" /><path clip-path="url(#clip300)" d="M672.15 239.739 Q672.15 235.04 670.205 232.378 Q668.284 229.692 664.904 229.692 Q661.525 229.692 659.58 232.378 Q657.659 235.04 657.659 239.739 Q657.659 244.438 659.58 247.123 Q661.525 249.785 664.904 249.785 Q668.284 249.785 670.205 247.123 Q672.15 244.438 672.15 239.739 M657.659 230.688 Q659.002 228.373 661.039 227.262 Q663.099 226.128 665.946 226.128 Q670.668 226.128 673.608 229.878 Q676.571 233.628 676.571 239.739 Q676.571 245.85 673.608 249.6 Q670.668 253.35 665.946 253.35 Q663.099 253.35 661.039 252.239 Q659.002 251.104 657.659 248.789 L657.659 252.678 L653.377 252.678 L653.377 216.66 L657.659 216.66 L657.659 230.688 Z" fill="#000000" fill-rule="nonzero" fill-opacity="1" /><path clip-path="url(#clip300)" d="M683.191 242.447 L683.191 226.753 L687.451 226.753 L687.451 242.285 Q687.451 245.965 688.886 247.817 Q690.321 249.646 693.191 249.646 Q696.64 249.646 698.631 247.447 Q700.645 245.248 700.645 241.452 L700.645 226.753 L704.904 226.753 L704.904 252.678 L700.645 252.678 L700.645 248.697 Q699.094 251.058 697.034 252.215 Q694.997 253.35 692.289 253.35 Q687.821 253.35 685.506 250.572 Q683.191 247.794 683.191 242.447 M693.909 226.128 L693.909 226.128 Z" fill="#000000" fill-rule="nonzero" fill-opacity="1" /><path clip-path="url(#clip300)" d="M717.89 219.392 L717.89 226.753 L726.663 226.753 L726.663 230.063 L717.89 230.063 L717.89 244.137 Q717.89 247.308 718.747 248.211 Q719.626 249.114 722.288 249.114 L726.663 249.114 L726.663 252.678 L722.288 252.678 Q717.358 252.678 715.483 250.85 Q713.608 248.998 713.608 244.137 L713.608 230.063 L710.483 230.063 L710.483 226.753 L713.608 226.753 L713.608 219.392 L717.89 219.392 Z" fill="#000000" fill-rule="nonzero" fill-opacity="1" /><path clip-path="url(#clip300)" d="M732.265 226.753 L736.524 226.753 L736.524 252.678 L732.265 252.678 L732.265 226.753 M732.265 216.66 L736.524 216.66 L736.524 222.054 L732.265 222.054 L732.265 216.66 Z" fill="#000000" fill-rule="nonzero" fill-opacity="1" /><path clip-path="url(#clip300)" d="M755.483 229.739 Q752.057 229.739 750.066 232.424 Q748.075 235.086 748.075 239.739 Q748.075 244.391 750.043 247.077 Q752.034 249.739 755.483 249.739 Q758.885 249.739 760.876 247.053 Q762.867 244.368 762.867 239.739 Q762.867 235.132 760.876 232.447 Q758.885 229.739 755.483 229.739 M755.483 226.128 Q761.038 226.128 764.209 229.739 Q767.381 233.35 767.381 239.739 Q767.381 246.104 764.209 249.739 Q761.038 253.35 755.483 253.35 Q749.904 253.35 746.733 249.739 Q743.585 246.104 743.585 239.739 Q743.585 233.35 746.733 229.739 Q749.904 226.128 755.483 226.128 Z" fill="#000000" fill-rule="nonzero" fill-opacity="1" /><path clip-path="url(#clip300)" d="M795.992 237.03 L795.992 252.678 L791.732 252.678 L791.732 237.169 Q791.732 233.489 790.297 231.66 Q788.862 229.831 785.992 229.831 Q782.543 229.831 780.552 232.03 Q778.561 234.229 778.561 238.026 L778.561 252.678 L774.279 252.678 L774.279 226.753 L778.561 226.753 L778.561 230.78 Q780.089 228.442 782.149 227.285 Q784.232 226.128 786.941 226.128 Q791.408 226.128 793.7 228.905 Q795.992 231.66 795.992 237.03 Z" fill="#000000" fill-rule="nonzero" fill-opacity="1" /><path clip-path="url(#clip300)" d="M821.015 227.516 L821.015 231.544 Q819.209 230.618 817.265 230.155 Q815.32 229.692 813.237 229.692 Q810.066 229.692 808.468 230.665 Q806.894 231.637 806.894 233.581 Q806.894 235.063 808.029 235.919 Q809.163 236.753 812.589 237.516 L814.047 237.84 Q818.584 238.813 820.482 240.595 Q822.404 242.354 822.404 245.526 Q822.404 249.137 819.533 251.243 Q816.686 253.35 811.686 253.35 Q809.603 253.35 807.334 252.933 Q805.089 252.539 802.589 251.729 L802.589 247.331 Q804.95 248.558 807.242 249.183 Q809.533 249.785 811.779 249.785 Q814.788 249.785 816.408 248.766 Q818.029 247.725 818.029 245.85 Q818.029 244.114 816.848 243.188 Q815.691 242.262 811.732 241.405 L810.251 241.058 Q806.293 240.225 804.533 238.512 Q802.774 236.776 802.774 233.766 Q802.774 230.109 805.367 228.118 Q807.959 226.128 812.728 226.128 Q815.089 226.128 817.172 226.475 Q819.255 226.822 821.015 227.516 Z" fill="#000000" fill-rule="nonzero" fill-opacity="1" /><path clip-path="url(#clip300)" d="M829.788 246.799 L834.672 246.799 L834.672 252.678 L829.788 252.678 L829.788 246.799 Z" fill="#000000" fill-rule="nonzero" fill-opacity="1" /><path clip-path="url(#clip300)" d="M844.44 218.118 L864.301 218.118 L864.301 222.054 L849.116 222.054 L849.116 232.239 L862.82 232.239 L862.82 236.174 L849.116 236.174 L849.116 252.678 L844.44 252.678 L844.44 218.118 Z" fill="#000000" fill-rule="nonzero" fill-opacity="1" /><path clip-path="url(#clip300)" d="M895.274 247.748 L895.274 238.465 L887.635 238.465 L887.635 234.623 L899.903 234.623 L899.903 249.461 Q897.195 251.382 893.931 252.377 Q890.667 253.35 886.963 253.35 Q878.862 253.35 874.278 248.627 Q869.718 243.882 869.718 235.433 Q869.718 226.961 874.278 222.239 Q878.862 217.493 886.963 217.493 Q890.343 217.493 893.375 218.327 Q896.431 219.16 899 220.78 L899 225.757 Q896.408 223.558 893.491 222.447 Q890.574 221.336 887.357 221.336 Q881.014 221.336 877.82 224.878 Q874.649 228.419 874.649 235.433 Q874.649 242.424 877.82 245.965 Q881.014 249.507 887.357 249.507 Q889.834 249.507 891.778 249.09 Q893.723 248.651 895.274 247.748 Z" fill="#000000" fill-rule="nonzero" fill-opacity="1" /><path clip-path="url(#clip300)" d="M908.445 218.118 L913.121 218.118 L913.121 248.743 L929.949 248.743 L929.949 252.678 L908.445 252.678 L908.445 218.118 Z" fill="#000000" fill-rule="nonzero" fill-opacity="1" /><path clip-path="url(#clip300)" d="M939.533 221.961 L939.533 248.836 L945.181 248.836 Q952.333 248.836 955.644 245.595 Q958.977 242.354 958.977 235.364 Q958.977 228.419 955.644 225.202 Q952.333 221.961 945.181 221.961 L939.533 221.961 M934.857 218.118 L944.463 218.118 Q954.509 218.118 959.208 222.308 Q963.907 226.475 963.907 235.364 Q963.907 244.299 959.185 248.489 Q954.463 252.678 944.463 252.678 L934.857 252.678 L934.857 218.118 Z" fill="#000000" fill-rule="nonzero" fill-opacity="1" /><path clip-path="url(#clip300)" d="M990.944 257.076 L990.944 260.41 L989.509 260.41 Q983.745 260.41 981.778 258.697 Q979.833 256.984 979.833 251.868 L979.833 246.336 Q979.833 242.84 978.583 241.498 Q977.333 240.155 974.046 240.155 L972.634 240.155 L972.634 236.845 L974.046 236.845 Q977.356 236.845 978.583 235.526 Q979.833 234.183 979.833 230.734 L979.833 225.179 Q979.833 220.063 981.778 218.373 Q983.745 216.66 989.509 216.66 L990.944 216.66 L990.944 219.97 L989.37 219.97 Q986.106 219.97 985.111 220.989 Q984.116 222.007 984.116 225.271 L984.116 231.012 Q984.116 234.646 983.051 236.29 Q982.009 237.933 979.463 238.512 Q982.032 239.137 983.074 240.78 Q984.116 242.424 984.116 246.035 L984.116 251.776 Q984.116 255.039 985.111 256.058 Q986.106 257.076 989.37 257.076 L990.944 257.076 Z" fill="#000000" fill-rule="nonzero" fill-opacity="1" /><path clip-path="url(#clip300)" d="M1001.52 218.118 L1021.38 218.118 L1021.38 222.054 L1006.2 222.054 L1006.2 232.239 L1019.9 232.239 L1019.9 236.174 L1006.2 236.174 L1006.2 252.678 L1001.52 252.678 L1001.52 218.118 Z" fill="#000000" fill-rule="nonzero" fill-opacity="1" /><path clip-path="url(#clip300)" d="M1028.61 216.66 L1032.87 216.66 L1032.87 252.678 L1028.61 252.678 L1028.61 216.66 Z" fill="#000000" fill-rule="nonzero" fill-opacity="1" /><path clip-path="url(#clip300)" d="M1051.82 229.739 Q1048.4 229.739 1046.41 232.424 Q1044.42 235.086 1044.42 239.739 Q1044.42 244.391 1046.38 247.077 Q1048.37 249.739 1051.82 249.739 Q1055.23 249.739 1057.22 247.053 Q1059.21 244.368 1059.21 239.739 Q1059.21 235.132 1057.22 232.447 Q1055.23 229.739 1051.82 229.739 M1051.82 226.128 Q1057.38 226.128 1060.55 229.739 Q1063.72 233.35 1063.72 239.739 Q1063.72 246.104 1060.55 249.739 Q1057.38 253.35 1051.82 253.35 Q1046.24 253.35 1043.07 249.739 Q1039.93 246.104 1039.93 239.739 Q1039.93 233.35 1043.07 229.739 Q1046.24 226.128 1051.82 226.128 Z" fill="#000000" fill-rule="nonzero" fill-opacity="1" /><path clip-path="url(#clip300)" d="M1082.56 239.646 Q1077.4 239.646 1075.41 240.827 Q1073.42 242.007 1073.42 244.854 Q1073.42 247.123 1074.9 248.465 Q1076.41 249.785 1078.98 249.785 Q1082.52 249.785 1084.65 247.285 Q1086.8 244.762 1086.8 240.595 L1086.8 239.646 L1082.56 239.646 M1091.06 237.887 L1091.06 252.678 L1086.8 252.678 L1086.8 248.743 Q1085.34 251.104 1083.17 252.239 Q1080.99 253.35 1077.84 253.35 Q1073.86 253.35 1071.5 251.127 Q1069.16 248.882 1069.16 245.132 Q1069.16 240.757 1072.08 238.535 Q1075.02 236.313 1080.83 236.313 L1086.8 236.313 L1086.8 235.896 Q1086.8 232.956 1084.86 231.359 Q1082.93 229.739 1079.44 229.739 Q1077.22 229.739 1075.11 230.271 Q1073 230.803 1071.06 231.868 L1071.06 227.933 Q1073.4 227.03 1075.6 226.591 Q1077.8 226.128 1079.88 226.128 Q1085.5 226.128 1088.28 229.044 Q1091.06 231.961 1091.06 237.887 Z" fill="#000000" fill-rule="nonzero" fill-opacity="1" /><path clip-path="url(#clip300)" d="M1104.05 219.392 L1104.05 226.753 L1112.82 226.753 L1112.82 230.063 L1104.05 230.063 L1104.05 244.137 Q1104.05 247.308 1104.9 248.211 Q1105.78 249.114 1108.44 249.114 L1112.82 249.114 L1112.82 252.678 L1108.44 252.678 Q1103.51 252.678 1101.64 250.85 Q1099.76 248.998 1099.76 244.137 L1099.76 230.063 L1096.64 230.063 L1096.64 226.753 L1099.76 226.753 L1099.76 219.392 L1104.05 219.392 Z" fill="#000000" fill-rule="nonzero" fill-opacity="1" /><path clip-path="url(#clip300)" d="M1129.6 233.535 Q1126.45 233.535 1124.6 235.688 Q1122.77 237.84 1122.77 241.59 Q1122.77 245.317 1124.6 247.493 Q1126.45 249.646 1129.6 249.646 Q1132.75 249.646 1134.58 247.493 Q1136.43 245.317 1136.43 241.59 Q1136.43 237.84 1134.58 235.688 Q1132.75 233.535 1129.6 233.535 M1138.88 218.882 L1138.88 223.141 Q1137.12 222.308 1135.32 221.868 Q1133.54 221.429 1131.78 221.429 Q1127.15 221.429 1124.69 224.554 Q1122.26 227.678 1121.92 233.998 Q1123.28 231.984 1125.34 230.919 Q1127.4 229.831 1129.88 229.831 Q1135.09 229.831 1138.1 233.003 Q1141.13 236.151 1141.13 241.59 Q1141.13 246.915 1137.98 250.132 Q1134.83 253.35 1129.6 253.35 Q1123.61 253.35 1120.43 248.766 Q1117.26 244.16 1117.26 235.433 Q1117.26 227.239 1121.15 222.378 Q1125.04 217.493 1131.59 217.493 Q1133.35 217.493 1135.13 217.841 Q1136.94 218.188 1138.88 218.882 Z" fill="#000000" fill-rule="nonzero" fill-opacity="1" /><path clip-path="url(#clip300)" d="M1162.03 222.192 L1150.23 240.641 L1162.03 240.641 L1162.03 222.192 M1160.8 218.118 L1166.68 218.118 L1166.68 240.641 L1171.61 240.641 L1171.61 244.53 L1166.68 244.53 L1166.68 252.678 L1162.03 252.678 L1162.03 244.53 L1146.43 244.53 L1146.43 240.016 L1160.8 218.118 Z" fill="#000000" fill-rule="nonzero" fill-opacity="1" /><path clip-path="url(#clip300)" d="M1180.2 257.076 L1181.82 257.076 Q1185.06 257.076 1186.04 256.081 Q1187.03 255.086 1187.03 251.776 L1187.03 246.035 Q1187.03 242.424 1188.07 240.78 Q1189.11 239.137 1191.68 238.512 Q1189.11 237.933 1188.07 236.29 Q1187.03 234.646 1187.03 231.012 L1187.03 225.271 Q1187.03 221.984 1186.04 220.989 Q1185.06 219.97 1181.82 219.97 L1180.2 219.97 L1180.2 216.66 L1181.66 216.66 Q1187.42 216.66 1189.35 218.373 Q1191.29 220.063 1191.29 225.179 L1191.29 230.734 Q1191.29 234.183 1192.54 235.526 Q1193.79 236.845 1197.08 236.845 L1198.51 236.845 L1198.51 240.155 L1197.08 240.155 Q1193.79 240.155 1192.54 241.498 Q1191.29 242.84 1191.29 246.336 L1191.29 251.868 Q1191.29 256.984 1189.35 258.697 Q1187.42 260.41 1181.66 260.41 L1180.2 260.41 L1180.2 257.076 Z" fill="#000000" fill-rule="nonzero" fill-opacity="1" /><path clip-path="url(#clip300)" d="M1219.14 216.706 Q1216.04 222.03 1214.53 227.239 Q1213.03 232.447 1213.03 237.794 Q1213.03 243.141 1214.53 248.396 Q1216.06 253.627 1219.14 258.928 L1215.43 258.928 Q1211.96 253.489 1210.23 248.234 Q1208.51 242.979 1208.51 237.794 Q1208.51 232.632 1210.23 227.401 Q1211.94 222.169 1215.43 216.706 L1219.14 216.706 Z" fill="#000000" fill-rule="nonzero" fill-opacity="1" /><path clip-path="url(#clip300)" d="M1242.52 240.618 L1241.5 235.271 Q1240.46 229.785 1236.34 229.785 Q1233.23 229.785 1231.82 232.331 Q1230.04 235.526 1230.04 239.739 Q1230.04 244.831 1231.78 247.262 Q1233.54 249.739 1236.34 249.739 Q1239.44 249.739 1241.11 244.808 L1242.52 240.618 M1244.9 233.535 L1247.19 226.753 L1250.99 226.753 L1246.24 240.803 L1247.17 245.873 Q1247.38 247.007 1248.19 247.956 Q1249.14 249.067 1249.88 249.067 L1251.92 249.067 L1251.92 252.678 L1249.37 252.678 Q1247.19 252.678 1245.25 250.734 Q1244.3 249.762 1243.91 247.725 Q1242.84 250.294 1240.67 252.308 Q1239.65 253.257 1236.34 253.257 Q1230.9 253.257 1228.26 249.739 Q1225.55 246.104 1225.55 239.739 Q1225.55 232.933 1228.49 229.739 Q1231.75 226.174 1236.34 226.174 Q1243.54 226.174 1244.9 233.535 Z" fill="#000000" fill-rule="nonzero" fill-opacity="1" /><path clip-path="url(#clip300)" d="M1259.21 231.151 L1288.88 231.151 L1288.88 235.04 L1259.21 235.04 L1259.21 231.151 M1259.21 240.595 L1288.88 240.595 L1288.88 244.53 L1259.21 244.53 L1259.21 240.595 Z" fill="#000000" fill-rule="nonzero" fill-opacity="1" /><path clip-path="url(#clip300)" d="M1299.79 248.743 L1307.42 248.743 L1307.42 222.378 L1299.11 224.044 L1299.11 219.785 L1307.38 218.118 L1312.05 218.118 L1312.05 248.743 L1319.69 248.743 L1319.69 252.678 L1299.79 252.678 L1299.79 248.743 Z" fill="#000000" fill-rule="nonzero" fill-opacity="1" /><path clip-path="url(#clip300)" d="M1329.14 246.799 L1334.02 246.799 L1334.02 252.678 L1329.14 252.678 L1329.14 246.799 Z" fill="#000000" fill-rule="nonzero" fill-opacity="1" /><path clip-path="url(#clip300)" d="M1354.21 221.197 Q1350.6 221.197 1348.77 224.762 Q1346.96 228.303 1346.96 235.433 Q1346.96 242.54 1348.77 246.104 Q1350.6 249.646 1354.21 249.646 Q1357.84 249.646 1359.65 246.104 Q1361.47 242.54 1361.47 235.433 Q1361.47 228.303 1359.65 224.762 Q1357.84 221.197 1354.21 221.197 M1354.21 217.493 Q1360.02 217.493 1363.07 222.1 Q1366.15 226.683 1366.15 235.433 Q1366.15 244.16 1363.07 248.766 Q1360.02 253.35 1354.21 253.35 Q1348.4 253.35 1345.32 248.766 Q1342.26 244.16 1342.26 235.433 Q1342.26 226.683 1345.32 222.1 Q1348.4 217.493 1354.21 217.493 Z" fill="#000000" fill-rule="nonzero" fill-opacity="1" /><path clip-path="url(#clip300)" d="M1374.85 246.799 L1379.74 246.799 L1379.74 250.78 L1375.94 258.188 L1372.96 258.188 L1374.85 250.78 L1374.85 246.799 Z" fill="#000000" fill-rule="nonzero" fill-opacity="1" /><path clip-path="url(#clip300)" d="M1408.16 251.081 L1408.16 262.539 L1403.88 262.539 L1403.88 226.915 Q1403.88 216.359 1413.74 216.359 Q1423.79 216.359 1423.79 225.271 Q1423.79 231.614 1419.81 233.928 Q1426.29 236.012 1426.29 242.192 Q1426.29 253.164 1415.13 253.164 Q1410.22 253.164 1408.16 251.081 M1408.16 245.526 Q1410.73 249.53 1415.29 249.53 Q1421.96 249.53 1421.96 242.262 Q1421.96 235.734 1411.22 236.243 L1411.22 232.308 Q1419.62 232.308 1419.62 224.901 Q1419.62 219.831 1414.21 219.831 Q1408.16 219.831 1408.16 227.054 L1408.16 245.526 Z" fill="#000000" fill-rule="nonzero" fill-opacity="1" /><path clip-path="url(#clip300)" d="M1434.72 231.151 L1464.39 231.151 L1464.39 235.04 L1434.72 235.04 L1434.72 231.151 M1434.72 240.595 L1464.39 240.595 L1464.39 244.53 L1434.72 244.53 L1434.72 240.595 Z" fill="#000000" fill-rule="nonzero" fill-opacity="1" /><path clip-path="url(#clip300)" d="M1474.53 218.118 L1492.89 218.118 L1492.89 222.054 L1478.81 222.054 L1478.81 230.526 Q1479.83 230.178 1480.85 230.016 Q1481.87 229.831 1482.89 229.831 Q1488.67 229.831 1492.05 233.003 Q1495.43 236.174 1495.43 241.59 Q1495.43 247.169 1491.96 250.271 Q1488.49 253.35 1482.17 253.35 Q1479.99 253.35 1477.72 252.979 Q1475.48 252.609 1473.07 251.868 L1473.07 247.169 Q1475.15 248.303 1477.38 248.859 Q1479.6 249.414 1482.08 249.414 Q1486.08 249.414 1488.42 247.308 Q1490.76 245.202 1490.76 241.59 Q1490.76 237.979 1488.42 235.873 Q1486.08 233.766 1482.08 233.766 Q1480.2 233.766 1478.33 234.183 Q1476.47 234.6 1474.53 235.479 L1474.53 218.118 Z" fill="#000000" fill-rule="nonzero" fill-opacity="1" /><path clip-path="url(#clip300)" d="M1504.65 246.799 L1509.53 246.799 L1509.53 252.678 L1504.65 252.678 L1504.65 246.799 Z" fill="#000000" fill-rule="nonzero" fill-opacity="1" /><path clip-path="url(#clip300)" d="M1529.71 221.197 Q1526.1 221.197 1524.27 224.762 Q1522.47 228.303 1522.47 235.433 Q1522.47 242.54 1524.27 246.104 Q1526.1 249.646 1529.71 249.646 Q1533.35 249.646 1535.15 246.104 Q1536.98 242.54 1536.98 235.433 Q1536.98 228.303 1535.15 224.762 Q1533.35 221.197 1529.71 221.197 M1529.71 217.493 Q1535.52 217.493 1538.58 222.1 Q1541.66 226.683 1541.66 235.433 Q1541.66 244.16 1538.58 248.766 Q1535.52 253.35 1529.71 253.35 Q1523.9 253.35 1520.83 248.766 Q1517.77 244.16 1517.77 235.433 Q1517.77 226.683 1520.83 222.1 Q1523.9 217.493 1529.71 217.493 Z" fill="#000000" fill-rule="nonzero" fill-opacity="1" /><path clip-path="url(#clip300)" d="M1550.36 246.799 L1555.25 246.799 L1555.25 250.78 L1551.45 258.188 L1548.46 258.188 L1550.36 250.78 L1550.36 246.799 Z" fill="#000000" fill-rule="nonzero" fill-opacity="1" /><path clip-path="url(#clip300)" d="M1598.19 222.655 Q1595.83 221.035 1590.29 221.035 Q1584.44 221.035 1584.44 223.743 Q1584.44 225.873 1590.55 226.984 Q1595.36 227.841 1598.07 230.433 Q1601.36 233.558 1601.36 239.97 Q1601.36 246.104 1598.19 249.715 Q1595.02 253.35 1589.46 253.35 Q1583.93 253.35 1580.73 249.715 Q1577.56 246.104 1577.56 239.739 Q1577.56 235.016 1580.73 231.197 Q1581.96 229.716 1583.7 228.882 Q1580.08 227.054 1580.08 223.79 Q1580.08 217.493 1590.29 217.493 Q1595.41 217.493 1598.19 219.114 L1598.19 222.655 M1586.89 230.04 Q1585.32 230.711 1584.04 232.401 Q1582.05 235.016 1582.05 239.739 Q1582.05 244.438 1584.02 247.077 Q1586.01 249.739 1589.46 249.739 Q1592.86 249.739 1594.85 247.053 Q1596.84 244.368 1596.84 239.97 Q1596.84 235.364 1594.74 233.141 Q1592.49 230.757 1589.58 230.503 Q1588.09 230.364 1586.89 230.04 Z" fill="#000000" fill-rule="nonzero" fill-opacity="1" /><path clip-path="url(#clip300)" d="M1608.97 231.151 L1638.65 231.151 L1638.65 235.04 L1608.97 235.04 L1608.97 231.151 M1608.97 240.595 L1638.65 240.595 L1638.65 244.53 L1608.97 244.53 L1608.97 240.595 Z" fill="#000000" fill-rule="nonzero" fill-opacity="1" /><path clip-path="url(#clip300)" d="M1658.74 221.197 Q1655.13 221.197 1653.3 224.762 Q1651.5 228.303 1651.5 235.433 Q1651.5 242.54 1653.3 246.104 Q1655.13 249.646 1658.74 249.646 Q1662.38 249.646 1664.18 246.104 Q1666.01 242.54 1666.01 235.433 Q1666.01 228.303 1664.18 224.762 Q1662.38 221.197 1658.74 221.197 M1658.74 217.493 Q1664.55 217.493 1667.61 222.1 Q1670.69 226.683 1670.69 235.433 Q1670.69 244.16 1667.61 248.766 Q1664.55 253.35 1658.74 253.35 Q1652.93 253.35 1649.85 248.766 Q1646.8 244.16 1646.8 235.433 Q1646.8 226.683 1649.85 222.1 Q1652.93 217.493 1658.74 217.493 Z" fill="#000000" fill-rule="nonzero" fill-opacity="1" /><path clip-path="url(#clip300)" d="M1678.9 246.799 L1683.79 246.799 L1683.79 252.678 L1678.9 252.678 L1678.9 246.799 Z" fill="#000000" fill-rule="nonzero" fill-opacity="1" /><path clip-path="url(#clip300)" d="M1698 248.743 L1714.32 248.743 L1714.32 252.678 L1692.38 252.678 L1692.38 248.743 Q1695.04 245.989 1699.62 241.359 Q1704.23 236.706 1705.41 235.364 Q1707.65 232.841 1708.53 231.104 Q1709.44 229.345 1709.44 227.655 Q1709.44 224.901 1707.49 223.165 Q1705.57 221.429 1702.47 221.429 Q1700.27 221.429 1697.82 222.192 Q1695.38 222.956 1692.61 224.507 L1692.61 219.785 Q1695.43 218.651 1697.88 218.072 Q1700.34 217.493 1702.38 217.493 Q1707.75 217.493 1710.94 220.179 Q1714.13 222.864 1714.13 227.354 Q1714.13 229.484 1713.32 231.405 Q1712.54 233.303 1710.43 235.896 Q1709.85 236.567 1706.75 239.785 Q1703.65 242.979 1698 248.743 Z" fill="#000000" fill-rule="nonzero" fill-opacity="1" /><path clip-path="url(#clip300)" d="M1724.62 246.799 L1729.51 246.799 L1729.51 250.78 L1725.71 258.188 L1722.72 258.188 L1724.62 250.78 L1724.62 246.799 Z" fill="#000000" fill-rule="nonzero" fill-opacity="1" /><path clip-path="url(#clip300)" d="M1753.63 226.753 L1758.02 226.753 L1758.02 237.516 L1769.2 226.753 L1774.39 226.753 L1764.18 236.521 L1775.99 252.678 L1770.78 252.678 L1761.19 239.299 L1758.02 242.285 L1758.02 252.678 L1753.63 252.678 L1753.63 226.753 Z" fill="#000000" fill-rule="nonzero" fill-opacity="1" /><path clip-path="url(#clip300)" d="M1782.17 231.151 L1811.84 231.151 L1811.84 235.04 L1782.17 235.04 L1782.17 231.151 M1782.17 240.595 L1811.84 240.595 L1811.84 244.53 L1782.17 244.53 L1782.17 240.595 Z" fill="#000000" fill-rule="nonzero" fill-opacity="1" /><path clip-path="url(#clip300)" d="M1836.1 234.044 Q1839.46 234.762 1841.33 237.03 Q1843.23 239.299 1843.23 242.632 Q1843.23 247.748 1839.71 250.549 Q1836.19 253.35 1829.71 253.35 Q1827.54 253.35 1825.22 252.91 Q1822.93 252.493 1820.48 251.637 L1820.48 247.123 Q1822.42 248.257 1824.74 248.836 Q1827.05 249.414 1829.57 249.414 Q1833.97 249.414 1836.26 247.678 Q1838.58 245.942 1838.58 242.632 Q1838.58 239.577 1836.43 237.864 Q1834.3 236.128 1830.48 236.128 L1826.45 236.128 L1826.45 232.285 L1830.66 232.285 Q1834.11 232.285 1835.94 230.919 Q1837.77 229.53 1837.77 226.938 Q1837.77 224.276 1835.87 222.864 Q1834 221.429 1830.48 221.429 Q1828.56 221.429 1826.36 221.845 Q1824.16 222.262 1821.52 223.141 L1821.52 218.975 Q1824.18 218.234 1826.5 217.864 Q1828.83 217.493 1830.89 217.493 Q1836.22 217.493 1839.32 219.924 Q1842.42 222.331 1842.42 226.452 Q1842.42 229.322 1840.78 231.313 Q1839.13 233.28 1836.1 234.044 Z" fill="#000000" fill-rule="nonzero" fill-opacity="1" /><path clip-path="url(#clip300)" d="M1852.1 246.799 L1856.98 246.799 L1856.98 252.678 L1852.1 252.678 L1852.1 246.799 Z" fill="#000000" fill-rule="nonzero" fill-opacity="1" /><path clip-path="url(#clip300)" d="M1877.17 221.197 Q1873.56 221.197 1871.73 224.762 Q1869.92 228.303 1869.92 235.433 Q1869.92 242.54 1871.73 246.104 Q1873.56 249.646 1877.17 249.646 Q1880.8 249.646 1882.61 246.104 Q1884.43 242.54 1884.43 235.433 Q1884.43 228.303 1882.61 224.762 Q1880.8 221.197 1877.17 221.197 M1877.17 217.493 Q1882.98 217.493 1886.03 222.1 Q1889.11 226.683 1889.11 235.433 Q1889.11 244.16 1886.03 248.766 Q1882.98 253.35 1877.17 253.35 Q1871.36 253.35 1868.28 248.766 Q1865.22 244.16 1865.22 235.433 Q1865.22 226.683 1868.28 222.1 Q1871.36 217.493 1877.17 217.493 Z" fill="#000000" fill-rule="nonzero" fill-opacity="1" /><path clip-path="url(#clip300)" d="M1896.06 216.706 L1899.76 216.706 Q1903.23 222.169 1904.94 227.401 Q1906.68 232.632 1906.68 237.794 Q1906.68 242.979 1904.94 248.234 Q1903.23 253.489 1899.76 258.928 L1896.06 258.928 Q1899.13 253.627 1900.64 248.396 Q1902.17 243.141 1902.17 237.794 Q1902.17 232.447 1900.64 227.239 Q1899.13 222.03 1896.06 216.706 Z" fill="#000000" fill-rule="nonzero" fill-opacity="1" /></svg>
